%TF.GenerationSoftware,KiCad,Pcbnew,5.1.0-5.1.0*%
%TF.CreationDate,2019-03-30T09:27:41+01:00*%
%TF.ProjectId,WordClock,576f7264-436c-46f6-936b-2e6b69636164,rev?*%
%TF.SameCoordinates,PX660b0c0PY5f5e100*%
%TF.FileFunction,Copper,L1,Top*%
%TF.FilePolarity,Positive*%
%FSLAX46Y46*%
G04 Gerber Fmt 4.6, Leading zero omitted, Abs format (unit mm)*
G04 Created by KiCad (PCBNEW 5.1.0-5.1.0) date 2019-03-30 09:27:41*
%MOMM*%
%LPD*%
G04 APERTURE LIST*
%ADD10C,0.010000*%
%ADD11C,0.500000*%
G04 APERTURE END LIST*
D10*
G36*
X37796000Y204000D02*
G01*
X204000Y204000D01*
X204000Y3844666D01*
X1855000Y3844666D01*
X1855000Y1177666D01*
X2193667Y1177666D01*
X2193667Y2275876D01*
X2754584Y2287688D01*
X3315500Y2299500D01*
X3315500Y2405017D01*
X6259432Y2405017D01*
X6276055Y2135282D01*
X6310076Y1896033D01*
X6360683Y1711439D01*
X6371589Y1685666D01*
X6491395Y1490197D01*
X6651118Y1320992D01*
X6825807Y1203107D01*
X6871500Y1183622D01*
X7055807Y1147909D01*
X7274965Y1151985D01*
X7492524Y1191714D01*
X7672030Y1262961D01*
X7694795Y1277016D01*
X7869844Y1441795D01*
X8006731Y1674826D01*
X8101386Y1966861D01*
X8149736Y2308650D01*
X8149863Y2310603D01*
X8150959Y2731994D01*
X8095555Y3090350D01*
X7983642Y3385704D01*
X7815210Y3618084D01*
X7764151Y3666449D01*
X7542324Y3812015D01*
X7503265Y3823500D01*
X10977834Y3823500D01*
X10977834Y2828666D01*
X10979077Y2476045D01*
X10983895Y2196505D01*
X10993915Y1978484D01*
X11010767Y1810419D01*
X11036079Y1680748D01*
X11071481Y1577907D01*
X11118602Y1490335D01*
X11178000Y1407827D01*
X11330633Y1276259D01*
X11535978Y1185575D01*
X11770175Y1140529D01*
X12009366Y1145875D01*
X12129350Y1177666D01*
X15782667Y1177666D01*
X16121334Y1177666D01*
X16121334Y2278333D01*
X16529738Y2278333D01*
X17158500Y1178883D01*
X17358258Y1178275D01*
X17558017Y1177666D01*
X16845419Y2360066D01*
X17001959Y2449065D01*
X17166787Y2565794D01*
X17270088Y2703527D01*
X17324497Y2884364D01*
X17339864Y3040101D01*
X17331048Y3285038D01*
X17271985Y3472302D01*
X17155151Y3617317D01*
X17010334Y3715868D01*
X16917405Y3761592D01*
X16822009Y3793100D01*
X16703932Y3813861D01*
X16542961Y3827347D01*
X16318880Y3837028D01*
X16301250Y3837622D01*
X16089672Y3844666D01*
X20397000Y3844666D01*
X20397000Y1177666D01*
X20700703Y1177666D01*
X20686435Y2276665D01*
X20682389Y2608483D01*
X20680240Y2863900D01*
X20680455Y3051171D01*
X20683498Y3178550D01*
X20689835Y3254290D01*
X20699932Y3286645D01*
X20714253Y3283870D01*
X20733264Y3254219D01*
X20740745Y3239748D01*
X20777602Y3164429D01*
X20844830Y3024802D01*
X20936588Y2833090D01*
X21047034Y2601516D01*
X21170325Y2342305D01*
X21265985Y2140750D01*
X21722648Y1177666D01*
X22133873Y1177666D01*
X22133007Y1280130D01*
X25223000Y1280130D01*
X25223000Y1177666D01*
X26662334Y1177666D01*
X29837334Y1177666D01*
X30189575Y1177666D01*
X30164110Y2267750D01*
X30138645Y3357833D01*
X30263782Y3103833D01*
X30320072Y2988404D01*
X30405179Y2812387D01*
X30511479Y2591617D01*
X30631351Y2341929D01*
X30757174Y2079161D01*
X30788442Y2013750D01*
X31187965Y1177666D01*
X31573000Y1177666D01*
X34704461Y1177666D01*
X36229667Y1177666D01*
X36229667Y1474000D01*
X35044334Y1474000D01*
X35044334Y2405333D01*
X36187334Y2405333D01*
X36187334Y2699209D01*
X35065500Y2722833D01*
X35065500Y3527166D01*
X35647584Y3538944D01*
X36229667Y3550722D01*
X36229667Y3846620D01*
X35478250Y3835060D01*
X34726834Y3823500D01*
X34715647Y2500583D01*
X34704461Y1177666D01*
X31573000Y1177666D01*
X31573000Y3844666D01*
X31278096Y3844666D01*
X31266798Y2762358D01*
X31255500Y1680049D01*
X30746146Y2751774D01*
X30236792Y3823500D01*
X30037063Y3836403D01*
X29837334Y3849305D01*
X29837334Y1177666D01*
X26662334Y1177666D01*
X26662334Y1280130D01*
X26655509Y1336051D01*
X26622445Y1370376D01*
X26544253Y1392160D01*
X26402046Y1410459D01*
X26387167Y1412062D01*
X26112000Y1441530D01*
X26112000Y3586626D01*
X26376584Y3599230D01*
X26521070Y3608406D01*
X26600361Y3624250D01*
X26633902Y3655466D01*
X26641141Y3710760D01*
X26641167Y3717666D01*
X26641167Y3823500D01*
X25244167Y3823500D01*
X25244167Y3717666D01*
X25249901Y3659599D01*
X25280068Y3626445D01*
X25354115Y3609502D01*
X25491487Y3600062D01*
X25508750Y3599230D01*
X25773334Y3586626D01*
X25773334Y1441530D01*
X25498167Y1412062D01*
X25349954Y1393649D01*
X25267284Y1372483D01*
X25231271Y1339510D01*
X25223026Y1285674D01*
X25223000Y1280130D01*
X22133007Y1280130D01*
X22122687Y2500583D01*
X22111500Y3823500D01*
X21948489Y3836893D01*
X21785477Y3850286D01*
X21800322Y2770067D01*
X21803305Y2479644D01*
X21804022Y2221038D01*
X21802601Y2005059D01*
X21799173Y1842516D01*
X21793868Y1744219D01*
X21787690Y1719508D01*
X21762950Y1764164D01*
X21706996Y1875204D01*
X21624789Y2042460D01*
X21521289Y2255765D01*
X21401454Y2504952D01*
X21270245Y2779854D01*
X21262132Y2796916D01*
X20764050Y3844666D01*
X20397000Y3844666D01*
X16089672Y3844666D01*
X15782667Y3854887D01*
X15782667Y1177666D01*
X12129350Y1177666D01*
X12216865Y1200854D01*
X12436557Y1329907D01*
X12596432Y1513673D01*
X12654655Y1622166D01*
X12679564Y1684346D01*
X12698644Y1756958D01*
X12712664Y1851637D01*
X12722394Y1980015D01*
X12728604Y2153727D01*
X12732061Y2384404D01*
X12733536Y2683681D01*
X12733737Y2818083D01*
X12734667Y3844666D01*
X12396000Y3844666D01*
X12396000Y2869640D01*
X12394757Y2522656D01*
X12389902Y2249339D01*
X12379747Y2038711D01*
X12362601Y1879795D01*
X12336776Y1761613D01*
X12300583Y1673187D01*
X12252333Y1603539D01*
X12191894Y1543077D01*
X12057617Y1471461D01*
X11883430Y1441120D01*
X11704932Y1455026D01*
X11595347Y1493263D01*
X11515371Y1541343D01*
X11452200Y1600182D01*
X11403676Y1679900D01*
X11367641Y1790621D01*
X11341936Y1942464D01*
X11324404Y2145553D01*
X11312887Y2410007D01*
X11305226Y2745949D01*
X11303349Y2862767D01*
X11288461Y3849368D01*
X11133147Y3836434D01*
X10977834Y3823500D01*
X7503265Y3823500D01*
X7306670Y3881307D01*
X7069345Y3878633D01*
X6842504Y3808299D01*
X6638302Y3674614D01*
X6468895Y3481884D01*
X6346439Y3234416D01*
X6322097Y3155446D01*
X6281639Y2939268D01*
X6261023Y2681069D01*
X6259432Y2405017D01*
X3315500Y2405017D01*
X3315500Y2595833D01*
X2754584Y2607645D01*
X2193667Y2619457D01*
X2193667Y3548333D01*
X3379000Y3548333D01*
X3379000Y3844666D01*
X1855000Y3844666D01*
X204000Y3844666D01*
X204000Y8586000D01*
X1595636Y8586000D01*
X1608901Y8448416D01*
X1622167Y8310833D01*
X1992584Y8298602D01*
X2363000Y8286370D01*
X2363000Y7130907D01*
X2363995Y6826263D01*
X2366802Y6549661D01*
X2371155Y6312305D01*
X2376785Y6125400D01*
X2383425Y6000149D01*
X2390810Y5947758D01*
X2391222Y5947222D01*
X2449318Y5927851D01*
X2552174Y5919049D01*
X2560556Y5919000D01*
X2701667Y5919000D01*
X2701667Y8289666D01*
X3463667Y8289666D01*
X3463667Y8563006D01*
X6097457Y8563006D01*
X6098743Y8502420D01*
X6104599Y8472376D01*
X6116610Y8399352D01*
X6138008Y8254857D01*
X6167036Y8051353D01*
X6201936Y7801298D01*
X6240950Y7517152D01*
X6279640Y7231333D01*
X6328735Y6863880D01*
X6367895Y6571662D01*
X6399463Y6346140D01*
X6425779Y6178778D01*
X6449185Y6061036D01*
X6472021Y5984379D01*
X6496628Y5940267D01*
X6525347Y5920164D01*
X6560520Y5915531D01*
X6604486Y5917831D01*
X6639473Y5919000D01*
X6745267Y5923116D01*
X6803858Y5933392D01*
X6808000Y5937455D01*
X6818235Y5982664D01*
X6846456Y6095162D01*
X6888939Y6260402D01*
X6941959Y6463835D01*
X6973288Y6583038D01*
X7033370Y6811978D01*
X7087802Y7021197D01*
X7131928Y7192663D01*
X7161090Y7308346D01*
X7168037Y7337166D01*
X7182379Y7375975D01*
X7201167Y7372153D01*
X7227914Y7317171D01*
X7266133Y7202500D01*
X7319335Y7019609D01*
X7361909Y6866311D01*
X7443704Y6568602D01*
X7506971Y6342501D01*
X7556377Y6178187D01*
X7596591Y6065842D01*
X7632280Y5995644D01*
X7668111Y5957775D01*
X7708753Y5942415D01*
X7758874Y5939745D01*
X7802150Y5940166D01*
X7970430Y5940166D01*
X8127051Y7146666D01*
X8177319Y7532850D01*
X8217374Y7843241D01*
X8247319Y8086081D01*
X8267256Y8269613D01*
X8277286Y8402080D01*
X8277511Y8491724D01*
X8268034Y8546788D01*
X8248957Y8575516D01*
X8220780Y8586000D01*
X11126000Y8586000D01*
X11126000Y7280722D01*
X11126883Y6956385D01*
X11129383Y6659616D01*
X11133277Y6400919D01*
X11138345Y6190798D01*
X11144362Y6039754D01*
X11151108Y5958290D01*
X11154222Y5947222D01*
X11203835Y5938008D01*
X11323793Y5930053D01*
X11499775Y5923890D01*
X11717463Y5920047D01*
X11916222Y5919000D01*
X12650000Y5919000D01*
X12650000Y6212944D01*
X11485834Y6236500D01*
X11461894Y7189000D01*
X12607667Y7189000D01*
X12607667Y7485333D01*
X11464667Y7485333D01*
X11464667Y8289666D01*
X12650000Y8289666D01*
X12650000Y8586000D01*
X15867334Y8586000D01*
X15867334Y5919000D01*
X17349000Y5919000D01*
X17349000Y6257666D01*
X16206000Y6257666D01*
X16206000Y8586000D01*
X20524000Y8586000D01*
X20524000Y7280722D01*
X20524883Y6956385D01*
X20527383Y6659616D01*
X20531277Y6400919D01*
X20536345Y6190798D01*
X20542362Y6039754D01*
X20549108Y5958290D01*
X20552222Y5947222D01*
X20601835Y5938008D01*
X20721793Y5930053D01*
X20897775Y5923890D01*
X21115463Y5920047D01*
X21314222Y5919000D01*
X22048000Y5919000D01*
X22048000Y6212944D01*
X20883834Y6236500D01*
X20859894Y7189000D01*
X22011031Y7189000D01*
X21997766Y7326583D01*
X21984500Y7464166D01*
X21423584Y7475979D01*
X20862667Y7487791D01*
X20862667Y8289666D01*
X22048000Y8289666D01*
X22048000Y8540611D01*
X24926667Y8540611D01*
X24939516Y8490679D01*
X24975948Y8370365D01*
X25032787Y8189616D01*
X25106857Y7958378D01*
X25194984Y7686597D01*
X25293992Y7384220D01*
X25352384Y7207111D01*
X25778101Y5919000D01*
X26104784Y5919000D01*
X26549527Y7252500D01*
X26994269Y8586000D01*
X30006667Y8586000D01*
X30006667Y5917046D01*
X30758084Y5928606D01*
X31509500Y5940166D01*
X31522766Y6077750D01*
X31536031Y6215333D01*
X30345334Y6215333D01*
X30345334Y7189000D01*
X31446000Y7189000D01*
X31446000Y7485333D01*
X30345334Y7485333D01*
X30345334Y8287277D01*
X31509500Y8310833D01*
X31522766Y8448416D01*
X31536031Y8586000D01*
X34578667Y8586000D01*
X34578667Y5919000D01*
X34873571Y5919000D01*
X34896167Y8088104D01*
X35916555Y5940166D01*
X36293167Y5940166D01*
X36304353Y7263083D01*
X36315540Y8586000D01*
X35962721Y8586000D01*
X35985848Y7495916D01*
X36008975Y6405833D01*
X35907053Y6617500D01*
X35858893Y6717697D01*
X35781038Y6879887D01*
X35680377Y7089710D01*
X35563798Y7332804D01*
X35438192Y7594808D01*
X35384139Y7707583D01*
X34963148Y8586000D01*
X34578667Y8586000D01*
X31536031Y8586000D01*
X30006667Y8586000D01*
X26994269Y8586000D01*
X26633234Y8586000D01*
X26331001Y7622916D01*
X26244116Y7343949D01*
X26164660Y7084857D01*
X26096603Y6858904D01*
X26043913Y6679352D01*
X26010560Y6559461D01*
X26001592Y6522250D01*
X25969475Y6415456D01*
X25934524Y6392825D01*
X25900579Y6454115D01*
X25882543Y6529726D01*
X25862210Y6611242D01*
X25820214Y6759808D01*
X25760603Y6961807D01*
X25687426Y7203621D01*
X25604730Y7471633D01*
X25560331Y7613582D01*
X25476705Y7880405D01*
X25402283Y8119188D01*
X25340607Y8318452D01*
X25295222Y8466720D01*
X25269671Y8552513D01*
X25265334Y8569189D01*
X25227732Y8579722D01*
X25133812Y8585575D01*
X25096000Y8586000D01*
X24989973Y8575935D01*
X24930991Y8550792D01*
X24926667Y8540611D01*
X22048000Y8540611D01*
X22048000Y8586000D01*
X20524000Y8586000D01*
X16206000Y8586000D01*
X15867334Y8586000D01*
X12650000Y8586000D01*
X11126000Y8586000D01*
X8220780Y8586000D01*
X8220382Y8586148D01*
X8182411Y8586929D01*
X8144870Y8586000D01*
X8000072Y8586000D01*
X7972156Y8321416D01*
X7958947Y8196614D01*
X7938679Y8005616D01*
X7913264Y7766415D01*
X7884614Y7497004D01*
X7854641Y7215378D01*
X7851832Y7189000D01*
X7759425Y6321166D01*
X7372075Y7760500D01*
X7040920Y7760500D01*
X6882195Y7167833D01*
X6804518Y6877788D01*
X6746165Y6662170D01*
X6704268Y6513698D01*
X6675959Y6425093D01*
X6658369Y6389073D01*
X6648631Y6398359D01*
X6643876Y6445672D01*
X6641237Y6523730D01*
X6640371Y6554000D01*
X6632842Y6667168D01*
X6615875Y6847402D01*
X6591283Y7077855D01*
X6560881Y7341675D01*
X6526481Y7622015D01*
X6519633Y7675833D01*
X6405834Y8564833D01*
X6243107Y8578209D01*
X6138616Y8582950D01*
X6097457Y8563006D01*
X3463667Y8563006D01*
X3463667Y8586000D01*
X1595636Y8586000D01*
X204000Y8586000D01*
X204000Y11068667D01*
X1685667Y11068667D01*
X1685667Y10908465D01*
X1690884Y10826045D01*
X1716562Y10768695D01*
X1777743Y10727056D01*
X1889470Y10691773D01*
X2066785Y10653488D01*
X2109000Y10645128D01*
X2298221Y10629322D01*
X2524318Y10641448D01*
X2751152Y10677073D01*
X2942580Y10731761D01*
X2992450Y10753547D01*
X3192601Y10888216D01*
X3318344Y11060205D01*
X3374716Y11277553D01*
X3379000Y11370680D01*
X3360593Y11561146D01*
X3299483Y11720640D01*
X3186831Y11857978D01*
X3013803Y11981977D01*
X2771561Y12101451D01*
X2563423Y12184372D01*
X2315274Y12299217D01*
X2148962Y12428947D01*
X2062559Y12576123D01*
X2054135Y12743308D01*
X2076967Y12830683D01*
X2163303Y12956377D01*
X2313583Y13036033D01*
X2519671Y13068038D01*
X2773432Y13050775D01*
X2973964Y13008802D01*
X3105367Y12976585D01*
X3197694Y12957761D01*
X3228286Y12955885D01*
X3295665Y13102290D01*
X3310659Y13205706D01*
X3285916Y13248290D01*
X3171960Y13293131D01*
X3012015Y13327333D01*
X6511667Y13327333D01*
X6511667Y13223602D01*
X6518995Y13165147D01*
X6554055Y13130026D01*
X6636462Y13108011D01*
X6765667Y13091134D01*
X7019667Y13062397D01*
X7019667Y10914333D01*
X6765667Y10914333D01*
X6625069Y10912670D01*
X6549182Y10901029D01*
X6518049Y10869432D01*
X6511714Y10807901D01*
X6511667Y10787333D01*
X6511667Y10660333D01*
X7914291Y10660333D01*
X7910589Y10692508D01*
X10893872Y10692508D01*
X10910718Y10668163D01*
X10951108Y10660810D01*
X11011900Y10661066D01*
X11026221Y10661204D01*
X11189500Y10662076D01*
X11507000Y11231833D01*
X11617601Y11427994D01*
X11714229Y11595017D01*
X11789348Y11720211D01*
X11835420Y11790890D01*
X11845667Y11801929D01*
X11872275Y11766956D01*
X11931769Y11670264D01*
X12016676Y11524563D01*
X12119524Y11342563D01*
X12181192Y11231300D01*
X12495550Y10660333D01*
X12680098Y10660333D01*
X12746314Y10658606D01*
X12794910Y10659465D01*
X12822800Y10671970D01*
X12826901Y10705183D01*
X12804130Y10768164D01*
X12751401Y10869975D01*
X12665631Y11019675D01*
X12543735Y11226327D01*
X12411069Y11450724D01*
X12292810Y11652672D01*
X12191340Y11828611D01*
X12113829Y11965895D01*
X12067444Y12051878D01*
X12057334Y12074745D01*
X12078382Y12117305D01*
X12136442Y12218859D01*
X12223887Y12366460D01*
X12333090Y12547159D01*
X12399943Y12656416D01*
X12519993Y12853103D01*
X12624586Y13026963D01*
X12705443Y13164043D01*
X12754290Y13250390D01*
X12764305Y13270645D01*
X12754275Y13309253D01*
X12677335Y13325844D01*
X12621026Y13327333D01*
X15613334Y13327333D01*
X15613334Y13031000D01*
X16375334Y13031000D01*
X16375334Y10660333D01*
X16714000Y10660333D01*
X16714000Y13031000D01*
X17476000Y13031000D01*
X17476000Y13327333D01*
X20397000Y13327333D01*
X20397000Y10660333D01*
X20735667Y10660333D01*
X20735667Y11932939D01*
X21254250Y11921053D01*
X21772834Y11909166D01*
X21784549Y11284750D01*
X21796264Y10660333D01*
X22132667Y10660333D01*
X25180667Y10660333D01*
X25519334Y10660333D01*
X25519334Y11761000D01*
X25933587Y11761000D01*
X26245044Y11210814D01*
X26556500Y10660628D01*
X26740946Y10660481D01*
X26816660Y10660488D01*
X26868136Y10667171D01*
X26892607Y10690314D01*
X26887311Y10739699D01*
X26849483Y10825110D01*
X26776358Y10956329D01*
X26665172Y11143141D01*
X26551119Y11332294D01*
X26441457Y11519926D01*
X26354053Y11680563D01*
X26295451Y11801252D01*
X26272190Y11869037D01*
X26275128Y11878876D01*
X26410493Y11951580D01*
X26549827Y12067960D01*
X26657421Y12196901D01*
X26675205Y12227510D01*
X26726080Y12390145D01*
X26741235Y12588645D01*
X26722293Y12789810D01*
X26670878Y12960439D01*
X26636458Y13019961D01*
X26535647Y13131262D01*
X26410761Y13212168D01*
X26247367Y13267303D01*
X26031033Y13301291D01*
X25747325Y13318754D01*
X25699250Y13320202D01*
X25435784Y13327333D01*
X30006667Y13327333D01*
X30006667Y10660333D01*
X31530667Y10660333D01*
X31530667Y10956666D01*
X30345334Y10956666D01*
X30345334Y11930333D01*
X31446000Y11930333D01*
X31446000Y12226666D01*
X30345334Y12226666D01*
X30345334Y13031000D01*
X31530667Y13031000D01*
X31530667Y13327333D01*
X34705667Y13327333D01*
X34705667Y12022055D01*
X34706550Y11697718D01*
X34709049Y11400949D01*
X34712944Y11142253D01*
X34718011Y10932131D01*
X34724029Y10781087D01*
X34730775Y10699623D01*
X34733889Y10688555D01*
X34783502Y10679341D01*
X34903459Y10671387D01*
X35079442Y10665223D01*
X35297130Y10661380D01*
X35495889Y10660333D01*
X36229667Y10660333D01*
X36229667Y10954277D01*
X35647584Y10966055D01*
X35065500Y10977833D01*
X35065500Y11909166D01*
X35629006Y11920997D01*
X36192512Y11932827D01*
X36179339Y12069163D01*
X36166167Y12205500D01*
X35605250Y12217312D01*
X35044334Y12229124D01*
X35044334Y13031000D01*
X36229667Y13031000D01*
X36229667Y13327333D01*
X34705667Y13327333D01*
X31530667Y13327333D01*
X30006667Y13327333D01*
X25435784Y13327333D01*
X25180667Y13334238D01*
X25180667Y10660333D01*
X22132667Y10660333D01*
X22132667Y13327333D01*
X21794000Y13327333D01*
X21794000Y12226666D01*
X20735667Y12226666D01*
X20735667Y13327333D01*
X20397000Y13327333D01*
X17476000Y13327333D01*
X15613334Y13327333D01*
X12621026Y13327333D01*
X12455994Y13327333D01*
X12169528Y12840500D01*
X12061908Y12661215D01*
X11968211Y12511869D01*
X11897182Y12405908D01*
X11857563Y12356778D01*
X11853781Y12354931D01*
X11823174Y12390151D01*
X11760097Y12485650D01*
X11673169Y12627683D01*
X11571011Y12802502D01*
X11549334Y12840500D01*
X11274167Y13324804D01*
X11091752Y13326068D01*
X10985393Y13320386D01*
X10929177Y13304573D01*
X10926475Y13295583D01*
X10953049Y13250062D01*
X11015296Y13144988D01*
X11105424Y12993467D01*
X11215643Y12808606D01*
X11288807Y12686082D01*
X11406494Y12486097D01*
X11506944Y12309657D01*
X11582710Y12170307D01*
X11626343Y12081593D01*
X11634000Y12058306D01*
X11613353Y12006769D01*
X11556204Y11895865D01*
X11469748Y11738750D01*
X11361177Y11548578D01*
X11272730Y11397526D01*
X11124742Y11147474D01*
X11016003Y10961329D01*
X10943373Y10829708D01*
X10903709Y10743229D01*
X10893872Y10692508D01*
X7910589Y10692508D01*
X7900895Y10776750D01*
X7888395Y10840578D01*
X7855796Y10876797D01*
X7782560Y10894943D01*
X7648145Y10904547D01*
X7622917Y10905770D01*
X7358334Y10918373D01*
X7358334Y13073333D01*
X7474750Y13073799D01*
X7597989Y13081298D01*
X7739917Y13098887D01*
X7749917Y13100505D01*
X7856587Y13127590D01*
X7901571Y13173067D01*
X7908667Y13227039D01*
X7908667Y13327333D01*
X6511667Y13327333D01*
X3012015Y13327333D01*
X3000725Y13329747D01*
X2799482Y13354361D01*
X2595502Y13363195D01*
X2483800Y13359397D01*
X2209640Y13310009D01*
X1991525Y13208138D01*
X1835261Y13058771D01*
X1746657Y12866899D01*
X1728000Y12709995D01*
X1752001Y12484020D01*
X1829655Y12298921D01*
X1969445Y12144180D01*
X2179851Y12009277D01*
X2359296Y11926916D01*
X2629311Y11809601D01*
X2826221Y11707396D01*
X2958252Y11611870D01*
X3033628Y11514594D01*
X3060574Y11407138D01*
X3047313Y11281072D01*
X3035485Y11233838D01*
X2954996Y11092144D01*
X2809373Y10992473D01*
X2608232Y10937086D01*
X2361188Y10928244D01*
X2077856Y10968207D01*
X1992584Y10988644D01*
X1685667Y11068667D01*
X204000Y11068667D01*
X204000Y18068666D01*
X1855000Y18068666D01*
X1855000Y15401666D01*
X2191209Y15401666D01*
X2203021Y15962583D01*
X2214834Y16523500D01*
X2778339Y16535330D01*
X3341845Y16547160D01*
X3328673Y16683497D01*
X3315500Y16819833D01*
X2754584Y16831645D01*
X2193667Y16843457D01*
X2193667Y17772333D01*
X3379000Y17772333D01*
X3379000Y18068666D01*
X6506043Y18068666D01*
X6519438Y17952250D01*
X6532925Y17886274D01*
X6568302Y17849843D01*
X6647062Y17832150D01*
X6776250Y17823137D01*
X7019667Y17810441D01*
X7019667Y15655666D01*
X6897959Y15655666D01*
X6695784Y15642370D01*
X6569609Y15601267D01*
X6514855Y15530538D01*
X6511667Y15502208D01*
X6511667Y15401666D01*
X7908667Y15401666D01*
X7908667Y15502208D01*
X7878493Y15579797D01*
X7783477Y15629121D01*
X7616877Y15652719D01*
X7501209Y15655666D01*
X7358334Y15655666D01*
X7358334Y17814666D01*
X7566538Y17814666D01*
X7741180Y17821965D01*
X7846642Y17848195D01*
X7897494Y17899860D01*
X7908667Y17967362D01*
X7908667Y18043754D01*
X10829667Y18043754D01*
X10842322Y17998923D01*
X10878223Y17883305D01*
X10934274Y17706576D01*
X11007379Y17478414D01*
X11094444Y17208495D01*
X11192371Y16906497D01*
X11256980Y16708014D01*
X11684294Y15397187D01*
X12029406Y15422833D01*
X12445881Y16671666D01*
X12549870Y16983587D01*
X12645947Y17271968D01*
X12730638Y17526363D01*
X12800466Y17736328D01*
X12851958Y17891416D01*
X12881637Y17981181D01*
X12886860Y17997197D01*
X12891804Y18044362D01*
X12853469Y18063569D01*
X12753125Y18062356D01*
X12729054Y18060697D01*
X12546743Y18047500D01*
X12405569Y17603000D01*
X12341674Y17399848D01*
X12261993Y17143542D01*
X12175154Y16861994D01*
X12089787Y16583119D01*
X12059165Y16482456D01*
X11853935Y15806412D01*
X11803547Y15995623D01*
X11775988Y16092087D01*
X11727753Y16253790D01*
X11663622Y16465223D01*
X11588377Y16710877D01*
X11506799Y16975243D01*
X11423670Y17242811D01*
X11343772Y17498073D01*
X11271886Y17725519D01*
X11226408Y17867583D01*
X11183814Y17987083D01*
X11140989Y18046400D01*
X11073785Y18066571D01*
X10995598Y18068666D01*
X15825000Y18068666D01*
X15825000Y15401666D01*
X17349000Y15401666D01*
X17349000Y15698000D01*
X16163667Y15698000D01*
X16163667Y16626876D01*
X16724584Y16638688D01*
X17285500Y16650500D01*
X17298673Y16786836D01*
X17311845Y16923173D01*
X16748339Y16935003D01*
X16184834Y16946833D01*
X16172717Y17359583D01*
X16160601Y17772333D01*
X17349000Y17772333D01*
X17349000Y18068666D01*
X20560710Y18068666D01*
X20574105Y17952250D01*
X20587591Y17886274D01*
X20622968Y17849843D01*
X20701729Y17832150D01*
X20830917Y17823137D01*
X21074334Y17810441D01*
X21074334Y15655666D01*
X20952625Y15655666D01*
X20750451Y15642370D01*
X20624276Y15601267D01*
X20569522Y15530538D01*
X20566334Y15502208D01*
X20566334Y15401666D01*
X21963334Y15401666D01*
X21963334Y15502208D01*
X21933160Y15579797D01*
X21838144Y15629121D01*
X21671544Y15652719D01*
X21555875Y15655666D01*
X21413000Y15655666D01*
X21413000Y16857412D01*
X25062918Y16857412D01*
X25069025Y16465795D01*
X25129539Y16126070D01*
X25242452Y15842655D01*
X25405757Y15619972D01*
X25617448Y15462439D01*
X25716403Y15418215D01*
X25869942Y15385454D01*
X26073753Y15374561D01*
X26296698Y15384139D01*
X26507643Y15412791D01*
X26675452Y15459120D01*
X26681278Y15461510D01*
X26831667Y15524346D01*
X26831667Y16798666D01*
X26069667Y16798666D01*
X26069667Y16502333D01*
X26493000Y16502333D01*
X26493000Y16120285D01*
X26492020Y15939141D01*
X26485768Y15824441D01*
X26469276Y15757962D01*
X26437576Y15721482D01*
X26385702Y15696778D01*
X26376584Y15693236D01*
X26222278Y15664360D01*
X26036579Y15671755D01*
X25858567Y15710819D01*
X25738430Y15768372D01*
X25653900Y15854173D01*
X25563693Y15982035D01*
X25520025Y16060033D01*
X25469679Y16171887D01*
X25438206Y16280554D01*
X25421352Y16411466D01*
X25414863Y16590057D01*
X25414192Y16692833D01*
X25427625Y17006642D01*
X25471915Y17253747D01*
X25551328Y17447828D01*
X25670126Y17602561D01*
X25709158Y17639061D01*
X25893815Y17755741D01*
X26101289Y17797060D01*
X26340726Y17764308D01*
X26422154Y17739558D01*
X26660328Y17659151D01*
X26708607Y17805439D01*
X26732446Y17899040D01*
X26720780Y17962123D01*
X26660519Y18006507D01*
X26538575Y18044013D01*
X26427107Y18068666D01*
X29837334Y18068666D01*
X29837334Y15401666D01*
X30176000Y15401666D01*
X30176000Y16629333D01*
X31234334Y16629333D01*
X31234334Y15401666D01*
X31573000Y15401666D01*
X31573000Y17772333D01*
X34488636Y17772333D01*
X35256000Y17772333D01*
X35256000Y15401666D01*
X35594667Y15401666D01*
X35594667Y17772333D01*
X36356667Y17772333D01*
X36356667Y18070318D01*
X34515167Y18047500D01*
X34501901Y17909916D01*
X34488636Y17772333D01*
X31573000Y17772333D01*
X31573000Y18068666D01*
X31234334Y18068666D01*
X31234334Y16925666D01*
X30176000Y16925666D01*
X30176000Y18068666D01*
X29837334Y18068666D01*
X26427107Y18068666D01*
X26413868Y18071594D01*
X26115110Y18098114D01*
X25832927Y18054450D01*
X25582546Y17945094D01*
X25379198Y17774537D01*
X25369796Y17763606D01*
X25229053Y17561463D01*
X25134936Y17334824D01*
X25080310Y17062622D01*
X25062918Y16857412D01*
X21413000Y16857412D01*
X21413000Y17814666D01*
X21621204Y17814666D01*
X21795847Y17821965D01*
X21901309Y17848195D01*
X21952161Y17899860D01*
X21963334Y17967362D01*
X21963334Y18068666D01*
X20560710Y18068666D01*
X17349000Y18068666D01*
X15825000Y18068666D01*
X10995598Y18068666D01*
X10890780Y18063030D01*
X10833369Y18048983D01*
X10829667Y18043754D01*
X7908667Y18043754D01*
X7908667Y18068666D01*
X6506043Y18068666D01*
X3379000Y18068666D01*
X1855000Y18068666D01*
X204000Y18068666D01*
X204000Y20134082D01*
X1685667Y20134082D01*
X1980161Y20143000D01*
X6427000Y20143000D01*
X6723334Y20143000D01*
X6723334Y20168213D01*
X10829667Y20168213D01*
X10867180Y20152208D01*
X10960535Y20143519D01*
X10993615Y20143000D01*
X11157564Y20143000D01*
X11280771Y20534583D01*
X11403979Y20926166D01*
X11855947Y20938165D01*
X12307916Y20950163D01*
X12429849Y20557165D01*
X12551782Y20164166D01*
X12732302Y20150934D01*
X12847817Y20149192D01*
X12893616Y20168937D01*
X12892777Y20193267D01*
X12875146Y20245891D01*
X12834604Y20368903D01*
X12816175Y20425070D01*
X15701575Y20425070D01*
X15706028Y20366366D01*
X15723197Y20262491D01*
X15768882Y20204141D01*
X15868463Y20162006D01*
X15888500Y20155623D01*
X16021456Y20130254D01*
X16211734Y20115263D01*
X16432407Y20112642D01*
X16461306Y20113297D01*
X16662783Y20121689D01*
X16805300Y20137632D01*
X16914532Y20166480D01*
X17016158Y20213587D01*
X17059047Y20237930D01*
X17233800Y20372201D01*
X17339896Y20536709D01*
X17384026Y20745502D01*
X17382283Y20916807D01*
X17365621Y21068939D01*
X17333484Y21169854D01*
X17271658Y21252993D01*
X17216830Y21306028D01*
X17111941Y21382010D01*
X16954250Y21472574D01*
X16770394Y21563017D01*
X16679639Y21602498D01*
X16442628Y21706512D01*
X16275558Y21796801D01*
X16167167Y21883605D01*
X16106195Y21977168D01*
X16081377Y22087731D01*
X16079000Y22148739D01*
X16099204Y22306850D01*
X16166204Y22415186D01*
X16289586Y22480384D01*
X16478934Y22509083D01*
X16603293Y22511808D01*
X16782258Y22502567D01*
X16951632Y22480291D01*
X17064517Y22452861D01*
X17168712Y22419826D01*
X17225805Y22425929D01*
X17268036Y22480759D01*
X17285432Y22513666D01*
X20306969Y22513666D01*
X21074334Y22513666D01*
X21074334Y20143000D01*
X21413000Y20143000D01*
X21413000Y21476500D01*
X24997244Y21476500D01*
X25019657Y21073964D01*
X25089078Y20741715D01*
X25205692Y20479497D01*
X25369683Y20287056D01*
X25581238Y20164137D01*
X25840541Y20110486D01*
X25989679Y20109632D01*
X26180204Y20129323D01*
X26226021Y20143000D01*
X29920794Y20143000D01*
X30258137Y20143000D01*
X30269985Y20682750D01*
X30281834Y21222500D01*
X30695231Y21222500D01*
X30982278Y20720288D01*
X31090481Y20533095D01*
X31186208Y20371416D01*
X31260503Y20250095D01*
X31304408Y20183978D01*
X31309577Y20177823D01*
X31374155Y20155485D01*
X31486090Y20148943D01*
X31525104Y20150868D01*
X31700378Y20164166D01*
X31357287Y20735057D01*
X31227933Y20952288D01*
X31138649Y21108784D01*
X31084569Y21215571D01*
X31060832Y21283674D01*
X31062574Y21324118D01*
X31075615Y21338008D01*
X34496015Y21338008D01*
X34500368Y21159188D01*
X34517131Y21012349D01*
X34548641Y20871324D01*
X34571791Y20791075D01*
X34688213Y20516738D01*
X34849311Y20306430D01*
X35050008Y20166641D01*
X35065500Y20159624D01*
X35261576Y20109759D01*
X35491047Y20105447D01*
X35717058Y20144982D01*
X35849714Y20195916D01*
X36058415Y20348139D01*
X36217550Y20567529D01*
X36326338Y20852057D01*
X36384000Y21199694D01*
X36389997Y21603232D01*
X36372088Y21852906D01*
X36341497Y22042940D01*
X36293835Y22197953D01*
X36276804Y22238500D01*
X36124087Y22500033D01*
X35932686Y22688007D01*
X35706098Y22800519D01*
X35447817Y22835667D01*
X35229396Y22808781D01*
X34985099Y22717738D01*
X34792196Y22562752D01*
X34643654Y22337944D01*
X34628721Y22306528D01*
X34578595Y22185194D01*
X34544563Y22064694D01*
X34522551Y21921574D01*
X34508488Y21732376D01*
X34501732Y21574974D01*
X34496015Y21338008D01*
X31075615Y21338008D01*
X31084931Y21347930D01*
X31086517Y21348890D01*
X31278905Y21488125D01*
X31408162Y21646252D01*
X31450389Y21727172D01*
X31518675Y21966684D01*
X31510025Y22198705D01*
X31429169Y22409037D01*
X31280840Y22583480D01*
X31132944Y22679867D01*
X31030880Y22725593D01*
X30930541Y22755735D01*
X30810065Y22773605D01*
X30647589Y22782516D01*
X30434444Y22785700D01*
X29943167Y22788833D01*
X29931980Y21465916D01*
X29920794Y20143000D01*
X26226021Y20143000D01*
X26323976Y20172240D01*
X26440592Y20237141D01*
X26604549Y20392992D01*
X26734678Y20611129D01*
X26829756Y20875699D01*
X26888557Y21170850D01*
X26909856Y21480730D01*
X26892428Y21789487D01*
X26835048Y22081269D01*
X26736491Y22340222D01*
X26617406Y22525133D01*
X26459937Y22682860D01*
X26289970Y22777388D01*
X26082035Y22820058D01*
X25942667Y22825530D01*
X25665231Y22792864D01*
X25436908Y22694173D01*
X25256969Y22528416D01*
X25124685Y22294552D01*
X25039326Y21991542D01*
X25000163Y21618345D01*
X24997244Y21476500D01*
X21413000Y21476500D01*
X21413000Y22513666D01*
X22175000Y22513666D01*
X22175000Y22811651D01*
X20333500Y22788833D01*
X20320235Y22651250D01*
X20306969Y22513666D01*
X17285432Y22513666D01*
X17288497Y22519463D01*
X17325692Y22615582D01*
X17329024Y22680739D01*
X17327776Y22683093D01*
X17258533Y22729516D01*
X17122753Y22769560D01*
X16938513Y22799750D01*
X16723894Y22816616D01*
X16620464Y22818941D01*
X16315339Y22793406D01*
X16073737Y22714192D01*
X15896796Y22581793D01*
X15819412Y22471994D01*
X15750437Y22261334D01*
X15750940Y22038014D01*
X15815435Y21824405D01*
X15938437Y21642883D01*
X16044357Y21554511D01*
X16151700Y21494314D01*
X16307463Y21418405D01*
X16481073Y21341548D01*
X16511458Y21328918D01*
X16678455Y21255588D01*
X16826537Y21182313D01*
X16928591Y21122700D01*
X16942124Y21112808D01*
X17047015Y20983623D01*
X17081633Y20831180D01*
X17048196Y20675964D01*
X16948922Y20538461D01*
X16873805Y20481844D01*
X16721758Y20425359D01*
X16516859Y20398692D01*
X16285739Y20402485D01*
X16055028Y20437380D01*
X15969312Y20460042D01*
X15823045Y20502734D01*
X15740960Y20515154D01*
X15706117Y20491275D01*
X15701575Y20425070D01*
X12816175Y20425070D01*
X12774464Y20552189D01*
X12698039Y20785635D01*
X12608641Y21059125D01*
X12509584Y21362546D01*
X12455154Y21529416D01*
X12037576Y22810000D01*
X11681673Y22810000D01*
X11255670Y21501713D01*
X11152789Y21185009D01*
X11058852Y20894399D01*
X10976954Y20639573D01*
X10910193Y20430223D01*
X10861664Y20276041D01*
X10834464Y20186718D01*
X10829667Y20168213D01*
X6723334Y20168213D01*
X6723334Y21148382D01*
X7072584Y21167389D01*
X7402228Y21208859D01*
X7661380Y21295051D01*
X7852881Y21428373D01*
X7979570Y21611230D01*
X8044288Y21846027D01*
X8054504Y21999055D01*
X8035952Y22245064D01*
X7969895Y22431582D01*
X7847702Y22574333D01*
X7681184Y22679088D01*
X7578251Y22724422D01*
X7470231Y22756000D01*
X7336441Y22777286D01*
X7156202Y22791741D01*
X6951644Y22801220D01*
X6427000Y22821431D01*
X6427000Y20143000D01*
X1980161Y20143000D01*
X2183084Y20149145D01*
X2401232Y20157240D01*
X2556529Y20168865D01*
X2670788Y20188364D01*
X2765819Y20220081D01*
X2863435Y20268361D01*
X2908792Y20293681D01*
X3138785Y20462376D01*
X3307670Y20677678D01*
X3424296Y20951737D01*
X3446615Y21032000D01*
X3497635Y21363835D01*
X3486991Y21693253D01*
X3418407Y22003016D01*
X3295605Y22275882D01*
X3132967Y22484396D01*
X2994140Y22602649D01*
X2846565Y22687232D01*
X2671402Y22744275D01*
X2449809Y22779906D01*
X2162944Y22800256D01*
X2161917Y22800303D01*
X1685667Y22821809D01*
X1685667Y20134082D01*
X204000Y20134082D01*
X204000Y27551333D01*
X1855000Y27551333D01*
X1855000Y26246055D01*
X1855883Y25921718D01*
X1858383Y25624949D01*
X1862277Y25366253D01*
X1867345Y25156131D01*
X1873362Y25005087D01*
X1880108Y24923623D01*
X1883222Y24912555D01*
X1941318Y24893184D01*
X2044174Y24884382D01*
X2052556Y24884333D01*
X2193667Y24884333D01*
X2193667Y26027333D01*
X3336667Y26027333D01*
X3336667Y26323666D01*
X2193667Y26323666D01*
X2193667Y27255000D01*
X3379000Y27255000D01*
X3379000Y27551333D01*
X6511667Y27551333D01*
X6511667Y27449656D01*
X6519409Y27392221D01*
X6555674Y27357446D01*
X6640025Y27335230D01*
X6765667Y27318500D01*
X7019667Y27289020D01*
X7019667Y25138333D01*
X6765667Y25138333D01*
X6625069Y25136670D01*
X6549182Y25125029D01*
X6518049Y25093432D01*
X6511714Y25031901D01*
X6511667Y25011333D01*
X6511667Y24884333D01*
X7914291Y24884333D01*
X7900895Y25000750D01*
X7887418Y25065882D01*
X7852020Y25103364D01*
X7773757Y25123973D01*
X7633500Y25138333D01*
X7379500Y25159500D01*
X7356894Y27290440D01*
X7632781Y27319985D01*
X7781318Y27338481D01*
X7864251Y27359721D01*
X7900415Y27392613D01*
X7908650Y27446063D01*
X7908667Y27450432D01*
X7908667Y27520327D01*
X10829667Y27520327D01*
X10842566Y27474056D01*
X10879157Y27357220D01*
X10936277Y27179552D01*
X11010764Y26950781D01*
X11099456Y26680639D01*
X11199191Y26378857D01*
X11263584Y26184945D01*
X11697500Y24880568D01*
X12029406Y24905500D01*
X12445881Y26154333D01*
X12549820Y26466101D01*
X12645805Y26754193D01*
X12730369Y27008191D01*
X12800046Y27217678D01*
X12851370Y27372236D01*
X12880874Y27461447D01*
X12886031Y27477250D01*
X12888453Y27523794D01*
X12844041Y27545505D01*
X12734505Y27550840D01*
X12726936Y27550829D01*
X12544167Y27550325D01*
X12335092Y26884079D01*
X12250675Y26612888D01*
X12162308Y26325303D01*
X12078853Y26050390D01*
X12009171Y25817219D01*
X11990197Y25752637D01*
X11854377Y25287440D01*
X11805353Y25477470D01*
X11784433Y25557299D01*
X11762312Y25637864D01*
X11735545Y25730451D01*
X11700688Y25846343D01*
X11654293Y25996825D01*
X11592916Y26193182D01*
X11513110Y26446698D01*
X11411430Y26768657D01*
X11401550Y26799916D01*
X11164033Y27551333D01*
X15825000Y27551333D01*
X15825000Y24884333D01*
X17349000Y24884333D01*
X17349000Y25180666D01*
X16163667Y25180666D01*
X16163667Y26154333D01*
X17312031Y26154333D01*
X17298766Y26291916D01*
X17285500Y26429500D01*
X16724584Y26441312D01*
X16163667Y26453124D01*
X16163667Y27255000D01*
X17349000Y27255000D01*
X17349000Y27551333D01*
X20397000Y27551333D01*
X20397000Y24879222D01*
X20714500Y24905500D01*
X20726223Y25531210D01*
X20737945Y26156921D01*
X21255389Y26145044D01*
X21772834Y26133166D01*
X21784563Y25506263D01*
X21796292Y24879359D01*
X21953896Y24892429D01*
X22111500Y24905500D01*
X22111784Y24939192D01*
X24926667Y24939192D01*
X24954251Y24898895D01*
X25045734Y24889982D01*
X25082108Y24892361D01*
X25237549Y24905500D01*
X25371339Y25307666D01*
X25505128Y25709833D01*
X25949436Y25721775D01*
X26393743Y25733716D01*
X26643875Y24905500D01*
X26822437Y24892482D01*
X26931545Y24887257D01*
X26994320Y24889540D01*
X27000349Y24892482D01*
X26987411Y24934310D01*
X26950987Y25047058D01*
X26894175Y25221263D01*
X26820072Y25447461D01*
X26731779Y25716188D01*
X26632393Y26017980D01*
X26559480Y26239000D01*
X26126251Y27551333D01*
X30006667Y27551333D01*
X30006667Y26246055D01*
X30007550Y25921718D01*
X30010049Y25624949D01*
X30013944Y25366253D01*
X30019011Y25156131D01*
X30025029Y25005087D01*
X30031775Y24923623D01*
X30034889Y24912555D01*
X30084607Y24903212D01*
X30204436Y24895175D01*
X30379825Y24888998D01*
X30596222Y24885236D01*
X30775722Y24884333D01*
X31488334Y24884333D01*
X31488334Y25178209D01*
X30366500Y25201833D01*
X30343994Y27551333D01*
X34790334Y27551333D01*
X34790334Y24879222D01*
X35107834Y24905500D01*
X35119646Y25466416D01*
X35131458Y26027333D01*
X36229667Y26027333D01*
X36229667Y26323666D01*
X35129000Y26323666D01*
X35129000Y27252611D01*
X35711084Y27264389D01*
X36293167Y27276166D01*
X36306432Y27413750D01*
X36319698Y27551333D01*
X34790334Y27551333D01*
X30343994Y27551333D01*
X30006667Y27551333D01*
X26126251Y27551333D01*
X26119263Y27572500D01*
X25777725Y27598320D01*
X25352196Y26298741D01*
X25248856Y25981339D01*
X25154573Y25688290D01*
X25072492Y25429648D01*
X25005761Y25215467D01*
X24957526Y25055800D01*
X24930934Y24960700D01*
X24926667Y24939192D01*
X22111784Y24939192D01*
X22122687Y26228416D01*
X22133873Y27551333D01*
X21794000Y27551333D01*
X21794000Y26450666D01*
X20735667Y26450666D01*
X20735667Y27551333D01*
X20397000Y27551333D01*
X17349000Y27551333D01*
X15825000Y27551333D01*
X11164033Y27551333D01*
X10996850Y27551333D01*
X10891579Y27544369D01*
X10833589Y27526999D01*
X10829667Y27520327D01*
X7908667Y27520327D01*
X7908667Y27551333D01*
X6511667Y27551333D01*
X3379000Y27551333D01*
X1855000Y27551333D01*
X204000Y27551333D01*
X204000Y30980333D01*
X1622167Y30980333D01*
X1624417Y30714503D01*
X1632255Y30515937D01*
X1647313Y30367327D01*
X1671222Y30251362D01*
X1698724Y30168108D01*
X1830379Y29938861D01*
X2021731Y29757586D01*
X2256131Y29635657D01*
X2516927Y29584447D01*
X2554457Y29583569D01*
X2648582Y29567758D01*
X2717875Y29506574D01*
X2766123Y29427000D01*
X2841345Y29313507D01*
X2952741Y29175647D01*
X3056815Y29063285D01*
X3263796Y28855903D01*
X3362209Y28976201D01*
X3427311Y29062440D01*
X3460958Y29119968D01*
X3462144Y29125182D01*
X3433546Y29168214D01*
X3361095Y29237514D01*
X3343570Y29252182D01*
X3241039Y29350322D01*
X3132451Y29474633D01*
X3104148Y29511301D01*
X2984823Y29672102D01*
X3140763Y29831799D01*
X3294036Y30043637D01*
X3406499Y30312340D01*
X3476735Y30619828D01*
X3503326Y30948023D01*
X3484856Y31278845D01*
X3419907Y31594215D01*
X3307063Y31876054D01*
X3301770Y31885937D01*
X3145086Y32100074D01*
X2943919Y32242548D01*
X2773737Y32292666D01*
X6292308Y32292666D01*
X6307391Y31266083D01*
X6312724Y30939770D01*
X6318626Y30686190D01*
X6326111Y30493411D01*
X6336194Y30349503D01*
X6349891Y30242531D01*
X6368216Y30160565D01*
X6392185Y30091673D01*
X6410925Y30049000D01*
X6482058Y29918420D01*
X6558668Y29810526D01*
X6587385Y29780391D01*
X6770930Y29668530D01*
X7002862Y29604058D01*
X7258889Y29590940D01*
X7505546Y29630551D01*
X7565515Y29659455D01*
X10829667Y29659455D01*
X10867108Y29637814D01*
X10960048Y29626262D01*
X10989998Y29625666D01*
X11150329Y29625666D01*
X11289562Y30050445D01*
X11428794Y30475224D01*
X11859481Y30463195D01*
X12290167Y30451166D01*
X12574607Y29625666D01*
X12743833Y29625666D01*
X15782667Y29625666D01*
X16121334Y29625666D01*
X16121334Y30726333D01*
X16535790Y30726333D01*
X17158500Y29628153D01*
X17364452Y29626910D01*
X17486150Y29628107D01*
X17538715Y29640352D01*
X17537675Y29673704D01*
X17509591Y29720916D01*
X17416322Y29870172D01*
X17310157Y30045070D01*
X17199806Y30230620D01*
X17093980Y30411830D01*
X17001389Y30573711D01*
X16930742Y30701271D01*
X16890750Y30779520D01*
X16884964Y30795933D01*
X16918570Y30840015D01*
X16999528Y30902874D01*
X17020968Y30916833D01*
X17197673Y31066665D01*
X17304642Y31254506D01*
X17347580Y31491401D01*
X17349000Y31551833D01*
X17322093Y31793635D01*
X17236592Y31980753D01*
X17085330Y32125759D01*
X16989167Y32183105D01*
X16897424Y32223122D01*
X16790053Y32250888D01*
X16647858Y32269285D01*
X16451643Y32281195D01*
X16301250Y32286391D01*
X16084049Y32292666D01*
X20312334Y32292666D01*
X20312334Y31996333D01*
X21074334Y31996333D01*
X21074334Y29625666D01*
X21413000Y29625666D01*
X21413000Y31996333D01*
X22175000Y31996333D01*
X22175000Y32292666D01*
X25223000Y32292666D01*
X25223000Y29625666D01*
X26747000Y29625666D01*
X29922000Y29625666D01*
X30260667Y29625666D01*
X30260667Y30730758D01*
X30480383Y30717962D01*
X30700098Y30705166D01*
X31012731Y30165416D01*
X31325363Y29625666D01*
X31516209Y29625666D01*
X31626425Y29632578D01*
X31687899Y29650096D01*
X31692945Y29661049D01*
X31667348Y29707945D01*
X31606009Y29814066D01*
X31516759Y29966042D01*
X31407429Y30150504D01*
X31341436Y30261194D01*
X31228604Y30455059D01*
X31137104Y30622016D01*
X31073382Y30749481D01*
X31043881Y30824869D01*
X31045102Y30839813D01*
X31245755Y30949554D01*
X31398253Y31118482D01*
X31492986Y31330401D01*
X31520341Y31569111D01*
X31515382Y31632299D01*
X31449183Y31872657D01*
X31316316Y32062310D01*
X31121604Y32195917D01*
X30955890Y32252133D01*
X30841228Y32268879D01*
X30669875Y32282174D01*
X30469792Y32290175D01*
X30355917Y32291657D01*
X29922000Y32292666D01*
X34536334Y32292666D01*
X34536334Y29625666D01*
X34788951Y29625666D01*
X34800225Y30751084D01*
X34811500Y31876502D01*
X35015796Y30909834D01*
X35091766Y30549693D01*
X35152435Y30263748D01*
X35200602Y30043482D01*
X35239063Y29880382D01*
X35270616Y29765932D01*
X35298057Y29691619D01*
X35324185Y29648926D01*
X35351796Y29629340D01*
X35383688Y29624345D01*
X35422658Y29625427D01*
X35437671Y29625666D01*
X35573745Y29625666D01*
X35822813Y30768666D01*
X35887918Y31066529D01*
X35947082Y31335465D01*
X35997955Y31564938D01*
X36038188Y31744409D01*
X36065433Y31863341D01*
X36077340Y31911194D01*
X36077609Y31911666D01*
X36078536Y31871156D01*
X36078256Y31756894D01*
X36076871Y31579786D01*
X36074481Y31350738D01*
X36071190Y31080655D01*
X36067100Y30780443D01*
X36066931Y30768666D01*
X36050526Y29625666D01*
X36356667Y29625666D01*
X36356667Y32292666D01*
X35897003Y32292666D01*
X35845450Y32049250D01*
X35820674Y31931674D01*
X35782261Y31748665D01*
X35733868Y31517671D01*
X35679149Y31256141D01*
X35621761Y30981524D01*
X35617091Y30959166D01*
X35440285Y30112500D01*
X35373732Y30408833D01*
X35343473Y30547491D01*
X35300601Y30749274D01*
X35249281Y30994318D01*
X35193676Y31262760D01*
X35145249Y31498916D01*
X34983319Y32292666D01*
X34536334Y32292666D01*
X29922000Y32292666D01*
X29922000Y29625666D01*
X26747000Y29625666D01*
X26747000Y29922000D01*
X25561667Y29922000D01*
X25561667Y30853333D01*
X26662334Y30853333D01*
X26662334Y31149666D01*
X25561667Y31149666D01*
X25561667Y31996333D01*
X26747000Y31996333D01*
X26747000Y32292666D01*
X25223000Y32292666D01*
X22175000Y32292666D01*
X20312334Y32292666D01*
X16084049Y32292666D01*
X15782667Y32301373D01*
X15782667Y29625666D01*
X12743833Y29625666D01*
X12857962Y29635324D01*
X12895828Y29665792D01*
X12893544Y29678583D01*
X12876091Y29730554D01*
X12835802Y29852965D01*
X12775975Y30035723D01*
X12699906Y30268735D01*
X12610892Y30541907D01*
X12512230Y30845146D01*
X12457973Y31012083D01*
X12041916Y32292666D01*
X11678969Y32292666D01*
X11254318Y30992955D01*
X11151388Y30676910D01*
X11057453Y30386543D01*
X10975635Y30131656D01*
X10909057Y29922052D01*
X10860838Y29767532D01*
X10834101Y29677900D01*
X10829667Y29659455D01*
X7565515Y29659455D01*
X7683763Y29716448D01*
X7850234Y29859125D01*
X7978382Y30032005D01*
X8030782Y30155788D01*
X8046140Y30255606D01*
X8058965Y30429024D01*
X8068807Y30664998D01*
X8075216Y30952486D01*
X8077743Y31280445D01*
X8077764Y31308416D01*
X8078000Y32292666D01*
X7739334Y32292666D01*
X7739334Y31317640D01*
X7738015Y30964625D01*
X7732702Y30685754D01*
X7721360Y30470528D01*
X7701955Y30308445D01*
X7672452Y30189007D01*
X7630817Y30101714D01*
X7575013Y30036064D01*
X7503008Y29981560D01*
X7477298Y29965418D01*
X7291018Y29895033D01*
X7097469Y29894204D01*
X6918592Y29957733D01*
X6776324Y30080420D01*
X6736729Y30140915D01*
X6711805Y30195646D01*
X6692408Y30264848D01*
X6677635Y30359895D01*
X6666585Y30492164D01*
X6658356Y30673031D01*
X6652048Y30913872D01*
X6646758Y31226063D01*
X6645892Y31287250D01*
X6631951Y32292666D01*
X6292308Y32292666D01*
X2773737Y32292666D01*
X2694170Y32316098D01*
X2648855Y32321711D01*
X2361629Y32317324D01*
X2117576Y32240141D01*
X1916059Y32089818D01*
X1756436Y31866009D01*
X1737359Y31828717D01*
X1692014Y31731714D01*
X1660432Y31644587D01*
X1640137Y31549086D01*
X1628649Y31426960D01*
X1623491Y31259957D01*
X1622184Y31029826D01*
X1622167Y30980333D01*
X204000Y30980333D01*
X204000Y34245644D01*
X1516334Y34245644D01*
X1555255Y34209159D01*
X1671655Y34205684D01*
X1671774Y34205694D01*
X1827215Y34218833D01*
X1961005Y34621000D01*
X2094795Y35023166D01*
X2538538Y35035102D01*
X2982280Y35047038D01*
X3112677Y34632936D01*
X3243073Y34218833D01*
X3420552Y34205636D01*
X3530961Y34201857D01*
X3576324Y34217916D01*
X3575405Y34261624D01*
X3573063Y34269136D01*
X3554157Y34327178D01*
X3512401Y34455339D01*
X3451180Y34643240D01*
X3373875Y34880498D01*
X3283869Y35156733D01*
X3184544Y35461563D01*
X3134277Y35615833D01*
X2727356Y36864666D01*
X6252302Y36864666D01*
X6278834Y36589500D01*
X6649250Y36577268D01*
X7019667Y36565037D01*
X7019667Y35409574D01*
X7020662Y35104930D01*
X7023469Y34828327D01*
X7027821Y34590972D01*
X7033451Y34404066D01*
X7040092Y34278816D01*
X7047476Y34226424D01*
X7047889Y34225889D01*
X7105985Y34206517D01*
X7208840Y34197716D01*
X7217222Y34197666D01*
X7358334Y34197666D01*
X7358334Y36568333D01*
X8120334Y36568333D01*
X8120334Y36834122D01*
X10760759Y36834122D01*
X10763159Y36775025D01*
X10764370Y36769416D01*
X10775452Y36703057D01*
X10795924Y36564894D01*
X10824079Y36367058D01*
X10858212Y36121683D01*
X10896617Y35840899D01*
X10935514Y35552333D01*
X10985278Y35178562D01*
X11025165Y34880166D01*
X11057421Y34648727D01*
X11084289Y34475828D01*
X11108015Y34353049D01*
X11130843Y34271971D01*
X11155017Y34224176D01*
X11182783Y34201246D01*
X11216384Y34194762D01*
X11258066Y34196305D01*
X11296707Y34197666D01*
X11406306Y34205217D01*
X11462582Y34241961D01*
X11496497Y34329039D01*
X11498204Y34335250D01*
X11521951Y34424388D01*
X11562045Y34577061D01*
X11613662Y34774824D01*
X11671984Y34999234D01*
X11698031Y35099751D01*
X11860342Y35726668D01*
X11998318Y35226751D01*
X12060859Y35002818D01*
X12124136Y34780777D01*
X12180039Y34588849D01*
X12214968Y34472833D01*
X12293642Y34218833D01*
X12628834Y34218833D01*
X12785549Y35425333D01*
X12835798Y35811344D01*
X12875775Y36121576D01*
X12905582Y36364279D01*
X12925320Y36547702D01*
X12935090Y36680097D01*
X12934994Y36769712D01*
X12925132Y36824797D01*
X12905607Y36853603D01*
X12876518Y36864379D01*
X12865410Y36864666D01*
X15825000Y36864666D01*
X15825000Y35559389D01*
X15825883Y35235051D01*
X15828383Y34938283D01*
X15832277Y34679586D01*
X15837345Y34469464D01*
X15843362Y34318420D01*
X15850108Y34236957D01*
X15853222Y34225889D01*
X15902835Y34216674D01*
X16022793Y34208720D01*
X16198775Y34202557D01*
X16416463Y34198714D01*
X16615222Y34197666D01*
X17349000Y34197666D01*
X17349000Y34491611D01*
X16766917Y34503389D01*
X16184834Y34515166D01*
X16160894Y35467666D01*
X17306667Y35467666D01*
X17306667Y35764000D01*
X16163667Y35764000D01*
X16163667Y36568333D01*
X17349000Y36568333D01*
X17349000Y36864666D01*
X20397000Y36864666D01*
X20397000Y34197666D01*
X20699657Y34197666D01*
X20685912Y35296284D01*
X20683147Y35589324D01*
X20682418Y35850664D01*
X20683611Y36069578D01*
X20686613Y36235342D01*
X20691312Y36337229D01*
X20697156Y36365201D01*
X20721201Y36320373D01*
X20776178Y36209238D01*
X20857098Y36042157D01*
X20958974Y35829491D01*
X21076815Y35581601D01*
X21200619Y35319500D01*
X21330160Y35045774D01*
X21449660Y34795808D01*
X21553903Y34580313D01*
X21637671Y34409998D01*
X21695749Y34295574D01*
X21722303Y34248487D01*
X21796739Y34212700D01*
X21927127Y34205410D01*
X21938506Y34206154D01*
X22111500Y34218833D01*
X22122687Y35541750D01*
X22133873Y36864666D01*
X25011334Y36864666D01*
X25011334Y36568333D01*
X25773334Y36568333D01*
X25773334Y34197666D01*
X26112000Y34197666D01*
X26112000Y36568333D01*
X26874000Y36568333D01*
X26874000Y36832916D01*
X29681937Y36832916D01*
X29706784Y36787717D01*
X29765537Y36679311D01*
X29852051Y36519087D01*
X29960180Y36318431D01*
X30083777Y36088731D01*
X30128935Y36004732D01*
X30557000Y35208297D01*
X30557000Y34192556D01*
X30715750Y34205694D01*
X30874500Y34218833D01*
X30886327Y34755679D01*
X30898153Y35292524D01*
X31080326Y35623512D01*
X31178258Y35802648D01*
X31298450Y36024272D01*
X31423435Y36256108D01*
X31505705Y36409583D01*
X31732821Y36834557D01*
X34409334Y36834557D01*
X34422343Y36785568D01*
X34458731Y36668288D01*
X34514538Y36494556D01*
X34585805Y36276212D01*
X34668572Y36025096D01*
X34758879Y35753047D01*
X34852766Y35471905D01*
X34946274Y35193511D01*
X35035442Y34929704D01*
X35116312Y34692323D01*
X35184924Y34493208D01*
X35237317Y34344200D01*
X35269533Y34257138D01*
X35276930Y34240384D01*
X35334796Y34212216D01*
X35438788Y34204700D01*
X35457654Y34205929D01*
X35609109Y34218833D01*
X36025566Y35467666D01*
X36129501Y35779435D01*
X36225482Y36067527D01*
X36310042Y36321526D01*
X36379716Y36531013D01*
X36431038Y36685571D01*
X36460541Y36774781D01*
X36465697Y36790583D01*
X36468120Y36837128D01*
X36423708Y36858838D01*
X36314172Y36864174D01*
X36306603Y36864162D01*
X36123834Y36863658D01*
X35915595Y36197412D01*
X35831401Y35926129D01*
X35743115Y35638429D01*
X35659607Y35363412D01*
X35589743Y35130175D01*
X35570745Y35065806D01*
X35434132Y34600445D01*
X35386206Y34790639D01*
X35359721Y34886157D01*
X35312197Y35047901D01*
X35248021Y35261337D01*
X35171579Y35511933D01*
X35087257Y35785153D01*
X35047736Y35912166D01*
X34757192Y36843500D01*
X34583263Y36856517D01*
X34475791Y36857035D01*
X34414666Y36842741D01*
X34409334Y36834557D01*
X31732821Y36834557D01*
X31748913Y36864666D01*
X31381233Y36864666D01*
X31049661Y36199883D01*
X30718088Y35535100D01*
X30027834Y36863128D01*
X29845418Y36863897D01*
X29739509Y36857929D01*
X29684172Y36841966D01*
X29681937Y36832916D01*
X26874000Y36832916D01*
X26874000Y36864666D01*
X25011334Y36864666D01*
X22133873Y36864666D01*
X21784654Y36864666D01*
X21800219Y35782308D01*
X21815784Y34699949D01*
X21581837Y35179058D01*
X21474053Y35401154D01*
X21345159Y35668842D01*
X21210049Y35951084D01*
X21083615Y36216841D01*
X21062509Y36261416D01*
X20777127Y36864666D01*
X20397000Y36864666D01*
X17349000Y36864666D01*
X15825000Y36864666D01*
X12865410Y36864666D01*
X12837968Y36865375D01*
X12803221Y36864666D01*
X12660108Y36864666D01*
X12607416Y36367250D01*
X12582204Y36130636D01*
X12551480Y35844389D01*
X12518960Y35543036D01*
X12488363Y35261105D01*
X12485613Y35235872D01*
X12416501Y34601911D01*
X12224558Y35320539D01*
X12032616Y36039166D01*
X11697500Y36039166D01*
X11507000Y35319500D01*
X11437972Y35062927D01*
X11386337Y34882105D01*
X11349702Y34770462D01*
X11325674Y34721426D01*
X11311860Y34728427D01*
X11306600Y34769166D01*
X11298784Y34859992D01*
X11282401Y35020198D01*
X11259058Y35235115D01*
X11230365Y35490069D01*
X11197929Y35770390D01*
X11182460Y35901583D01*
X11068220Y36864666D01*
X10905804Y36864666D01*
X10801406Y36859354D01*
X10760759Y36834122D01*
X8120334Y36834122D01*
X8120334Y36864666D01*
X6252302Y36864666D01*
X2727356Y36864666D01*
X2720458Y36885833D01*
X2543806Y36898749D01*
X2367155Y36911665D01*
X1941744Y35605199D01*
X1838724Y35287231D01*
X1744695Y34993968D01*
X1662776Y34735376D01*
X1596085Y34521420D01*
X1547741Y34362065D01*
X1520862Y34267278D01*
X1516334Y34245644D01*
X204000Y34245644D01*
X204000Y37796000D01*
X37796000Y37796000D01*
X37796000Y204000D01*
X37796000Y204000D01*
G37*
X37796000Y204000D02*
X204000Y204000D01*
X204000Y3844666D01*
X1855000Y3844666D01*
X1855000Y1177666D01*
X2193667Y1177666D01*
X2193667Y2275876D01*
X2754584Y2287688D01*
X3315500Y2299500D01*
X3315500Y2405017D01*
X6259432Y2405017D01*
X6276055Y2135282D01*
X6310076Y1896033D01*
X6360683Y1711439D01*
X6371589Y1685666D01*
X6491395Y1490197D01*
X6651118Y1320992D01*
X6825807Y1203107D01*
X6871500Y1183622D01*
X7055807Y1147909D01*
X7274965Y1151985D01*
X7492524Y1191714D01*
X7672030Y1262961D01*
X7694795Y1277016D01*
X7869844Y1441795D01*
X8006731Y1674826D01*
X8101386Y1966861D01*
X8149736Y2308650D01*
X8149863Y2310603D01*
X8150959Y2731994D01*
X8095555Y3090350D01*
X7983642Y3385704D01*
X7815210Y3618084D01*
X7764151Y3666449D01*
X7542324Y3812015D01*
X7503265Y3823500D01*
X10977834Y3823500D01*
X10977834Y2828666D01*
X10979077Y2476045D01*
X10983895Y2196505D01*
X10993915Y1978484D01*
X11010767Y1810419D01*
X11036079Y1680748D01*
X11071481Y1577907D01*
X11118602Y1490335D01*
X11178000Y1407827D01*
X11330633Y1276259D01*
X11535978Y1185575D01*
X11770175Y1140529D01*
X12009366Y1145875D01*
X12129350Y1177666D01*
X15782667Y1177666D01*
X16121334Y1177666D01*
X16121334Y2278333D01*
X16529738Y2278333D01*
X17158500Y1178883D01*
X17358258Y1178275D01*
X17558017Y1177666D01*
X16845419Y2360066D01*
X17001959Y2449065D01*
X17166787Y2565794D01*
X17270088Y2703527D01*
X17324497Y2884364D01*
X17339864Y3040101D01*
X17331048Y3285038D01*
X17271985Y3472302D01*
X17155151Y3617317D01*
X17010334Y3715868D01*
X16917405Y3761592D01*
X16822009Y3793100D01*
X16703932Y3813861D01*
X16542961Y3827347D01*
X16318880Y3837028D01*
X16301250Y3837622D01*
X16089672Y3844666D01*
X20397000Y3844666D01*
X20397000Y1177666D01*
X20700703Y1177666D01*
X20686435Y2276665D01*
X20682389Y2608483D01*
X20680240Y2863900D01*
X20680455Y3051171D01*
X20683498Y3178550D01*
X20689835Y3254290D01*
X20699932Y3286645D01*
X20714253Y3283870D01*
X20733264Y3254219D01*
X20740745Y3239748D01*
X20777602Y3164429D01*
X20844830Y3024802D01*
X20936588Y2833090D01*
X21047034Y2601516D01*
X21170325Y2342305D01*
X21265985Y2140750D01*
X21722648Y1177666D01*
X22133873Y1177666D01*
X22133007Y1280130D01*
X25223000Y1280130D01*
X25223000Y1177666D01*
X26662334Y1177666D01*
X29837334Y1177666D01*
X30189575Y1177666D01*
X30164110Y2267750D01*
X30138645Y3357833D01*
X30263782Y3103833D01*
X30320072Y2988404D01*
X30405179Y2812387D01*
X30511479Y2591617D01*
X30631351Y2341929D01*
X30757174Y2079161D01*
X30788442Y2013750D01*
X31187965Y1177666D01*
X31573000Y1177666D01*
X34704461Y1177666D01*
X36229667Y1177666D01*
X36229667Y1474000D01*
X35044334Y1474000D01*
X35044334Y2405333D01*
X36187334Y2405333D01*
X36187334Y2699209D01*
X35065500Y2722833D01*
X35065500Y3527166D01*
X35647584Y3538944D01*
X36229667Y3550722D01*
X36229667Y3846620D01*
X35478250Y3835060D01*
X34726834Y3823500D01*
X34715647Y2500583D01*
X34704461Y1177666D01*
X31573000Y1177666D01*
X31573000Y3844666D01*
X31278096Y3844666D01*
X31266798Y2762358D01*
X31255500Y1680049D01*
X30746146Y2751774D01*
X30236792Y3823500D01*
X30037063Y3836403D01*
X29837334Y3849305D01*
X29837334Y1177666D01*
X26662334Y1177666D01*
X26662334Y1280130D01*
X26655509Y1336051D01*
X26622445Y1370376D01*
X26544253Y1392160D01*
X26402046Y1410459D01*
X26387167Y1412062D01*
X26112000Y1441530D01*
X26112000Y3586626D01*
X26376584Y3599230D01*
X26521070Y3608406D01*
X26600361Y3624250D01*
X26633902Y3655466D01*
X26641141Y3710760D01*
X26641167Y3717666D01*
X26641167Y3823500D01*
X25244167Y3823500D01*
X25244167Y3717666D01*
X25249901Y3659599D01*
X25280068Y3626445D01*
X25354115Y3609502D01*
X25491487Y3600062D01*
X25508750Y3599230D01*
X25773334Y3586626D01*
X25773334Y1441530D01*
X25498167Y1412062D01*
X25349954Y1393649D01*
X25267284Y1372483D01*
X25231271Y1339510D01*
X25223026Y1285674D01*
X25223000Y1280130D01*
X22133007Y1280130D01*
X22122687Y2500583D01*
X22111500Y3823500D01*
X21948489Y3836893D01*
X21785477Y3850286D01*
X21800322Y2770067D01*
X21803305Y2479644D01*
X21804022Y2221038D01*
X21802601Y2005059D01*
X21799173Y1842516D01*
X21793868Y1744219D01*
X21787690Y1719508D01*
X21762950Y1764164D01*
X21706996Y1875204D01*
X21624789Y2042460D01*
X21521289Y2255765D01*
X21401454Y2504952D01*
X21270245Y2779854D01*
X21262132Y2796916D01*
X20764050Y3844666D01*
X20397000Y3844666D01*
X16089672Y3844666D01*
X15782667Y3854887D01*
X15782667Y1177666D01*
X12129350Y1177666D01*
X12216865Y1200854D01*
X12436557Y1329907D01*
X12596432Y1513673D01*
X12654655Y1622166D01*
X12679564Y1684346D01*
X12698644Y1756958D01*
X12712664Y1851637D01*
X12722394Y1980015D01*
X12728604Y2153727D01*
X12732061Y2384404D01*
X12733536Y2683681D01*
X12733737Y2818083D01*
X12734667Y3844666D01*
X12396000Y3844666D01*
X12396000Y2869640D01*
X12394757Y2522656D01*
X12389902Y2249339D01*
X12379747Y2038711D01*
X12362601Y1879795D01*
X12336776Y1761613D01*
X12300583Y1673187D01*
X12252333Y1603539D01*
X12191894Y1543077D01*
X12057617Y1471461D01*
X11883430Y1441120D01*
X11704932Y1455026D01*
X11595347Y1493263D01*
X11515371Y1541343D01*
X11452200Y1600182D01*
X11403676Y1679900D01*
X11367641Y1790621D01*
X11341936Y1942464D01*
X11324404Y2145553D01*
X11312887Y2410007D01*
X11305226Y2745949D01*
X11303349Y2862767D01*
X11288461Y3849368D01*
X11133147Y3836434D01*
X10977834Y3823500D01*
X7503265Y3823500D01*
X7306670Y3881307D01*
X7069345Y3878633D01*
X6842504Y3808299D01*
X6638302Y3674614D01*
X6468895Y3481884D01*
X6346439Y3234416D01*
X6322097Y3155446D01*
X6281639Y2939268D01*
X6261023Y2681069D01*
X6259432Y2405017D01*
X3315500Y2405017D01*
X3315500Y2595833D01*
X2754584Y2607645D01*
X2193667Y2619457D01*
X2193667Y3548333D01*
X3379000Y3548333D01*
X3379000Y3844666D01*
X1855000Y3844666D01*
X204000Y3844666D01*
X204000Y8586000D01*
X1595636Y8586000D01*
X1608901Y8448416D01*
X1622167Y8310833D01*
X1992584Y8298602D01*
X2363000Y8286370D01*
X2363000Y7130907D01*
X2363995Y6826263D01*
X2366802Y6549661D01*
X2371155Y6312305D01*
X2376785Y6125400D01*
X2383425Y6000149D01*
X2390810Y5947758D01*
X2391222Y5947222D01*
X2449318Y5927851D01*
X2552174Y5919049D01*
X2560556Y5919000D01*
X2701667Y5919000D01*
X2701667Y8289666D01*
X3463667Y8289666D01*
X3463667Y8563006D01*
X6097457Y8563006D01*
X6098743Y8502420D01*
X6104599Y8472376D01*
X6116610Y8399352D01*
X6138008Y8254857D01*
X6167036Y8051353D01*
X6201936Y7801298D01*
X6240950Y7517152D01*
X6279640Y7231333D01*
X6328735Y6863880D01*
X6367895Y6571662D01*
X6399463Y6346140D01*
X6425779Y6178778D01*
X6449185Y6061036D01*
X6472021Y5984379D01*
X6496628Y5940267D01*
X6525347Y5920164D01*
X6560520Y5915531D01*
X6604486Y5917831D01*
X6639473Y5919000D01*
X6745267Y5923116D01*
X6803858Y5933392D01*
X6808000Y5937455D01*
X6818235Y5982664D01*
X6846456Y6095162D01*
X6888939Y6260402D01*
X6941959Y6463835D01*
X6973288Y6583038D01*
X7033370Y6811978D01*
X7087802Y7021197D01*
X7131928Y7192663D01*
X7161090Y7308346D01*
X7168037Y7337166D01*
X7182379Y7375975D01*
X7201167Y7372153D01*
X7227914Y7317171D01*
X7266133Y7202500D01*
X7319335Y7019609D01*
X7361909Y6866311D01*
X7443704Y6568602D01*
X7506971Y6342501D01*
X7556377Y6178187D01*
X7596591Y6065842D01*
X7632280Y5995644D01*
X7668111Y5957775D01*
X7708753Y5942415D01*
X7758874Y5939745D01*
X7802150Y5940166D01*
X7970430Y5940166D01*
X8127051Y7146666D01*
X8177319Y7532850D01*
X8217374Y7843241D01*
X8247319Y8086081D01*
X8267256Y8269613D01*
X8277286Y8402080D01*
X8277511Y8491724D01*
X8268034Y8546788D01*
X8248957Y8575516D01*
X8220780Y8586000D01*
X11126000Y8586000D01*
X11126000Y7280722D01*
X11126883Y6956385D01*
X11129383Y6659616D01*
X11133277Y6400919D01*
X11138345Y6190798D01*
X11144362Y6039754D01*
X11151108Y5958290D01*
X11154222Y5947222D01*
X11203835Y5938008D01*
X11323793Y5930053D01*
X11499775Y5923890D01*
X11717463Y5920047D01*
X11916222Y5919000D01*
X12650000Y5919000D01*
X12650000Y6212944D01*
X11485834Y6236500D01*
X11461894Y7189000D01*
X12607667Y7189000D01*
X12607667Y7485333D01*
X11464667Y7485333D01*
X11464667Y8289666D01*
X12650000Y8289666D01*
X12650000Y8586000D01*
X15867334Y8586000D01*
X15867334Y5919000D01*
X17349000Y5919000D01*
X17349000Y6257666D01*
X16206000Y6257666D01*
X16206000Y8586000D01*
X20524000Y8586000D01*
X20524000Y7280722D01*
X20524883Y6956385D01*
X20527383Y6659616D01*
X20531277Y6400919D01*
X20536345Y6190798D01*
X20542362Y6039754D01*
X20549108Y5958290D01*
X20552222Y5947222D01*
X20601835Y5938008D01*
X20721793Y5930053D01*
X20897775Y5923890D01*
X21115463Y5920047D01*
X21314222Y5919000D01*
X22048000Y5919000D01*
X22048000Y6212944D01*
X20883834Y6236500D01*
X20859894Y7189000D01*
X22011031Y7189000D01*
X21997766Y7326583D01*
X21984500Y7464166D01*
X21423584Y7475979D01*
X20862667Y7487791D01*
X20862667Y8289666D01*
X22048000Y8289666D01*
X22048000Y8540611D01*
X24926667Y8540611D01*
X24939516Y8490679D01*
X24975948Y8370365D01*
X25032787Y8189616D01*
X25106857Y7958378D01*
X25194984Y7686597D01*
X25293992Y7384220D01*
X25352384Y7207111D01*
X25778101Y5919000D01*
X26104784Y5919000D01*
X26549527Y7252500D01*
X26994269Y8586000D01*
X30006667Y8586000D01*
X30006667Y5917046D01*
X30758084Y5928606D01*
X31509500Y5940166D01*
X31522766Y6077750D01*
X31536031Y6215333D01*
X30345334Y6215333D01*
X30345334Y7189000D01*
X31446000Y7189000D01*
X31446000Y7485333D01*
X30345334Y7485333D01*
X30345334Y8287277D01*
X31509500Y8310833D01*
X31522766Y8448416D01*
X31536031Y8586000D01*
X34578667Y8586000D01*
X34578667Y5919000D01*
X34873571Y5919000D01*
X34896167Y8088104D01*
X35916555Y5940166D01*
X36293167Y5940166D01*
X36304353Y7263083D01*
X36315540Y8586000D01*
X35962721Y8586000D01*
X35985848Y7495916D01*
X36008975Y6405833D01*
X35907053Y6617500D01*
X35858893Y6717697D01*
X35781038Y6879887D01*
X35680377Y7089710D01*
X35563798Y7332804D01*
X35438192Y7594808D01*
X35384139Y7707583D01*
X34963148Y8586000D01*
X34578667Y8586000D01*
X31536031Y8586000D01*
X30006667Y8586000D01*
X26994269Y8586000D01*
X26633234Y8586000D01*
X26331001Y7622916D01*
X26244116Y7343949D01*
X26164660Y7084857D01*
X26096603Y6858904D01*
X26043913Y6679352D01*
X26010560Y6559461D01*
X26001592Y6522250D01*
X25969475Y6415456D01*
X25934524Y6392825D01*
X25900579Y6454115D01*
X25882543Y6529726D01*
X25862210Y6611242D01*
X25820214Y6759808D01*
X25760603Y6961807D01*
X25687426Y7203621D01*
X25604730Y7471633D01*
X25560331Y7613582D01*
X25476705Y7880405D01*
X25402283Y8119188D01*
X25340607Y8318452D01*
X25295222Y8466720D01*
X25269671Y8552513D01*
X25265334Y8569189D01*
X25227732Y8579722D01*
X25133812Y8585575D01*
X25096000Y8586000D01*
X24989973Y8575935D01*
X24930991Y8550792D01*
X24926667Y8540611D01*
X22048000Y8540611D01*
X22048000Y8586000D01*
X20524000Y8586000D01*
X16206000Y8586000D01*
X15867334Y8586000D01*
X12650000Y8586000D01*
X11126000Y8586000D01*
X8220780Y8586000D01*
X8220382Y8586148D01*
X8182411Y8586929D01*
X8144870Y8586000D01*
X8000072Y8586000D01*
X7972156Y8321416D01*
X7958947Y8196614D01*
X7938679Y8005616D01*
X7913264Y7766415D01*
X7884614Y7497004D01*
X7854641Y7215378D01*
X7851832Y7189000D01*
X7759425Y6321166D01*
X7372075Y7760500D01*
X7040920Y7760500D01*
X6882195Y7167833D01*
X6804518Y6877788D01*
X6746165Y6662170D01*
X6704268Y6513698D01*
X6675959Y6425093D01*
X6658369Y6389073D01*
X6648631Y6398359D01*
X6643876Y6445672D01*
X6641237Y6523730D01*
X6640371Y6554000D01*
X6632842Y6667168D01*
X6615875Y6847402D01*
X6591283Y7077855D01*
X6560881Y7341675D01*
X6526481Y7622015D01*
X6519633Y7675833D01*
X6405834Y8564833D01*
X6243107Y8578209D01*
X6138616Y8582950D01*
X6097457Y8563006D01*
X3463667Y8563006D01*
X3463667Y8586000D01*
X1595636Y8586000D01*
X204000Y8586000D01*
X204000Y11068667D01*
X1685667Y11068667D01*
X1685667Y10908465D01*
X1690884Y10826045D01*
X1716562Y10768695D01*
X1777743Y10727056D01*
X1889470Y10691773D01*
X2066785Y10653488D01*
X2109000Y10645128D01*
X2298221Y10629322D01*
X2524318Y10641448D01*
X2751152Y10677073D01*
X2942580Y10731761D01*
X2992450Y10753547D01*
X3192601Y10888216D01*
X3318344Y11060205D01*
X3374716Y11277553D01*
X3379000Y11370680D01*
X3360593Y11561146D01*
X3299483Y11720640D01*
X3186831Y11857978D01*
X3013803Y11981977D01*
X2771561Y12101451D01*
X2563423Y12184372D01*
X2315274Y12299217D01*
X2148962Y12428947D01*
X2062559Y12576123D01*
X2054135Y12743308D01*
X2076967Y12830683D01*
X2163303Y12956377D01*
X2313583Y13036033D01*
X2519671Y13068038D01*
X2773432Y13050775D01*
X2973964Y13008802D01*
X3105367Y12976585D01*
X3197694Y12957761D01*
X3228286Y12955885D01*
X3295665Y13102290D01*
X3310659Y13205706D01*
X3285916Y13248290D01*
X3171960Y13293131D01*
X3012015Y13327333D01*
X6511667Y13327333D01*
X6511667Y13223602D01*
X6518995Y13165147D01*
X6554055Y13130026D01*
X6636462Y13108011D01*
X6765667Y13091134D01*
X7019667Y13062397D01*
X7019667Y10914333D01*
X6765667Y10914333D01*
X6625069Y10912670D01*
X6549182Y10901029D01*
X6518049Y10869432D01*
X6511714Y10807901D01*
X6511667Y10787333D01*
X6511667Y10660333D01*
X7914291Y10660333D01*
X7910589Y10692508D01*
X10893872Y10692508D01*
X10910718Y10668163D01*
X10951108Y10660810D01*
X11011900Y10661066D01*
X11026221Y10661204D01*
X11189500Y10662076D01*
X11507000Y11231833D01*
X11617601Y11427994D01*
X11714229Y11595017D01*
X11789348Y11720211D01*
X11835420Y11790890D01*
X11845667Y11801929D01*
X11872275Y11766956D01*
X11931769Y11670264D01*
X12016676Y11524563D01*
X12119524Y11342563D01*
X12181192Y11231300D01*
X12495550Y10660333D01*
X12680098Y10660333D01*
X12746314Y10658606D01*
X12794910Y10659465D01*
X12822800Y10671970D01*
X12826901Y10705183D01*
X12804130Y10768164D01*
X12751401Y10869975D01*
X12665631Y11019675D01*
X12543735Y11226327D01*
X12411069Y11450724D01*
X12292810Y11652672D01*
X12191340Y11828611D01*
X12113829Y11965895D01*
X12067444Y12051878D01*
X12057334Y12074745D01*
X12078382Y12117305D01*
X12136442Y12218859D01*
X12223887Y12366460D01*
X12333090Y12547159D01*
X12399943Y12656416D01*
X12519993Y12853103D01*
X12624586Y13026963D01*
X12705443Y13164043D01*
X12754290Y13250390D01*
X12764305Y13270645D01*
X12754275Y13309253D01*
X12677335Y13325844D01*
X12621026Y13327333D01*
X15613334Y13327333D01*
X15613334Y13031000D01*
X16375334Y13031000D01*
X16375334Y10660333D01*
X16714000Y10660333D01*
X16714000Y13031000D01*
X17476000Y13031000D01*
X17476000Y13327333D01*
X20397000Y13327333D01*
X20397000Y10660333D01*
X20735667Y10660333D01*
X20735667Y11932939D01*
X21254250Y11921053D01*
X21772834Y11909166D01*
X21784549Y11284750D01*
X21796264Y10660333D01*
X22132667Y10660333D01*
X25180667Y10660333D01*
X25519334Y10660333D01*
X25519334Y11761000D01*
X25933587Y11761000D01*
X26245044Y11210814D01*
X26556500Y10660628D01*
X26740946Y10660481D01*
X26816660Y10660488D01*
X26868136Y10667171D01*
X26892607Y10690314D01*
X26887311Y10739699D01*
X26849483Y10825110D01*
X26776358Y10956329D01*
X26665172Y11143141D01*
X26551119Y11332294D01*
X26441457Y11519926D01*
X26354053Y11680563D01*
X26295451Y11801252D01*
X26272190Y11869037D01*
X26275128Y11878876D01*
X26410493Y11951580D01*
X26549827Y12067960D01*
X26657421Y12196901D01*
X26675205Y12227510D01*
X26726080Y12390145D01*
X26741235Y12588645D01*
X26722293Y12789810D01*
X26670878Y12960439D01*
X26636458Y13019961D01*
X26535647Y13131262D01*
X26410761Y13212168D01*
X26247367Y13267303D01*
X26031033Y13301291D01*
X25747325Y13318754D01*
X25699250Y13320202D01*
X25435784Y13327333D01*
X30006667Y13327333D01*
X30006667Y10660333D01*
X31530667Y10660333D01*
X31530667Y10956666D01*
X30345334Y10956666D01*
X30345334Y11930333D01*
X31446000Y11930333D01*
X31446000Y12226666D01*
X30345334Y12226666D01*
X30345334Y13031000D01*
X31530667Y13031000D01*
X31530667Y13327333D01*
X34705667Y13327333D01*
X34705667Y12022055D01*
X34706550Y11697718D01*
X34709049Y11400949D01*
X34712944Y11142253D01*
X34718011Y10932131D01*
X34724029Y10781087D01*
X34730775Y10699623D01*
X34733889Y10688555D01*
X34783502Y10679341D01*
X34903459Y10671387D01*
X35079442Y10665223D01*
X35297130Y10661380D01*
X35495889Y10660333D01*
X36229667Y10660333D01*
X36229667Y10954277D01*
X35647584Y10966055D01*
X35065500Y10977833D01*
X35065500Y11909166D01*
X35629006Y11920997D01*
X36192512Y11932827D01*
X36179339Y12069163D01*
X36166167Y12205500D01*
X35605250Y12217312D01*
X35044334Y12229124D01*
X35044334Y13031000D01*
X36229667Y13031000D01*
X36229667Y13327333D01*
X34705667Y13327333D01*
X31530667Y13327333D01*
X30006667Y13327333D01*
X25435784Y13327333D01*
X25180667Y13334238D01*
X25180667Y10660333D01*
X22132667Y10660333D01*
X22132667Y13327333D01*
X21794000Y13327333D01*
X21794000Y12226666D01*
X20735667Y12226666D01*
X20735667Y13327333D01*
X20397000Y13327333D01*
X17476000Y13327333D01*
X15613334Y13327333D01*
X12621026Y13327333D01*
X12455994Y13327333D01*
X12169528Y12840500D01*
X12061908Y12661215D01*
X11968211Y12511869D01*
X11897182Y12405908D01*
X11857563Y12356778D01*
X11853781Y12354931D01*
X11823174Y12390151D01*
X11760097Y12485650D01*
X11673169Y12627683D01*
X11571011Y12802502D01*
X11549334Y12840500D01*
X11274167Y13324804D01*
X11091752Y13326068D01*
X10985393Y13320386D01*
X10929177Y13304573D01*
X10926475Y13295583D01*
X10953049Y13250062D01*
X11015296Y13144988D01*
X11105424Y12993467D01*
X11215643Y12808606D01*
X11288807Y12686082D01*
X11406494Y12486097D01*
X11506944Y12309657D01*
X11582710Y12170307D01*
X11626343Y12081593D01*
X11634000Y12058306D01*
X11613353Y12006769D01*
X11556204Y11895865D01*
X11469748Y11738750D01*
X11361177Y11548578D01*
X11272730Y11397526D01*
X11124742Y11147474D01*
X11016003Y10961329D01*
X10943373Y10829708D01*
X10903709Y10743229D01*
X10893872Y10692508D01*
X7910589Y10692508D01*
X7900895Y10776750D01*
X7888395Y10840578D01*
X7855796Y10876797D01*
X7782560Y10894943D01*
X7648145Y10904547D01*
X7622917Y10905770D01*
X7358334Y10918373D01*
X7358334Y13073333D01*
X7474750Y13073799D01*
X7597989Y13081298D01*
X7739917Y13098887D01*
X7749917Y13100505D01*
X7856587Y13127590D01*
X7901571Y13173067D01*
X7908667Y13227039D01*
X7908667Y13327333D01*
X6511667Y13327333D01*
X3012015Y13327333D01*
X3000725Y13329747D01*
X2799482Y13354361D01*
X2595502Y13363195D01*
X2483800Y13359397D01*
X2209640Y13310009D01*
X1991525Y13208138D01*
X1835261Y13058771D01*
X1746657Y12866899D01*
X1728000Y12709995D01*
X1752001Y12484020D01*
X1829655Y12298921D01*
X1969445Y12144180D01*
X2179851Y12009277D01*
X2359296Y11926916D01*
X2629311Y11809601D01*
X2826221Y11707396D01*
X2958252Y11611870D01*
X3033628Y11514594D01*
X3060574Y11407138D01*
X3047313Y11281072D01*
X3035485Y11233838D01*
X2954996Y11092144D01*
X2809373Y10992473D01*
X2608232Y10937086D01*
X2361188Y10928244D01*
X2077856Y10968207D01*
X1992584Y10988644D01*
X1685667Y11068667D01*
X204000Y11068667D01*
X204000Y18068666D01*
X1855000Y18068666D01*
X1855000Y15401666D01*
X2191209Y15401666D01*
X2203021Y15962583D01*
X2214834Y16523500D01*
X2778339Y16535330D01*
X3341845Y16547160D01*
X3328673Y16683497D01*
X3315500Y16819833D01*
X2754584Y16831645D01*
X2193667Y16843457D01*
X2193667Y17772333D01*
X3379000Y17772333D01*
X3379000Y18068666D01*
X6506043Y18068666D01*
X6519438Y17952250D01*
X6532925Y17886274D01*
X6568302Y17849843D01*
X6647062Y17832150D01*
X6776250Y17823137D01*
X7019667Y17810441D01*
X7019667Y15655666D01*
X6897959Y15655666D01*
X6695784Y15642370D01*
X6569609Y15601267D01*
X6514855Y15530538D01*
X6511667Y15502208D01*
X6511667Y15401666D01*
X7908667Y15401666D01*
X7908667Y15502208D01*
X7878493Y15579797D01*
X7783477Y15629121D01*
X7616877Y15652719D01*
X7501209Y15655666D01*
X7358334Y15655666D01*
X7358334Y17814666D01*
X7566538Y17814666D01*
X7741180Y17821965D01*
X7846642Y17848195D01*
X7897494Y17899860D01*
X7908667Y17967362D01*
X7908667Y18043754D01*
X10829667Y18043754D01*
X10842322Y17998923D01*
X10878223Y17883305D01*
X10934274Y17706576D01*
X11007379Y17478414D01*
X11094444Y17208495D01*
X11192371Y16906497D01*
X11256980Y16708014D01*
X11684294Y15397187D01*
X12029406Y15422833D01*
X12445881Y16671666D01*
X12549870Y16983587D01*
X12645947Y17271968D01*
X12730638Y17526363D01*
X12800466Y17736328D01*
X12851958Y17891416D01*
X12881637Y17981181D01*
X12886860Y17997197D01*
X12891804Y18044362D01*
X12853469Y18063569D01*
X12753125Y18062356D01*
X12729054Y18060697D01*
X12546743Y18047500D01*
X12405569Y17603000D01*
X12341674Y17399848D01*
X12261993Y17143542D01*
X12175154Y16861994D01*
X12089787Y16583119D01*
X12059165Y16482456D01*
X11853935Y15806412D01*
X11803547Y15995623D01*
X11775988Y16092087D01*
X11727753Y16253790D01*
X11663622Y16465223D01*
X11588377Y16710877D01*
X11506799Y16975243D01*
X11423670Y17242811D01*
X11343772Y17498073D01*
X11271886Y17725519D01*
X11226408Y17867583D01*
X11183814Y17987083D01*
X11140989Y18046400D01*
X11073785Y18066571D01*
X10995598Y18068666D01*
X15825000Y18068666D01*
X15825000Y15401666D01*
X17349000Y15401666D01*
X17349000Y15698000D01*
X16163667Y15698000D01*
X16163667Y16626876D01*
X16724584Y16638688D01*
X17285500Y16650500D01*
X17298673Y16786836D01*
X17311845Y16923173D01*
X16748339Y16935003D01*
X16184834Y16946833D01*
X16172717Y17359583D01*
X16160601Y17772333D01*
X17349000Y17772333D01*
X17349000Y18068666D01*
X20560710Y18068666D01*
X20574105Y17952250D01*
X20587591Y17886274D01*
X20622968Y17849843D01*
X20701729Y17832150D01*
X20830917Y17823137D01*
X21074334Y17810441D01*
X21074334Y15655666D01*
X20952625Y15655666D01*
X20750451Y15642370D01*
X20624276Y15601267D01*
X20569522Y15530538D01*
X20566334Y15502208D01*
X20566334Y15401666D01*
X21963334Y15401666D01*
X21963334Y15502208D01*
X21933160Y15579797D01*
X21838144Y15629121D01*
X21671544Y15652719D01*
X21555875Y15655666D01*
X21413000Y15655666D01*
X21413000Y16857412D01*
X25062918Y16857412D01*
X25069025Y16465795D01*
X25129539Y16126070D01*
X25242452Y15842655D01*
X25405757Y15619972D01*
X25617448Y15462439D01*
X25716403Y15418215D01*
X25869942Y15385454D01*
X26073753Y15374561D01*
X26296698Y15384139D01*
X26507643Y15412791D01*
X26675452Y15459120D01*
X26681278Y15461510D01*
X26831667Y15524346D01*
X26831667Y16798666D01*
X26069667Y16798666D01*
X26069667Y16502333D01*
X26493000Y16502333D01*
X26493000Y16120285D01*
X26492020Y15939141D01*
X26485768Y15824441D01*
X26469276Y15757962D01*
X26437576Y15721482D01*
X26385702Y15696778D01*
X26376584Y15693236D01*
X26222278Y15664360D01*
X26036579Y15671755D01*
X25858567Y15710819D01*
X25738430Y15768372D01*
X25653900Y15854173D01*
X25563693Y15982035D01*
X25520025Y16060033D01*
X25469679Y16171887D01*
X25438206Y16280554D01*
X25421352Y16411466D01*
X25414863Y16590057D01*
X25414192Y16692833D01*
X25427625Y17006642D01*
X25471915Y17253747D01*
X25551328Y17447828D01*
X25670126Y17602561D01*
X25709158Y17639061D01*
X25893815Y17755741D01*
X26101289Y17797060D01*
X26340726Y17764308D01*
X26422154Y17739558D01*
X26660328Y17659151D01*
X26708607Y17805439D01*
X26732446Y17899040D01*
X26720780Y17962123D01*
X26660519Y18006507D01*
X26538575Y18044013D01*
X26427107Y18068666D01*
X29837334Y18068666D01*
X29837334Y15401666D01*
X30176000Y15401666D01*
X30176000Y16629333D01*
X31234334Y16629333D01*
X31234334Y15401666D01*
X31573000Y15401666D01*
X31573000Y17772333D01*
X34488636Y17772333D01*
X35256000Y17772333D01*
X35256000Y15401666D01*
X35594667Y15401666D01*
X35594667Y17772333D01*
X36356667Y17772333D01*
X36356667Y18070318D01*
X34515167Y18047500D01*
X34501901Y17909916D01*
X34488636Y17772333D01*
X31573000Y17772333D01*
X31573000Y18068666D01*
X31234334Y18068666D01*
X31234334Y16925666D01*
X30176000Y16925666D01*
X30176000Y18068666D01*
X29837334Y18068666D01*
X26427107Y18068666D01*
X26413868Y18071594D01*
X26115110Y18098114D01*
X25832927Y18054450D01*
X25582546Y17945094D01*
X25379198Y17774537D01*
X25369796Y17763606D01*
X25229053Y17561463D01*
X25134936Y17334824D01*
X25080310Y17062622D01*
X25062918Y16857412D01*
X21413000Y16857412D01*
X21413000Y17814666D01*
X21621204Y17814666D01*
X21795847Y17821965D01*
X21901309Y17848195D01*
X21952161Y17899860D01*
X21963334Y17967362D01*
X21963334Y18068666D01*
X20560710Y18068666D01*
X17349000Y18068666D01*
X15825000Y18068666D01*
X10995598Y18068666D01*
X10890780Y18063030D01*
X10833369Y18048983D01*
X10829667Y18043754D01*
X7908667Y18043754D01*
X7908667Y18068666D01*
X6506043Y18068666D01*
X3379000Y18068666D01*
X1855000Y18068666D01*
X204000Y18068666D01*
X204000Y20134082D01*
X1685667Y20134082D01*
X1980161Y20143000D01*
X6427000Y20143000D01*
X6723334Y20143000D01*
X6723334Y20168213D01*
X10829667Y20168213D01*
X10867180Y20152208D01*
X10960535Y20143519D01*
X10993615Y20143000D01*
X11157564Y20143000D01*
X11280771Y20534583D01*
X11403979Y20926166D01*
X11855947Y20938165D01*
X12307916Y20950163D01*
X12429849Y20557165D01*
X12551782Y20164166D01*
X12732302Y20150934D01*
X12847817Y20149192D01*
X12893616Y20168937D01*
X12892777Y20193267D01*
X12875146Y20245891D01*
X12834604Y20368903D01*
X12816175Y20425070D01*
X15701575Y20425070D01*
X15706028Y20366366D01*
X15723197Y20262491D01*
X15768882Y20204141D01*
X15868463Y20162006D01*
X15888500Y20155623D01*
X16021456Y20130254D01*
X16211734Y20115263D01*
X16432407Y20112642D01*
X16461306Y20113297D01*
X16662783Y20121689D01*
X16805300Y20137632D01*
X16914532Y20166480D01*
X17016158Y20213587D01*
X17059047Y20237930D01*
X17233800Y20372201D01*
X17339896Y20536709D01*
X17384026Y20745502D01*
X17382283Y20916807D01*
X17365621Y21068939D01*
X17333484Y21169854D01*
X17271658Y21252993D01*
X17216830Y21306028D01*
X17111941Y21382010D01*
X16954250Y21472574D01*
X16770394Y21563017D01*
X16679639Y21602498D01*
X16442628Y21706512D01*
X16275558Y21796801D01*
X16167167Y21883605D01*
X16106195Y21977168D01*
X16081377Y22087731D01*
X16079000Y22148739D01*
X16099204Y22306850D01*
X16166204Y22415186D01*
X16289586Y22480384D01*
X16478934Y22509083D01*
X16603293Y22511808D01*
X16782258Y22502567D01*
X16951632Y22480291D01*
X17064517Y22452861D01*
X17168712Y22419826D01*
X17225805Y22425929D01*
X17268036Y22480759D01*
X17285432Y22513666D01*
X20306969Y22513666D01*
X21074334Y22513666D01*
X21074334Y20143000D01*
X21413000Y20143000D01*
X21413000Y21476500D01*
X24997244Y21476500D01*
X25019657Y21073964D01*
X25089078Y20741715D01*
X25205692Y20479497D01*
X25369683Y20287056D01*
X25581238Y20164137D01*
X25840541Y20110486D01*
X25989679Y20109632D01*
X26180204Y20129323D01*
X26226021Y20143000D01*
X29920794Y20143000D01*
X30258137Y20143000D01*
X30269985Y20682750D01*
X30281834Y21222500D01*
X30695231Y21222500D01*
X30982278Y20720288D01*
X31090481Y20533095D01*
X31186208Y20371416D01*
X31260503Y20250095D01*
X31304408Y20183978D01*
X31309577Y20177823D01*
X31374155Y20155485D01*
X31486090Y20148943D01*
X31525104Y20150868D01*
X31700378Y20164166D01*
X31357287Y20735057D01*
X31227933Y20952288D01*
X31138649Y21108784D01*
X31084569Y21215571D01*
X31060832Y21283674D01*
X31062574Y21324118D01*
X31075615Y21338008D01*
X34496015Y21338008D01*
X34500368Y21159188D01*
X34517131Y21012349D01*
X34548641Y20871324D01*
X34571791Y20791075D01*
X34688213Y20516738D01*
X34849311Y20306430D01*
X35050008Y20166641D01*
X35065500Y20159624D01*
X35261576Y20109759D01*
X35491047Y20105447D01*
X35717058Y20144982D01*
X35849714Y20195916D01*
X36058415Y20348139D01*
X36217550Y20567529D01*
X36326338Y20852057D01*
X36384000Y21199694D01*
X36389997Y21603232D01*
X36372088Y21852906D01*
X36341497Y22042940D01*
X36293835Y22197953D01*
X36276804Y22238500D01*
X36124087Y22500033D01*
X35932686Y22688007D01*
X35706098Y22800519D01*
X35447817Y22835667D01*
X35229396Y22808781D01*
X34985099Y22717738D01*
X34792196Y22562752D01*
X34643654Y22337944D01*
X34628721Y22306528D01*
X34578595Y22185194D01*
X34544563Y22064694D01*
X34522551Y21921574D01*
X34508488Y21732376D01*
X34501732Y21574974D01*
X34496015Y21338008D01*
X31075615Y21338008D01*
X31084931Y21347930D01*
X31086517Y21348890D01*
X31278905Y21488125D01*
X31408162Y21646252D01*
X31450389Y21727172D01*
X31518675Y21966684D01*
X31510025Y22198705D01*
X31429169Y22409037D01*
X31280840Y22583480D01*
X31132944Y22679867D01*
X31030880Y22725593D01*
X30930541Y22755735D01*
X30810065Y22773605D01*
X30647589Y22782516D01*
X30434444Y22785700D01*
X29943167Y22788833D01*
X29931980Y21465916D01*
X29920794Y20143000D01*
X26226021Y20143000D01*
X26323976Y20172240D01*
X26440592Y20237141D01*
X26604549Y20392992D01*
X26734678Y20611129D01*
X26829756Y20875699D01*
X26888557Y21170850D01*
X26909856Y21480730D01*
X26892428Y21789487D01*
X26835048Y22081269D01*
X26736491Y22340222D01*
X26617406Y22525133D01*
X26459937Y22682860D01*
X26289970Y22777388D01*
X26082035Y22820058D01*
X25942667Y22825530D01*
X25665231Y22792864D01*
X25436908Y22694173D01*
X25256969Y22528416D01*
X25124685Y22294552D01*
X25039326Y21991542D01*
X25000163Y21618345D01*
X24997244Y21476500D01*
X21413000Y21476500D01*
X21413000Y22513666D01*
X22175000Y22513666D01*
X22175000Y22811651D01*
X20333500Y22788833D01*
X20320235Y22651250D01*
X20306969Y22513666D01*
X17285432Y22513666D01*
X17288497Y22519463D01*
X17325692Y22615582D01*
X17329024Y22680739D01*
X17327776Y22683093D01*
X17258533Y22729516D01*
X17122753Y22769560D01*
X16938513Y22799750D01*
X16723894Y22816616D01*
X16620464Y22818941D01*
X16315339Y22793406D01*
X16073737Y22714192D01*
X15896796Y22581793D01*
X15819412Y22471994D01*
X15750437Y22261334D01*
X15750940Y22038014D01*
X15815435Y21824405D01*
X15938437Y21642883D01*
X16044357Y21554511D01*
X16151700Y21494314D01*
X16307463Y21418405D01*
X16481073Y21341548D01*
X16511458Y21328918D01*
X16678455Y21255588D01*
X16826537Y21182313D01*
X16928591Y21122700D01*
X16942124Y21112808D01*
X17047015Y20983623D01*
X17081633Y20831180D01*
X17048196Y20675964D01*
X16948922Y20538461D01*
X16873805Y20481844D01*
X16721758Y20425359D01*
X16516859Y20398692D01*
X16285739Y20402485D01*
X16055028Y20437380D01*
X15969312Y20460042D01*
X15823045Y20502734D01*
X15740960Y20515154D01*
X15706117Y20491275D01*
X15701575Y20425070D01*
X12816175Y20425070D01*
X12774464Y20552189D01*
X12698039Y20785635D01*
X12608641Y21059125D01*
X12509584Y21362546D01*
X12455154Y21529416D01*
X12037576Y22810000D01*
X11681673Y22810000D01*
X11255670Y21501713D01*
X11152789Y21185009D01*
X11058852Y20894399D01*
X10976954Y20639573D01*
X10910193Y20430223D01*
X10861664Y20276041D01*
X10834464Y20186718D01*
X10829667Y20168213D01*
X6723334Y20168213D01*
X6723334Y21148382D01*
X7072584Y21167389D01*
X7402228Y21208859D01*
X7661380Y21295051D01*
X7852881Y21428373D01*
X7979570Y21611230D01*
X8044288Y21846027D01*
X8054504Y21999055D01*
X8035952Y22245064D01*
X7969895Y22431582D01*
X7847702Y22574333D01*
X7681184Y22679088D01*
X7578251Y22724422D01*
X7470231Y22756000D01*
X7336441Y22777286D01*
X7156202Y22791741D01*
X6951644Y22801220D01*
X6427000Y22821431D01*
X6427000Y20143000D01*
X1980161Y20143000D01*
X2183084Y20149145D01*
X2401232Y20157240D01*
X2556529Y20168865D01*
X2670788Y20188364D01*
X2765819Y20220081D01*
X2863435Y20268361D01*
X2908792Y20293681D01*
X3138785Y20462376D01*
X3307670Y20677678D01*
X3424296Y20951737D01*
X3446615Y21032000D01*
X3497635Y21363835D01*
X3486991Y21693253D01*
X3418407Y22003016D01*
X3295605Y22275882D01*
X3132967Y22484396D01*
X2994140Y22602649D01*
X2846565Y22687232D01*
X2671402Y22744275D01*
X2449809Y22779906D01*
X2162944Y22800256D01*
X2161917Y22800303D01*
X1685667Y22821809D01*
X1685667Y20134082D01*
X204000Y20134082D01*
X204000Y27551333D01*
X1855000Y27551333D01*
X1855000Y26246055D01*
X1855883Y25921718D01*
X1858383Y25624949D01*
X1862277Y25366253D01*
X1867345Y25156131D01*
X1873362Y25005087D01*
X1880108Y24923623D01*
X1883222Y24912555D01*
X1941318Y24893184D01*
X2044174Y24884382D01*
X2052556Y24884333D01*
X2193667Y24884333D01*
X2193667Y26027333D01*
X3336667Y26027333D01*
X3336667Y26323666D01*
X2193667Y26323666D01*
X2193667Y27255000D01*
X3379000Y27255000D01*
X3379000Y27551333D01*
X6511667Y27551333D01*
X6511667Y27449656D01*
X6519409Y27392221D01*
X6555674Y27357446D01*
X6640025Y27335230D01*
X6765667Y27318500D01*
X7019667Y27289020D01*
X7019667Y25138333D01*
X6765667Y25138333D01*
X6625069Y25136670D01*
X6549182Y25125029D01*
X6518049Y25093432D01*
X6511714Y25031901D01*
X6511667Y25011333D01*
X6511667Y24884333D01*
X7914291Y24884333D01*
X7900895Y25000750D01*
X7887418Y25065882D01*
X7852020Y25103364D01*
X7773757Y25123973D01*
X7633500Y25138333D01*
X7379500Y25159500D01*
X7356894Y27290440D01*
X7632781Y27319985D01*
X7781318Y27338481D01*
X7864251Y27359721D01*
X7900415Y27392613D01*
X7908650Y27446063D01*
X7908667Y27450432D01*
X7908667Y27520327D01*
X10829667Y27520327D01*
X10842566Y27474056D01*
X10879157Y27357220D01*
X10936277Y27179552D01*
X11010764Y26950781D01*
X11099456Y26680639D01*
X11199191Y26378857D01*
X11263584Y26184945D01*
X11697500Y24880568D01*
X12029406Y24905500D01*
X12445881Y26154333D01*
X12549820Y26466101D01*
X12645805Y26754193D01*
X12730369Y27008191D01*
X12800046Y27217678D01*
X12851370Y27372236D01*
X12880874Y27461447D01*
X12886031Y27477250D01*
X12888453Y27523794D01*
X12844041Y27545505D01*
X12734505Y27550840D01*
X12726936Y27550829D01*
X12544167Y27550325D01*
X12335092Y26884079D01*
X12250675Y26612888D01*
X12162308Y26325303D01*
X12078853Y26050390D01*
X12009171Y25817219D01*
X11990197Y25752637D01*
X11854377Y25287440D01*
X11805353Y25477470D01*
X11784433Y25557299D01*
X11762312Y25637864D01*
X11735545Y25730451D01*
X11700688Y25846343D01*
X11654293Y25996825D01*
X11592916Y26193182D01*
X11513110Y26446698D01*
X11411430Y26768657D01*
X11401550Y26799916D01*
X11164033Y27551333D01*
X15825000Y27551333D01*
X15825000Y24884333D01*
X17349000Y24884333D01*
X17349000Y25180666D01*
X16163667Y25180666D01*
X16163667Y26154333D01*
X17312031Y26154333D01*
X17298766Y26291916D01*
X17285500Y26429500D01*
X16724584Y26441312D01*
X16163667Y26453124D01*
X16163667Y27255000D01*
X17349000Y27255000D01*
X17349000Y27551333D01*
X20397000Y27551333D01*
X20397000Y24879222D01*
X20714500Y24905500D01*
X20726223Y25531210D01*
X20737945Y26156921D01*
X21255389Y26145044D01*
X21772834Y26133166D01*
X21784563Y25506263D01*
X21796292Y24879359D01*
X21953896Y24892429D01*
X22111500Y24905500D01*
X22111784Y24939192D01*
X24926667Y24939192D01*
X24954251Y24898895D01*
X25045734Y24889982D01*
X25082108Y24892361D01*
X25237549Y24905500D01*
X25371339Y25307666D01*
X25505128Y25709833D01*
X25949436Y25721775D01*
X26393743Y25733716D01*
X26643875Y24905500D01*
X26822437Y24892482D01*
X26931545Y24887257D01*
X26994320Y24889540D01*
X27000349Y24892482D01*
X26987411Y24934310D01*
X26950987Y25047058D01*
X26894175Y25221263D01*
X26820072Y25447461D01*
X26731779Y25716188D01*
X26632393Y26017980D01*
X26559480Y26239000D01*
X26126251Y27551333D01*
X30006667Y27551333D01*
X30006667Y26246055D01*
X30007550Y25921718D01*
X30010049Y25624949D01*
X30013944Y25366253D01*
X30019011Y25156131D01*
X30025029Y25005087D01*
X30031775Y24923623D01*
X30034889Y24912555D01*
X30084607Y24903212D01*
X30204436Y24895175D01*
X30379825Y24888998D01*
X30596222Y24885236D01*
X30775722Y24884333D01*
X31488334Y24884333D01*
X31488334Y25178209D01*
X30366500Y25201833D01*
X30343994Y27551333D01*
X34790334Y27551333D01*
X34790334Y24879222D01*
X35107834Y24905500D01*
X35119646Y25466416D01*
X35131458Y26027333D01*
X36229667Y26027333D01*
X36229667Y26323666D01*
X35129000Y26323666D01*
X35129000Y27252611D01*
X35711084Y27264389D01*
X36293167Y27276166D01*
X36306432Y27413750D01*
X36319698Y27551333D01*
X34790334Y27551333D01*
X30343994Y27551333D01*
X30006667Y27551333D01*
X26126251Y27551333D01*
X26119263Y27572500D01*
X25777725Y27598320D01*
X25352196Y26298741D01*
X25248856Y25981339D01*
X25154573Y25688290D01*
X25072492Y25429648D01*
X25005761Y25215467D01*
X24957526Y25055800D01*
X24930934Y24960700D01*
X24926667Y24939192D01*
X22111784Y24939192D01*
X22122687Y26228416D01*
X22133873Y27551333D01*
X21794000Y27551333D01*
X21794000Y26450666D01*
X20735667Y26450666D01*
X20735667Y27551333D01*
X20397000Y27551333D01*
X17349000Y27551333D01*
X15825000Y27551333D01*
X11164033Y27551333D01*
X10996850Y27551333D01*
X10891579Y27544369D01*
X10833589Y27526999D01*
X10829667Y27520327D01*
X7908667Y27520327D01*
X7908667Y27551333D01*
X6511667Y27551333D01*
X3379000Y27551333D01*
X1855000Y27551333D01*
X204000Y27551333D01*
X204000Y30980333D01*
X1622167Y30980333D01*
X1624417Y30714503D01*
X1632255Y30515937D01*
X1647313Y30367327D01*
X1671222Y30251362D01*
X1698724Y30168108D01*
X1830379Y29938861D01*
X2021731Y29757586D01*
X2256131Y29635657D01*
X2516927Y29584447D01*
X2554457Y29583569D01*
X2648582Y29567758D01*
X2717875Y29506574D01*
X2766123Y29427000D01*
X2841345Y29313507D01*
X2952741Y29175647D01*
X3056815Y29063285D01*
X3263796Y28855903D01*
X3362209Y28976201D01*
X3427311Y29062440D01*
X3460958Y29119968D01*
X3462144Y29125182D01*
X3433546Y29168214D01*
X3361095Y29237514D01*
X3343570Y29252182D01*
X3241039Y29350322D01*
X3132451Y29474633D01*
X3104148Y29511301D01*
X2984823Y29672102D01*
X3140763Y29831799D01*
X3294036Y30043637D01*
X3406499Y30312340D01*
X3476735Y30619828D01*
X3503326Y30948023D01*
X3484856Y31278845D01*
X3419907Y31594215D01*
X3307063Y31876054D01*
X3301770Y31885937D01*
X3145086Y32100074D01*
X2943919Y32242548D01*
X2773737Y32292666D01*
X6292308Y32292666D01*
X6307391Y31266083D01*
X6312724Y30939770D01*
X6318626Y30686190D01*
X6326111Y30493411D01*
X6336194Y30349503D01*
X6349891Y30242531D01*
X6368216Y30160565D01*
X6392185Y30091673D01*
X6410925Y30049000D01*
X6482058Y29918420D01*
X6558668Y29810526D01*
X6587385Y29780391D01*
X6770930Y29668530D01*
X7002862Y29604058D01*
X7258889Y29590940D01*
X7505546Y29630551D01*
X7565515Y29659455D01*
X10829667Y29659455D01*
X10867108Y29637814D01*
X10960048Y29626262D01*
X10989998Y29625666D01*
X11150329Y29625666D01*
X11289562Y30050445D01*
X11428794Y30475224D01*
X11859481Y30463195D01*
X12290167Y30451166D01*
X12574607Y29625666D01*
X12743833Y29625666D01*
X15782667Y29625666D01*
X16121334Y29625666D01*
X16121334Y30726333D01*
X16535790Y30726333D01*
X17158500Y29628153D01*
X17364452Y29626910D01*
X17486150Y29628107D01*
X17538715Y29640352D01*
X17537675Y29673704D01*
X17509591Y29720916D01*
X17416322Y29870172D01*
X17310157Y30045070D01*
X17199806Y30230620D01*
X17093980Y30411830D01*
X17001389Y30573711D01*
X16930742Y30701271D01*
X16890750Y30779520D01*
X16884964Y30795933D01*
X16918570Y30840015D01*
X16999528Y30902874D01*
X17020968Y30916833D01*
X17197673Y31066665D01*
X17304642Y31254506D01*
X17347580Y31491401D01*
X17349000Y31551833D01*
X17322093Y31793635D01*
X17236592Y31980753D01*
X17085330Y32125759D01*
X16989167Y32183105D01*
X16897424Y32223122D01*
X16790053Y32250888D01*
X16647858Y32269285D01*
X16451643Y32281195D01*
X16301250Y32286391D01*
X16084049Y32292666D01*
X20312334Y32292666D01*
X20312334Y31996333D01*
X21074334Y31996333D01*
X21074334Y29625666D01*
X21413000Y29625666D01*
X21413000Y31996333D01*
X22175000Y31996333D01*
X22175000Y32292666D01*
X25223000Y32292666D01*
X25223000Y29625666D01*
X26747000Y29625666D01*
X29922000Y29625666D01*
X30260667Y29625666D01*
X30260667Y30730758D01*
X30480383Y30717962D01*
X30700098Y30705166D01*
X31012731Y30165416D01*
X31325363Y29625666D01*
X31516209Y29625666D01*
X31626425Y29632578D01*
X31687899Y29650096D01*
X31692945Y29661049D01*
X31667348Y29707945D01*
X31606009Y29814066D01*
X31516759Y29966042D01*
X31407429Y30150504D01*
X31341436Y30261194D01*
X31228604Y30455059D01*
X31137104Y30622016D01*
X31073382Y30749481D01*
X31043881Y30824869D01*
X31045102Y30839813D01*
X31245755Y30949554D01*
X31398253Y31118482D01*
X31492986Y31330401D01*
X31520341Y31569111D01*
X31515382Y31632299D01*
X31449183Y31872657D01*
X31316316Y32062310D01*
X31121604Y32195917D01*
X30955890Y32252133D01*
X30841228Y32268879D01*
X30669875Y32282174D01*
X30469792Y32290175D01*
X30355917Y32291657D01*
X29922000Y32292666D01*
X34536334Y32292666D01*
X34536334Y29625666D01*
X34788951Y29625666D01*
X34800225Y30751084D01*
X34811500Y31876502D01*
X35015796Y30909834D01*
X35091766Y30549693D01*
X35152435Y30263748D01*
X35200602Y30043482D01*
X35239063Y29880382D01*
X35270616Y29765932D01*
X35298057Y29691619D01*
X35324185Y29648926D01*
X35351796Y29629340D01*
X35383688Y29624345D01*
X35422658Y29625427D01*
X35437671Y29625666D01*
X35573745Y29625666D01*
X35822813Y30768666D01*
X35887918Y31066529D01*
X35947082Y31335465D01*
X35997955Y31564938D01*
X36038188Y31744409D01*
X36065433Y31863341D01*
X36077340Y31911194D01*
X36077609Y31911666D01*
X36078536Y31871156D01*
X36078256Y31756894D01*
X36076871Y31579786D01*
X36074481Y31350738D01*
X36071190Y31080655D01*
X36067100Y30780443D01*
X36066931Y30768666D01*
X36050526Y29625666D01*
X36356667Y29625666D01*
X36356667Y32292666D01*
X35897003Y32292666D01*
X35845450Y32049250D01*
X35820674Y31931674D01*
X35782261Y31748665D01*
X35733868Y31517671D01*
X35679149Y31256141D01*
X35621761Y30981524D01*
X35617091Y30959166D01*
X35440285Y30112500D01*
X35373732Y30408833D01*
X35343473Y30547491D01*
X35300601Y30749274D01*
X35249281Y30994318D01*
X35193676Y31262760D01*
X35145249Y31498916D01*
X34983319Y32292666D01*
X34536334Y32292666D01*
X29922000Y32292666D01*
X29922000Y29625666D01*
X26747000Y29625666D01*
X26747000Y29922000D01*
X25561667Y29922000D01*
X25561667Y30853333D01*
X26662334Y30853333D01*
X26662334Y31149666D01*
X25561667Y31149666D01*
X25561667Y31996333D01*
X26747000Y31996333D01*
X26747000Y32292666D01*
X25223000Y32292666D01*
X22175000Y32292666D01*
X20312334Y32292666D01*
X16084049Y32292666D01*
X15782667Y32301373D01*
X15782667Y29625666D01*
X12743833Y29625666D01*
X12857962Y29635324D01*
X12895828Y29665792D01*
X12893544Y29678583D01*
X12876091Y29730554D01*
X12835802Y29852965D01*
X12775975Y30035723D01*
X12699906Y30268735D01*
X12610892Y30541907D01*
X12512230Y30845146D01*
X12457973Y31012083D01*
X12041916Y32292666D01*
X11678969Y32292666D01*
X11254318Y30992955D01*
X11151388Y30676910D01*
X11057453Y30386543D01*
X10975635Y30131656D01*
X10909057Y29922052D01*
X10860838Y29767532D01*
X10834101Y29677900D01*
X10829667Y29659455D01*
X7565515Y29659455D01*
X7683763Y29716448D01*
X7850234Y29859125D01*
X7978382Y30032005D01*
X8030782Y30155788D01*
X8046140Y30255606D01*
X8058965Y30429024D01*
X8068807Y30664998D01*
X8075216Y30952486D01*
X8077743Y31280445D01*
X8077764Y31308416D01*
X8078000Y32292666D01*
X7739334Y32292666D01*
X7739334Y31317640D01*
X7738015Y30964625D01*
X7732702Y30685754D01*
X7721360Y30470528D01*
X7701955Y30308445D01*
X7672452Y30189007D01*
X7630817Y30101714D01*
X7575013Y30036064D01*
X7503008Y29981560D01*
X7477298Y29965418D01*
X7291018Y29895033D01*
X7097469Y29894204D01*
X6918592Y29957733D01*
X6776324Y30080420D01*
X6736729Y30140915D01*
X6711805Y30195646D01*
X6692408Y30264848D01*
X6677635Y30359895D01*
X6666585Y30492164D01*
X6658356Y30673031D01*
X6652048Y30913872D01*
X6646758Y31226063D01*
X6645892Y31287250D01*
X6631951Y32292666D01*
X6292308Y32292666D01*
X2773737Y32292666D01*
X2694170Y32316098D01*
X2648855Y32321711D01*
X2361629Y32317324D01*
X2117576Y32240141D01*
X1916059Y32089818D01*
X1756436Y31866009D01*
X1737359Y31828717D01*
X1692014Y31731714D01*
X1660432Y31644587D01*
X1640137Y31549086D01*
X1628649Y31426960D01*
X1623491Y31259957D01*
X1622184Y31029826D01*
X1622167Y30980333D01*
X204000Y30980333D01*
X204000Y34245644D01*
X1516334Y34245644D01*
X1555255Y34209159D01*
X1671655Y34205684D01*
X1671774Y34205694D01*
X1827215Y34218833D01*
X1961005Y34621000D01*
X2094795Y35023166D01*
X2538538Y35035102D01*
X2982280Y35047038D01*
X3112677Y34632936D01*
X3243073Y34218833D01*
X3420552Y34205636D01*
X3530961Y34201857D01*
X3576324Y34217916D01*
X3575405Y34261624D01*
X3573063Y34269136D01*
X3554157Y34327178D01*
X3512401Y34455339D01*
X3451180Y34643240D01*
X3373875Y34880498D01*
X3283869Y35156733D01*
X3184544Y35461563D01*
X3134277Y35615833D01*
X2727356Y36864666D01*
X6252302Y36864666D01*
X6278834Y36589500D01*
X6649250Y36577268D01*
X7019667Y36565037D01*
X7019667Y35409574D01*
X7020662Y35104930D01*
X7023469Y34828327D01*
X7027821Y34590972D01*
X7033451Y34404066D01*
X7040092Y34278816D01*
X7047476Y34226424D01*
X7047889Y34225889D01*
X7105985Y34206517D01*
X7208840Y34197716D01*
X7217222Y34197666D01*
X7358334Y34197666D01*
X7358334Y36568333D01*
X8120334Y36568333D01*
X8120334Y36834122D01*
X10760759Y36834122D01*
X10763159Y36775025D01*
X10764370Y36769416D01*
X10775452Y36703057D01*
X10795924Y36564894D01*
X10824079Y36367058D01*
X10858212Y36121683D01*
X10896617Y35840899D01*
X10935514Y35552333D01*
X10985278Y35178562D01*
X11025165Y34880166D01*
X11057421Y34648727D01*
X11084289Y34475828D01*
X11108015Y34353049D01*
X11130843Y34271971D01*
X11155017Y34224176D01*
X11182783Y34201246D01*
X11216384Y34194762D01*
X11258066Y34196305D01*
X11296707Y34197666D01*
X11406306Y34205217D01*
X11462582Y34241961D01*
X11496497Y34329039D01*
X11498204Y34335250D01*
X11521951Y34424388D01*
X11562045Y34577061D01*
X11613662Y34774824D01*
X11671984Y34999234D01*
X11698031Y35099751D01*
X11860342Y35726668D01*
X11998318Y35226751D01*
X12060859Y35002818D01*
X12124136Y34780777D01*
X12180039Y34588849D01*
X12214968Y34472833D01*
X12293642Y34218833D01*
X12628834Y34218833D01*
X12785549Y35425333D01*
X12835798Y35811344D01*
X12875775Y36121576D01*
X12905582Y36364279D01*
X12925320Y36547702D01*
X12935090Y36680097D01*
X12934994Y36769712D01*
X12925132Y36824797D01*
X12905607Y36853603D01*
X12876518Y36864379D01*
X12865410Y36864666D01*
X15825000Y36864666D01*
X15825000Y35559389D01*
X15825883Y35235051D01*
X15828383Y34938283D01*
X15832277Y34679586D01*
X15837345Y34469464D01*
X15843362Y34318420D01*
X15850108Y34236957D01*
X15853222Y34225889D01*
X15902835Y34216674D01*
X16022793Y34208720D01*
X16198775Y34202557D01*
X16416463Y34198714D01*
X16615222Y34197666D01*
X17349000Y34197666D01*
X17349000Y34491611D01*
X16766917Y34503389D01*
X16184834Y34515166D01*
X16160894Y35467666D01*
X17306667Y35467666D01*
X17306667Y35764000D01*
X16163667Y35764000D01*
X16163667Y36568333D01*
X17349000Y36568333D01*
X17349000Y36864666D01*
X20397000Y36864666D01*
X20397000Y34197666D01*
X20699657Y34197666D01*
X20685912Y35296284D01*
X20683147Y35589324D01*
X20682418Y35850664D01*
X20683611Y36069578D01*
X20686613Y36235342D01*
X20691312Y36337229D01*
X20697156Y36365201D01*
X20721201Y36320373D01*
X20776178Y36209238D01*
X20857098Y36042157D01*
X20958974Y35829491D01*
X21076815Y35581601D01*
X21200619Y35319500D01*
X21330160Y35045774D01*
X21449660Y34795808D01*
X21553903Y34580313D01*
X21637671Y34409998D01*
X21695749Y34295574D01*
X21722303Y34248487D01*
X21796739Y34212700D01*
X21927127Y34205410D01*
X21938506Y34206154D01*
X22111500Y34218833D01*
X22122687Y35541750D01*
X22133873Y36864666D01*
X25011334Y36864666D01*
X25011334Y36568333D01*
X25773334Y36568333D01*
X25773334Y34197666D01*
X26112000Y34197666D01*
X26112000Y36568333D01*
X26874000Y36568333D01*
X26874000Y36832916D01*
X29681937Y36832916D01*
X29706784Y36787717D01*
X29765537Y36679311D01*
X29852051Y36519087D01*
X29960180Y36318431D01*
X30083777Y36088731D01*
X30128935Y36004732D01*
X30557000Y35208297D01*
X30557000Y34192556D01*
X30715750Y34205694D01*
X30874500Y34218833D01*
X30886327Y34755679D01*
X30898153Y35292524D01*
X31080326Y35623512D01*
X31178258Y35802648D01*
X31298450Y36024272D01*
X31423435Y36256108D01*
X31505705Y36409583D01*
X31732821Y36834557D01*
X34409334Y36834557D01*
X34422343Y36785568D01*
X34458731Y36668288D01*
X34514538Y36494556D01*
X34585805Y36276212D01*
X34668572Y36025096D01*
X34758879Y35753047D01*
X34852766Y35471905D01*
X34946274Y35193511D01*
X35035442Y34929704D01*
X35116312Y34692323D01*
X35184924Y34493208D01*
X35237317Y34344200D01*
X35269533Y34257138D01*
X35276930Y34240384D01*
X35334796Y34212216D01*
X35438788Y34204700D01*
X35457654Y34205929D01*
X35609109Y34218833D01*
X36025566Y35467666D01*
X36129501Y35779435D01*
X36225482Y36067527D01*
X36310042Y36321526D01*
X36379716Y36531013D01*
X36431038Y36685571D01*
X36460541Y36774781D01*
X36465697Y36790583D01*
X36468120Y36837128D01*
X36423708Y36858838D01*
X36314172Y36864174D01*
X36306603Y36864162D01*
X36123834Y36863658D01*
X35915595Y36197412D01*
X35831401Y35926129D01*
X35743115Y35638429D01*
X35659607Y35363412D01*
X35589743Y35130175D01*
X35570745Y35065806D01*
X35434132Y34600445D01*
X35386206Y34790639D01*
X35359721Y34886157D01*
X35312197Y35047901D01*
X35248021Y35261337D01*
X35171579Y35511933D01*
X35087257Y35785153D01*
X35047736Y35912166D01*
X34757192Y36843500D01*
X34583263Y36856517D01*
X34475791Y36857035D01*
X34414666Y36842741D01*
X34409334Y36834557D01*
X31732821Y36834557D01*
X31748913Y36864666D01*
X31381233Y36864666D01*
X31049661Y36199883D01*
X30718088Y35535100D01*
X30027834Y36863128D01*
X29845418Y36863897D01*
X29739509Y36857929D01*
X29684172Y36841966D01*
X29681937Y36832916D01*
X26874000Y36832916D01*
X26874000Y36864666D01*
X25011334Y36864666D01*
X22133873Y36864666D01*
X21784654Y36864666D01*
X21800219Y35782308D01*
X21815784Y34699949D01*
X21581837Y35179058D01*
X21474053Y35401154D01*
X21345159Y35668842D01*
X21210049Y35951084D01*
X21083615Y36216841D01*
X21062509Y36261416D01*
X20777127Y36864666D01*
X20397000Y36864666D01*
X17349000Y36864666D01*
X15825000Y36864666D01*
X12865410Y36864666D01*
X12837968Y36865375D01*
X12803221Y36864666D01*
X12660108Y36864666D01*
X12607416Y36367250D01*
X12582204Y36130636D01*
X12551480Y35844389D01*
X12518960Y35543036D01*
X12488363Y35261105D01*
X12485613Y35235872D01*
X12416501Y34601911D01*
X12224558Y35320539D01*
X12032616Y36039166D01*
X11697500Y36039166D01*
X11507000Y35319500D01*
X11437972Y35062927D01*
X11386337Y34882105D01*
X11349702Y34770462D01*
X11325674Y34721426D01*
X11311860Y34728427D01*
X11306600Y34769166D01*
X11298784Y34859992D01*
X11282401Y35020198D01*
X11259058Y35235115D01*
X11230365Y35490069D01*
X11197929Y35770390D01*
X11182460Y35901583D01*
X11068220Y36864666D01*
X10905804Y36864666D01*
X10801406Y36859354D01*
X10760759Y36834122D01*
X8120334Y36834122D01*
X8120334Y36864666D01*
X6252302Y36864666D01*
X2727356Y36864666D01*
X2720458Y36885833D01*
X2543806Y36898749D01*
X2367155Y36911665D01*
X1941744Y35605199D01*
X1838724Y35287231D01*
X1744695Y34993968D01*
X1662776Y34735376D01*
X1596085Y34521420D01*
X1547741Y34362065D01*
X1520862Y34267278D01*
X1516334Y34245644D01*
X204000Y34245644D01*
X204000Y37796000D01*
X37796000Y37796000D01*
X37796000Y204000D01*
G36*
X7373980Y3555811D02*
G01*
X7535837Y3459065D01*
X7663733Y3293000D01*
X7720342Y3160785D01*
X7758469Y2988760D01*
X7782849Y2761643D01*
X7792965Y2507969D01*
X7788304Y2256271D01*
X7768349Y2035085D01*
X7743002Y1906259D01*
X7649629Y1687795D01*
X7510923Y1536283D01*
X7331444Y1456172D01*
X7272294Y1446918D01*
X7116396Y1447894D01*
X6990223Y1477832D01*
X6978604Y1483447D01*
X6827670Y1610015D01*
X6713553Y1806567D01*
X6638520Y2065792D01*
X6604834Y2380378D01*
X6609629Y2674093D01*
X6648080Y2986117D01*
X6720363Y3225904D01*
X6829443Y3400058D01*
X6978282Y3515179D01*
X6989758Y3520949D01*
X7188506Y3578138D01*
X7373980Y3555811D01*
X7373980Y3555811D01*
G37*
X7373980Y3555811D02*
X7535837Y3459065D01*
X7663733Y3293000D01*
X7720342Y3160785D01*
X7758469Y2988760D01*
X7782849Y2761643D01*
X7792965Y2507969D01*
X7788304Y2256271D01*
X7768349Y2035085D01*
X7743002Y1906259D01*
X7649629Y1687795D01*
X7510923Y1536283D01*
X7331444Y1456172D01*
X7272294Y1446918D01*
X7116396Y1447894D01*
X6990223Y1477832D01*
X6978604Y1483447D01*
X6827670Y1610015D01*
X6713553Y1806567D01*
X6638520Y2065792D01*
X6604834Y2380378D01*
X6609629Y2674093D01*
X6648080Y2986117D01*
X6720363Y3225904D01*
X6829443Y3400058D01*
X6978282Y3515179D01*
X6989758Y3520949D01*
X7188506Y3578138D01*
X7373980Y3555811D01*
G36*
X16428250Y3539742D02*
G01*
X16670461Y3508366D01*
X16840554Y3445442D01*
X16947572Y3343542D01*
X17000554Y3195237D01*
X17010334Y3061500D01*
X16983710Y2862800D01*
X16900551Y2719099D01*
X16755928Y2626473D01*
X16544910Y2581000D01*
X16398602Y2574666D01*
X16121334Y2574666D01*
X16121334Y3559467D01*
X16428250Y3539742D01*
X16428250Y3539742D01*
G37*
X16428250Y3539742D02*
X16670461Y3508366D01*
X16840554Y3445442D01*
X16947572Y3343542D01*
X17000554Y3195237D01*
X17010334Y3061500D01*
X16983710Y2862800D01*
X16900551Y2719099D01*
X16755928Y2626473D01*
X16544910Y2581000D01*
X16398602Y2574666D01*
X16121334Y2574666D01*
X16121334Y3559467D01*
X16428250Y3539742D01*
G36*
X26047336Y13009292D02*
G01*
X26228916Y12941990D01*
X26345516Y12825829D01*
X26401310Y12657541D01*
X26407709Y12552758D01*
X26371363Y12356380D01*
X26266404Y12207397D01*
X26095926Y12108185D01*
X25863024Y12061120D01*
X25762750Y12057399D01*
X25519334Y12057333D01*
X25519334Y13031000D01*
X25796602Y13031000D01*
X26047336Y13009292D01*
X26047336Y13009292D01*
G37*
X26047336Y13009292D02*
X26228916Y12941990D01*
X26345516Y12825829D01*
X26401310Y12657541D01*
X26407709Y12552758D01*
X26371363Y12356380D01*
X26266404Y12207397D01*
X26095926Y12108185D01*
X25863024Y12061120D01*
X25762750Y12057399D01*
X25519334Y12057333D01*
X25519334Y13031000D01*
X25796602Y13031000D01*
X26047336Y13009292D01*
G36*
X26131099Y22505130D02*
G01*
X26282392Y22416290D01*
X26408183Y22253002D01*
X26412888Y22244819D01*
X26457919Y22154830D01*
X26488585Y22058716D01*
X26508438Y21935930D01*
X26521029Y21765922D01*
X26528445Y21576293D01*
X26526514Y21218127D01*
X26494800Y20933418D01*
X26431965Y20715877D01*
X26336672Y20559217D01*
X26305206Y20526542D01*
X26169894Y20448332D01*
X25994225Y20409884D01*
X25814559Y20415145D01*
X25682266Y20458926D01*
X25598238Y20533807D01*
X25510170Y20653330D01*
X25470600Y20724244D01*
X25428885Y20817314D01*
X25400680Y20909167D01*
X25383410Y21019286D01*
X25374500Y21167154D01*
X25371374Y21372254D01*
X25371167Y21476500D01*
X25372647Y21709841D01*
X25378727Y21877288D01*
X25391868Y21997586D01*
X25414532Y22089479D01*
X25449180Y22171713D01*
X25466961Y22206131D01*
X25594311Y22386777D01*
X25747688Y22491775D01*
X25938384Y22528847D01*
X25938721Y22528856D01*
X26131099Y22505130D01*
X26131099Y22505130D01*
G37*
X26131099Y22505130D02*
X26282392Y22416290D01*
X26408183Y22253002D01*
X26412888Y22244819D01*
X26457919Y22154830D01*
X26488585Y22058716D01*
X26508438Y21935930D01*
X26521029Y21765922D01*
X26528445Y21576293D01*
X26526514Y21218127D01*
X26494800Y20933418D01*
X26431965Y20715877D01*
X26336672Y20559217D01*
X26305206Y20526542D01*
X26169894Y20448332D01*
X25994225Y20409884D01*
X25814559Y20415145D01*
X25682266Y20458926D01*
X25598238Y20533807D01*
X25510170Y20653330D01*
X25470600Y20724244D01*
X25428885Y20817314D01*
X25400680Y20909167D01*
X25383410Y21019286D01*
X25374500Y21167154D01*
X25371374Y21372254D01*
X25371167Y21476500D01*
X25372647Y21709841D01*
X25378727Y21877288D01*
X25391868Y21997586D01*
X25414532Y22089479D01*
X25449180Y22171713D01*
X25466961Y22206131D01*
X25594311Y22386777D01*
X25747688Y22491775D01*
X25938384Y22528847D01*
X25938721Y22528856D01*
X26131099Y22505130D01*
G36*
X35621531Y22506044D02*
G01*
X35786167Y22412197D01*
X35875176Y22311803D01*
X35954509Y22139923D01*
X36010277Y21909264D01*
X36041401Y21642675D01*
X36046807Y21363002D01*
X36025417Y21093092D01*
X35976156Y20855793D01*
X35947659Y20773246D01*
X35837809Y20588333D01*
X35688646Y20461349D01*
X35516132Y20397585D01*
X35336232Y20402331D01*
X35164909Y20480877D01*
X35135290Y20504037D01*
X35013230Y20640343D01*
X34928377Y20818426D01*
X34877284Y21050014D01*
X34856503Y21346838D01*
X34855682Y21455333D01*
X34865676Y21758540D01*
X34895173Y21992860D01*
X34947718Y22172553D01*
X35026853Y22311882D01*
X35085156Y22378643D01*
X35250416Y22491010D01*
X35436077Y22532896D01*
X35621531Y22506044D01*
X35621531Y22506044D01*
G37*
X35621531Y22506044D02*
X35786167Y22412197D01*
X35875176Y22311803D01*
X35954509Y22139923D01*
X36010277Y21909264D01*
X36041401Y21642675D01*
X36046807Y21363002D01*
X36025417Y21093092D01*
X35976156Y20855793D01*
X35947659Y20773246D01*
X35837809Y20588333D01*
X35688646Y20461349D01*
X35516132Y20397585D01*
X35336232Y20402331D01*
X35164909Y20480877D01*
X35135290Y20504037D01*
X35013230Y20640343D01*
X34928377Y20818426D01*
X34877284Y21050014D01*
X34856503Y21346838D01*
X34855682Y21455333D01*
X34865676Y21758540D01*
X34895173Y21992860D01*
X34947718Y22172553D01*
X35026853Y22311882D01*
X35085156Y22378643D01*
X35250416Y22491010D01*
X35436077Y22532896D01*
X35621531Y22506044D01*
G36*
X2295004Y22503531D02*
G01*
X2576599Y22452936D01*
X2797006Y22349013D01*
X2959161Y22188147D01*
X3066004Y21966721D01*
X3120471Y21681118D01*
X3129234Y21476500D01*
X3103905Y21145446D01*
X3026877Y20880640D01*
X2896587Y20680105D01*
X2711469Y20541862D01*
X2469961Y20463933D01*
X2314714Y20446187D01*
X2024334Y20429779D01*
X2024334Y22525258D01*
X2295004Y22503531D01*
X2295004Y22503531D01*
G37*
X2295004Y22503531D02*
X2576599Y22452936D01*
X2797006Y22349013D01*
X2959161Y22188147D01*
X3066004Y21966721D01*
X3120471Y21681118D01*
X3129234Y21476500D01*
X3103905Y21145446D01*
X3026877Y20880640D01*
X2896587Y20680105D01*
X2711469Y20541862D01*
X2469961Y20463933D01*
X2314714Y20446187D01*
X2024334Y20429779D01*
X2024334Y22525258D01*
X2295004Y22503531D01*
G36*
X7189917Y22503810D02*
G01*
X7413761Y22449079D01*
X7576610Y22344236D01*
X7576883Y22343964D01*
X7649843Y22257360D01*
X7685761Y22165047D01*
X7696733Y22031729D01*
X7697000Y21993465D01*
X7673169Y21790348D01*
X7597458Y21639672D01*
X7463538Y21536784D01*
X7265081Y21477030D01*
X6995759Y21455758D01*
X6965447Y21455569D01*
X6720728Y21455333D01*
X6732614Y21973916D01*
X6744500Y22492500D01*
X6913834Y22506286D01*
X7189917Y22503810D01*
X7189917Y22503810D01*
G37*
X7189917Y22503810D02*
X7413761Y22449079D01*
X7576610Y22344236D01*
X7576883Y22343964D01*
X7649843Y22257360D01*
X7685761Y22165047D01*
X7696733Y22031729D01*
X7697000Y21993465D01*
X7673169Y21790348D01*
X7597458Y21639672D01*
X7463538Y21536784D01*
X7265081Y21477030D01*
X6995759Y21455758D01*
X6965447Y21455569D01*
X6720728Y21455333D01*
X6732614Y21973916D01*
X6744500Y22492500D01*
X6913834Y22506286D01*
X7189917Y22503810D01*
G36*
X11853900Y22319437D02*
G01*
X11893946Y22239946D01*
X11951247Y22085051D01*
X12018987Y21875605D01*
X12080223Y21674170D01*
X12131145Y21499821D01*
X12166925Y21369603D01*
X12182732Y21300559D01*
X12183081Y21296583D01*
X12155400Y21268000D01*
X12064546Y21250949D01*
X11901271Y21243998D01*
X11841138Y21243666D01*
X11667131Y21246582D01*
X11564771Y21256849D01*
X11521191Y21276751D01*
X11519811Y21300656D01*
X11539019Y21358764D01*
X11576578Y21478144D01*
X11626412Y21638998D01*
X11682449Y21821531D01*
X11738617Y22005944D01*
X11788843Y22172443D01*
X11827053Y22301230D01*
X11832541Y22320105D01*
X11853900Y22319437D01*
X11853900Y22319437D01*
G37*
X11853900Y22319437D02*
X11893946Y22239946D01*
X11951247Y22085051D01*
X12018987Y21875605D01*
X12080223Y21674170D01*
X12131145Y21499821D01*
X12166925Y21369603D01*
X12182732Y21300559D01*
X12183081Y21296583D01*
X12155400Y21268000D01*
X12064546Y21250949D01*
X11901271Y21243998D01*
X11841138Y21243666D01*
X11667131Y21246582D01*
X11564771Y21256849D01*
X11521191Y21276751D01*
X11519811Y21300656D01*
X11539019Y21358764D01*
X11576578Y21478144D01*
X11626412Y21638998D01*
X11682449Y21821531D01*
X11738617Y22005944D01*
X11788843Y22172443D01*
X11827053Y22301230D01*
X11832541Y22320105D01*
X11853900Y22319437D01*
G36*
X30482917Y22513430D02*
G01*
X30738767Y22494257D01*
X30936918Y22439352D01*
X31067729Y22351742D01*
X31090368Y22322697D01*
X31143436Y22181393D01*
X31158052Y22004890D01*
X31134199Y21833319D01*
X31090616Y21731349D01*
X31004147Y21635727D01*
X30884473Y21576084D01*
X30713890Y21546346D01*
X30533078Y21540000D01*
X30260667Y21540000D01*
X30260667Y22513666D01*
X30482917Y22513430D01*
X30482917Y22513430D01*
G37*
X30482917Y22513430D02*
X30738767Y22494257D01*
X30936918Y22439352D01*
X31067729Y22351742D01*
X31090368Y22322697D01*
X31143436Y22181393D01*
X31158052Y22004890D01*
X31134199Y21833319D01*
X31090616Y21731349D01*
X31004147Y21635727D01*
X30884473Y21576084D01*
X30713890Y21546346D01*
X30533078Y21540000D01*
X30260667Y21540000D01*
X30260667Y22513666D01*
X30482917Y22513430D01*
G36*
X25937041Y27115193D02*
G01*
X25980705Y27022112D01*
X26039271Y26855985D01*
X26108309Y26630100D01*
X26165710Y26433589D01*
X26215576Y26264583D01*
X26252602Y26140947D01*
X26271484Y26080545D01*
X26271589Y26080250D01*
X26258522Y26052691D01*
X26188311Y26035954D01*
X26050200Y26028301D01*
X25944343Y26027333D01*
X25773988Y26029099D01*
X25672893Y26036746D01*
X25625686Y26053799D01*
X25616993Y26083783D01*
X25621232Y26101416D01*
X25722121Y26429348D01*
X25798620Y26682937D01*
X25852509Y26868359D01*
X25885569Y26991793D01*
X25899579Y27059414D01*
X25900334Y27069706D01*
X25909757Y27132100D01*
X25937041Y27115193D01*
X25937041Y27115193D01*
G37*
X25937041Y27115193D02*
X25980705Y27022112D01*
X26039271Y26855985D01*
X26108309Y26630100D01*
X26165710Y26433589D01*
X26215576Y26264583D01*
X26252602Y26140947D01*
X26271484Y26080545D01*
X26271589Y26080250D01*
X26258522Y26052691D01*
X26188311Y26035954D01*
X26050200Y26028301D01*
X25944343Y26027333D01*
X25773988Y26029099D01*
X25672893Y26036746D01*
X25625686Y26053799D01*
X25616993Y26083783D01*
X25621232Y26101416D01*
X25722121Y26429348D01*
X25798620Y26682937D01*
X25852509Y26868359D01*
X25885569Y26991793D01*
X25899579Y27059414D01*
X25900334Y27069706D01*
X25909757Y27132100D01*
X25937041Y27115193D01*
G36*
X2741847Y31992200D02*
G01*
X2827734Y31946097D01*
X2951921Y31830877D01*
X3040485Y31672568D01*
X3096840Y31460409D01*
X3124401Y31183640D01*
X3128528Y30998121D01*
X3117075Y30656599D01*
X3079324Y30388597D01*
X3012550Y30186314D01*
X2914026Y30041953D01*
X2781028Y29947712D01*
X2757873Y29937391D01*
X2578338Y29885966D01*
X2421333Y29901297D01*
X2286037Y29965621D01*
X2162425Y30077756D01*
X2058521Y30239948D01*
X2053204Y30251212D01*
X2013333Y30348351D01*
X1986940Y30447890D01*
X1971547Y30570057D01*
X1964680Y30735079D01*
X1963861Y30963182D01*
X1963956Y30980333D01*
X1970797Y31260881D01*
X1990415Y31473506D01*
X2027123Y31634527D01*
X2085231Y31760262D01*
X2169052Y31867031D01*
X2208501Y31905986D01*
X2368024Y32001502D01*
X2554982Y32030834D01*
X2741847Y31992200D01*
X2741847Y31992200D01*
G37*
X2741847Y31992200D02*
X2827734Y31946097D01*
X2951921Y31830877D01*
X3040485Y31672568D01*
X3096840Y31460409D01*
X3124401Y31183640D01*
X3128528Y30998121D01*
X3117075Y30656599D01*
X3079324Y30388597D01*
X3012550Y30186314D01*
X2914026Y30041953D01*
X2781028Y29947712D01*
X2757873Y29937391D01*
X2578338Y29885966D01*
X2421333Y29901297D01*
X2286037Y29965621D01*
X2162425Y30077756D01*
X2058521Y30239948D01*
X2053204Y30251212D01*
X2013333Y30348351D01*
X1986940Y30447890D01*
X1971547Y30570057D01*
X1964680Y30735079D01*
X1963861Y30963182D01*
X1963956Y30980333D01*
X1970797Y31260881D01*
X1990415Y31473506D01*
X2027123Y31634527D01*
X2085231Y31760262D01*
X2169052Y31867031D01*
X2208501Y31905986D01*
X2368024Y32001502D01*
X2554982Y32030834D01*
X2741847Y31992200D01*
G36*
X11882282Y31846048D02*
G01*
X11900663Y31773721D01*
X11938476Y31640496D01*
X11989947Y31466307D01*
X12041074Y31297833D01*
X12097734Y31110749D01*
X12143802Y30953728D01*
X12174267Y30844194D01*
X12184204Y30800416D01*
X12145312Y30785556D01*
X12041969Y30774418D01*
X11894373Y30768930D01*
X11851549Y30768666D01*
X11518765Y30768666D01*
X11692627Y31348632D01*
X11754729Y31547123D01*
X11809215Y31705017D01*
X11851576Y31810491D01*
X11877306Y31851724D01*
X11882282Y31846048D01*
X11882282Y31846048D01*
G37*
X11882282Y31846048D02*
X11900663Y31773721D01*
X11938476Y31640496D01*
X11989947Y31466307D01*
X12041074Y31297833D01*
X12097734Y31110749D01*
X12143802Y30953728D01*
X12174267Y30844194D01*
X12184204Y30800416D01*
X12145312Y30785556D01*
X12041969Y30774418D01*
X11894373Y30768930D01*
X11851549Y30768666D01*
X11518765Y30768666D01*
X11692627Y31348632D01*
X11754729Y31547123D01*
X11809215Y31705017D01*
X11851576Y31810491D01*
X11877306Y31851724D01*
X11882282Y31846048D01*
G36*
X16624837Y31976914D02*
G01*
X16810678Y31915476D01*
X16932594Y31807250D01*
X16996637Y31647469D01*
X17010334Y31491103D01*
X16988376Y31340244D01*
X16910434Y31209515D01*
X16887740Y31183130D01*
X16818402Y31112394D01*
X16750181Y31069732D01*
X16657702Y31046383D01*
X16515593Y31033588D01*
X16443240Y31029668D01*
X16121334Y31013412D01*
X16121334Y31996333D01*
X16369016Y31996333D01*
X16624837Y31976914D01*
X16624837Y31976914D01*
G37*
X16624837Y31976914D02*
X16810678Y31915476D01*
X16932594Y31807250D01*
X16996637Y31647469D01*
X17010334Y31491103D01*
X16988376Y31340244D01*
X16910434Y31209515D01*
X16887740Y31183130D01*
X16818402Y31112394D01*
X16750181Y31069732D01*
X16657702Y31046383D01*
X16515593Y31033588D01*
X16443240Y31029668D01*
X16121334Y31013412D01*
X16121334Y31996333D01*
X16369016Y31996333D01*
X16624837Y31976914D01*
G36*
X30546417Y31996175D02*
G01*
X30794650Y31975214D01*
X30974579Y31910541D01*
X31092223Y31798999D01*
X31143081Y31683120D01*
X31160997Y31522793D01*
X31142352Y31347338D01*
X31092428Y31202620D01*
X31086583Y31192673D01*
X31001173Y31121871D01*
X30853526Y31065761D01*
X30665681Y31030910D01*
X30516027Y31022666D01*
X30260667Y31022666D01*
X30260667Y31996333D01*
X30546417Y31996175D01*
X30546417Y31996175D01*
G37*
X30546417Y31996175D02*
X30794650Y31975214D01*
X30974579Y31910541D01*
X31092223Y31798999D01*
X31143081Y31683120D01*
X31160997Y31522793D01*
X31142352Y31347338D01*
X31092428Y31202620D01*
X31086583Y31192673D01*
X31001173Y31121871D01*
X30853526Y31065761D01*
X30665681Y31030910D01*
X30516027Y31022666D01*
X30260667Y31022666D01*
X30260667Y31996333D01*
X30546417Y31996175D01*
G36*
X2540669Y36389093D02*
G01*
X2577218Y36299102D01*
X2626732Y36163190D01*
X2683372Y35998899D01*
X2741297Y35823768D01*
X2794666Y35655338D01*
X2837640Y35511148D01*
X2864377Y35408738D01*
X2870295Y35372416D01*
X2831630Y35357763D01*
X2728160Y35346688D01*
X2579731Y35341032D01*
X2527804Y35340666D01*
X2355699Y35343230D01*
X2254318Y35352663D01*
X2209827Y35371580D01*
X2207815Y35401142D01*
X2228669Y35464542D01*
X2267406Y35590035D01*
X2318173Y35758440D01*
X2366039Y35919725D01*
X2422008Y36106554D01*
X2470795Y36263755D01*
X2506689Y36373274D01*
X2522927Y36415625D01*
X2540669Y36389093D01*
X2540669Y36389093D01*
G37*
X2540669Y36389093D02*
X2577218Y36299102D01*
X2626732Y36163190D01*
X2683372Y35998899D01*
X2741297Y35823768D01*
X2794666Y35655338D01*
X2837640Y35511148D01*
X2864377Y35408738D01*
X2870295Y35372416D01*
X2831630Y35357763D01*
X2728160Y35346688D01*
X2579731Y35341032D01*
X2527804Y35340666D01*
X2355699Y35343230D01*
X2254318Y35352663D01*
X2209827Y35371580D01*
X2207815Y35401142D01*
X2228669Y35464542D01*
X2267406Y35590035D01*
X2318173Y35758440D01*
X2366039Y35919725D01*
X2422008Y36106554D01*
X2470795Y36263755D01*
X2506689Y36373274D01*
X2522927Y36415625D01*
X2540669Y36389093D01*
D11*
X33000000Y33500000D03*
M02*
