%TF.GenerationSoftware,KiCad,Pcbnew,5.1.0-5.1.0*%
%TF.CreationDate,2019-03-30T09:27:41+01:00*%
%TF.ProjectId,WordClock,576f7264-436c-46f6-936b-2e6b69636164,rev?*%
%TF.SameCoordinates,PX660b0c0PY5f5e100*%
%TF.FileFunction,Soldermask,Bot*%
%TF.FilePolarity,Negative*%
%FSLAX46Y46*%
G04 Gerber Fmt 4.6, Leading zero omitted, Abs format (unit mm)*
G04 Created by KiCad (PCBNEW 5.1.0-5.1.0) date 2019-03-30 09:27:41*
%MOMM*%
%LPD*%
G04 APERTURE LIST*
%ADD10C,0.010000*%
G04 APERTURE END LIST*
D10*
G36*
X2644440Y4194655D02*
G01*
X3016246Y4091736D01*
X3350336Y3922253D01*
X3639840Y3695534D01*
X3877885Y3420913D01*
X4057603Y3107720D01*
X4172120Y2765285D01*
X4214567Y2402940D01*
X4190388Y2095214D01*
X4085238Y1709042D01*
X3912744Y1367360D01*
X3680922Y1076066D01*
X3397791Y841061D01*
X3071366Y668244D01*
X2709665Y563515D01*
X2320705Y532774D01*
X2091223Y550439D01*
X1732762Y638654D01*
X1407328Y797724D01*
X1122168Y1017859D01*
X884527Y1289267D01*
X701653Y1602157D01*
X580791Y1946739D01*
X529188Y2313222D01*
X545750Y2638612D01*
X637002Y3000236D01*
X797685Y3328868D01*
X1017787Y3617085D01*
X1287294Y3857461D01*
X1596192Y4042572D01*
X1934469Y4164995D01*
X2292110Y4217304D01*
X2644440Y4194655D01*
X2644440Y4194655D01*
G37*
X2644440Y4194655D02*
X3016246Y4091736D01*
X3350336Y3922253D01*
X3639840Y3695534D01*
X3877885Y3420913D01*
X4057603Y3107720D01*
X4172120Y2765285D01*
X4214567Y2402940D01*
X4190388Y2095214D01*
X4085238Y1709042D01*
X3912744Y1367360D01*
X3680922Y1076066D01*
X3397791Y841061D01*
X3071366Y668244D01*
X2709665Y563515D01*
X2320705Y532774D01*
X2091223Y550439D01*
X1732762Y638654D01*
X1407328Y797724D01*
X1122168Y1017859D01*
X884527Y1289267D01*
X701653Y1602157D01*
X580791Y1946739D01*
X529188Y2313222D01*
X545750Y2638612D01*
X637002Y3000236D01*
X797685Y3328868D01*
X1017787Y3617085D01*
X1287294Y3857461D01*
X1596192Y4042572D01*
X1934469Y4164995D01*
X2292110Y4217304D01*
X2644440Y4194655D01*
G36*
X7388248Y4191374D02*
G01*
X7736685Y4104259D01*
X8060927Y3953765D01*
X8350754Y3744508D01*
X8595943Y3481105D01*
X8786271Y3168172D01*
X8901299Y2851522D01*
X8962366Y2458829D01*
X8940797Y2076482D01*
X8838537Y1711047D01*
X8657535Y1369094D01*
X8399734Y1057188D01*
X8357370Y1016053D01*
X8051554Y781939D01*
X7711020Y624959D01*
X7336395Y545306D01*
X6928302Y543175D01*
X6862673Y549731D01*
X6505632Y631327D01*
X6174412Y787007D01*
X5879909Y1007512D01*
X5633019Y1283584D01*
X5444638Y1605966D01*
X5362113Y1824680D01*
X5290516Y2192343D01*
X5291362Y2567920D01*
X5363302Y2929639D01*
X5443532Y3138501D01*
X5602622Y3406037D01*
X5815197Y3659663D01*
X6058559Y3875847D01*
X6300000Y4026281D01*
X6659684Y4157001D01*
X7025841Y4210494D01*
X7388248Y4191374D01*
X7388248Y4191374D01*
G37*
X7388248Y4191374D02*
X7736685Y4104259D01*
X8060927Y3953765D01*
X8350754Y3744508D01*
X8595943Y3481105D01*
X8786271Y3168172D01*
X8901299Y2851522D01*
X8962366Y2458829D01*
X8940797Y2076482D01*
X8838537Y1711047D01*
X8657535Y1369094D01*
X8399734Y1057188D01*
X8357370Y1016053D01*
X8051554Y781939D01*
X7711020Y624959D01*
X7336395Y545306D01*
X6928302Y543175D01*
X6862673Y549731D01*
X6505632Y631327D01*
X6174412Y787007D01*
X5879909Y1007512D01*
X5633019Y1283584D01*
X5444638Y1605966D01*
X5362113Y1824680D01*
X5290516Y2192343D01*
X5291362Y2567920D01*
X5363302Y2929639D01*
X5443532Y3138501D01*
X5602622Y3406037D01*
X5815197Y3659663D01*
X6058559Y3875847D01*
X6300000Y4026281D01*
X6659684Y4157001D01*
X7025841Y4210494D01*
X7388248Y4191374D01*
G36*
X12319555Y4157181D02*
G01*
X12665217Y4029464D01*
X12981042Y3836467D01*
X13255065Y3584578D01*
X13475319Y3280186D01*
X13545701Y3145128D01*
X13660761Y2805292D01*
X13707590Y2436949D01*
X13684691Y2063695D01*
X13629596Y1822624D01*
X13479842Y1466922D01*
X13266263Y1160480D01*
X12997457Y908701D01*
X12682021Y716990D01*
X12328553Y590749D01*
X11945651Y535384D01*
X11602023Y548258D01*
X11290202Y622360D01*
X10979038Y763071D01*
X10695966Y956682D01*
X10586991Y1055486D01*
X10338068Y1356560D01*
X10163793Y1682057D01*
X10061184Y2022617D01*
X10027255Y2368878D01*
X10059023Y2711477D01*
X10153503Y3041053D01*
X10307710Y3348244D01*
X10518660Y3623689D01*
X10783370Y3858026D01*
X11098854Y4041892D01*
X11462128Y4165927D01*
X11586590Y4191214D01*
X11956024Y4213228D01*
X12319555Y4157181D01*
X12319555Y4157181D01*
G37*
X12319555Y4157181D02*
X12665217Y4029464D01*
X12981042Y3836467D01*
X13255065Y3584578D01*
X13475319Y3280186D01*
X13545701Y3145128D01*
X13660761Y2805292D01*
X13707590Y2436949D01*
X13684691Y2063695D01*
X13629596Y1822624D01*
X13479842Y1466922D01*
X13266263Y1160480D01*
X12997457Y908701D01*
X12682021Y716990D01*
X12328553Y590749D01*
X11945651Y535384D01*
X11602023Y548258D01*
X11290202Y622360D01*
X10979038Y763071D01*
X10695966Y956682D01*
X10586991Y1055486D01*
X10338068Y1356560D01*
X10163793Y1682057D01*
X10061184Y2022617D01*
X10027255Y2368878D01*
X10059023Y2711477D01*
X10153503Y3041053D01*
X10307710Y3348244D01*
X10518660Y3623689D01*
X10783370Y3858026D01*
X11098854Y4041892D01*
X11462128Y4165927D01*
X11586590Y4191214D01*
X11956024Y4213228D01*
X12319555Y4157181D01*
G36*
X16880564Y4195264D02*
G01*
X17262454Y4096680D01*
X17603884Y3930042D01*
X17897775Y3703386D01*
X18137049Y3424753D01*
X18314628Y3102181D01*
X18423435Y2743707D01*
X18456672Y2405333D01*
X18425512Y2008412D01*
X18324058Y1654785D01*
X18148836Y1335751D01*
X17923261Y1069072D01*
X17617137Y820311D01*
X17274333Y646356D01*
X16902200Y549695D01*
X16508090Y532815D01*
X16375334Y545068D01*
X16007522Y632022D01*
X15671468Y791760D01*
X15375975Y1015572D01*
X15129845Y1294744D01*
X14941883Y1620568D01*
X14820892Y1984330D01*
X14797974Y2105921D01*
X14780258Y2478289D01*
X14838597Y2834999D01*
X14964923Y3167958D01*
X15151170Y3469075D01*
X15389272Y3730256D01*
X15671163Y3943409D01*
X15988776Y4100441D01*
X16334045Y4193261D01*
X16698904Y4213776D01*
X16880564Y4195264D01*
X16880564Y4195264D01*
G37*
X16880564Y4195264D02*
X17262454Y4096680D01*
X17603884Y3930042D01*
X17897775Y3703386D01*
X18137049Y3424753D01*
X18314628Y3102181D01*
X18423435Y2743707D01*
X18456672Y2405333D01*
X18425512Y2008412D01*
X18324058Y1654785D01*
X18148836Y1335751D01*
X17923261Y1069072D01*
X17617137Y820311D01*
X17274333Y646356D01*
X16902200Y549695D01*
X16508090Y532815D01*
X16375334Y545068D01*
X16007522Y632022D01*
X15671468Y791760D01*
X15375975Y1015572D01*
X15129845Y1294744D01*
X14941883Y1620568D01*
X14820892Y1984330D01*
X14797974Y2105921D01*
X14780258Y2478289D01*
X14838597Y2834999D01*
X14964923Y3167958D01*
X15151170Y3469075D01*
X15389272Y3730256D01*
X15671163Y3943409D01*
X15988776Y4100441D01*
X16334045Y4193261D01*
X16698904Y4213776D01*
X16880564Y4195264D01*
G36*
X21597860Y4199754D02*
G01*
X21943762Y4120872D01*
X22266732Y3979389D01*
X22557489Y3780423D01*
X22806753Y3529095D01*
X23005243Y3230522D01*
X23143678Y2889824D01*
X23211957Y2522139D01*
X23203718Y2144494D01*
X23119328Y1784757D01*
X22966680Y1452319D01*
X22753672Y1156569D01*
X22488197Y906900D01*
X22178151Y712701D01*
X21831429Y583364D01*
X21540000Y533497D01*
X21386107Y530153D01*
X21201722Y539568D01*
X21098890Y550439D01*
X20741291Y638564D01*
X20416176Y797539D01*
X20130865Y1017373D01*
X19892675Y1288077D01*
X19708924Y1599660D01*
X19586932Y1942133D01*
X19534017Y2305503D01*
X19554110Y2659170D01*
X19645365Y2994522D01*
X19804316Y3317566D01*
X20017947Y3610015D01*
X20273242Y3853585D01*
X20515366Y4009595D01*
X20874381Y4149234D01*
X21238306Y4210914D01*
X21597860Y4199754D01*
X21597860Y4199754D01*
G37*
X21597860Y4199754D02*
X21943762Y4120872D01*
X22266732Y3979389D01*
X22557489Y3780423D01*
X22806753Y3529095D01*
X23005243Y3230522D01*
X23143678Y2889824D01*
X23211957Y2522139D01*
X23203718Y2144494D01*
X23119328Y1784757D01*
X22966680Y1452319D01*
X22753672Y1156569D01*
X22488197Y906900D01*
X22178151Y712701D01*
X21831429Y583364D01*
X21540000Y533497D01*
X21386107Y530153D01*
X21201722Y539568D01*
X21098890Y550439D01*
X20741291Y638564D01*
X20416176Y797539D01*
X20130865Y1017373D01*
X19892675Y1288077D01*
X19708924Y1599660D01*
X19586932Y1942133D01*
X19534017Y2305503D01*
X19554110Y2659170D01*
X19645365Y2994522D01*
X19804316Y3317566D01*
X20017947Y3610015D01*
X20273242Y3853585D01*
X20515366Y4009595D01*
X20874381Y4149234D01*
X21238306Y4210914D01*
X21597860Y4199754D01*
G36*
X26379434Y4197232D02*
G01*
X26712913Y4114500D01*
X27023317Y3973217D01*
X27302874Y3779692D01*
X27543812Y3540234D01*
X27738362Y3261151D01*
X27878750Y2948752D01*
X27957206Y2609344D01*
X27965958Y2249237D01*
X27911369Y1926103D01*
X27819359Y1645313D01*
X27693641Y1405239D01*
X27516021Y1173857D01*
X27432161Y1082628D01*
X27137760Y831795D01*
X26806216Y656725D01*
X26439495Y558090D01*
X26039561Y536560D01*
X25870340Y549731D01*
X25511378Y631587D01*
X25178939Y787865D01*
X24883469Y1009864D01*
X24635412Y1288879D01*
X24445215Y1616208D01*
X24374940Y1795687D01*
X24327188Y1959119D01*
X24301543Y2110928D01*
X24294186Y2284980D01*
X24299130Y2468218D01*
X24311593Y2670790D01*
X24333597Y2822587D01*
X24373455Y2957496D01*
X24439481Y3109399D01*
X24473716Y3179748D01*
X24675815Y3501181D01*
X24936424Y3776613D01*
X25239901Y3990278D01*
X25318260Y4031045D01*
X25674336Y4161813D01*
X26030651Y4215106D01*
X26379434Y4197232D01*
X26379434Y4197232D01*
G37*
X26379434Y4197232D02*
X26712913Y4114500D01*
X27023317Y3973217D01*
X27302874Y3779692D01*
X27543812Y3540234D01*
X27738362Y3261151D01*
X27878750Y2948752D01*
X27957206Y2609344D01*
X27965958Y2249237D01*
X27911369Y1926103D01*
X27819359Y1645313D01*
X27693641Y1405239D01*
X27516021Y1173857D01*
X27432161Y1082628D01*
X27137760Y831795D01*
X26806216Y656725D01*
X26439495Y558090D01*
X26039561Y536560D01*
X25870340Y549731D01*
X25511378Y631587D01*
X25178939Y787865D01*
X24883469Y1009864D01*
X24635412Y1288879D01*
X24445215Y1616208D01*
X24374940Y1795687D01*
X24327188Y1959119D01*
X24301543Y2110928D01*
X24294186Y2284980D01*
X24299130Y2468218D01*
X24311593Y2670790D01*
X24333597Y2822587D01*
X24373455Y2957496D01*
X24439481Y3109399D01*
X24473716Y3179748D01*
X24675815Y3501181D01*
X24936424Y3776613D01*
X25239901Y3990278D01*
X25318260Y4031045D01*
X25674336Y4161813D01*
X26030651Y4215106D01*
X26379434Y4197232D01*
G36*
X31140015Y4196082D02*
G01*
X31487917Y4110280D01*
X31812253Y3959289D01*
X32102700Y3747508D01*
X32348934Y3479337D01*
X32540631Y3159176D01*
X32632347Y2921253D01*
X32707745Y2542213D01*
X32704503Y2164398D01*
X32626663Y1799447D01*
X32478266Y1458996D01*
X32263353Y1154683D01*
X31985967Y898144D01*
X31911504Y845615D01*
X31573875Y663036D01*
X31220686Y559127D01*
X30840661Y531308D01*
X30611013Y548113D01*
X30262206Y630829D01*
X29938545Y786304D01*
X29649877Y1004023D01*
X29406052Y1273470D01*
X29216919Y1584133D01*
X29092326Y1925495D01*
X29045312Y2219697D01*
X29056531Y2625652D01*
X29144997Y3001958D01*
X29307138Y3342271D01*
X29539380Y3640245D01*
X29838150Y3889536D01*
X30058159Y4018349D01*
X30414813Y4154516D01*
X30778873Y4212294D01*
X31140015Y4196082D01*
X31140015Y4196082D01*
G37*
X31140015Y4196082D02*
X31487917Y4110280D01*
X31812253Y3959289D01*
X32102700Y3747508D01*
X32348934Y3479337D01*
X32540631Y3159176D01*
X32632347Y2921253D01*
X32707745Y2542213D01*
X32704503Y2164398D01*
X32626663Y1799447D01*
X32478266Y1458996D01*
X32263353Y1154683D01*
X31985967Y898144D01*
X31911504Y845615D01*
X31573875Y663036D01*
X31220686Y559127D01*
X30840661Y531308D01*
X30611013Y548113D01*
X30262206Y630829D01*
X29938545Y786304D01*
X29649877Y1004023D01*
X29406052Y1273470D01*
X29216919Y1584133D01*
X29092326Y1925495D01*
X29045312Y2219697D01*
X29056531Y2625652D01*
X29144997Y3001958D01*
X29307138Y3342271D01*
X29539380Y3640245D01*
X29838150Y3889536D01*
X30058159Y4018349D01*
X30414813Y4154516D01*
X30778873Y4212294D01*
X31140015Y4196082D01*
G36*
X36051289Y4165327D02*
G01*
X36399675Y4043082D01*
X36717284Y3855575D01*
X36944592Y3655221D01*
X37184059Y3348188D01*
X37348089Y3021794D01*
X37440882Y2684403D01*
X37466638Y2344381D01*
X37429558Y2010093D01*
X37333843Y1689906D01*
X37183692Y1392184D01*
X36983305Y1125294D01*
X36736884Y897600D01*
X36448628Y717469D01*
X36122737Y593265D01*
X35763413Y533355D01*
X35383000Y545068D01*
X35011641Y632313D01*
X34674144Y792106D01*
X34378702Y1016316D01*
X34133506Y1296810D01*
X33946750Y1625456D01*
X33826626Y1994121D01*
X33804736Y2111769D01*
X33787256Y2486798D01*
X33847521Y2848227D01*
X33978720Y3186768D01*
X34174039Y3493137D01*
X34426667Y3758045D01*
X34729793Y3972207D01*
X35076604Y4126336D01*
X35330220Y4191432D01*
X35689135Y4216660D01*
X36051289Y4165327D01*
X36051289Y4165327D01*
G37*
X36051289Y4165327D02*
X36399675Y4043082D01*
X36717284Y3855575D01*
X36944592Y3655221D01*
X37184059Y3348188D01*
X37348089Y3021794D01*
X37440882Y2684403D01*
X37466638Y2344381D01*
X37429558Y2010093D01*
X37333843Y1689906D01*
X37183692Y1392184D01*
X36983305Y1125294D01*
X36736884Y897600D01*
X36448628Y717469D01*
X36122737Y593265D01*
X35763413Y533355D01*
X35383000Y545068D01*
X35011641Y632313D01*
X34674144Y792106D01*
X34378702Y1016316D01*
X34133506Y1296810D01*
X33946750Y1625456D01*
X33826626Y1994121D01*
X33804736Y2111769D01*
X33787256Y2486798D01*
X33847521Y2848227D01*
X33978720Y3186768D01*
X34174039Y3493137D01*
X34426667Y3758045D01*
X34729793Y3972207D01*
X35076604Y4126336D01*
X35330220Y4191432D01*
X35689135Y4216660D01*
X36051289Y4165327D01*
G36*
X2363000Y8943588D02*
G01*
X2677426Y8928785D01*
X2935963Y8882385D01*
X3164120Y8796086D01*
X3387406Y8661587D01*
X3509129Y8570575D01*
X3778875Y8306705D01*
X3988338Y7994053D01*
X4132208Y7646907D01*
X4205180Y7279553D01*
X4201945Y6906280D01*
X4179591Y6765666D01*
X4075722Y6437438D01*
X3906784Y6122499D01*
X3686811Y5839825D01*
X3429836Y5608390D01*
X3233045Y5485799D01*
X2885330Y5353292D01*
X2509983Y5290633D01*
X2129509Y5299442D01*
X1769195Y5380387D01*
X1417984Y5542521D01*
X1116666Y5767347D01*
X871110Y6045237D01*
X687184Y6366562D01*
X570758Y6721694D01*
X527700Y7101004D01*
X545924Y7387306D01*
X638741Y7758039D01*
X806519Y8096766D01*
X1042881Y8394992D01*
X1341451Y8644220D01*
X1601000Y8793217D01*
X1749007Y8862099D01*
X1865633Y8906254D01*
X1977981Y8931030D01*
X2113153Y8941776D01*
X2298249Y8943839D01*
X2363000Y8943588D01*
X2363000Y8943588D01*
G37*
X2363000Y8943588D02*
X2677426Y8928785D01*
X2935963Y8882385D01*
X3164120Y8796086D01*
X3387406Y8661587D01*
X3509129Y8570575D01*
X3778875Y8306705D01*
X3988338Y7994053D01*
X4132208Y7646907D01*
X4205180Y7279553D01*
X4201945Y6906280D01*
X4179591Y6765666D01*
X4075722Y6437438D01*
X3906784Y6122499D01*
X3686811Y5839825D01*
X3429836Y5608390D01*
X3233045Y5485799D01*
X2885330Y5353292D01*
X2509983Y5290633D01*
X2129509Y5299442D01*
X1769195Y5380387D01*
X1417984Y5542521D01*
X1116666Y5767347D01*
X871110Y6045237D01*
X687184Y6366562D01*
X570758Y6721694D01*
X527700Y7101004D01*
X545924Y7387306D01*
X638741Y7758039D01*
X806519Y8096766D01*
X1042881Y8394992D01*
X1341451Y8644220D01*
X1601000Y8793217D01*
X1749007Y8862099D01*
X1865633Y8906254D01*
X1977981Y8931030D01*
X2113153Y8941776D01*
X2298249Y8943839D01*
X2363000Y8943588D01*
G36*
X7521718Y8921252D02*
G01*
X7856075Y8815012D01*
X8169320Y8641689D01*
X8451305Y8400202D01*
X8607270Y8214037D01*
X8795207Y7889549D01*
X8912296Y7532171D01*
X8957361Y7157120D01*
X8929222Y6779617D01*
X8826704Y6414881D01*
X8758217Y6263319D01*
X8590415Y6009216D01*
X8361111Y5768874D01*
X8093099Y5563986D01*
X7920106Y5465567D01*
X7759622Y5389770D01*
X7630678Y5342063D01*
X7501896Y5315137D01*
X7341900Y5301680D01*
X7193749Y5296338D01*
X6939985Y5297575D01*
X6734845Y5315445D01*
X6617500Y5341104D01*
X6253761Y5500187D01*
X5931694Y5718432D01*
X5665973Y5984832D01*
X5555457Y6137918D01*
X5398341Y6459701D01*
X5307618Y6815446D01*
X5284586Y7185195D01*
X5330544Y7548991D01*
X5442255Y7877277D01*
X5640335Y8210395D01*
X5888320Y8483986D01*
X6176063Y8696970D01*
X6493420Y8848268D01*
X6830245Y8936801D01*
X7176393Y8961489D01*
X7521718Y8921252D01*
X7521718Y8921252D01*
G37*
X7521718Y8921252D02*
X7856075Y8815012D01*
X8169320Y8641689D01*
X8451305Y8400202D01*
X8607270Y8214037D01*
X8795207Y7889549D01*
X8912296Y7532171D01*
X8957361Y7157120D01*
X8929222Y6779617D01*
X8826704Y6414881D01*
X8758217Y6263319D01*
X8590415Y6009216D01*
X8361111Y5768874D01*
X8093099Y5563986D01*
X7920106Y5465567D01*
X7759622Y5389770D01*
X7630678Y5342063D01*
X7501896Y5315137D01*
X7341900Y5301680D01*
X7193749Y5296338D01*
X6939985Y5297575D01*
X6734845Y5315445D01*
X6617500Y5341104D01*
X6253761Y5500187D01*
X5931694Y5718432D01*
X5665973Y5984832D01*
X5555457Y6137918D01*
X5398341Y6459701D01*
X5307618Y6815446D01*
X5284586Y7185195D01*
X5330544Y7548991D01*
X5442255Y7877277D01*
X5640335Y8210395D01*
X5888320Y8483986D01*
X6176063Y8696970D01*
X6493420Y8848268D01*
X6830245Y8936801D01*
X7176393Y8961489D01*
X7521718Y8921252D01*
G36*
X12322047Y8904768D02*
G01*
X12651992Y8786076D01*
X12957775Y8604057D01*
X13229369Y8359816D01*
X13456747Y8054460D01*
X13551639Y7877277D01*
X13612075Y7743861D01*
X13651282Y7633165D01*
X13673817Y7519907D01*
X13684236Y7378810D01*
X13687098Y7184593D01*
X13687167Y7125500D01*
X13685470Y6914262D01*
X13677342Y6762390D01*
X13658225Y6644605D01*
X13623562Y6535627D01*
X13568795Y6410176D01*
X13551639Y6373722D01*
X13343142Y6030109D01*
X13071017Y5738947D01*
X12743914Y5509044D01*
X12657909Y5463822D01*
X12498116Y5388557D01*
X12368568Y5341121D01*
X12237806Y5314160D01*
X12074374Y5300321D01*
X11935082Y5294859D01*
X11698931Y5293178D01*
X11519862Y5307190D01*
X11371295Y5339596D01*
X11315947Y5357779D01*
X10947650Y5529498D01*
X10633951Y5758287D01*
X10380208Y6036307D01*
X10191777Y6355723D01*
X10074013Y6708695D01*
X10032275Y7087388D01*
X10036942Y7229226D01*
X10102035Y7624819D01*
X10239291Y7977888D01*
X10396460Y8225155D01*
X10660820Y8509638D01*
X10961178Y8724161D01*
X11287506Y8869831D01*
X11629778Y8947751D01*
X11977967Y8959029D01*
X12322047Y8904768D01*
X12322047Y8904768D01*
G37*
X12322047Y8904768D02*
X12651992Y8786076D01*
X12957775Y8604057D01*
X13229369Y8359816D01*
X13456747Y8054460D01*
X13551639Y7877277D01*
X13612075Y7743861D01*
X13651282Y7633165D01*
X13673817Y7519907D01*
X13684236Y7378810D01*
X13687098Y7184593D01*
X13687167Y7125500D01*
X13685470Y6914262D01*
X13677342Y6762390D01*
X13658225Y6644605D01*
X13623562Y6535627D01*
X13568795Y6410176D01*
X13551639Y6373722D01*
X13343142Y6030109D01*
X13071017Y5738947D01*
X12743914Y5509044D01*
X12657909Y5463822D01*
X12498116Y5388557D01*
X12368568Y5341121D01*
X12237806Y5314160D01*
X12074374Y5300321D01*
X11935082Y5294859D01*
X11698931Y5293178D01*
X11519862Y5307190D01*
X11371295Y5339596D01*
X11315947Y5357779D01*
X10947650Y5529498D01*
X10633951Y5758287D01*
X10380208Y6036307D01*
X10191777Y6355723D01*
X10074013Y6708695D01*
X10032275Y7087388D01*
X10036942Y7229226D01*
X10102035Y7624819D01*
X10239291Y7977888D01*
X10396460Y8225155D01*
X10660820Y8509638D01*
X10961178Y8724161D01*
X11287506Y8869831D01*
X11629778Y8947751D01*
X11977967Y8959029D01*
X12322047Y8904768D01*
G36*
X16820037Y8953215D02*
G01*
X17187047Y8873960D01*
X17403877Y8787382D01*
X17746107Y8581293D01*
X18026450Y8320650D01*
X18240513Y8012312D01*
X18383904Y7663136D01*
X18452231Y7279984D01*
X18457588Y7141811D01*
X18429911Y6775446D01*
X18338590Y6447692D01*
X18176385Y6134017D01*
X18146718Y6088496D01*
X17900322Y5793149D01*
X17602002Y5560471D01*
X17262279Y5395957D01*
X16891673Y5305099D01*
X16614291Y5288333D01*
X16440169Y5295144D01*
X16280597Y5308712D01*
X16175581Y5325048D01*
X15925698Y5413720D01*
X15662880Y5556862D01*
X15417851Y5736405D01*
X15314162Y5831622D01*
X15069574Y6132997D01*
X14898054Y6469126D01*
X14801271Y6829263D01*
X14780893Y7202661D01*
X14838586Y7578574D01*
X14976020Y7946255D01*
X14983624Y7961480D01*
X15190430Y8282425D01*
X15451804Y8546179D01*
X15756597Y8748939D01*
X16093665Y8886900D01*
X16451861Y8956260D01*
X16820037Y8953215D01*
X16820037Y8953215D01*
G37*
X16820037Y8953215D02*
X17187047Y8873960D01*
X17403877Y8787382D01*
X17746107Y8581293D01*
X18026450Y8320650D01*
X18240513Y8012312D01*
X18383904Y7663136D01*
X18452231Y7279984D01*
X18457588Y7141811D01*
X18429911Y6775446D01*
X18338590Y6447692D01*
X18176385Y6134017D01*
X18146718Y6088496D01*
X17900322Y5793149D01*
X17602002Y5560471D01*
X17262279Y5395957D01*
X16891673Y5305099D01*
X16614291Y5288333D01*
X16440169Y5295144D01*
X16280597Y5308712D01*
X16175581Y5325048D01*
X15925698Y5413720D01*
X15662880Y5556862D01*
X15417851Y5736405D01*
X15314162Y5831622D01*
X15069574Y6132997D01*
X14898054Y6469126D01*
X14801271Y6829263D01*
X14780893Y7202661D01*
X14838586Y7578574D01*
X14976020Y7946255D01*
X14983624Y7961480D01*
X15190430Y8282425D01*
X15451804Y8546179D01*
X15756597Y8748939D01*
X16093665Y8886900D01*
X16451861Y8956260D01*
X16820037Y8953215D01*
G36*
X21370667Y8943588D02*
G01*
X21685093Y8928785D01*
X21943629Y8882385D01*
X22171786Y8796086D01*
X22395073Y8661587D01*
X22516795Y8570575D01*
X22788764Y8306057D01*
X23003145Y7984113D01*
X23112795Y7743790D01*
X23182254Y7481042D01*
X23209896Y7178310D01*
X23195777Y6869196D01*
X23139954Y6587301D01*
X23110673Y6501540D01*
X22932494Y6147498D01*
X22697096Y5842808D01*
X22413984Y5597376D01*
X22092662Y5421109D01*
X22062549Y5409113D01*
X21757907Y5325995D01*
X21421861Y5292126D01*
X21086790Y5308255D01*
X20785072Y5375128D01*
X20772851Y5379324D01*
X20422380Y5541481D01*
X20129458Y5756616D01*
X19894551Y6015178D01*
X19718126Y6307614D01*
X19600647Y6624375D01*
X19542582Y6955908D01*
X19544395Y7292662D01*
X19606553Y7625086D01*
X19729522Y7943629D01*
X19913766Y8238738D01*
X20159753Y8500864D01*
X20467949Y8720453D01*
X20606342Y8793092D01*
X20755493Y8862056D01*
X20872941Y8906254D01*
X20985903Y8931044D01*
X21121593Y8941785D01*
X21307227Y8943835D01*
X21370667Y8943588D01*
X21370667Y8943588D01*
G37*
X21370667Y8943588D02*
X21685093Y8928785D01*
X21943629Y8882385D01*
X22171786Y8796086D01*
X22395073Y8661587D01*
X22516795Y8570575D01*
X22788764Y8306057D01*
X23003145Y7984113D01*
X23112795Y7743790D01*
X23182254Y7481042D01*
X23209896Y7178310D01*
X23195777Y6869196D01*
X23139954Y6587301D01*
X23110673Y6501540D01*
X22932494Y6147498D01*
X22697096Y5842808D01*
X22413984Y5597376D01*
X22092662Y5421109D01*
X22062549Y5409113D01*
X21757907Y5325995D01*
X21421861Y5292126D01*
X21086790Y5308255D01*
X20785072Y5375128D01*
X20772851Y5379324D01*
X20422380Y5541481D01*
X20129458Y5756616D01*
X19894551Y6015178D01*
X19718126Y6307614D01*
X19600647Y6624375D01*
X19542582Y6955908D01*
X19544395Y7292662D01*
X19606553Y7625086D01*
X19729522Y7943629D01*
X19913766Y8238738D01*
X20159753Y8500864D01*
X20467949Y8720453D01*
X20606342Y8793092D01*
X20755493Y8862056D01*
X20872941Y8906254D01*
X20985903Y8931044D01*
X21121593Y8941785D01*
X21307227Y8943835D01*
X21370667Y8943588D01*
G36*
X26529516Y8921097D02*
G01*
X26863891Y8814835D01*
X27177132Y8641518D01*
X27459083Y8400069D01*
X27614936Y8214037D01*
X27802873Y7889549D01*
X27919963Y7532171D01*
X27965027Y7157120D01*
X27936889Y6779617D01*
X27834371Y6414881D01*
X27765884Y6263319D01*
X27598082Y6009216D01*
X27368778Y5768874D01*
X27100766Y5563986D01*
X26927773Y5465567D01*
X26766618Y5389550D01*
X26636610Y5341642D01*
X26506195Y5314428D01*
X26343817Y5300494D01*
X26201416Y5294896D01*
X25977327Y5292596D01*
X25807031Y5304409D01*
X25660329Y5333776D01*
X25547546Y5369419D01*
X25195002Y5534936D01*
X24883341Y5763199D01*
X24627497Y6042139D01*
X24526463Y6194636D01*
X24383250Y6518288D01*
X24305818Y6875205D01*
X24295126Y7244186D01*
X24352131Y7604029D01*
X24450345Y7878010D01*
X24648259Y8210929D01*
X24896138Y8484344D01*
X25183825Y8697175D01*
X25501163Y8848344D01*
X25837996Y8936773D01*
X26184166Y8961384D01*
X26529516Y8921097D01*
X26529516Y8921097D01*
G37*
X26529516Y8921097D02*
X26863891Y8814835D01*
X27177132Y8641518D01*
X27459083Y8400069D01*
X27614936Y8214037D01*
X27802873Y7889549D01*
X27919963Y7532171D01*
X27965027Y7157120D01*
X27936889Y6779617D01*
X27834371Y6414881D01*
X27765884Y6263319D01*
X27598082Y6009216D01*
X27368778Y5768874D01*
X27100766Y5563986D01*
X26927773Y5465567D01*
X26766618Y5389550D01*
X26636610Y5341642D01*
X26506195Y5314428D01*
X26343817Y5300494D01*
X26201416Y5294896D01*
X25977327Y5292596D01*
X25807031Y5304409D01*
X25660329Y5333776D01*
X25547546Y5369419D01*
X25195002Y5534936D01*
X24883341Y5763199D01*
X24627497Y6042139D01*
X24526463Y6194636D01*
X24383250Y6518288D01*
X24305818Y6875205D01*
X24295126Y7244186D01*
X24352131Y7604029D01*
X24450345Y7878010D01*
X24648259Y8210929D01*
X24896138Y8484344D01*
X25183825Y8697175D01*
X25501163Y8848344D01*
X25837996Y8936773D01*
X26184166Y8961384D01*
X26529516Y8921097D01*
G36*
X31235013Y8933315D02*
G01*
X31568356Y8833799D01*
X31886167Y8664194D01*
X32179309Y8421152D01*
X32210514Y8388884D01*
X32344112Y8225820D01*
X32475164Y8030623D01*
X32559305Y7877277D01*
X32619742Y7743861D01*
X32658949Y7633165D01*
X32681483Y7519907D01*
X32691903Y7378810D01*
X32694765Y7184593D01*
X32694834Y7125500D01*
X32693137Y6914262D01*
X32685009Y6762390D01*
X32665892Y6644605D01*
X32631228Y6535627D01*
X32576462Y6410176D01*
X32559305Y6373722D01*
X32350809Y6030109D01*
X32078684Y5738947D01*
X31751581Y5509044D01*
X31665575Y5463822D01*
X31505782Y5388557D01*
X31376234Y5341121D01*
X31245473Y5314160D01*
X31082040Y5300321D01*
X30942749Y5294859D01*
X30706598Y5293178D01*
X30527529Y5307190D01*
X30378962Y5339596D01*
X30323614Y5357779D01*
X29954104Y5530069D01*
X29639850Y5759586D01*
X29386060Y6038724D01*
X29197941Y6359874D01*
X29080703Y6715428D01*
X29039553Y7097779D01*
X29043507Y7227736D01*
X29105495Y7608267D01*
X29234179Y7948859D01*
X29420424Y8246162D01*
X29655093Y8496826D01*
X29929049Y8697501D01*
X30233156Y8844837D01*
X30558276Y8935485D01*
X30895274Y8966094D01*
X31235013Y8933315D01*
X31235013Y8933315D01*
G37*
X31235013Y8933315D02*
X31568356Y8833799D01*
X31886167Y8664194D01*
X32179309Y8421152D01*
X32210514Y8388884D01*
X32344112Y8225820D01*
X32475164Y8030623D01*
X32559305Y7877277D01*
X32619742Y7743861D01*
X32658949Y7633165D01*
X32681483Y7519907D01*
X32691903Y7378810D01*
X32694765Y7184593D01*
X32694834Y7125500D01*
X32693137Y6914262D01*
X32685009Y6762390D01*
X32665892Y6644605D01*
X32631228Y6535627D01*
X32576462Y6410176D01*
X32559305Y6373722D01*
X32350809Y6030109D01*
X32078684Y5738947D01*
X31751581Y5509044D01*
X31665575Y5463822D01*
X31505782Y5388557D01*
X31376234Y5341121D01*
X31245473Y5314160D01*
X31082040Y5300321D01*
X30942749Y5294859D01*
X30706598Y5293178D01*
X30527529Y5307190D01*
X30378962Y5339596D01*
X30323614Y5357779D01*
X29954104Y5530069D01*
X29639850Y5759586D01*
X29386060Y6038724D01*
X29197941Y6359874D01*
X29080703Y6715428D01*
X29039553Y7097779D01*
X29043507Y7227736D01*
X29105495Y7608267D01*
X29234179Y7948859D01*
X29420424Y8246162D01*
X29655093Y8496826D01*
X29929049Y8697501D01*
X30233156Y8844837D01*
X30558276Y8935485D01*
X30895274Y8966094D01*
X31235013Y8933315D01*
G36*
X35813036Y8957339D02*
G01*
X36177754Y8879312D01*
X36422170Y8779635D01*
X36769189Y8565744D01*
X37048755Y8302252D01*
X37258380Y7993136D01*
X37395572Y7642377D01*
X37457841Y7253953D01*
X37461527Y7119022D01*
X37421253Y6729744D01*
X37308462Y6371445D01*
X37130719Y6051648D01*
X36895592Y5777878D01*
X36610646Y5557658D01*
X36283449Y5398513D01*
X35921566Y5307966D01*
X35621958Y5289765D01*
X35454185Y5295415D01*
X35307036Y5304643D01*
X35213810Y5315244D01*
X34993612Y5383999D01*
X34751542Y5504936D01*
X34515730Y5661916D01*
X34331073Y5821702D01*
X34083836Y6125875D01*
X33909498Y6463659D01*
X33809848Y6824125D01*
X33786673Y7196345D01*
X33841762Y7569392D01*
X33976903Y7932336D01*
X33983547Y7945596D01*
X34192734Y8272269D01*
X34454349Y8540557D01*
X34757788Y8746834D01*
X35092451Y8887474D01*
X35447735Y8958851D01*
X35813036Y8957339D01*
X35813036Y8957339D01*
G37*
X35813036Y8957339D02*
X36177754Y8879312D01*
X36422170Y8779635D01*
X36769189Y8565744D01*
X37048755Y8302252D01*
X37258380Y7993136D01*
X37395572Y7642377D01*
X37457841Y7253953D01*
X37461527Y7119022D01*
X37421253Y6729744D01*
X37308462Y6371445D01*
X37130719Y6051648D01*
X36895592Y5777878D01*
X36610646Y5557658D01*
X36283449Y5398513D01*
X35921566Y5307966D01*
X35621958Y5289765D01*
X35454185Y5295415D01*
X35307036Y5304643D01*
X35213810Y5315244D01*
X34993612Y5383999D01*
X34751542Y5504936D01*
X34515730Y5661916D01*
X34331073Y5821702D01*
X34083836Y6125875D01*
X33909498Y6463659D01*
X33809848Y6824125D01*
X33786673Y7196345D01*
X33841762Y7569392D01*
X33976903Y7932336D01*
X33983547Y7945596D01*
X34192734Y8272269D01*
X34454349Y8540557D01*
X34757788Y8746834D01*
X35092451Y8887474D01*
X35447735Y8958851D01*
X35813036Y8957339D01*
G36*
X2577757Y13686104D02*
G01*
X2729952Y13679738D01*
X2846076Y13663301D01*
X2950428Y13632025D01*
X3067306Y13581143D01*
X3176220Y13528028D01*
X3514137Y13316486D01*
X3790156Y13048202D01*
X4001268Y12727263D01*
X4144468Y12357756D01*
X4190907Y12148868D01*
X4214300Y11780956D01*
X4161914Y11429128D01*
X4042066Y11100629D01*
X3863073Y10802702D01*
X3633254Y10542590D01*
X3360924Y10327538D01*
X3054402Y10164788D01*
X2722005Y10061584D01*
X2372050Y10025171D01*
X2012855Y10062790D01*
X1846436Y10107071D01*
X1486141Y10261268D01*
X1182136Y10469341D01*
X935150Y10721873D01*
X745909Y11009450D01*
X615140Y11322657D01*
X543572Y11652078D01*
X531931Y11988298D01*
X580944Y12321902D01*
X691340Y12643476D01*
X863845Y12943604D01*
X1099188Y13212870D01*
X1398094Y13441860D01*
X1580999Y13542926D01*
X1713013Y13605349D01*
X1820098Y13646557D01*
X1926142Y13670945D01*
X2055037Y13682906D01*
X2230672Y13686836D01*
X2365196Y13687166D01*
X2577757Y13686104D01*
X2577757Y13686104D01*
G37*
X2577757Y13686104D02*
X2729952Y13679738D01*
X2846076Y13663301D01*
X2950428Y13632025D01*
X3067306Y13581143D01*
X3176220Y13528028D01*
X3514137Y13316486D01*
X3790156Y13048202D01*
X4001268Y12727263D01*
X4144468Y12357756D01*
X4190907Y12148868D01*
X4214300Y11780956D01*
X4161914Y11429128D01*
X4042066Y11100629D01*
X3863073Y10802702D01*
X3633254Y10542590D01*
X3360924Y10327538D01*
X3054402Y10164788D01*
X2722005Y10061584D01*
X2372050Y10025171D01*
X2012855Y10062790D01*
X1846436Y10107071D01*
X1486141Y10261268D01*
X1182136Y10469341D01*
X935150Y10721873D01*
X745909Y11009450D01*
X615140Y11322657D01*
X543572Y11652078D01*
X531931Y11988298D01*
X580944Y12321902D01*
X691340Y12643476D01*
X863845Y12943604D01*
X1099188Y13212870D01*
X1398094Y13441860D01*
X1580999Y13542926D01*
X1713013Y13605349D01*
X1820098Y13646557D01*
X1926142Y13670945D01*
X2055037Y13682906D01*
X2230672Y13686836D01*
X2365196Y13687166D01*
X2577757Y13686104D01*
G36*
X7224483Y13700801D02*
G01*
X7604389Y13646250D01*
X7947330Y13518231D01*
X8262945Y13312594D01*
X8395415Y13196670D01*
X8640978Y12910784D01*
X8815074Y12593567D01*
X8919825Y12255558D01*
X8957353Y11907299D01*
X8929778Y11559329D01*
X8839224Y11222189D01*
X8687811Y10906417D01*
X8477661Y10622556D01*
X8210895Y10381144D01*
X7889636Y10192721D01*
X7781667Y10147614D01*
X7530877Y10079665D01*
X7240942Y10044254D01*
X6947733Y10043209D01*
X6687119Y10078357D01*
X6643096Y10089600D01*
X6276405Y10235297D01*
X5952534Y10451241D01*
X5679729Y10730391D01*
X5466239Y11065707D01*
X5442678Y11114323D01*
X5334268Y11433417D01*
X5286886Y11780762D01*
X5299660Y12133943D01*
X5371718Y12470548D01*
X5502185Y12768162D01*
X5507440Y12777000D01*
X5751186Y13110438D01*
X6037347Y13370836D01*
X6363997Y13557157D01*
X6729209Y13668366D01*
X7131056Y13703425D01*
X7224483Y13700801D01*
X7224483Y13700801D01*
G37*
X7224483Y13700801D02*
X7604389Y13646250D01*
X7947330Y13518231D01*
X8262945Y13312594D01*
X8395415Y13196670D01*
X8640978Y12910784D01*
X8815074Y12593567D01*
X8919825Y12255558D01*
X8957353Y11907299D01*
X8929778Y11559329D01*
X8839224Y11222189D01*
X8687811Y10906417D01*
X8477661Y10622556D01*
X8210895Y10381144D01*
X7889636Y10192721D01*
X7781667Y10147614D01*
X7530877Y10079665D01*
X7240942Y10044254D01*
X6947733Y10043209D01*
X6687119Y10078357D01*
X6643096Y10089600D01*
X6276405Y10235297D01*
X5952534Y10451241D01*
X5679729Y10730391D01*
X5466239Y11065707D01*
X5442678Y11114323D01*
X5334268Y11433417D01*
X5286886Y11780762D01*
X5299660Y12133943D01*
X5371718Y12470548D01*
X5502185Y12768162D01*
X5507440Y12777000D01*
X5751186Y13110438D01*
X6037347Y13370836D01*
X6363997Y13557157D01*
X6729209Y13668366D01*
X7131056Y13703425D01*
X7224483Y13700801D01*
G36*
X12189768Y13683708D02*
G01*
X12545547Y13591042D01*
X12807693Y13467679D01*
X13002420Y13327663D01*
X13202759Y13140915D01*
X13378738Y12937530D01*
X13471557Y12801076D01*
X13616204Y12474764D01*
X13694298Y12115908D01*
X13704869Y11745472D01*
X13646946Y11384423D01*
X13549655Y11114323D01*
X13348159Y10777323D01*
X13090808Y10496813D01*
X12787802Y10277596D01*
X12449342Y10124474D01*
X12085626Y10042251D01*
X11706854Y10035728D01*
X11381027Y10093197D01*
X11030549Y10229837D01*
X10716420Y10436288D01*
X10449406Y10701652D01*
X10240272Y11015033D01*
X10099782Y11365531D01*
X10090626Y11399477D01*
X10031552Y11787078D01*
X10052569Y12165642D01*
X10149100Y12525573D01*
X10316573Y12857273D01*
X10550412Y13151143D01*
X10846042Y13397586D01*
X11115813Y13550352D01*
X11454579Y13664356D01*
X11819338Y13708477D01*
X12189768Y13683708D01*
X12189768Y13683708D01*
G37*
X12189768Y13683708D02*
X12545547Y13591042D01*
X12807693Y13467679D01*
X13002420Y13327663D01*
X13202759Y13140915D01*
X13378738Y12937530D01*
X13471557Y12801076D01*
X13616204Y12474764D01*
X13694298Y12115908D01*
X13704869Y11745472D01*
X13646946Y11384423D01*
X13549655Y11114323D01*
X13348159Y10777323D01*
X13090808Y10496813D01*
X12787802Y10277596D01*
X12449342Y10124474D01*
X12085626Y10042251D01*
X11706854Y10035728D01*
X11381027Y10093197D01*
X11030549Y10229837D01*
X10716420Y10436288D01*
X10449406Y10701652D01*
X10240272Y11015033D01*
X10099782Y11365531D01*
X10090626Y11399477D01*
X10031552Y11787078D01*
X10052569Y12165642D01*
X10149100Y12525573D01*
X10316573Y12857273D01*
X10550412Y13151143D01*
X10846042Y13397586D01*
X11115813Y13550352D01*
X11454579Y13664356D01*
X11819338Y13708477D01*
X12189768Y13683708D01*
G36*
X16843098Y13685885D02*
G01*
X16996209Y13679089D01*
X17112675Y13662350D01*
X17216502Y13631240D01*
X17331696Y13581331D01*
X17411335Y13542926D01*
X17748363Y13333821D01*
X18025044Y13069356D01*
X18237203Y12757520D01*
X18380665Y12406304D01*
X18451254Y12023697D01*
X18444793Y11617689D01*
X18439641Y11575282D01*
X18354721Y11240492D01*
X18196855Y10923967D01*
X17977542Y10637864D01*
X17708281Y10394345D01*
X17400573Y10205569D01*
X17065916Y10083695D01*
X17018833Y10072932D01*
X16733861Y10035670D01*
X16438899Y10036475D01*
X16195592Y10071221D01*
X15846563Y10195622D01*
X15530791Y10391206D01*
X15257460Y10647985D01*
X15035755Y10955969D01*
X14874861Y11305168D01*
X14799300Y11589830D01*
X14774853Y11944532D01*
X14827682Y12298166D01*
X14951152Y12638399D01*
X15138625Y12952898D01*
X15383465Y13229331D01*
X15679035Y13455364D01*
X15854565Y13550785D01*
X15985274Y13610243D01*
X16093463Y13649347D01*
X16203227Y13672339D01*
X16338662Y13683461D01*
X16523863Y13686954D01*
X16629334Y13687166D01*
X16843098Y13685885D01*
X16843098Y13685885D01*
G37*
X16843098Y13685885D02*
X16996209Y13679089D01*
X17112675Y13662350D01*
X17216502Y13631240D01*
X17331696Y13581331D01*
X17411335Y13542926D01*
X17748363Y13333821D01*
X18025044Y13069356D01*
X18237203Y12757520D01*
X18380665Y12406304D01*
X18451254Y12023697D01*
X18444793Y11617689D01*
X18439641Y11575282D01*
X18354721Y11240492D01*
X18196855Y10923967D01*
X17977542Y10637864D01*
X17708281Y10394345D01*
X17400573Y10205569D01*
X17065916Y10083695D01*
X17018833Y10072932D01*
X16733861Y10035670D01*
X16438899Y10036475D01*
X16195592Y10071221D01*
X15846563Y10195622D01*
X15530791Y10391206D01*
X15257460Y10647985D01*
X15035755Y10955969D01*
X14874861Y11305168D01*
X14799300Y11589830D01*
X14774853Y11944532D01*
X14827682Y12298166D01*
X14951152Y12638399D01*
X15138625Y12952898D01*
X15383465Y13229331D01*
X15679035Y13455364D01*
X15854565Y13550785D01*
X15985274Y13610243D01*
X16093463Y13649347D01*
X16203227Y13672339D01*
X16338662Y13683461D01*
X16523863Y13686954D01*
X16629334Y13687166D01*
X16843098Y13685885D01*
G36*
X21585424Y13686104D02*
G01*
X21737618Y13679738D01*
X21853743Y13663301D01*
X21958095Y13632025D01*
X22074973Y13581143D01*
X22183886Y13528028D01*
X22507393Y13324386D01*
X22778154Y13064935D01*
X22990090Y12761138D01*
X23137119Y12424455D01*
X23213158Y12066349D01*
X23212128Y11698281D01*
X23200209Y11612567D01*
X23099608Y11238975D01*
X22933614Y10904413D01*
X22711513Y10614838D01*
X22442586Y10376208D01*
X22136118Y10194479D01*
X21801392Y10075610D01*
X21447691Y10025556D01*
X21084299Y10050276D01*
X20854103Y10107071D01*
X20493322Y10261400D01*
X20188923Y10469536D01*
X19941633Y10722077D01*
X19752179Y11009622D01*
X19621285Y11322768D01*
X19549679Y11652114D01*
X19538088Y11988259D01*
X19587236Y12321800D01*
X19697851Y12643337D01*
X19870659Y12943467D01*
X20106387Y13212789D01*
X20405760Y13441900D01*
X20588665Y13542926D01*
X20720680Y13605349D01*
X20827764Y13646557D01*
X20933809Y13670945D01*
X21062704Y13682906D01*
X21238339Y13686836D01*
X21372862Y13687166D01*
X21585424Y13686104D01*
X21585424Y13686104D01*
G37*
X21585424Y13686104D02*
X21737618Y13679738D01*
X21853743Y13663301D01*
X21958095Y13632025D01*
X22074973Y13581143D01*
X22183886Y13528028D01*
X22507393Y13324386D01*
X22778154Y13064935D01*
X22990090Y12761138D01*
X23137119Y12424455D01*
X23213158Y12066349D01*
X23212128Y11698281D01*
X23200209Y11612567D01*
X23099608Y11238975D01*
X22933614Y10904413D01*
X22711513Y10614838D01*
X22442586Y10376208D01*
X22136118Y10194479D01*
X21801392Y10075610D01*
X21447691Y10025556D01*
X21084299Y10050276D01*
X20854103Y10107071D01*
X20493322Y10261400D01*
X20188923Y10469536D01*
X19941633Y10722077D01*
X19752179Y11009622D01*
X19621285Y11322768D01*
X19549679Y11652114D01*
X19538088Y11988259D01*
X19587236Y12321800D01*
X19697851Y12643337D01*
X19870659Y12943467D01*
X20106387Y13212789D01*
X20405760Y13441900D01*
X20588665Y13542926D01*
X20720680Y13605349D01*
X20827764Y13646557D01*
X20933809Y13670945D01*
X21062704Y13682906D01*
X21238339Y13686836D01*
X21372862Y13687166D01*
X21585424Y13686104D01*
G36*
X26612056Y13646250D02*
G01*
X26954996Y13518231D01*
X27270611Y13312594D01*
X27403081Y13196670D01*
X27648644Y12910784D01*
X27822741Y12593567D01*
X27927492Y12255558D01*
X27965019Y11907299D01*
X27937445Y11559329D01*
X27846891Y11222189D01*
X27695477Y10906417D01*
X27485327Y10622556D01*
X27218562Y10381144D01*
X26897303Y10192721D01*
X26789334Y10147614D01*
X26538543Y10079665D01*
X26248609Y10044254D01*
X25955400Y10043209D01*
X25694786Y10078357D01*
X25650763Y10089600D01*
X25284072Y10235297D01*
X24960201Y10451241D01*
X24687396Y10730391D01*
X24473905Y11065707D01*
X24450345Y11114323D01*
X24333906Y11458160D01*
X24289874Y11823036D01*
X24316443Y12191430D01*
X24411806Y12545824D01*
X24574158Y12868697D01*
X24641065Y12963948D01*
X24914713Y13262132D01*
X25223915Y13483528D01*
X25569378Y13628466D01*
X25951812Y13697273D01*
X26232150Y13700801D01*
X26612056Y13646250D01*
X26612056Y13646250D01*
G37*
X26612056Y13646250D02*
X26954996Y13518231D01*
X27270611Y13312594D01*
X27403081Y13196670D01*
X27648644Y12910784D01*
X27822741Y12593567D01*
X27927492Y12255558D01*
X27965019Y11907299D01*
X27937445Y11559329D01*
X27846891Y11222189D01*
X27695477Y10906417D01*
X27485327Y10622556D01*
X27218562Y10381144D01*
X26897303Y10192721D01*
X26789334Y10147614D01*
X26538543Y10079665D01*
X26248609Y10044254D01*
X25955400Y10043209D01*
X25694786Y10078357D01*
X25650763Y10089600D01*
X25284072Y10235297D01*
X24960201Y10451241D01*
X24687396Y10730391D01*
X24473905Y11065707D01*
X24450345Y11114323D01*
X24333906Y11458160D01*
X24289874Y11823036D01*
X24316443Y12191430D01*
X24411806Y12545824D01*
X24574158Y12868697D01*
X24641065Y12963948D01*
X24914713Y13262132D01*
X25223915Y13483528D01*
X25569378Y13628466D01*
X25951812Y13697273D01*
X26232150Y13700801D01*
X26612056Y13646250D01*
G36*
X31182201Y13682698D02*
G01*
X31554999Y13589263D01*
X31887259Y13422251D01*
X32175750Y13183578D01*
X32417242Y12875164D01*
X32541834Y12650000D01*
X32609457Y12505350D01*
X32653512Y12390746D01*
X32679036Y12280403D01*
X32691067Y12148535D01*
X32694641Y11969354D01*
X32694834Y11866833D01*
X32693137Y11655595D01*
X32685009Y11503723D01*
X32665892Y11385938D01*
X32631228Y11276960D01*
X32576462Y11151510D01*
X32559305Y11115056D01*
X32355381Y10776639D01*
X32096466Y10495383D01*
X31792546Y10275989D01*
X31453605Y10123157D01*
X31089629Y10041587D01*
X30710601Y10035980D01*
X30388693Y10093197D01*
X30034045Y10228405D01*
X29729201Y10423787D01*
X29476677Y10669289D01*
X29278985Y10954857D01*
X29138641Y11270436D01*
X29058159Y11605972D01*
X29040052Y11951412D01*
X29086834Y12296700D01*
X29201020Y12631784D01*
X29385124Y12946608D01*
X29611116Y13202847D01*
X29919333Y13443065D01*
X30254442Y13603903D01*
X30622981Y13688164D01*
X30772095Y13700638D01*
X31182201Y13682698D01*
X31182201Y13682698D01*
G37*
X31182201Y13682698D02*
X31554999Y13589263D01*
X31887259Y13422251D01*
X32175750Y13183578D01*
X32417242Y12875164D01*
X32541834Y12650000D01*
X32609457Y12505350D01*
X32653512Y12390746D01*
X32679036Y12280403D01*
X32691067Y12148535D01*
X32694641Y11969354D01*
X32694834Y11866833D01*
X32693137Y11655595D01*
X32685009Y11503723D01*
X32665892Y11385938D01*
X32631228Y11276960D01*
X32576462Y11151510D01*
X32559305Y11115056D01*
X32355381Y10776639D01*
X32096466Y10495383D01*
X31792546Y10275989D01*
X31453605Y10123157D01*
X31089629Y10041587D01*
X30710601Y10035980D01*
X30388693Y10093197D01*
X30034045Y10228405D01*
X29729201Y10423787D01*
X29476677Y10669289D01*
X29278985Y10954857D01*
X29138641Y11270436D01*
X29058159Y11605972D01*
X29040052Y11951412D01*
X29086834Y12296700D01*
X29201020Y12631784D01*
X29385124Y12946608D01*
X29611116Y13202847D01*
X29919333Y13443065D01*
X30254442Y13603903D01*
X30622981Y13688164D01*
X30772095Y13700638D01*
X31182201Y13682698D01*
G36*
X35849484Y13685852D02*
G01*
X36003225Y13679053D01*
X36119749Y13662484D01*
X36222775Y13631862D01*
X36336024Y13582903D01*
X36410213Y13547120D01*
X36740935Y13340522D01*
X37024741Y13071965D01*
X37247215Y12755751D01*
X37289809Y12674505D01*
X37359979Y12522417D01*
X37404619Y12392761D01*
X37430733Y12254773D01*
X37445326Y12077690D01*
X37450304Y11969508D01*
X37439631Y11587186D01*
X37370485Y11256112D01*
X37236943Y10961149D01*
X37033079Y10687158D01*
X36891966Y10542877D01*
X36585516Y10306645D01*
X36245142Y10139658D01*
X35883814Y10045381D01*
X35514497Y10027281D01*
X35171334Y10082908D01*
X34804021Y10225002D01*
X34480885Y10434968D01*
X34209683Y10704247D01*
X33998172Y11024277D01*
X33854110Y11386498D01*
X33808786Y11586589D01*
X33785276Y11963676D01*
X33840846Y12330748D01*
X33969912Y12677124D01*
X34166889Y12992123D01*
X34426194Y13265065D01*
X34742243Y13485268D01*
X34823781Y13528028D01*
X34965589Y13596500D01*
X35076881Y13641835D01*
X35181954Y13668801D01*
X35305105Y13682166D01*
X35470633Y13686697D01*
X35634805Y13687166D01*
X35849484Y13685852D01*
X35849484Y13685852D01*
G37*
X35849484Y13685852D02*
X36003225Y13679053D01*
X36119749Y13662484D01*
X36222775Y13631862D01*
X36336024Y13582903D01*
X36410213Y13547120D01*
X36740935Y13340522D01*
X37024741Y13071965D01*
X37247215Y12755751D01*
X37289809Y12674505D01*
X37359979Y12522417D01*
X37404619Y12392761D01*
X37430733Y12254773D01*
X37445326Y12077690D01*
X37450304Y11969508D01*
X37439631Y11587186D01*
X37370485Y11256112D01*
X37236943Y10961149D01*
X37033079Y10687158D01*
X36891966Y10542877D01*
X36585516Y10306645D01*
X36245142Y10139658D01*
X35883814Y10045381D01*
X35514497Y10027281D01*
X35171334Y10082908D01*
X34804021Y10225002D01*
X34480885Y10434968D01*
X34209683Y10704247D01*
X33998172Y11024277D01*
X33854110Y11386498D01*
X33808786Y11586589D01*
X33785276Y11963676D01*
X33840846Y12330748D01*
X33969912Y12677124D01*
X34166889Y12992123D01*
X34426194Y13265065D01*
X34742243Y13485268D01*
X34823781Y13528028D01*
X34965589Y13596500D01*
X35076881Y13641835D01*
X35181954Y13668801D01*
X35305105Y13682166D01*
X35470633Y13686697D01*
X35634805Y13687166D01*
X35849484Y13685852D01*
G36*
X2662755Y18445990D02*
G01*
X3022559Y18349856D01*
X3358791Y18177636D01*
X3662133Y17930908D01*
X3695758Y17896499D01*
X3937205Y17586371D01*
X4103634Y17248092D01*
X4195290Y16892186D01*
X4212417Y16529177D01*
X4155261Y16169589D01*
X4024066Y15823948D01*
X3819079Y15502778D01*
X3635302Y15301475D01*
X3316894Y15050462D01*
X2973834Y14880088D01*
X2608856Y14791098D01*
X2224693Y14784234D01*
X1920610Y14834636D01*
X1587762Y14955169D01*
X1277506Y15143715D01*
X1005287Y15386640D01*
X786550Y15670310D01*
X643433Y15962118D01*
X548252Y16340579D01*
X530918Y16718502D01*
X587296Y17085222D01*
X713252Y17430073D01*
X904649Y17742390D01*
X1157354Y18011506D01*
X1467232Y18226756D01*
X1535119Y18262115D01*
X1909716Y18403697D01*
X2288701Y18464463D01*
X2662755Y18445990D01*
X2662755Y18445990D01*
G37*
X2662755Y18445990D02*
X3022559Y18349856D01*
X3358791Y18177636D01*
X3662133Y17930908D01*
X3695758Y17896499D01*
X3937205Y17586371D01*
X4103634Y17248092D01*
X4195290Y16892186D01*
X4212417Y16529177D01*
X4155261Y16169589D01*
X4024066Y15823948D01*
X3819079Y15502778D01*
X3635302Y15301475D01*
X3316894Y15050462D01*
X2973834Y14880088D01*
X2608856Y14791098D01*
X2224693Y14784234D01*
X1920610Y14834636D01*
X1587762Y14955169D01*
X1277506Y15143715D01*
X1005287Y15386640D01*
X786550Y15670310D01*
X643433Y15962118D01*
X548252Y16340579D01*
X530918Y16718502D01*
X587296Y17085222D01*
X713252Y17430073D01*
X904649Y17742390D01*
X1157354Y18011506D01*
X1467232Y18226756D01*
X1535119Y18262115D01*
X1909716Y18403697D01*
X2288701Y18464463D01*
X2662755Y18445990D01*
G36*
X7564780Y18415473D02*
G01*
X7901771Y18296531D01*
X8215837Y18106309D01*
X8404253Y17941986D01*
X8657078Y17633594D01*
X8835359Y17293895D01*
X8937358Y16932547D01*
X8961340Y16559207D01*
X8905569Y16183532D01*
X8781643Y15842706D01*
X8581022Y15511983D01*
X8324713Y15235878D01*
X8023466Y15019646D01*
X7688029Y14868547D01*
X7329150Y14787838D01*
X6957577Y14782778D01*
X6702167Y14825466D01*
X6340279Y14956129D01*
X6011702Y15159075D01*
X5728047Y15424749D01*
X5500922Y15743594D01*
X5436289Y15867333D01*
X5379018Y15993109D01*
X5341396Y16098969D01*
X5319344Y16208696D01*
X5308778Y16346069D01*
X5305619Y16534872D01*
X5305515Y16629333D01*
X5306967Y16843254D01*
X5313921Y16996555D01*
X5330811Y17113276D01*
X5362070Y17217458D01*
X5412133Y17333141D01*
X5449755Y17411335D01*
X5651954Y17738318D01*
X5905043Y18007280D01*
X6198478Y18216326D01*
X6521715Y18363562D01*
X6864207Y18447095D01*
X7215411Y18465030D01*
X7564780Y18415473D01*
X7564780Y18415473D01*
G37*
X7564780Y18415473D02*
X7901771Y18296531D01*
X8215837Y18106309D01*
X8404253Y17941986D01*
X8657078Y17633594D01*
X8835359Y17293895D01*
X8937358Y16932547D01*
X8961340Y16559207D01*
X8905569Y16183532D01*
X8781643Y15842706D01*
X8581022Y15511983D01*
X8324713Y15235878D01*
X8023466Y15019646D01*
X7688029Y14868547D01*
X7329150Y14787838D01*
X6957577Y14782778D01*
X6702167Y14825466D01*
X6340279Y14956129D01*
X6011702Y15159075D01*
X5728047Y15424749D01*
X5500922Y15743594D01*
X5436289Y15867333D01*
X5379018Y15993109D01*
X5341396Y16098969D01*
X5319344Y16208696D01*
X5308778Y16346069D01*
X5305619Y16534872D01*
X5305515Y16629333D01*
X5306967Y16843254D01*
X5313921Y16996555D01*
X5330811Y17113276D01*
X5362070Y17217458D01*
X5412133Y17333141D01*
X5449755Y17411335D01*
X5651954Y17738318D01*
X5905043Y18007280D01*
X6198478Y18216326D01*
X6521715Y18363562D01*
X6864207Y18447095D01*
X7215411Y18465030D01*
X7564780Y18415473D01*
G36*
X12354921Y18405813D02*
G01*
X12705126Y18275093D01*
X13016883Y18081874D01*
X13273837Y17835166D01*
X13474050Y17537156D01*
X13614169Y17202253D01*
X13690845Y16844866D01*
X13700727Y16479402D01*
X13640463Y16120270D01*
X13537536Y15843085D01*
X13334385Y15509972D01*
X13074767Y15232636D01*
X12769126Y15016390D01*
X12427904Y14866546D01*
X12061544Y14788416D01*
X11680488Y14787312D01*
X11511586Y14812454D01*
X11148841Y14923903D01*
X10828100Y15101495D01*
X10554405Y15335205D01*
X10332796Y15615005D01*
X10168315Y15930867D01*
X10066002Y16272764D01*
X10030898Y16630669D01*
X10068044Y16994554D01*
X10182481Y17354393D01*
X10206832Y17407837D01*
X10406982Y17737568D01*
X10660376Y18009150D01*
X10956412Y18220040D01*
X11284487Y18367695D01*
X11633999Y18449570D01*
X11994344Y18463124D01*
X12354921Y18405813D01*
X12354921Y18405813D01*
G37*
X12354921Y18405813D02*
X12705126Y18275093D01*
X13016883Y18081874D01*
X13273837Y17835166D01*
X13474050Y17537156D01*
X13614169Y17202253D01*
X13690845Y16844866D01*
X13700727Y16479402D01*
X13640463Y16120270D01*
X13537536Y15843085D01*
X13334385Y15509972D01*
X13074767Y15232636D01*
X12769126Y15016390D01*
X12427904Y14866546D01*
X12061544Y14788416D01*
X11680488Y14787312D01*
X11511586Y14812454D01*
X11148841Y14923903D01*
X10828100Y15101495D01*
X10554405Y15335205D01*
X10332796Y15615005D01*
X10168315Y15930867D01*
X10066002Y16272764D01*
X10030898Y16630669D01*
X10068044Y16994554D01*
X10182481Y17354393D01*
X10206832Y17407837D01*
X10406982Y17737568D01*
X10660376Y18009150D01*
X10956412Y18220040D01*
X11284487Y18367695D01*
X11633999Y18449570D01*
X11994344Y18463124D01*
X12354921Y18405813D01*
G36*
X17154345Y18383892D02*
G01*
X17460647Y18260419D01*
X17787664Y18053951D01*
X18054916Y17790787D01*
X18257989Y17478301D01*
X18392467Y17123865D01*
X18453935Y16734855D01*
X18457416Y16595833D01*
X18415119Y16215920D01*
X18299872Y15865860D01*
X18120219Y15552549D01*
X17884705Y15282883D01*
X17601873Y15063755D01*
X17280267Y14902061D01*
X16928433Y14804697D01*
X16554914Y14778556D01*
X16248334Y14813147D01*
X15978007Y14897037D01*
X15698267Y15037434D01*
X15440849Y15216848D01*
X15323048Y15323047D01*
X15079604Y15622057D01*
X14907929Y15952806D01*
X14807872Y16304008D01*
X14779283Y16664375D01*
X14822010Y17022622D01*
X14935902Y17367463D01*
X15120809Y17687611D01*
X15358227Y17955015D01*
X15682746Y18202905D01*
X16030762Y18370630D01*
X16396130Y18457298D01*
X16772706Y18462016D01*
X17154345Y18383892D01*
X17154345Y18383892D01*
G37*
X17154345Y18383892D02*
X17460647Y18260419D01*
X17787664Y18053951D01*
X18054916Y17790787D01*
X18257989Y17478301D01*
X18392467Y17123865D01*
X18453935Y16734855D01*
X18457416Y16595833D01*
X18415119Y16215920D01*
X18299872Y15865860D01*
X18120219Y15552549D01*
X17884705Y15282883D01*
X17601873Y15063755D01*
X17280267Y14902061D01*
X16928433Y14804697D01*
X16554914Y14778556D01*
X16248334Y14813147D01*
X15978007Y14897037D01*
X15698267Y15037434D01*
X15440849Y15216848D01*
X15323048Y15323047D01*
X15079604Y15622057D01*
X14907929Y15952806D01*
X14807872Y16304008D01*
X14779283Y16664375D01*
X14822010Y17022622D01*
X14935902Y17367463D01*
X15120809Y17687611D01*
X15358227Y17955015D01*
X15682746Y18202905D01*
X16030762Y18370630D01*
X16396130Y18457298D01*
X16772706Y18462016D01*
X17154345Y18383892D01*
G36*
X21647077Y18446740D02*
G01*
X21994579Y18361821D01*
X22316643Y18211330D01*
X22604189Y17999864D01*
X22848139Y17732022D01*
X23039416Y17412403D01*
X23168942Y17045604D01*
X23196028Y16918110D01*
X23220743Y16552549D01*
X23168071Y16195062D01*
X23045264Y15855946D01*
X22859572Y15545498D01*
X22618248Y15274015D01*
X22328541Y15051794D01*
X21997703Y14889132D01*
X21711042Y14809324D01*
X21471660Y14775720D01*
X21256951Y14776670D01*
X21026358Y14813911D01*
X20902844Y14843953D01*
X20551389Y14978643D01*
X20228458Y15188791D01*
X19996645Y15408594D01*
X19774039Y15715001D01*
X19624872Y16048484D01*
X19547043Y16398065D01*
X19538450Y16752765D01*
X19596993Y17101607D01*
X19720572Y17433613D01*
X19907084Y17737805D01*
X20154430Y18003205D01*
X20460509Y18218835D01*
X20542714Y18262080D01*
X20912066Y18401468D01*
X21283213Y18461489D01*
X21647077Y18446740D01*
X21647077Y18446740D01*
G37*
X21647077Y18446740D02*
X21994579Y18361821D01*
X22316643Y18211330D01*
X22604189Y17999864D01*
X22848139Y17732022D01*
X23039416Y17412403D01*
X23168942Y17045604D01*
X23196028Y16918110D01*
X23220743Y16552549D01*
X23168071Y16195062D01*
X23045264Y15855946D01*
X22859572Y15545498D01*
X22618248Y15274015D01*
X22328541Y15051794D01*
X21997703Y14889132D01*
X21711042Y14809324D01*
X21471660Y14775720D01*
X21256951Y14776670D01*
X21026358Y14813911D01*
X20902844Y14843953D01*
X20551389Y14978643D01*
X20228458Y15188791D01*
X19996645Y15408594D01*
X19774039Y15715001D01*
X19624872Y16048484D01*
X19547043Y16398065D01*
X19538450Y16752765D01*
X19596993Y17101607D01*
X19720572Y17433613D01*
X19907084Y17737805D01*
X20154430Y18003205D01*
X20460509Y18218835D01*
X20542714Y18262080D01*
X20912066Y18401468D01*
X21283213Y18461489D01*
X21647077Y18446740D01*
G36*
X26571948Y18415967D02*
G01*
X26908564Y18297428D01*
X27222164Y18107671D01*
X27410106Y17943799D01*
X27659402Y17639280D01*
X27835775Y17304392D01*
X27939225Y16949869D01*
X27969752Y16586445D01*
X27927353Y16224852D01*
X27812029Y15875825D01*
X27623777Y15550098D01*
X27410349Y15303379D01*
X27114230Y15070257D01*
X26778710Y14902298D01*
X26419086Y14803789D01*
X26050654Y14779017D01*
X25709834Y14826826D01*
X25338599Y14961705D01*
X25006356Y15166880D01*
X24723557Y15433828D01*
X24500656Y15754028D01*
X24449215Y15854565D01*
X24389757Y15985274D01*
X24350653Y16093463D01*
X24327661Y16203227D01*
X24316539Y16338662D01*
X24313046Y16523863D01*
X24312834Y16629333D01*
X24314115Y16843098D01*
X24320911Y16996209D01*
X24337650Y17112675D01*
X24368760Y17216501D01*
X24418669Y17331696D01*
X24457074Y17411335D01*
X24659507Y17738085D01*
X24912747Y18006928D01*
X25206249Y18215961D01*
X25529467Y18363283D01*
X25871853Y18446992D01*
X26222862Y18465187D01*
X26571948Y18415967D01*
X26571948Y18415967D01*
G37*
X26571948Y18415967D02*
X26908564Y18297428D01*
X27222164Y18107671D01*
X27410106Y17943799D01*
X27659402Y17639280D01*
X27835775Y17304392D01*
X27939225Y16949869D01*
X27969752Y16586445D01*
X27927353Y16224852D01*
X27812029Y15875825D01*
X27623777Y15550098D01*
X27410349Y15303379D01*
X27114230Y15070257D01*
X26778710Y14902298D01*
X26419086Y14803789D01*
X26050654Y14779017D01*
X25709834Y14826826D01*
X25338599Y14961705D01*
X25006356Y15166880D01*
X24723557Y15433828D01*
X24500656Y15754028D01*
X24449215Y15854565D01*
X24389757Y15985274D01*
X24350653Y16093463D01*
X24327661Y16203227D01*
X24316539Y16338662D01*
X24313046Y16523863D01*
X24312834Y16629333D01*
X24314115Y16843098D01*
X24320911Y16996209D01*
X24337650Y17112675D01*
X24368760Y17216501D01*
X24418669Y17331696D01*
X24457074Y17411335D01*
X24659507Y17738085D01*
X24912747Y18006928D01*
X25206249Y18215961D01*
X25529467Y18363283D01*
X25871853Y18446992D01*
X26222862Y18465187D01*
X26571948Y18415967D01*
G36*
X31347623Y18409162D02*
G01*
X31687152Y18281785D01*
X31992505Y18092118D01*
X32255179Y17847472D01*
X32466671Y17555157D01*
X32618477Y17222484D01*
X32702094Y16856764D01*
X32716000Y16628646D01*
X32676802Y16244234D01*
X32564836Y15889589D01*
X32388543Y15571688D01*
X32156365Y15297512D01*
X31876743Y15074039D01*
X31558119Y14908249D01*
X31208934Y14807120D01*
X30837630Y14777632D01*
X30519253Y14812454D01*
X30187184Y14917217D01*
X29867166Y15091675D01*
X29579603Y15321270D01*
X29344900Y15591446D01*
X29274566Y15700446D01*
X29120636Y16040814D01*
X29043714Y16393133D01*
X29039014Y16747485D01*
X29101750Y17093951D01*
X29227138Y17422612D01*
X29410392Y17723549D01*
X29646726Y17986843D01*
X29931355Y18202575D01*
X30259493Y18360827D01*
X30600052Y18447804D01*
X30982422Y18466939D01*
X31347623Y18409162D01*
X31347623Y18409162D01*
G37*
X31347623Y18409162D02*
X31687152Y18281785D01*
X31992505Y18092118D01*
X32255179Y17847472D01*
X32466671Y17555157D01*
X32618477Y17222484D01*
X32702094Y16856764D01*
X32716000Y16628646D01*
X32676802Y16244234D01*
X32564836Y15889589D01*
X32388543Y15571688D01*
X32156365Y15297512D01*
X31876743Y15074039D01*
X31558119Y14908249D01*
X31208934Y14807120D01*
X30837630Y14777632D01*
X30519253Y14812454D01*
X30187184Y14917217D01*
X29867166Y15091675D01*
X29579603Y15321270D01*
X29344900Y15591446D01*
X29274566Y15700446D01*
X29120636Y16040814D01*
X29043714Y16393133D01*
X29039014Y16747485D01*
X29101750Y17093951D01*
X29227138Y17422612D01*
X29410392Y17723549D01*
X29646726Y17986843D01*
X29931355Y18202575D01*
X30259493Y18360827D01*
X30600052Y18447804D01*
X30982422Y18466939D01*
X31347623Y18409162D01*
G36*
X35961103Y18437029D02*
G01*
X36299513Y18339783D01*
X36616420Y18178030D01*
X36901626Y17953483D01*
X37144934Y17667857D01*
X37305044Y17391333D01*
X37362210Y17265800D01*
X37399823Y17160055D01*
X37421947Y17050417D01*
X37432646Y16913203D01*
X37435983Y16724731D01*
X37436167Y16627138D01*
X37435104Y16414576D01*
X37428738Y16262382D01*
X37412301Y16146257D01*
X37381026Y16041905D01*
X37330143Y15925027D01*
X37277028Y15816114D01*
X37067553Y15482538D01*
X36802787Y15207650D01*
X36492527Y14996310D01*
X36146569Y14853382D01*
X35774711Y14783727D01*
X35386749Y14792206D01*
X35256000Y14813147D01*
X34985673Y14897037D01*
X34705933Y15037434D01*
X34448515Y15216848D01*
X34330714Y15323047D01*
X34084314Y15625465D01*
X33911399Y15959254D01*
X33812085Y16313535D01*
X33786487Y16677426D01*
X33834722Y17040047D01*
X33956902Y17390520D01*
X34153145Y17717962D01*
X34303462Y17895680D01*
X34596408Y18146672D01*
X34918843Y18324590D01*
X35260570Y18431146D01*
X35611389Y18468055D01*
X35961103Y18437029D01*
X35961103Y18437029D01*
G37*
X35961103Y18437029D02*
X36299513Y18339783D01*
X36616420Y18178030D01*
X36901626Y17953483D01*
X37144934Y17667857D01*
X37305044Y17391333D01*
X37362210Y17265800D01*
X37399823Y17160055D01*
X37421947Y17050417D01*
X37432646Y16913203D01*
X37435983Y16724731D01*
X37436167Y16627138D01*
X37435104Y16414576D01*
X37428738Y16262382D01*
X37412301Y16146257D01*
X37381026Y16041905D01*
X37330143Y15925027D01*
X37277028Y15816114D01*
X37067553Y15482538D01*
X36802787Y15207650D01*
X36492527Y14996310D01*
X36146569Y14853382D01*
X35774711Y14783727D01*
X35386749Y14792206D01*
X35256000Y14813147D01*
X34985673Y14897037D01*
X34705933Y15037434D01*
X34448515Y15216848D01*
X34330714Y15323047D01*
X34084314Y15625465D01*
X33911399Y15959254D01*
X33812085Y16313535D01*
X33786487Y16677426D01*
X33834722Y17040047D01*
X33956902Y17390520D01*
X34153145Y17717962D01*
X34303462Y17895680D01*
X34596408Y18146672D01*
X34918843Y18324590D01*
X35260570Y18431146D01*
X35611389Y18468055D01*
X35961103Y18437029D01*
G36*
X2740473Y23184758D02*
G01*
X3079124Y23081571D01*
X3395595Y22910492D01*
X3679352Y22671154D01*
X3823373Y22502788D01*
X4027330Y22171777D01*
X4153997Y21828527D01*
X4208231Y21481300D01*
X4194888Y21138359D01*
X4118827Y20807966D01*
X3984904Y20498384D01*
X3797975Y20217876D01*
X3562898Y19974704D01*
X3284530Y19777132D01*
X2967728Y19633421D01*
X2617348Y19551834D01*
X2238248Y19540635D01*
X2091223Y19556048D01*
X1730960Y19646306D01*
X1409215Y19803679D01*
X1130429Y20018135D01*
X899044Y20279642D01*
X719502Y20578165D01*
X596246Y20903674D01*
X533715Y21246135D01*
X536353Y21595516D01*
X608601Y21941784D01*
X754900Y22274906D01*
X832705Y22398684D01*
X1083217Y22695148D01*
X1374754Y22925920D01*
X1696782Y23090634D01*
X2038768Y23188923D01*
X2390176Y23220420D01*
X2740473Y23184758D01*
X2740473Y23184758D01*
G37*
X2740473Y23184758D02*
X3079124Y23081571D01*
X3395595Y22910492D01*
X3679352Y22671154D01*
X3823373Y22502788D01*
X4027330Y22171777D01*
X4153997Y21828527D01*
X4208231Y21481300D01*
X4194888Y21138359D01*
X4118827Y20807966D01*
X3984904Y20498384D01*
X3797975Y20217876D01*
X3562898Y19974704D01*
X3284530Y19777132D01*
X2967728Y19633421D01*
X2617348Y19551834D01*
X2238248Y19540635D01*
X2091223Y19556048D01*
X1730960Y19646306D01*
X1409215Y19803679D01*
X1130429Y20018135D01*
X899044Y20279642D01*
X719502Y20578165D01*
X596246Y20903674D01*
X533715Y21246135D01*
X536353Y21595516D01*
X608601Y21941784D01*
X754900Y22274906D01*
X832705Y22398684D01*
X1083217Y22695148D01*
X1374754Y22925920D01*
X1696782Y23090634D01*
X2038768Y23188923D01*
X2390176Y23220420D01*
X2740473Y23184758D01*
G36*
X7402503Y23200700D02*
G01*
X7784716Y23091512D01*
X8118715Y22920830D01*
X8401584Y22697830D01*
X8630410Y22431689D01*
X8802276Y22131583D01*
X8914267Y21806686D01*
X8963469Y21466177D01*
X8946967Y21119230D01*
X8861844Y20775022D01*
X8705187Y20442728D01*
X8474081Y20131526D01*
X8401694Y20055456D01*
X8107566Y19819622D01*
X7770586Y19651876D01*
X7403234Y19556216D01*
X7017987Y19536644D01*
X6838306Y19554277D01*
X6471698Y19649049D01*
X6136142Y19816925D01*
X5842072Y20048888D01*
X5599926Y20335922D01*
X5420142Y20669012D01*
X5363298Y20828444D01*
X5290750Y21199128D01*
X5291306Y21576188D01*
X5363702Y21938869D01*
X5443532Y22146167D01*
X5635425Y22464626D01*
X5885031Y22736526D01*
X6179848Y22955137D01*
X6507372Y23113730D01*
X6855101Y23205573D01*
X7210532Y23223936D01*
X7402503Y23200700D01*
X7402503Y23200700D01*
G37*
X7402503Y23200700D02*
X7784716Y23091512D01*
X8118715Y22920830D01*
X8401584Y22697830D01*
X8630410Y22431689D01*
X8802276Y22131583D01*
X8914267Y21806686D01*
X8963469Y21466177D01*
X8946967Y21119230D01*
X8861844Y20775022D01*
X8705187Y20442728D01*
X8474081Y20131526D01*
X8401694Y20055456D01*
X8107566Y19819622D01*
X7770586Y19651876D01*
X7403234Y19556216D01*
X7017987Y19536644D01*
X6838306Y19554277D01*
X6471698Y19649049D01*
X6136142Y19816925D01*
X5842072Y20048888D01*
X5599926Y20335922D01*
X5420142Y20669012D01*
X5363298Y20828444D01*
X5290750Y21199128D01*
X5291306Y21576188D01*
X5363702Y21938869D01*
X5443532Y22146167D01*
X5635425Y22464626D01*
X5885031Y22736526D01*
X6179848Y22955137D01*
X6507372Y23113730D01*
X6855101Y23205573D01*
X7210532Y23223936D01*
X7402503Y23200700D01*
G36*
X12296391Y23171178D02*
G01*
X12641620Y23048154D01*
X12958193Y22860410D01*
X13233861Y22614463D01*
X13456373Y22316833D01*
X13546649Y22144589D01*
X13663679Y21789104D01*
X13707821Y21410243D01*
X13677690Y21029975D01*
X13629596Y20830290D01*
X13480729Y20478473D01*
X13267234Y20173283D01*
X12998771Y19920725D01*
X12684999Y19726807D01*
X12335576Y19597533D01*
X11960161Y19538910D01*
X11579267Y19555377D01*
X11248056Y19642250D01*
X10927858Y19800824D01*
X10636632Y20018416D01*
X10392337Y20282347D01*
X10258999Y20487644D01*
X10107752Y20846685D01*
X10035323Y21211507D01*
X10037217Y21572812D01*
X10108940Y21921305D01*
X10245996Y22247688D01*
X10443890Y22542665D01*
X10698127Y22796939D01*
X11004213Y23001213D01*
X11357652Y23146190D01*
X11568974Y23196985D01*
X11934759Y23222961D01*
X12296391Y23171178D01*
X12296391Y23171178D01*
G37*
X12296391Y23171178D02*
X12641620Y23048154D01*
X12958193Y22860410D01*
X13233861Y22614463D01*
X13456373Y22316833D01*
X13546649Y22144589D01*
X13663679Y21789104D01*
X13707821Y21410243D01*
X13677690Y21029975D01*
X13629596Y20830290D01*
X13480729Y20478473D01*
X13267234Y20173283D01*
X12998771Y19920725D01*
X12684999Y19726807D01*
X12335576Y19597533D01*
X11960161Y19538910D01*
X11579267Y19555377D01*
X11248056Y19642250D01*
X10927858Y19800824D01*
X10636632Y20018416D01*
X10392337Y20282347D01*
X10258999Y20487644D01*
X10107752Y20846685D01*
X10035323Y21211507D01*
X10037217Y21572812D01*
X10108940Y21921305D01*
X10245996Y22247688D01*
X10443890Y22542665D01*
X10698127Y22796939D01*
X11004213Y23001213D01*
X11357652Y23146190D01*
X11568974Y23196985D01*
X11934759Y23222961D01*
X12296391Y23171178D01*
G36*
X16880564Y23202931D02*
G01*
X17258623Y23105103D01*
X17594033Y22940977D01*
X17881997Y22719879D01*
X18117724Y22451134D01*
X18296417Y22144066D01*
X18413282Y21808001D01*
X18463526Y21452263D01*
X18442354Y21086177D01*
X18344971Y20719068D01*
X18258559Y20522800D01*
X18054433Y20210244D01*
X17791068Y19950188D01*
X17479910Y19748528D01*
X17132404Y19611160D01*
X16759998Y19543980D01*
X16375334Y19552735D01*
X16006282Y19639800D01*
X15669657Y19799571D01*
X15374101Y20023496D01*
X15128254Y20303025D01*
X14940760Y20629605D01*
X14820259Y20994687D01*
X14797974Y21113588D01*
X14780360Y21485428D01*
X14838798Y21841790D01*
X14965200Y22174561D01*
X15151481Y22475627D01*
X15389553Y22736877D01*
X15671331Y22950196D01*
X15988728Y23107474D01*
X16333656Y23200596D01*
X16698030Y23221450D01*
X16880564Y23202931D01*
X16880564Y23202931D01*
G37*
X16880564Y23202931D02*
X17258623Y23105103D01*
X17594033Y22940977D01*
X17881997Y22719879D01*
X18117724Y22451134D01*
X18296417Y22144066D01*
X18413282Y21808001D01*
X18463526Y21452263D01*
X18442354Y21086177D01*
X18344971Y20719068D01*
X18258559Y20522800D01*
X18054433Y20210244D01*
X17791068Y19950188D01*
X17479910Y19748528D01*
X17132404Y19611160D01*
X16759998Y19543980D01*
X16375334Y19552735D01*
X16006282Y19639800D01*
X15669657Y19799571D01*
X15374101Y20023496D01*
X15128254Y20303025D01*
X14940760Y20629605D01*
X14820259Y20994687D01*
X14797974Y21113588D01*
X14780360Y21485428D01*
X14838798Y21841790D01*
X14965200Y22174561D01*
X15151481Y22475627D01*
X15389553Y22736877D01*
X15671331Y22950196D01*
X15988728Y23107474D01*
X16333656Y23200596D01*
X16698030Y23221450D01*
X16880564Y23202931D01*
G36*
X21556361Y23213598D02*
G01*
X21936743Y23131311D01*
X22279892Y22979938D01*
X22579423Y22768405D01*
X22828951Y22505639D01*
X23022090Y22200567D01*
X23152457Y21862116D01*
X23213666Y21499213D01*
X23199331Y21120785D01*
X23169113Y20958781D01*
X23043467Y20593802D01*
X22851184Y20272593D01*
X22601542Y20001442D01*
X22303824Y19786638D01*
X21967308Y19634468D01*
X21601274Y19551221D01*
X21215004Y19543183D01*
X21098890Y19556048D01*
X20736542Y19647755D01*
X20408299Y19809870D01*
X20121414Y20032509D01*
X19883137Y20305785D01*
X19700718Y20619814D01*
X19581409Y20964708D01*
X19532462Y21330583D01*
X19553492Y21662967D01*
X19651114Y22026059D01*
X19817920Y22355314D01*
X20043945Y22643018D01*
X20319226Y22881459D01*
X20633800Y23062921D01*
X20977702Y23179691D01*
X21340969Y23224055D01*
X21556361Y23213598D01*
X21556361Y23213598D01*
G37*
X21556361Y23213598D02*
X21936743Y23131311D01*
X22279892Y22979938D01*
X22579423Y22768405D01*
X22828951Y22505639D01*
X23022090Y22200567D01*
X23152457Y21862116D01*
X23213666Y21499213D01*
X23199331Y21120785D01*
X23169113Y20958781D01*
X23043467Y20593802D01*
X22851184Y20272593D01*
X22601542Y20001442D01*
X22303824Y19786638D01*
X21967308Y19634468D01*
X21601274Y19551221D01*
X21215004Y19543183D01*
X21098890Y19556048D01*
X20736542Y19647755D01*
X20408299Y19809870D01*
X20121414Y20032509D01*
X19883137Y20305785D01*
X19700718Y20619814D01*
X19581409Y20964708D01*
X19532462Y21330583D01*
X19553492Y21662967D01*
X19651114Y22026059D01*
X19817920Y22355314D01*
X20043945Y22643018D01*
X20319226Y22881459D01*
X20633800Y23062921D01*
X20977702Y23179691D01*
X21340969Y23224055D01*
X21556361Y23213598D01*
G36*
X26585830Y23164855D02*
G01*
X26929124Y23035705D01*
X27241799Y22839516D01*
X27512919Y22582156D01*
X27731547Y22269489D01*
X27788301Y22159419D01*
X27919299Y21790418D01*
X27968914Y21415470D01*
X27938987Y21044196D01*
X27831358Y20686216D01*
X27647868Y20351150D01*
X27390358Y20048618D01*
X27383146Y20041705D01*
X27069891Y19796819D01*
X26727587Y19631361D01*
X26357828Y19545833D01*
X25962210Y19540736D01*
X25836834Y19555238D01*
X25486625Y19647114D01*
X25156887Y19813201D01*
X24861207Y20043320D01*
X24613171Y20327295D01*
X24457074Y20588665D01*
X24394651Y20720680D01*
X24353443Y20827764D01*
X24329055Y20933808D01*
X24317094Y21062703D01*
X24313164Y21238339D01*
X24312834Y21372862D01*
X24313896Y21585424D01*
X24320262Y21737618D01*
X24336699Y21853742D01*
X24367975Y21958095D01*
X24418857Y22074972D01*
X24471972Y22183886D01*
X24683514Y22521803D01*
X24951798Y22797822D01*
X25272737Y23008935D01*
X25642244Y23152134D01*
X25851132Y23198574D01*
X26222854Y23221100D01*
X26585830Y23164855D01*
X26585830Y23164855D01*
G37*
X26585830Y23164855D02*
X26929124Y23035705D01*
X27241799Y22839516D01*
X27512919Y22582156D01*
X27731547Y22269489D01*
X27788301Y22159419D01*
X27919299Y21790418D01*
X27968914Y21415470D01*
X27938987Y21044196D01*
X27831358Y20686216D01*
X27647868Y20351150D01*
X27390358Y20048618D01*
X27383146Y20041705D01*
X27069891Y19796819D01*
X26727587Y19631361D01*
X26357828Y19545833D01*
X25962210Y19540736D01*
X25836834Y19555238D01*
X25486625Y19647114D01*
X25156887Y19813201D01*
X24861207Y20043320D01*
X24613171Y20327295D01*
X24457074Y20588665D01*
X24394651Y20720680D01*
X24353443Y20827764D01*
X24329055Y20933808D01*
X24317094Y21062703D01*
X24313164Y21238339D01*
X24312834Y21372862D01*
X24313896Y21585424D01*
X24320262Y21737618D01*
X24336699Y21853742D01*
X24367975Y21958095D01*
X24418857Y22074972D01*
X24471972Y22183886D01*
X24683514Y22521803D01*
X24951798Y22797822D01*
X25272737Y23008935D01*
X25642244Y23152134D01*
X25851132Y23198574D01*
X26222854Y23221100D01*
X26585830Y23164855D01*
G36*
X31125337Y23206034D02*
G01*
X31465402Y23124710D01*
X31782280Y22981553D01*
X32067132Y22782052D01*
X32311119Y22531694D01*
X32505402Y22235969D01*
X32641142Y21900365D01*
X32709501Y21530371D01*
X32716000Y21371354D01*
X32676657Y20987631D01*
X32564048Y20634145D01*
X32386306Y20317832D01*
X32151562Y20045627D01*
X31867948Y19824468D01*
X31543596Y19661290D01*
X31186638Y19563028D01*
X30805205Y19536620D01*
X30586934Y19555377D01*
X30233594Y19646478D01*
X29908540Y19809783D01*
X29621304Y20034929D01*
X29381417Y20311556D01*
X29198412Y20629304D01*
X29081820Y20977812D01*
X29045038Y21231368D01*
X29056598Y21635320D01*
X29145520Y22010747D01*
X29307945Y22350792D01*
X29540009Y22648598D01*
X29837854Y22897307D01*
X30054404Y23024120D01*
X30410999Y23161228D01*
X30770923Y23220036D01*
X31125337Y23206034D01*
X31125337Y23206034D01*
G37*
X31125337Y23206034D02*
X31465402Y23124710D01*
X31782280Y22981553D01*
X32067132Y22782052D01*
X32311119Y22531694D01*
X32505402Y22235969D01*
X32641142Y21900365D01*
X32709501Y21530371D01*
X32716000Y21371354D01*
X32676657Y20987631D01*
X32564048Y20634145D01*
X32386306Y20317832D01*
X32151562Y20045627D01*
X31867948Y19824468D01*
X31543596Y19661290D01*
X31186638Y19563028D01*
X30805205Y19536620D01*
X30586934Y19555377D01*
X30233594Y19646478D01*
X29908540Y19809783D01*
X29621304Y20034929D01*
X29381417Y20311556D01*
X29198412Y20629304D01*
X29081820Y20977812D01*
X29045038Y21231368D01*
X29056598Y21635320D01*
X29145520Y22010747D01*
X29307945Y22350792D01*
X29540009Y22648598D01*
X29837854Y22897307D01*
X30054404Y23024120D01*
X30410999Y23161228D01*
X30770923Y23220036D01*
X31125337Y23206034D01*
G36*
X35896552Y23201643D02*
G01*
X36269752Y23104268D01*
X36601666Y22939877D01*
X36887257Y22717972D01*
X37121485Y22448054D01*
X37299311Y22139622D01*
X37415698Y21802176D01*
X37465606Y21445219D01*
X37443998Y21078249D01*
X37345834Y20710768D01*
X37288938Y20576225D01*
X37095390Y20258811D01*
X36840986Y19990630D01*
X36537965Y19778186D01*
X36198565Y19627987D01*
X35835027Y19546538D01*
X35459589Y19540346D01*
X35361834Y19551822D01*
X34997584Y19644870D01*
X34667367Y19806826D01*
X34378478Y20027845D01*
X34138213Y20298084D01*
X33953867Y20607697D01*
X33832737Y20946839D01*
X33782118Y21305666D01*
X33805345Y21652106D01*
X33908855Y22025834D01*
X34079401Y22361170D01*
X34307753Y22651272D01*
X34584679Y22889303D01*
X34900949Y23068421D01*
X35247332Y23181787D01*
X35614597Y23222561D01*
X35896552Y23201643D01*
X35896552Y23201643D01*
G37*
X35896552Y23201643D02*
X36269752Y23104268D01*
X36601666Y22939877D01*
X36887257Y22717972D01*
X37121485Y22448054D01*
X37299311Y22139622D01*
X37415698Y21802176D01*
X37465606Y21445219D01*
X37443998Y21078249D01*
X37345834Y20710768D01*
X37288938Y20576225D01*
X37095390Y20258811D01*
X36840986Y19990630D01*
X36537965Y19778186D01*
X36198565Y19627987D01*
X35835027Y19546538D01*
X35459589Y19540346D01*
X35361834Y19551822D01*
X34997584Y19644870D01*
X34667367Y19806826D01*
X34378478Y20027845D01*
X34138213Y20298084D01*
X33953867Y20607697D01*
X33832737Y20946839D01*
X33782118Y21305666D01*
X33805345Y21652106D01*
X33908855Y22025834D01*
X34079401Y22361170D01*
X34307753Y22651272D01*
X34584679Y22889303D01*
X34900949Y23068421D01*
X35247332Y23181787D01*
X35614597Y23222561D01*
X35896552Y23201643D01*
G36*
X2662756Y27948049D02*
G01*
X3003512Y27857486D01*
X3319876Y27704875D01*
X3602578Y27495631D01*
X3842350Y27235172D01*
X4029923Y26928911D01*
X4156027Y26582266D01*
X4207821Y26261839D01*
X4195053Y25883036D01*
X4104514Y25518434D01*
X3943059Y25179638D01*
X3717545Y24878252D01*
X3434827Y24625881D01*
X3137768Y24450543D01*
X2982492Y24383007D01*
X2846908Y24340738D01*
X2698916Y24316841D01*
X2506417Y24304421D01*
X2447667Y24302304D01*
X2230423Y24299528D01*
X2064547Y24310555D01*
X1917302Y24339449D01*
X1765184Y24387037D01*
X1415940Y24548814D01*
X1123842Y24763883D01*
X889395Y25022607D01*
X713105Y25315347D01*
X595474Y25632466D01*
X537008Y25964326D01*
X538213Y26301289D01*
X599591Y26633718D01*
X721649Y26951974D01*
X904890Y27246421D01*
X1149820Y27507419D01*
X1456942Y27725333D01*
X1586821Y27793293D01*
X1945142Y27921368D01*
X2306876Y27971149D01*
X2662756Y27948049D01*
X2662756Y27948049D01*
G37*
X2662756Y27948049D02*
X3003512Y27857486D01*
X3319876Y27704875D01*
X3602578Y27495631D01*
X3842350Y27235172D01*
X4029923Y26928911D01*
X4156027Y26582266D01*
X4207821Y26261839D01*
X4195053Y25883036D01*
X4104514Y25518434D01*
X3943059Y25179638D01*
X3717545Y24878252D01*
X3434827Y24625881D01*
X3137768Y24450543D01*
X2982492Y24383007D01*
X2846908Y24340738D01*
X2698916Y24316841D01*
X2506417Y24304421D01*
X2447667Y24302304D01*
X2230423Y24299528D01*
X2064547Y24310555D01*
X1917302Y24339449D01*
X1765184Y24387037D01*
X1415940Y24548814D01*
X1123842Y24763883D01*
X889395Y25022607D01*
X713105Y25315347D01*
X595474Y25632466D01*
X537008Y25964326D01*
X538213Y26301289D01*
X599591Y26633718D01*
X721649Y26951974D01*
X904890Y27246421D01*
X1149820Y27507419D01*
X1456942Y27725333D01*
X1586821Y27793293D01*
X1945142Y27921368D01*
X2306876Y27971149D01*
X2662756Y27948049D01*
G36*
X7521758Y27928222D02*
G01*
X7856135Y27822136D01*
X8169345Y27649055D01*
X8451218Y27407900D01*
X8607270Y27221704D01*
X8800695Y26892386D01*
X8917868Y26543252D01*
X8961569Y26184859D01*
X8934576Y25827760D01*
X8839670Y25482512D01*
X8679630Y25159669D01*
X8457236Y24869787D01*
X8175267Y24623422D01*
X7877278Y24449689D01*
X7722880Y24382588D01*
X7587750Y24340610D01*
X7439902Y24316919D01*
X7247353Y24304682D01*
X7189000Y24302628D01*
X6965266Y24300386D01*
X6794813Y24312673D01*
X6646975Y24343005D01*
X6539880Y24377085D01*
X6187336Y24542602D01*
X5875674Y24770866D01*
X5619830Y25049806D01*
X5518797Y25202302D01*
X5375583Y25525955D01*
X5298151Y25882871D01*
X5287459Y26251852D01*
X5344465Y26611696D01*
X5442678Y26885677D01*
X5640478Y27218318D01*
X5888298Y27491524D01*
X6175968Y27704214D01*
X6493318Y27855309D01*
X6830180Y27943728D01*
X7176383Y27968393D01*
X7521758Y27928222D01*
X7521758Y27928222D01*
G37*
X7521758Y27928222D02*
X7856135Y27822136D01*
X8169345Y27649055D01*
X8451218Y27407900D01*
X8607270Y27221704D01*
X8800695Y26892386D01*
X8917868Y26543252D01*
X8961569Y26184859D01*
X8934576Y25827760D01*
X8839670Y25482512D01*
X8679630Y25159669D01*
X8457236Y24869787D01*
X8175267Y24623422D01*
X7877278Y24449689D01*
X7722880Y24382588D01*
X7587750Y24340610D01*
X7439902Y24316919D01*
X7247353Y24304682D01*
X7189000Y24302628D01*
X6965266Y24300386D01*
X6794813Y24312673D01*
X6646975Y24343005D01*
X6539880Y24377085D01*
X6187336Y24542602D01*
X5875674Y24770866D01*
X5619830Y25049806D01*
X5518797Y25202302D01*
X5375583Y25525955D01*
X5298151Y25882871D01*
X5287459Y26251852D01*
X5344465Y26611696D01*
X5442678Y26885677D01*
X5640478Y27218318D01*
X5888298Y27491524D01*
X6175968Y27704214D01*
X6493318Y27855309D01*
X6830180Y27943728D01*
X7176383Y27968393D01*
X7521758Y27928222D01*
G36*
X12129464Y27951848D02*
G01*
X12494942Y27862250D01*
X12831680Y27699583D01*
X13130491Y27469327D01*
X13382188Y27176960D01*
X13551639Y26884944D01*
X13612075Y26751528D01*
X13651282Y26640831D01*
X13673817Y26527574D01*
X13684236Y26386477D01*
X13687098Y26192259D01*
X13687167Y26133166D01*
X13685755Y25924469D01*
X13678157Y25774661D01*
X13659330Y25657971D01*
X13624229Y25548628D01*
X13567810Y25420864D01*
X13533885Y25350000D01*
X13332951Y25015014D01*
X13081350Y24744435D01*
X12769394Y24528585D01*
X12650492Y24467206D01*
X12487036Y24392820D01*
X12353113Y24346222D01*
X12216233Y24319971D01*
X12043908Y24306624D01*
X11930826Y24302355D01*
X11694246Y24300913D01*
X11514428Y24315648D01*
X11364536Y24349314D01*
X11315947Y24365446D01*
X10947650Y24537165D01*
X10633951Y24765953D01*
X10380208Y25043974D01*
X10191777Y25363389D01*
X10074013Y25716362D01*
X10032275Y26095054D01*
X10036942Y26236893D01*
X10104068Y26630642D01*
X10242963Y26987138D01*
X10446671Y27299349D01*
X10708237Y27560245D01*
X11020705Y27762794D01*
X11377119Y27899966D01*
X11744433Y27962895D01*
X12129464Y27951848D01*
X12129464Y27951848D01*
G37*
X12129464Y27951848D02*
X12494942Y27862250D01*
X12831680Y27699583D01*
X13130491Y27469327D01*
X13382188Y27176960D01*
X13551639Y26884944D01*
X13612075Y26751528D01*
X13651282Y26640831D01*
X13673817Y26527574D01*
X13684236Y26386477D01*
X13687098Y26192259D01*
X13687167Y26133166D01*
X13685755Y25924469D01*
X13678157Y25774661D01*
X13659330Y25657971D01*
X13624229Y25548628D01*
X13567810Y25420864D01*
X13533885Y25350000D01*
X13332951Y25015014D01*
X13081350Y24744435D01*
X12769394Y24528585D01*
X12650492Y24467206D01*
X12487036Y24392820D01*
X12353113Y24346222D01*
X12216233Y24319971D01*
X12043908Y24306624D01*
X11930826Y24302355D01*
X11694246Y24300913D01*
X11514428Y24315648D01*
X11364536Y24349314D01*
X11315947Y24365446D01*
X10947650Y24537165D01*
X10633951Y24765953D01*
X10380208Y25043974D01*
X10191777Y25363389D01*
X10074013Y25716362D01*
X10032275Y26095054D01*
X10036942Y26236893D01*
X10104068Y26630642D01*
X10242963Y26987138D01*
X10446671Y27299349D01*
X10708237Y27560245D01*
X11020705Y27762794D01*
X11377119Y27899966D01*
X11744433Y27962895D01*
X12129464Y27951848D01*
G36*
X16810056Y27962565D02*
G01*
X17173231Y27885466D01*
X17414504Y27787302D01*
X17759374Y27573990D01*
X18039288Y27309593D01*
X18250693Y26999692D01*
X18390035Y26649864D01*
X18453762Y26265687D01*
X18457588Y26149477D01*
X18429911Y25783112D01*
X18338590Y25455359D01*
X18176385Y25141684D01*
X18146718Y25096163D01*
X17915173Y24818440D01*
X17629680Y24587423D01*
X17311516Y24419148D01*
X17192332Y24376786D01*
X16907076Y24315087D01*
X16601605Y24293567D01*
X16307488Y24312381D01*
X16057834Y24371130D01*
X15820987Y24465973D01*
X15634707Y24567103D01*
X15466122Y24695162D01*
X15315481Y24837295D01*
X15069959Y25140303D01*
X14897917Y25477540D01*
X14801001Y25838414D01*
X14780862Y26212331D01*
X14839148Y26588699D01*
X14977508Y26956926D01*
X14983624Y26969147D01*
X15189730Y27289096D01*
X15450175Y27552348D01*
X15753694Y27755112D01*
X16089024Y27893597D01*
X16444899Y27964012D01*
X16810056Y27962565D01*
X16810056Y27962565D01*
G37*
X16810056Y27962565D02*
X17173231Y27885466D01*
X17414504Y27787302D01*
X17759374Y27573990D01*
X18039288Y27309593D01*
X18250693Y26999692D01*
X18390035Y26649864D01*
X18453762Y26265687D01*
X18457588Y26149477D01*
X18429911Y25783112D01*
X18338590Y25455359D01*
X18176385Y25141684D01*
X18146718Y25096163D01*
X17915173Y24818440D01*
X17629680Y24587423D01*
X17311516Y24419148D01*
X17192332Y24376786D01*
X16907076Y24315087D01*
X16601605Y24293567D01*
X16307488Y24312381D01*
X16057834Y24371130D01*
X15820987Y24465973D01*
X15634707Y24567103D01*
X15466122Y24695162D01*
X15315481Y24837295D01*
X15069959Y25140303D01*
X14897917Y25477540D01*
X14801001Y25838414D01*
X14780862Y26212331D01*
X14839148Y26588699D01*
X14977508Y26956926D01*
X14983624Y26969147D01*
X15189730Y27289096D01*
X15450175Y27552348D01*
X15753694Y27755112D01*
X16089024Y27893597D01*
X16444899Y27964012D01*
X16810056Y27962565D01*
G36*
X21733127Y27935922D02*
G01*
X22068221Y27835600D01*
X22380331Y27672853D01*
X22659305Y27449894D01*
X22894989Y27168934D01*
X23077230Y26832183D01*
X23104844Y26762429D01*
X23199283Y26395357D01*
X23214702Y26025481D01*
X23155639Y25663657D01*
X23026634Y25320743D01*
X22832223Y25007596D01*
X22576944Y24735074D01*
X22265337Y24514033D01*
X22137411Y24447816D01*
X21987556Y24383449D01*
X21850289Y24342702D01*
X21694426Y24318976D01*
X21488779Y24305672D01*
X21460077Y24304495D01*
X21246161Y24299890D01*
X21084711Y24308392D01*
X20944041Y24333792D01*
X20792465Y24379879D01*
X20772851Y24386695D01*
X20424356Y24549771D01*
X20129731Y24769556D01*
X19891338Y25035860D01*
X19711543Y25338492D01*
X19592708Y25667264D01*
X19537199Y26011985D01*
X19547378Y26362464D01*
X19625611Y26708512D01*
X19774260Y27039938D01*
X19995690Y27346553D01*
X20068278Y27423780D01*
X20365988Y27668747D01*
X20691481Y27840233D01*
X21034604Y27940451D01*
X21385204Y27971610D01*
X21733127Y27935922D01*
X21733127Y27935922D01*
G37*
X21733127Y27935922D02*
X22068221Y27835600D01*
X22380331Y27672853D01*
X22659305Y27449894D01*
X22894989Y27168934D01*
X23077230Y26832183D01*
X23104844Y26762429D01*
X23199283Y26395357D01*
X23214702Y26025481D01*
X23155639Y25663657D01*
X23026634Y25320743D01*
X22832223Y25007596D01*
X22576944Y24735074D01*
X22265337Y24514033D01*
X22137411Y24447816D01*
X21987556Y24383449D01*
X21850289Y24342702D01*
X21694426Y24318976D01*
X21488779Y24305672D01*
X21460077Y24304495D01*
X21246161Y24299890D01*
X21084711Y24308392D01*
X20944041Y24333792D01*
X20792465Y24379879D01*
X20772851Y24386695D01*
X20424356Y24549771D01*
X20129731Y24769556D01*
X19891338Y25035860D01*
X19711543Y25338492D01*
X19592708Y25667264D01*
X19537199Y26011985D01*
X19547378Y26362464D01*
X19625611Y26708512D01*
X19774260Y27039938D01*
X19995690Y27346553D01*
X20068278Y27423780D01*
X20365988Y27668747D01*
X20691481Y27840233D01*
X21034604Y27940451D01*
X21385204Y27971610D01*
X21733127Y27935922D01*
G36*
X26536854Y27925006D02*
G01*
X26872744Y27814699D01*
X27187745Y27636355D01*
X27471741Y27388862D01*
X27603540Y27232822D01*
X27794798Y26913405D01*
X27915682Y26560083D01*
X27964953Y26187826D01*
X27941374Y25811604D01*
X27843705Y25446389D01*
X27765884Y25270986D01*
X27598082Y25016883D01*
X27368778Y24776540D01*
X27100766Y24571653D01*
X26927773Y24473234D01*
X26766618Y24397217D01*
X26636610Y24349309D01*
X26506195Y24322095D01*
X26343817Y24308161D01*
X26201416Y24302562D01*
X25977327Y24300263D01*
X25807031Y24312076D01*
X25660329Y24341443D01*
X25547546Y24377085D01*
X25175771Y24549306D01*
X24864382Y24778897D01*
X24617096Y25060326D01*
X24437628Y25388064D01*
X24329692Y25756576D01*
X24297004Y26160333D01*
X24299362Y26235572D01*
X24316054Y26450723D01*
X24348148Y26620263D01*
X24404659Y26783008D01*
X24450345Y26885677D01*
X24649251Y27220444D01*
X24898071Y27494971D01*
X25186689Y27708142D01*
X25504992Y27858845D01*
X25842863Y27945965D01*
X26190189Y27968390D01*
X26536854Y27925006D01*
X26536854Y27925006D01*
G37*
X26536854Y27925006D02*
X26872744Y27814699D01*
X27187745Y27636355D01*
X27471741Y27388862D01*
X27603540Y27232822D01*
X27794798Y26913405D01*
X27915682Y26560083D01*
X27964953Y26187826D01*
X27941374Y25811604D01*
X27843705Y25446389D01*
X27765884Y25270986D01*
X27598082Y25016883D01*
X27368778Y24776540D01*
X27100766Y24571653D01*
X26927773Y24473234D01*
X26766618Y24397217D01*
X26636610Y24349309D01*
X26506195Y24322095D01*
X26343817Y24308161D01*
X26201416Y24302562D01*
X25977327Y24300263D01*
X25807031Y24312076D01*
X25660329Y24341443D01*
X25547546Y24377085D01*
X25175771Y24549306D01*
X24864382Y24778897D01*
X24617096Y25060326D01*
X24437628Y25388064D01*
X24329692Y25756576D01*
X24297004Y26160333D01*
X24299362Y26235572D01*
X24316054Y26450723D01*
X24348148Y26620263D01*
X24404659Y26783008D01*
X24450345Y26885677D01*
X24649251Y27220444D01*
X24898071Y27494971D01*
X25186689Y27708142D01*
X25504992Y27858845D01*
X25842863Y27945965D01*
X26190189Y27968390D01*
X26536854Y27925006D01*
G36*
X31137131Y27951848D02*
G01*
X31502609Y27862250D01*
X31839347Y27699583D01*
X32138158Y27469327D01*
X32389855Y27176960D01*
X32559305Y26884944D01*
X32619742Y26751528D01*
X32658949Y26640831D01*
X32681483Y26527574D01*
X32691903Y26386477D01*
X32694765Y26192259D01*
X32694834Y26133166D01*
X32693137Y25921928D01*
X32685009Y25770057D01*
X32665892Y25652272D01*
X32631228Y25543294D01*
X32576462Y25417843D01*
X32559305Y25381389D01*
X32350809Y25037776D01*
X32078684Y24746614D01*
X31751581Y24516711D01*
X31665575Y24471489D01*
X31505782Y24396224D01*
X31376234Y24348788D01*
X31245473Y24321827D01*
X31082040Y24307988D01*
X30942749Y24302526D01*
X30706598Y24300845D01*
X30527529Y24314857D01*
X30378962Y24347262D01*
X30323614Y24365446D01*
X29954104Y24537735D01*
X29639850Y24767253D01*
X29386060Y25046391D01*
X29197941Y25367541D01*
X29080703Y25723095D01*
X29039553Y26105445D01*
X29043507Y26235403D01*
X29108203Y26625641D01*
X29245474Y26980345D01*
X29448059Y27292175D01*
X29708698Y27553789D01*
X30020130Y27757848D01*
X30375096Y27897011D01*
X30752100Y27962895D01*
X31137131Y27951848D01*
X31137131Y27951848D01*
G37*
X31137131Y27951848D02*
X31502609Y27862250D01*
X31839347Y27699583D01*
X32138158Y27469327D01*
X32389855Y27176960D01*
X32559305Y26884944D01*
X32619742Y26751528D01*
X32658949Y26640831D01*
X32681483Y26527574D01*
X32691903Y26386477D01*
X32694765Y26192259D01*
X32694834Y26133166D01*
X32693137Y25921928D01*
X32685009Y25770057D01*
X32665892Y25652272D01*
X32631228Y25543294D01*
X32576462Y25417843D01*
X32559305Y25381389D01*
X32350809Y25037776D01*
X32078684Y24746614D01*
X31751581Y24516711D01*
X31665575Y24471489D01*
X31505782Y24396224D01*
X31376234Y24348788D01*
X31245473Y24321827D01*
X31082040Y24307988D01*
X30942749Y24302526D01*
X30706598Y24300845D01*
X30527529Y24314857D01*
X30378962Y24347262D01*
X30323614Y24365446D01*
X29954104Y24537735D01*
X29639850Y24767253D01*
X29386060Y25046391D01*
X29197941Y25367541D01*
X29080703Y25723095D01*
X29039553Y26105445D01*
X29043507Y26235403D01*
X29108203Y26625641D01*
X29245474Y26980345D01*
X29448059Y27292175D01*
X29708698Y27553789D01*
X30020130Y27757848D01*
X30375096Y27897011D01*
X30752100Y27962895D01*
X31137131Y27951848D01*
G36*
X35912245Y27948365D02*
G01*
X36271628Y27854397D01*
X36602991Y27691755D01*
X36896571Y27465765D01*
X37142602Y27181756D01*
X37331320Y26845053D01*
X37392705Y26684530D01*
X37438102Y26475724D01*
X37458451Y26219615D01*
X37453693Y25949795D01*
X37423769Y25699855D01*
X37394644Y25576514D01*
X37258120Y25258223D01*
X37052547Y24963005D01*
X36793189Y24706190D01*
X36495307Y24503104D01*
X36199998Y24376786D01*
X35914742Y24315087D01*
X35609272Y24293567D01*
X35315155Y24312381D01*
X35065500Y24371130D01*
X34828653Y24465973D01*
X34642374Y24567103D01*
X34473788Y24695162D01*
X34323147Y24837295D01*
X34081460Y25133210D01*
X33911821Y25467352D01*
X33809427Y25849188D01*
X33809170Y25850681D01*
X33786864Y26219997D01*
X33842108Y26580737D01*
X33967820Y26922015D01*
X34156915Y27232943D01*
X34402310Y27502637D01*
X34696919Y27720207D01*
X35033661Y27874769D01*
X35148478Y27908965D01*
X35534607Y27968330D01*
X35912245Y27948365D01*
X35912245Y27948365D01*
G37*
X35912245Y27948365D02*
X36271628Y27854397D01*
X36602991Y27691755D01*
X36896571Y27465765D01*
X37142602Y27181756D01*
X37331320Y26845053D01*
X37392705Y26684530D01*
X37438102Y26475724D01*
X37458451Y26219615D01*
X37453693Y25949795D01*
X37423769Y25699855D01*
X37394644Y25576514D01*
X37258120Y25258223D01*
X37052547Y24963005D01*
X36793189Y24706190D01*
X36495307Y24503104D01*
X36199998Y24376786D01*
X35914742Y24315087D01*
X35609272Y24293567D01*
X35315155Y24312381D01*
X35065500Y24371130D01*
X34828653Y24465973D01*
X34642374Y24567103D01*
X34473788Y24695162D01*
X34323147Y24837295D01*
X34081460Y25133210D01*
X33911821Y25467352D01*
X33809427Y25849188D01*
X33809170Y25850681D01*
X33786864Y26219997D01*
X33842108Y26580737D01*
X33967820Y26922015D01*
X34156915Y27232943D01*
X34402310Y27502637D01*
X34696919Y27720207D01*
X35033661Y27874769D01*
X35148478Y27908965D01*
X35534607Y27968330D01*
X35912245Y27948365D01*
G36*
X2709141Y32691920D02*
G01*
X2868002Y32661838D01*
X3021981Y32607458D01*
X3182002Y32532837D01*
X3508449Y32329049D01*
X3772747Y32077724D01*
X3974883Y31788837D01*
X4114841Y31472366D01*
X4192607Y31138286D01*
X4208168Y30796572D01*
X4161509Y30457201D01*
X4052615Y30130148D01*
X3881474Y29825389D01*
X3648070Y29552900D01*
X3352390Y29322658D01*
X3186698Y29229251D01*
X2842469Y29099873D01*
X2474998Y29039612D01*
X2107816Y29050924D01*
X1892781Y29094360D01*
X1536869Y29233258D01*
X1227052Y29434950D01*
X968028Y29689160D01*
X764495Y29985610D01*
X621151Y30314024D01*
X542694Y30664125D01*
X533820Y31025635D01*
X599229Y31388279D01*
X711369Y31678833D01*
X921799Y32022443D01*
X1183073Y32299172D01*
X1491501Y32506903D01*
X1843393Y32643520D01*
X2235056Y32706904D01*
X2505546Y32708026D01*
X2709141Y32691920D01*
X2709141Y32691920D01*
G37*
X2709141Y32691920D02*
X2868002Y32661838D01*
X3021981Y32607458D01*
X3182002Y32532837D01*
X3508449Y32329049D01*
X3772747Y32077724D01*
X3974883Y31788837D01*
X4114841Y31472366D01*
X4192607Y31138286D01*
X4208168Y30796572D01*
X4161509Y30457201D01*
X4052615Y30130148D01*
X3881474Y29825389D01*
X3648070Y29552900D01*
X3352390Y29322658D01*
X3186698Y29229251D01*
X2842469Y29099873D01*
X2474998Y29039612D01*
X2107816Y29050924D01*
X1892781Y29094360D01*
X1536869Y29233258D01*
X1227052Y29434950D01*
X968028Y29689160D01*
X764495Y29985610D01*
X621151Y30314024D01*
X542694Y30664125D01*
X533820Y31025635D01*
X599229Y31388279D01*
X711369Y31678833D01*
X921799Y32022443D01*
X1183073Y32299172D01*
X1491501Y32506903D01*
X1843393Y32643520D01*
X2235056Y32706904D01*
X2505546Y32708026D01*
X2709141Y32691920D01*
G36*
X7607911Y32654612D02*
G01*
X7878010Y32557322D01*
X8212109Y32358690D01*
X8486134Y32110008D01*
X8698970Y31821425D01*
X8849498Y31503086D01*
X8936602Y31165139D01*
X8959165Y30817731D01*
X8916069Y30471009D01*
X8806197Y30135121D01*
X8628432Y29820212D01*
X8381658Y29536431D01*
X8225155Y29404127D01*
X8063164Y29296883D01*
X7879863Y29198116D01*
X7781667Y29155280D01*
X7530877Y29087332D01*
X7240942Y29051921D01*
X6947733Y29050876D01*
X6687119Y29086023D01*
X6643096Y29097266D01*
X6276405Y29242964D01*
X5952534Y29458907D01*
X5679729Y29738057D01*
X5466239Y30073374D01*
X5442678Y30121990D01*
X5328158Y30461975D01*
X5283837Y30827599D01*
X5308737Y31198655D01*
X5401881Y31554932D01*
X5524655Y31815360D01*
X5664670Y32010086D01*
X5851418Y32210425D01*
X6054804Y32386405D01*
X6191257Y32479223D01*
X6517569Y32623870D01*
X6876425Y32701964D01*
X7246861Y32712535D01*
X7607911Y32654612D01*
X7607911Y32654612D01*
G37*
X7607911Y32654612D02*
X7878010Y32557322D01*
X8212109Y32358690D01*
X8486134Y32110008D01*
X8698970Y31821425D01*
X8849498Y31503086D01*
X8936602Y31165139D01*
X8959165Y30817731D01*
X8916069Y30471009D01*
X8806197Y30135121D01*
X8628432Y29820212D01*
X8381658Y29536431D01*
X8225155Y29404127D01*
X8063164Y29296883D01*
X7879863Y29198116D01*
X7781667Y29155280D01*
X7530877Y29087332D01*
X7240942Y29051921D01*
X6947733Y29050876D01*
X6687119Y29086023D01*
X6643096Y29097266D01*
X6276405Y29242964D01*
X5952534Y29458907D01*
X5679729Y29738057D01*
X5466239Y30073374D01*
X5442678Y30121990D01*
X5328158Y30461975D01*
X5283837Y30827599D01*
X5308737Y31198655D01*
X5401881Y31554932D01*
X5524655Y31815360D01*
X5664670Y32010086D01*
X5851418Y32210425D01*
X6054804Y32386405D01*
X6191257Y32479223D01*
X6517569Y32623870D01*
X6876425Y32701964D01*
X7246861Y32712535D01*
X7607911Y32654612D01*
G36*
X12191822Y32689736D02*
G01*
X12549208Y32594859D01*
X12861065Y32441213D01*
X13067645Y32282884D01*
X13269950Y32079993D01*
X13433608Y31867117D01*
X13436833Y31862082D01*
X13593950Y31540412D01*
X13684690Y31184732D01*
X13707752Y30815013D01*
X13661837Y30451224D01*
X13550079Y30122722D01*
X13348378Y29785410D01*
X13090935Y29504682D01*
X12787912Y29285327D01*
X12449470Y29132130D01*
X12085771Y29049880D01*
X11706977Y29043364D01*
X11381027Y29100864D01*
X11030549Y29237504D01*
X10716420Y29443955D01*
X10449406Y29709319D01*
X10240272Y30022699D01*
X10099782Y30373198D01*
X10090626Y30407144D01*
X10031522Y30794825D01*
X10052525Y31173398D01*
X10149078Y31533306D01*
X10316622Y31864991D01*
X10550599Y32158894D01*
X10846452Y32405458D01*
X11116546Y32558442D01*
X11456397Y32672811D01*
X11821187Y32716148D01*
X12191822Y32689736D01*
X12191822Y32689736D01*
G37*
X12191822Y32689736D02*
X12549208Y32594859D01*
X12861065Y32441213D01*
X13067645Y32282884D01*
X13269950Y32079993D01*
X13433608Y31867117D01*
X13436833Y31862082D01*
X13593950Y31540412D01*
X13684690Y31184732D01*
X13707752Y30815013D01*
X13661837Y30451224D01*
X13550079Y30122722D01*
X13348378Y29785410D01*
X13090935Y29504682D01*
X12787912Y29285327D01*
X12449470Y29132130D01*
X12085771Y29049880D01*
X11706977Y29043364D01*
X11381027Y29100864D01*
X11030549Y29237504D01*
X10716420Y29443955D01*
X10449406Y29709319D01*
X10240272Y30022699D01*
X10099782Y30373198D01*
X10090626Y30407144D01*
X10031522Y30794825D01*
X10052525Y31173398D01*
X10149078Y31533306D01*
X10316622Y31864991D01*
X10550599Y32158894D01*
X10846452Y32405458D01*
X11116546Y32558442D01*
X11456397Y32672811D01*
X11821187Y32716148D01*
X12191822Y32689736D01*
G36*
X16945041Y32690117D02*
G01*
X17171556Y32636702D01*
X17522641Y32489767D01*
X17821774Y32284221D01*
X18066582Y32030086D01*
X18254691Y31737382D01*
X18383728Y31416133D01*
X18451317Y31076358D01*
X18455087Y30728081D01*
X18392662Y30381322D01*
X18261669Y30046104D01*
X18059735Y29732448D01*
X17901153Y29556427D01*
X17612481Y29328594D01*
X17281079Y29162652D01*
X16923809Y29063122D01*
X16557530Y29034525D01*
X16199104Y29081381D01*
X16163667Y29090575D01*
X15795064Y29232873D01*
X15472180Y29442961D01*
X15201629Y29713532D01*
X14990026Y30037280D01*
X14843989Y30406896D01*
X14799300Y30597497D01*
X14774901Y30951869D01*
X14827641Y31305335D01*
X14950788Y31645392D01*
X15137612Y31959538D01*
X15381383Y32235268D01*
X15675371Y32460081D01*
X15853833Y32556468D01*
X16197319Y32672501D01*
X16567974Y32717472D01*
X16945041Y32690117D01*
X16945041Y32690117D01*
G37*
X16945041Y32690117D02*
X17171556Y32636702D01*
X17522641Y32489767D01*
X17821774Y32284221D01*
X18066582Y32030086D01*
X18254691Y31737382D01*
X18383728Y31416133D01*
X18451317Y31076358D01*
X18455087Y30728081D01*
X18392662Y30381322D01*
X18261669Y30046104D01*
X18059735Y29732448D01*
X17901153Y29556427D01*
X17612481Y29328594D01*
X17281079Y29162652D01*
X16923809Y29063122D01*
X16557530Y29034525D01*
X16199104Y29081381D01*
X16163667Y29090575D01*
X15795064Y29232873D01*
X15472180Y29442961D01*
X15201629Y29713532D01*
X14990026Y30037280D01*
X14843989Y30406896D01*
X14799300Y30597497D01*
X14774901Y30951869D01*
X14827641Y31305335D01*
X14950788Y31645392D01*
X15137612Y31959538D01*
X15381383Y32235268D01*
X15675371Y32460081D01*
X15853833Y32556468D01*
X16197319Y32672501D01*
X16567974Y32717472D01*
X16945041Y32690117D01*
G36*
X21585937Y32708397D02*
G01*
X21937890Y32637741D01*
X22134588Y32561171D01*
X22467445Y32360775D01*
X22747396Y32102979D01*
X22968035Y31798634D01*
X23122951Y31458596D01*
X23205738Y31093716D01*
X23211957Y30736527D01*
X23139564Y30350566D01*
X22995709Y30000327D01*
X22788414Y29693128D01*
X22525702Y29436285D01*
X22215595Y29237118D01*
X21866118Y29102942D01*
X21485292Y29041076D01*
X21349500Y29037820D01*
X21169064Y29049112D01*
X20987055Y29074947D01*
X20900448Y29094360D01*
X20541691Y29233588D01*
X20232443Y29433645D01*
X19975865Y29684509D01*
X19775116Y29976155D01*
X19633358Y30298561D01*
X19553749Y30641704D01*
X19539449Y30995559D01*
X19593620Y31350104D01*
X19719420Y31695315D01*
X19920011Y32021169D01*
X19961283Y32073316D01*
X20216446Y32320496D01*
X20522019Y32511080D01*
X20862476Y32641581D01*
X21222290Y32708515D01*
X21585937Y32708397D01*
X21585937Y32708397D01*
G37*
X21585937Y32708397D02*
X21937890Y32637741D01*
X22134588Y32561171D01*
X22467445Y32360775D01*
X22747396Y32102979D01*
X22968035Y31798634D01*
X23122951Y31458596D01*
X23205738Y31093716D01*
X23211957Y30736527D01*
X23139564Y30350566D01*
X22995709Y30000327D01*
X22788414Y29693128D01*
X22525702Y29436285D01*
X22215595Y29237118D01*
X21866118Y29102942D01*
X21485292Y29041076D01*
X21349500Y29037820D01*
X21169064Y29049112D01*
X20987055Y29074947D01*
X20900448Y29094360D01*
X20541691Y29233588D01*
X20232443Y29433645D01*
X19975865Y29684509D01*
X19775116Y29976155D01*
X19633358Y30298561D01*
X19553749Y30641704D01*
X19539449Y30995559D01*
X19593620Y31350104D01*
X19719420Y31695315D01*
X19920011Y32021169D01*
X19961283Y32073316D01*
X20216446Y32320496D01*
X20522019Y32511080D01*
X20862476Y32641581D01*
X21222290Y32708515D01*
X21585937Y32708397D01*
G36*
X26615577Y32654612D02*
G01*
X26885677Y32557322D01*
X27219775Y32358690D01*
X27493801Y32110008D01*
X27706637Y31821425D01*
X27857165Y31503086D01*
X27944269Y31165139D01*
X27966831Y30817731D01*
X27923735Y30471009D01*
X27813864Y30135121D01*
X27636099Y29820212D01*
X27389324Y29536431D01*
X27232822Y29404127D01*
X27070831Y29296883D01*
X26887529Y29198116D01*
X26789334Y29155280D01*
X26538543Y29087332D01*
X26248609Y29051921D01*
X25955400Y29050876D01*
X25694786Y29086023D01*
X25650763Y29097266D01*
X25284072Y29242964D01*
X24960201Y29458907D01*
X24687396Y29738057D01*
X24473905Y30073374D01*
X24450345Y30121990D01*
X24335824Y30461975D01*
X24291503Y30827599D01*
X24316404Y31198655D01*
X24409547Y31554932D01*
X24532321Y31815360D01*
X24672337Y32010086D01*
X24859085Y32210425D01*
X25062470Y32386405D01*
X25198924Y32479223D01*
X25525236Y32623870D01*
X25884092Y32701964D01*
X26254528Y32712535D01*
X26615577Y32654612D01*
X26615577Y32654612D01*
G37*
X26615577Y32654612D02*
X26885677Y32557322D01*
X27219775Y32358690D01*
X27493801Y32110008D01*
X27706637Y31821425D01*
X27857165Y31503086D01*
X27944269Y31165139D01*
X27966831Y30817731D01*
X27923735Y30471009D01*
X27813864Y30135121D01*
X27636099Y29820212D01*
X27389324Y29536431D01*
X27232822Y29404127D01*
X27070831Y29296883D01*
X26887529Y29198116D01*
X26789334Y29155280D01*
X26538543Y29087332D01*
X26248609Y29051921D01*
X25955400Y29050876D01*
X25694786Y29086023D01*
X25650763Y29097266D01*
X25284072Y29242964D01*
X24960201Y29458907D01*
X24687396Y29738057D01*
X24473905Y30073374D01*
X24450345Y30121990D01*
X24335824Y30461975D01*
X24291503Y30827599D01*
X24316404Y31198655D01*
X24409547Y31554932D01*
X24532321Y31815360D01*
X24672337Y32010086D01*
X24859085Y32210425D01*
X25062470Y32386405D01*
X25198924Y32479223D01*
X25525236Y32623870D01*
X25884092Y32701964D01*
X26254528Y32712535D01*
X26615577Y32654612D01*
G36*
X31200157Y32689602D02*
G01*
X31557875Y32594361D01*
X31869968Y32440433D01*
X32146746Y32218045D01*
X32385512Y31928250D01*
X32541197Y31657666D01*
X32609069Y31513155D01*
X32653297Y31398799D01*
X32678933Y31288846D01*
X32691028Y31157548D01*
X32694634Y30979154D01*
X32694834Y30874500D01*
X32693137Y30663262D01*
X32685009Y30511390D01*
X32665892Y30393605D01*
X32631228Y30284627D01*
X32576462Y30159176D01*
X32559305Y30122722D01*
X32355381Y29784306D01*
X32096466Y29503050D01*
X31792546Y29283656D01*
X31453605Y29130823D01*
X31089629Y29049253D01*
X30710601Y29043646D01*
X30388693Y29100864D01*
X30038484Y29236220D01*
X29730970Y29436539D01*
X29472084Y29691138D01*
X29267757Y29989337D01*
X29123921Y30320455D01*
X29046508Y30673811D01*
X29041449Y31038723D01*
X29112756Y31398379D01*
X29270238Y31771138D01*
X29493210Y32090493D01*
X29779751Y32354243D01*
X30124213Y32558442D01*
X30464365Y32672924D01*
X30829333Y32716217D01*
X31200157Y32689602D01*
X31200157Y32689602D01*
G37*
X31200157Y32689602D02*
X31557875Y32594361D01*
X31869968Y32440433D01*
X32146746Y32218045D01*
X32385512Y31928250D01*
X32541197Y31657666D01*
X32609069Y31513155D01*
X32653297Y31398799D01*
X32678933Y31288846D01*
X32691028Y31157548D01*
X32694634Y30979154D01*
X32694834Y30874500D01*
X32693137Y30663262D01*
X32685009Y30511390D01*
X32665892Y30393605D01*
X32631228Y30284627D01*
X32576462Y30159176D01*
X32559305Y30122722D01*
X32355381Y29784306D01*
X32096466Y29503050D01*
X31792546Y29283656D01*
X31453605Y29130823D01*
X31089629Y29049253D01*
X30710601Y29043646D01*
X30388693Y29100864D01*
X30038484Y29236220D01*
X29730970Y29436539D01*
X29472084Y29691138D01*
X29267757Y29989337D01*
X29123921Y30320455D01*
X29046508Y30673811D01*
X29041449Y31038723D01*
X29112756Y31398379D01*
X29270238Y31771138D01*
X29493210Y32090493D01*
X29779751Y32354243D01*
X30124213Y32558442D01*
X30464365Y32672924D01*
X30829333Y32716217D01*
X31200157Y32689602D01*
G36*
X35923562Y32689794D02*
G01*
X36298013Y32595313D01*
X36634669Y32427718D01*
X36927991Y32189706D01*
X37154385Y31911503D01*
X37301296Y31661205D01*
X37395230Y31418652D01*
X37443183Y31156880D01*
X37452150Y30848925D01*
X37449633Y30773448D01*
X37437504Y30566590D01*
X37416888Y30413438D01*
X37380718Y30283044D01*
X37321924Y30144460D01*
X37291801Y30082448D01*
X37137752Y29834255D01*
X36933383Y29594036D01*
X36702914Y29386877D01*
X36481779Y29243507D01*
X36141006Y29111542D01*
X35774576Y29044271D01*
X35408618Y29045042D01*
X35200903Y29079377D01*
X34868214Y29198462D01*
X34554719Y29387911D01*
X34278436Y29633431D01*
X34057384Y29920727D01*
X33990961Y30039172D01*
X33848503Y30409677D01*
X33787353Y30787164D01*
X33805961Y31161884D01*
X33902781Y31524084D01*
X34076265Y31864015D01*
X34324866Y32171926D01*
X34330354Y32177452D01*
X34618996Y32421527D01*
X34925644Y32587533D01*
X35264882Y32681994D01*
X35516851Y32708468D01*
X35923562Y32689794D01*
X35923562Y32689794D01*
G37*
X35923562Y32689794D02*
X36298013Y32595313D01*
X36634669Y32427718D01*
X36927991Y32189706D01*
X37154385Y31911503D01*
X37301296Y31661205D01*
X37395230Y31418652D01*
X37443183Y31156880D01*
X37452150Y30848925D01*
X37449633Y30773448D01*
X37437504Y30566590D01*
X37416888Y30413438D01*
X37380718Y30283044D01*
X37321924Y30144460D01*
X37291801Y30082448D01*
X37137752Y29834255D01*
X36933383Y29594036D01*
X36702914Y29386877D01*
X36481779Y29243507D01*
X36141006Y29111542D01*
X35774576Y29044271D01*
X35408618Y29045042D01*
X35200903Y29079377D01*
X34868214Y29198462D01*
X34554719Y29387911D01*
X34278436Y29633431D01*
X34057384Y29920727D01*
X33990961Y30039172D01*
X33848503Y30409677D01*
X33787353Y30787164D01*
X33805961Y31161884D01*
X33902781Y31524084D01*
X34076265Y31864015D01*
X34324866Y32171926D01*
X34330354Y32177452D01*
X34618996Y32421527D01*
X34925644Y32587533D01*
X35264882Y32681994D01*
X35516851Y32708468D01*
X35923562Y32689794D01*
G36*
X2608681Y37468787D02*
G01*
X2992507Y37372861D01*
X3339012Y37204743D01*
X3640048Y36971727D01*
X3887465Y36681102D01*
X4073114Y36340162D01*
X4160774Y36080020D01*
X4218212Y35705827D01*
X4198620Y35344124D01*
X4109482Y35002330D01*
X3958285Y34687862D01*
X3752511Y34408136D01*
X3499647Y34170571D01*
X3207176Y33982583D01*
X2882583Y33851590D01*
X2533353Y33785010D01*
X2166970Y33790259D01*
X1901763Y33841326D01*
X1538659Y33981210D01*
X1217005Y34189687D01*
X945275Y34457371D01*
X731941Y34774874D01*
X585478Y35132809D01*
X534342Y35356236D01*
X513095Y35726715D01*
X568246Y36082843D01*
X691748Y36416427D01*
X875556Y36719272D01*
X1111624Y36983186D01*
X1391907Y37199974D01*
X1708360Y37361443D01*
X2052936Y37459398D01*
X2417590Y37485647D01*
X2608681Y37468787D01*
X2608681Y37468787D01*
G37*
X2608681Y37468787D02*
X2992507Y37372861D01*
X3339012Y37204743D01*
X3640048Y36971727D01*
X3887465Y36681102D01*
X4073114Y36340162D01*
X4160774Y36080020D01*
X4218212Y35705827D01*
X4198620Y35344124D01*
X4109482Y35002330D01*
X3958285Y34687862D01*
X3752511Y34408136D01*
X3499647Y34170571D01*
X3207176Y33982583D01*
X2882583Y33851590D01*
X2533353Y33785010D01*
X2166970Y33790259D01*
X1901763Y33841326D01*
X1538659Y33981210D01*
X1217005Y34189687D01*
X945275Y34457371D01*
X731941Y34774874D01*
X585478Y35132809D01*
X534342Y35356236D01*
X513095Y35726715D01*
X568246Y36082843D01*
X691748Y36416427D01*
X875556Y36719272D01*
X1111624Y36983186D01*
X1391907Y37199974D01*
X1708360Y37361443D01*
X2052936Y37459398D01*
X2417590Y37485647D01*
X2608681Y37468787D01*
G36*
X7623733Y37396954D02*
G01*
X7951145Y37269724D01*
X8249990Y37082629D01*
X8510437Y36838742D01*
X8722658Y36541137D01*
X8876823Y36192885D01*
X8907948Y36087842D01*
X8966181Y35717787D01*
X8947322Y35358509D01*
X8858891Y35017688D01*
X8708407Y34703003D01*
X8503388Y34422131D01*
X8251353Y34182751D01*
X7959821Y33992543D01*
X7636311Y33859184D01*
X7288341Y33790354D01*
X6923431Y33793730D01*
X6700412Y33833383D01*
X6336675Y33964045D01*
X6007780Y34166151D01*
X5725944Y34429715D01*
X5503382Y34744752D01*
X5444088Y34860310D01*
X5329862Y35197480D01*
X5286067Y35555220D01*
X5309412Y35917958D01*
X5396605Y36270121D01*
X5544354Y36596136D01*
X5749368Y36880431D01*
X5902178Y37027574D01*
X6224990Y37245764D01*
X6568381Y37388724D01*
X6922521Y37459527D01*
X7277582Y37461246D01*
X7623733Y37396954D01*
X7623733Y37396954D01*
G37*
X7623733Y37396954D02*
X7951145Y37269724D01*
X8249990Y37082629D01*
X8510437Y36838742D01*
X8722658Y36541137D01*
X8876823Y36192885D01*
X8907948Y36087842D01*
X8966181Y35717787D01*
X8947322Y35358509D01*
X8858891Y35017688D01*
X8708407Y34703003D01*
X8503388Y34422131D01*
X8251353Y34182751D01*
X7959821Y33992543D01*
X7636311Y33859184D01*
X7288341Y33790354D01*
X6923431Y33793730D01*
X6700412Y33833383D01*
X6336675Y33964045D01*
X6007780Y34166151D01*
X5725944Y34429715D01*
X5503382Y34744752D01*
X5444088Y34860310D01*
X5329862Y35197480D01*
X5286067Y35555220D01*
X5309412Y35917958D01*
X5396605Y36270121D01*
X5544354Y36596136D01*
X5749368Y36880431D01*
X5902178Y37027574D01*
X6224990Y37245764D01*
X6568381Y37388724D01*
X6922521Y37459527D01*
X7277582Y37461246D01*
X7623733Y37396954D01*
G36*
X12292064Y37426581D02*
G01*
X12625178Y37316334D01*
X12936262Y37139162D01*
X13215052Y36894029D01*
X13352045Y36728313D01*
X13543908Y36399943D01*
X13663859Y36042184D01*
X13710435Y35669639D01*
X13682175Y35296909D01*
X13577615Y34938599D01*
X13539789Y34853833D01*
X13338929Y34524776D01*
X13083441Y34249210D01*
X12784268Y34032404D01*
X12452354Y33879628D01*
X12098640Y33796152D01*
X11734072Y33787244D01*
X11433533Y33839594D01*
X11064133Y33978644D01*
X10743530Y34178235D01*
X10476201Y34428987D01*
X10266625Y34721523D01*
X10119279Y35046461D01*
X10038640Y35394424D01*
X10029187Y35756031D01*
X10095396Y36121904D01*
X10205814Y36411298D01*
X10405680Y36740564D01*
X10655379Y37010145D01*
X10944645Y37219007D01*
X11263213Y37366117D01*
X11600816Y37450438D01*
X11947188Y37470938D01*
X12292064Y37426581D01*
X12292064Y37426581D01*
G37*
X12292064Y37426581D02*
X12625178Y37316334D01*
X12936262Y37139162D01*
X13215052Y36894029D01*
X13352045Y36728313D01*
X13543908Y36399943D01*
X13663859Y36042184D01*
X13710435Y35669639D01*
X13682175Y35296909D01*
X13577615Y34938599D01*
X13539789Y34853833D01*
X13338929Y34524776D01*
X13083441Y34249210D01*
X12784268Y34032404D01*
X12452354Y33879628D01*
X12098640Y33796152D01*
X11734072Y33787244D01*
X11433533Y33839594D01*
X11064133Y33978644D01*
X10743530Y34178235D01*
X10476201Y34428987D01*
X10266625Y34721523D01*
X10119279Y35046461D01*
X10038640Y35394424D01*
X10029187Y35756031D01*
X10095396Y36121904D01*
X10205814Y36411298D01*
X10405680Y36740564D01*
X10655379Y37010145D01*
X10944645Y37219007D01*
X11263213Y37366117D01*
X11600816Y37450438D01*
X11947188Y37470938D01*
X12292064Y37426581D01*
G36*
X17118437Y37404181D02*
G01*
X17467765Y37265882D01*
X17781852Y37059255D01*
X18050784Y36789687D01*
X18264646Y36462565D01*
X18296050Y36399000D01*
X18360713Y36249787D01*
X18401976Y36114733D01*
X18426345Y35963254D01*
X18440323Y35764764D01*
X18442753Y35709234D01*
X18447963Y35495947D01*
X18440873Y35337231D01*
X18418050Y35203456D01*
X18376059Y35064991D01*
X18364250Y35031900D01*
X18191363Y34670598D01*
X17959587Y34363956D01*
X17677667Y34116980D01*
X17354346Y33934675D01*
X16998371Y33822046D01*
X16618484Y33784099D01*
X16248334Y33820813D01*
X15905285Y33929466D01*
X15588942Y34110319D01*
X15309748Y34352482D01*
X15078145Y34645065D01*
X14904577Y34977177D01*
X14800902Y35330220D01*
X14774047Y35694852D01*
X14824438Y36051303D01*
X14944674Y36389452D01*
X15127358Y36699177D01*
X15365089Y36970359D01*
X15650469Y37192876D01*
X15976098Y37356606D01*
X16334577Y37451429D01*
X16353722Y37454250D01*
X16743784Y37468766D01*
X17118437Y37404181D01*
X17118437Y37404181D01*
G37*
X17118437Y37404181D02*
X17467765Y37265882D01*
X17781852Y37059255D01*
X18050784Y36789687D01*
X18264646Y36462565D01*
X18296050Y36399000D01*
X18360713Y36249787D01*
X18401976Y36114733D01*
X18426345Y35963254D01*
X18440323Y35764764D01*
X18442753Y35709234D01*
X18447963Y35495947D01*
X18440873Y35337231D01*
X18418050Y35203456D01*
X18376059Y35064991D01*
X18364250Y35031900D01*
X18191363Y34670598D01*
X17959587Y34363956D01*
X17677667Y34116980D01*
X17354346Y33934675D01*
X16998371Y33822046D01*
X16618484Y33784099D01*
X16248334Y33820813D01*
X15905285Y33929466D01*
X15588942Y34110319D01*
X15309748Y34352482D01*
X15078145Y34645065D01*
X14904577Y34977177D01*
X14800902Y35330220D01*
X14774047Y35694852D01*
X14824438Y36051303D01*
X14944674Y36389452D01*
X15127358Y36699177D01*
X15365089Y36970359D01*
X15650469Y37192876D01*
X15976098Y37356606D01*
X16334577Y37451429D01*
X16353722Y37454250D01*
X16743784Y37468766D01*
X17118437Y37404181D01*
G36*
X21838131Y37419351D02*
G01*
X22181654Y37293702D01*
X22403715Y37163833D01*
X22701841Y36911542D01*
X22933206Y36617477D01*
X23096924Y36292211D01*
X23192109Y35946317D01*
X23217875Y35590370D01*
X23173335Y35234942D01*
X23057603Y34890608D01*
X22869794Y34567940D01*
X22642968Y34309141D01*
X22324591Y34058232D01*
X21981386Y33887810D01*
X21616375Y33798701D01*
X21232580Y33791730D01*
X20930590Y33841778D01*
X20572782Y33968960D01*
X20260160Y34160501D01*
X19997445Y34406386D01*
X19789361Y34696602D01*
X19640629Y35021134D01*
X19555973Y35369968D01*
X19540115Y35733091D01*
X19597777Y36100489D01*
X19714034Y36421410D01*
X19908323Y36743300D01*
X20157828Y37010612D01*
X20451250Y37220228D01*
X20777290Y37369029D01*
X21124650Y37453895D01*
X21482030Y37471709D01*
X21838131Y37419351D01*
X21838131Y37419351D01*
G37*
X21838131Y37419351D02*
X22181654Y37293702D01*
X22403715Y37163833D01*
X22701841Y36911542D01*
X22933206Y36617477D01*
X23096924Y36292211D01*
X23192109Y35946317D01*
X23217875Y35590370D01*
X23173335Y35234942D01*
X23057603Y34890608D01*
X22869794Y34567940D01*
X22642968Y34309141D01*
X22324591Y34058232D01*
X21981386Y33887810D01*
X21616375Y33798701D01*
X21232580Y33791730D01*
X20930590Y33841778D01*
X20572782Y33968960D01*
X20260160Y34160501D01*
X19997445Y34406386D01*
X19789361Y34696602D01*
X19640629Y35021134D01*
X19555973Y35369968D01*
X19540115Y35733091D01*
X19597777Y36100489D01*
X19714034Y36421410D01*
X19908323Y36743300D01*
X20157828Y37010612D01*
X20451250Y37220228D01*
X20777290Y37369029D01*
X21124650Y37453895D01*
X21482030Y37471709D01*
X21838131Y37419351D01*
G36*
X26329735Y37461675D02*
G01*
X26382042Y37455038D01*
X26752702Y37361422D01*
X27091083Y37195112D01*
X27387899Y36964898D01*
X27633865Y36679572D01*
X27819695Y36347923D01*
X27934826Y35984958D01*
X27972131Y35612988D01*
X27932887Y35255123D01*
X27824960Y34918966D01*
X27656219Y34612118D01*
X27434531Y34342181D01*
X27167762Y34116757D01*
X26863781Y33943446D01*
X26530454Y33829851D01*
X26175648Y33783574D01*
X25807232Y33812216D01*
X25708079Y33833383D01*
X25343906Y33964262D01*
X25014564Y34166967D01*
X24731860Y34431849D01*
X24507599Y34749261D01*
X24449215Y34862232D01*
X24389757Y34992940D01*
X24350653Y35101129D01*
X24327661Y35210894D01*
X24316539Y35346329D01*
X24313046Y35531529D01*
X24312834Y35637000D01*
X24314115Y35850764D01*
X24320911Y36003876D01*
X24337650Y36120341D01*
X24368760Y36224168D01*
X24418669Y36339362D01*
X24457074Y36419001D01*
X24663103Y36749684D01*
X24925826Y37025280D01*
X25234545Y37240034D01*
X25578567Y37388188D01*
X25947195Y37463988D01*
X26329735Y37461675D01*
X26329735Y37461675D01*
G37*
X26329735Y37461675D02*
X26382042Y37455038D01*
X26752702Y37361422D01*
X27091083Y37195112D01*
X27387899Y36964898D01*
X27633865Y36679572D01*
X27819695Y36347923D01*
X27934826Y35984958D01*
X27972131Y35612988D01*
X27932887Y35255123D01*
X27824960Y34918966D01*
X27656219Y34612118D01*
X27434531Y34342181D01*
X27167762Y34116757D01*
X26863781Y33943446D01*
X26530454Y33829851D01*
X26175648Y33783574D01*
X25807232Y33812216D01*
X25708079Y33833383D01*
X25343906Y33964262D01*
X25014564Y34166967D01*
X24731860Y34431849D01*
X24507599Y34749261D01*
X24449215Y34862232D01*
X24389757Y34992940D01*
X24350653Y35101129D01*
X24327661Y35210894D01*
X24316539Y35346329D01*
X24313046Y35531529D01*
X24312834Y35637000D01*
X24314115Y35850764D01*
X24320911Y36003876D01*
X24337650Y36120341D01*
X24368760Y36224168D01*
X24418669Y36339362D01*
X24457074Y36419001D01*
X24663103Y36749684D01*
X24925826Y37025280D01*
X25234545Y37240034D01*
X25578567Y37388188D01*
X25947195Y37463988D01*
X26329735Y37461675D01*
G36*
X31088135Y37459037D02*
G01*
X31143635Y37452175D01*
X31512454Y37361959D01*
X31840203Y37205045D01*
X32122569Y36991005D01*
X32355240Y36729412D01*
X32533903Y36429839D01*
X32654247Y36101859D01*
X32711957Y35755044D01*
X32702724Y35398968D01*
X32622233Y35043202D01*
X32466172Y34697320D01*
X32419295Y34620420D01*
X32185739Y34330506D01*
X31899691Y34096554D01*
X31574480Y33923826D01*
X31223435Y33817582D01*
X30859884Y33783085D01*
X30497157Y33825594D01*
X30441199Y33839594D01*
X30060478Y33982270D01*
X29732078Y34187277D01*
X29461186Y34447415D01*
X29252991Y34755490D01*
X29112683Y35104302D01*
X29045449Y35486655D01*
X29045038Y35776298D01*
X29110420Y36150638D01*
X29247654Y36492148D01*
X29447959Y36793816D01*
X29702550Y37048627D01*
X30002646Y37249568D01*
X30339464Y37389626D01*
X30704221Y37461787D01*
X31088135Y37459037D01*
X31088135Y37459037D01*
G37*
X31088135Y37459037D02*
X31143635Y37452175D01*
X31512454Y37361959D01*
X31840203Y37205045D01*
X32122569Y36991005D01*
X32355240Y36729412D01*
X32533903Y36429839D01*
X32654247Y36101859D01*
X32711957Y35755044D01*
X32702724Y35398968D01*
X32622233Y35043202D01*
X32466172Y34697320D01*
X32419295Y34620420D01*
X32185739Y34330506D01*
X31899691Y34096554D01*
X31574480Y33923826D01*
X31223435Y33817582D01*
X30859884Y33783085D01*
X30497157Y33825594D01*
X30441199Y33839594D01*
X30060478Y33982270D01*
X29732078Y34187277D01*
X29461186Y34447415D01*
X29252991Y34755490D01*
X29112683Y35104302D01*
X29045449Y35486655D01*
X29045038Y35776298D01*
X29110420Y36150638D01*
X29247654Y36492148D01*
X29447959Y36793816D01*
X29702550Y37048627D01*
X30002646Y37249568D01*
X30339464Y37389626D01*
X30704221Y37461787D01*
X31088135Y37459037D01*
G36*
X36126436Y37404205D02*
G01*
X36475846Y37265681D01*
X36790219Y37058525D01*
X37059838Y36788015D01*
X37274982Y36459426D01*
X37305044Y36399000D01*
X37362337Y36273142D01*
X37399984Y36167123D01*
X37422080Y36057147D01*
X37432720Y35919415D01*
X37435999Y35730129D01*
X37436167Y35637000D01*
X37434704Y35421583D01*
X37427503Y35266761D01*
X37410346Y35148474D01*
X37379014Y35042665D01*
X37329289Y34925274D01*
X37300639Y34864056D01*
X37095212Y34522749D01*
X36834877Y34240428D01*
X36528840Y34021792D01*
X36186310Y33871539D01*
X35816494Y33794367D01*
X35428601Y33794974D01*
X35256000Y33820813D01*
X34912952Y33929466D01*
X34596609Y34110319D01*
X34317415Y34352482D01*
X34085812Y34645065D01*
X33912243Y34977177D01*
X33808568Y35330220D01*
X33781714Y35694852D01*
X33832104Y36051303D01*
X33952341Y36389452D01*
X34135025Y36699177D01*
X34372756Y36970359D01*
X34658136Y37192876D01*
X34983764Y37356606D01*
X35342243Y37451429D01*
X35361388Y37454250D01*
X35751711Y37468820D01*
X36126436Y37404205D01*
X36126436Y37404205D01*
G37*
X36126436Y37404205D02*
X36475846Y37265681D01*
X36790219Y37058525D01*
X37059838Y36788015D01*
X37274982Y36459426D01*
X37305044Y36399000D01*
X37362337Y36273142D01*
X37399984Y36167123D01*
X37422080Y36057147D01*
X37432720Y35919415D01*
X37435999Y35730129D01*
X37436167Y35637000D01*
X37434704Y35421583D01*
X37427503Y35266761D01*
X37410346Y35148474D01*
X37379014Y35042665D01*
X37329289Y34925274D01*
X37300639Y34864056D01*
X37095212Y34522749D01*
X36834877Y34240428D01*
X36528840Y34021792D01*
X36186310Y33871539D01*
X35816494Y33794367D01*
X35428601Y33794974D01*
X35256000Y33820813D01*
X34912952Y33929466D01*
X34596609Y34110319D01*
X34317415Y34352482D01*
X34085812Y34645065D01*
X33912243Y34977177D01*
X33808568Y35330220D01*
X33781714Y35694852D01*
X33832104Y36051303D01*
X33952341Y36389452D01*
X34135025Y36699177D01*
X34372756Y36970359D01*
X34658136Y37192876D01*
X34983764Y37356606D01*
X35342243Y37451429D01*
X35361388Y37454250D01*
X35751711Y37468820D01*
X36126436Y37404205D01*
M02*
