%TF.GenerationSoftware,KiCad,Pcbnew,5.1.0-5.1.0*%
%TF.CreationDate,2019-03-30T09:27:41+01:00*%
%TF.ProjectId,WordClock,576f7264-436c-46f6-936b-2e6b69636164,rev?*%
%TF.SameCoordinates,PX660b0c0PY5f5e100*%
%TF.FileFunction,Copper,L2,Bot*%
%TF.FilePolarity,Positive*%
%FSLAX46Y46*%
G04 Gerber Fmt 4.6, Leading zero omitted, Abs format (unit mm)*
G04 Created by KiCad (PCBNEW 5.1.0-5.1.0) date 2019-03-30 09:27:41*
%MOMM*%
%LPD*%
G04 APERTURE LIST*
%ADD10C,0.010000*%
%ADD11C,0.500000*%
G04 APERTURE END LIST*
D10*
G36*
X37796000Y204000D02*
G01*
X204000Y204000D01*
X204000Y2478623D01*
X675207Y2478623D01*
X691527Y2115457D01*
X747686Y1870756D01*
X893743Y1535380D01*
X1108724Y1238776D01*
X1381373Y992529D01*
X1700430Y808226D01*
X1829391Y757568D01*
X2121342Y693250D01*
X2446248Y682585D01*
X2772389Y724585D01*
X3010047Y794348D01*
X3271153Y932789D01*
X3521379Y1135149D01*
X3739518Y1381309D01*
X3896834Y1635613D01*
X3959645Y1768996D01*
X3999906Y1878967D01*
X4022593Y1991653D01*
X4032681Y2133185D01*
X4035147Y2329689D01*
X4035167Y2361997D01*
X4033442Y2515423D01*
X5429815Y2515423D01*
X5433891Y2175972D01*
X5506481Y1841229D01*
X5649444Y1522305D01*
X5864640Y1230313D01*
X5916984Y1175651D01*
X6161952Y973570D01*
X6443044Y811590D01*
X6712578Y712931D01*
X6831653Y695583D01*
X7001852Y686274D01*
X7189875Y686636D01*
X7223371Y687869D01*
X7430026Y702921D01*
X7590624Y733385D01*
X7743546Y788414D01*
X7846430Y836463D01*
X8162497Y1034661D01*
X8417170Y1281074D01*
X8609617Y1565156D01*
X8739007Y1876361D01*
X8804508Y2204143D01*
X8805167Y2486576D01*
X10179088Y2486576D01*
X10190594Y2129061D01*
X10279389Y1772915D01*
X10347054Y1612956D01*
X10523228Y1336447D01*
X10763373Y1088566D01*
X11047684Y885720D01*
X11356353Y744313D01*
X11419343Y724826D01*
X11688954Y681278D01*
X11992855Y685530D01*
X12297654Y734515D01*
X12569956Y825167D01*
X12584396Y831801D01*
X12903380Y1026336D01*
X13168659Y1282542D01*
X13373654Y1591749D01*
X13511783Y1945288D01*
X13547493Y2100673D01*
X13565901Y2384166D01*
X14957678Y2384166D01*
X14959549Y2168849D01*
X14968302Y2013855D01*
X14987814Y1894897D01*
X15021961Y1787686D01*
X15070623Y1676435D01*
X15194053Y1465482D01*
X15361304Y1249881D01*
X15548005Y1057724D01*
X15728899Y917652D01*
X16047181Y768802D01*
X16395333Y690008D01*
X16754104Y682366D01*
X17104242Y746971D01*
X17316192Y827338D01*
X17632136Y1010605D01*
X17884094Y1239720D01*
X18086623Y1528926D01*
X18143397Y1636542D01*
X18217973Y1792884D01*
X18264367Y1914450D01*
X18289113Y2031485D01*
X18298744Y2174230D01*
X18298963Y2211431D01*
X19688116Y2211431D01*
X19754385Y1880145D01*
X19888058Y1562500D01*
X20090118Y1268903D01*
X20361546Y1009758D01*
X20376845Y997977D01*
X20671495Y824721D01*
X21004629Y717501D01*
X21359212Y678431D01*
X21718209Y709625D01*
X22017714Y794348D01*
X22278922Y932846D01*
X22529193Y1135279D01*
X22747332Y1381535D01*
X22904501Y1635726D01*
X22967322Y1769186D01*
X23007585Y1879218D01*
X23030269Y1991962D01*
X23040352Y2133562D01*
X23042814Y2330159D01*
X23042834Y2362110D01*
X23042612Y2381863D01*
X24422704Y2381863D01*
X24460065Y2030177D01*
X24568573Y1693690D01*
X24742074Y1385981D01*
X24974414Y1120631D01*
X25259441Y911219D01*
X25299065Y889333D01*
X25661530Y739586D01*
X26028334Y674345D01*
X26399219Y693642D01*
X26567676Y729994D01*
X26906596Y860832D01*
X27198588Y1053959D01*
X27439496Y1298598D01*
X27625163Y1583967D01*
X27751431Y1899287D01*
X27814145Y2233780D01*
X27813764Y2259954D01*
X29178442Y2259954D01*
X29238471Y1917916D01*
X29367826Y1594945D01*
X29558881Y1302472D01*
X29804007Y1051926D01*
X30095576Y854736D01*
X30425963Y722332D01*
X30461093Y713031D01*
X30687296Y681979D01*
X30953924Y684706D01*
X31225410Y717979D01*
X31466191Y778562D01*
X31551471Y812222D01*
X31887931Y1006403D01*
X32158230Y1252192D01*
X32366392Y1553842D01*
X32471268Y1784474D01*
X32559262Y2129663D01*
X32566703Y2384166D01*
X33964958Y2384166D01*
X33967023Y2168696D01*
X33975949Y2013533D01*
X33995628Y1894370D01*
X34029952Y1786898D01*
X34078289Y1676435D01*
X34201719Y1465482D01*
X34368970Y1249881D01*
X34555671Y1057724D01*
X34736566Y917652D01*
X35054848Y768802D01*
X35403000Y690008D01*
X35761770Y682366D01*
X36111909Y746971D01*
X36323858Y827338D01*
X36639823Y1010622D01*
X36891801Y1239768D01*
X37094348Y1529010D01*
X37151064Y1636513D01*
X37225667Y1792932D01*
X37272088Y1914644D01*
X37296879Y2031917D01*
X37306591Y2175019D01*
X37307822Y2360775D01*
X37301800Y2587707D01*
X37282391Y2760956D01*
X37244949Y2911051D01*
X37208982Y3010047D01*
X37065933Y3273954D01*
X36859650Y3526181D01*
X36610953Y3744873D01*
X36364274Y3896834D01*
X36234349Y3958215D01*
X36127207Y3998137D01*
X36018041Y4021190D01*
X35882045Y4031965D01*
X35694411Y4035052D01*
X35616724Y4035166D01*
X35404419Y4033379D01*
X35252499Y4025224D01*
X35136713Y4006516D01*
X35032807Y3973066D01*
X34916528Y3920688D01*
X34896167Y3910767D01*
X34616270Y3733472D01*
X34361180Y3496304D01*
X34155590Y3223960D01*
X34089357Y3103833D01*
X34033707Y2983321D01*
X33997649Y2878824D01*
X33976979Y2766025D01*
X33967494Y2620610D01*
X33964990Y2418260D01*
X33964958Y2384166D01*
X32566703Y2384166D01*
X32569523Y2480593D01*
X32507084Y2825163D01*
X32376977Y3151277D01*
X32184234Y3446835D01*
X31933889Y3699738D01*
X31630975Y3897888D01*
X31582232Y3921711D01*
X31463826Y3973114D01*
X31356238Y4006263D01*
X31235154Y4025055D01*
X31076259Y4033388D01*
X30874500Y4035166D01*
X30661346Y4033261D01*
X30508850Y4024867D01*
X30393039Y4005971D01*
X30289940Y3972558D01*
X30175581Y3920614D01*
X30167864Y3916834D01*
X29836940Y3709644D01*
X29567224Y3445711D01*
X29363223Y3131094D01*
X29229444Y2771851D01*
X29195367Y2609632D01*
X29178442Y2259954D01*
X27813764Y2259954D01*
X27809147Y2576665D01*
X27732280Y2917163D01*
X27579389Y3244495D01*
X27553362Y3286060D01*
X27343391Y3555657D01*
X27091706Y3769448D01*
X26831667Y3920194D01*
X26719000Y3971921D01*
X26616951Y4005388D01*
X26501836Y4024489D01*
X26349971Y4033117D01*
X26137672Y4035166D01*
X26132277Y4035166D01*
X25922132Y4033616D01*
X25771820Y4025899D01*
X25656524Y4007417D01*
X25551423Y3973573D01*
X25431700Y3919767D01*
X25384175Y3896562D01*
X25076330Y3699497D01*
X24814797Y3440168D01*
X24611225Y3133255D01*
X24477260Y2793436D01*
X24462642Y2735169D01*
X24422704Y2381863D01*
X23042612Y2381863D01*
X23040454Y2573488D01*
X23030453Y2725966D01*
X23008533Y2845243D01*
X22970399Y2957019D01*
X22927094Y3054553D01*
X22727489Y3393175D01*
X22476614Y3664734D01*
X22172520Y3870984D01*
X21887058Y3990984D01*
X21594707Y4050138D01*
X21271584Y4054353D01*
X20949347Y4005885D01*
X20659653Y3906992D01*
X20651000Y3902889D01*
X20333466Y3708277D01*
X20077444Y3464872D01*
X19883915Y3183079D01*
X19753863Y2873304D01*
X19688270Y2545952D01*
X19688116Y2211431D01*
X18298963Y2211431D01*
X18299843Y2360804D01*
X18293533Y2588904D01*
X18273672Y2763378D01*
X18235605Y2914798D01*
X18201004Y3010047D01*
X18058265Y3273908D01*
X17852193Y3526044D01*
X17603527Y3744685D01*
X17356386Y3896834D01*
X17226344Y3958225D01*
X17119142Y3998142D01*
X17009958Y4021176D01*
X16873965Y4031915D01*
X16686340Y4034949D01*
X16608835Y4035042D01*
X16396015Y4033136D01*
X16243717Y4024816D01*
X16127826Y4005982D01*
X16024228Y3972531D01*
X15908811Y3920362D01*
X15894996Y3913617D01*
X15631146Y3746751D01*
X15383224Y3521250D01*
X15176710Y3262607D01*
X15082680Y3100915D01*
X15026969Y2981876D01*
X14990836Y2878521D01*
X14970065Y2766677D01*
X14960440Y2622170D01*
X14957745Y2420828D01*
X14957678Y2384166D01*
X13565901Y2384166D01*
X13569725Y2443047D01*
X13515178Y2784197D01*
X13390893Y3110946D01*
X13203908Y3410118D01*
X12961265Y3668536D01*
X12670002Y3873024D01*
X12574565Y3921711D01*
X12456160Y3973114D01*
X12348572Y4006263D01*
X12227487Y4025055D01*
X12068592Y4033388D01*
X11866834Y4035166D01*
X11654750Y4033373D01*
X11503008Y4025189D01*
X11387314Y4006411D01*
X11283372Y3972835D01*
X11166885Y3920257D01*
X11147167Y3910638D01*
X10829541Y3710871D01*
X10570099Y3457608D01*
X10372662Y3161823D01*
X10241052Y2834488D01*
X10179088Y2486576D01*
X8805167Y2486576D01*
X8805288Y2537955D01*
X8740516Y2867251D01*
X8609361Y3181485D01*
X8410991Y3470112D01*
X8144573Y3722584D01*
X8077853Y3771456D01*
X7823573Y3920680D01*
X7561639Y4011328D01*
X7267788Y4049744D01*
X7018458Y4048416D01*
X6810728Y4033160D01*
X6651494Y4004994D01*
X6504695Y3955325D01*
X6372029Y3894357D01*
X6061439Y3698053D01*
X5810063Y3450896D01*
X5619760Y3163997D01*
X5492391Y2848468D01*
X5429815Y2515423D01*
X4033442Y2515423D01*
X4032789Y2573396D01*
X4022794Y2725885D01*
X4000888Y2845159D01*
X3962777Y2956910D01*
X3919428Y3054553D01*
X3719822Y3393175D01*
X3468947Y3664734D01*
X3164854Y3870984D01*
X2879391Y3990984D01*
X2587040Y4050138D01*
X2263918Y4054353D01*
X1941681Y4005885D01*
X1651986Y3906992D01*
X1643334Y3902889D01*
X1325749Y3706558D01*
X1065343Y3455072D01*
X866916Y3159324D01*
X735270Y2830210D01*
X675207Y2478623D01*
X204000Y2478623D01*
X204000Y7125500D01*
X690834Y7125500D01*
X693171Y6922136D01*
X703779Y6775102D01*
X728054Y6656109D01*
X771392Y6536871D01*
X826009Y6416808D01*
X1023205Y6091819D01*
X1274289Y5825097D01*
X1569378Y5621674D01*
X1898586Y5486579D01*
X2252029Y5424844D01*
X2619822Y5441498D01*
X2710166Y5457935D01*
X3055618Y5572316D01*
X3370745Y5760007D01*
X3643907Y6011740D01*
X3863467Y6318246D01*
X3916833Y6418863D01*
X3970013Y6534656D01*
X4004421Y6637754D01*
X4024072Y6752130D01*
X4032981Y6901758D01*
X4034213Y7019811D01*
X5421618Y7019811D01*
X5444177Y6845577D01*
X5550649Y6481928D01*
X5720737Y6163514D01*
X5945020Y5895331D01*
X6214073Y5682379D01*
X6518476Y5529657D01*
X6848806Y5442162D01*
X7195641Y5424894D01*
X7549559Y5482852D01*
X7823770Y5583172D01*
X8140316Y5771707D01*
X8398200Y6011728D01*
X8595683Y6292333D01*
X8731027Y6602619D01*
X8802492Y6931684D01*
X8804376Y7040248D01*
X10169595Y7040248D01*
X10224808Y6705066D01*
X10349062Y6385257D01*
X10534704Y6092153D01*
X10774078Y5837083D01*
X11059528Y5631379D01*
X11383399Y5486370D01*
X11491099Y5455338D01*
X11671753Y5431009D01*
X11898372Y5429953D01*
X12136173Y5449982D01*
X12350372Y5488905D01*
X12438334Y5514973D01*
X12763282Y5673071D01*
X13042044Y5893686D01*
X13268319Y6165039D01*
X13435803Y6475352D01*
X13538194Y6812845D01*
X13565654Y7125500D01*
X14957167Y7125500D01*
X14959294Y6909980D01*
X14968276Y6754762D01*
X14988009Y6635532D01*
X15022391Y6527976D01*
X15070623Y6417768D01*
X15259655Y6109981D01*
X15511962Y5844663D01*
X15812034Y5634528D01*
X16144364Y5492288D01*
X16227167Y5469674D01*
X16524353Y5420897D01*
X16805379Y5430392D01*
X17033189Y5476292D01*
X17392026Y5609067D01*
X17699096Y5808601D01*
X17955235Y6075593D01*
X18161281Y6410743D01*
X18169177Y6427000D01*
X18231193Y6563400D01*
X18270141Y6677964D01*
X18291285Y6798519D01*
X18299887Y6952897D01*
X18301255Y7123304D01*
X19698500Y7123304D01*
X19700310Y6923799D01*
X19709803Y6780366D01*
X19733076Y6664426D01*
X19776226Y6547398D01*
X19845348Y6400704D01*
X19858196Y6374653D01*
X20060907Y6053172D01*
X20316481Y5792429D01*
X20615459Y5597089D01*
X20948383Y5471814D01*
X21305793Y5421266D01*
X21678232Y5450109D01*
X21717833Y5457935D01*
X22062780Y5572138D01*
X22377388Y5759199D01*
X22649276Y6009236D01*
X22866063Y6312365D01*
X22921726Y6418863D01*
X23011541Y6682377D01*
X23056513Y6983117D01*
X24432566Y6983117D01*
X24451843Y6845577D01*
X24557239Y6486712D01*
X24726123Y6170996D01*
X24948824Y5903618D01*
X25215673Y5689765D01*
X25516999Y5534626D01*
X25843133Y5443389D01*
X26184403Y5421241D01*
X26531140Y5473371D01*
X26816519Y5576935D01*
X27152082Y5776374D01*
X27422424Y6027738D01*
X27624274Y6325940D01*
X27754365Y6665889D01*
X27807835Y7031594D01*
X29179727Y7031594D01*
X29236966Y6688227D01*
X29364071Y6363497D01*
X29553691Y6068765D01*
X29798473Y5815392D01*
X30091067Y5614740D01*
X30424121Y5478169D01*
X30433445Y5475522D01*
X30678312Y5434497D01*
X30959773Y5430350D01*
X31238957Y5461567D01*
X31446000Y5514973D01*
X31777446Y5673741D01*
X32054429Y5888692D01*
X32274583Y6149267D01*
X32435543Y6444910D01*
X32534943Y6765062D01*
X32570419Y7099165D01*
X32568015Y7125500D01*
X33964834Y7125500D01*
X33966961Y6909980D01*
X33975943Y6754762D01*
X33995675Y6635532D01*
X34030057Y6527976D01*
X34078289Y6417768D01*
X34267322Y6109981D01*
X34519628Y5844663D01*
X34819701Y5634528D01*
X35152031Y5492288D01*
X35234834Y5469674D01*
X35532020Y5420897D01*
X35813045Y5430392D01*
X36040856Y5476292D01*
X36390470Y5606673D01*
X36690171Y5797832D01*
X36936323Y6039650D01*
X37125293Y6322007D01*
X37253445Y6634782D01*
X37317144Y6967855D01*
X37312755Y7311105D01*
X37236644Y7654413D01*
X37085176Y7987656D01*
X36993528Y8128756D01*
X36758824Y8388508D01*
X36473082Y8593913D01*
X36152344Y8738159D01*
X35812652Y8814434D01*
X35470048Y8815927D01*
X35398621Y8806000D01*
X35027741Y8703945D01*
X34693492Y8530520D01*
X34405789Y8293002D01*
X34174549Y7998669D01*
X34089362Y7845166D01*
X34033625Y7724773D01*
X33997510Y7620507D01*
X33976814Y7508074D01*
X33967332Y7363178D01*
X33964860Y7161524D01*
X33964834Y7125500D01*
X32568015Y7125500D01*
X32539604Y7436662D01*
X32440133Y7766995D01*
X32269641Y8079606D01*
X32073749Y8316779D01*
X31791330Y8550399D01*
X31483664Y8710127D01*
X31160543Y8799144D01*
X30831757Y8820634D01*
X30507095Y8777782D01*
X30196350Y8673770D01*
X29909310Y8511782D01*
X29655767Y8295002D01*
X29445511Y8026613D01*
X29288332Y7709798D01*
X29199703Y7382236D01*
X29179727Y7031594D01*
X27807835Y7031594D01*
X27809430Y7042499D01*
X27811155Y7125500D01*
X27772180Y7506010D01*
X27659026Y7851752D01*
X27477344Y8156155D01*
X27232788Y8412650D01*
X26931012Y8614666D01*
X26577667Y8755632D01*
X26366867Y8804152D01*
X26021608Y8824770D01*
X25689213Y8769480D01*
X25378132Y8646926D01*
X25096819Y8465752D01*
X24853724Y8234602D01*
X24657300Y7962120D01*
X24515998Y7656949D01*
X24438269Y7327733D01*
X24432566Y6983117D01*
X23056513Y6983117D01*
X23057045Y6986673D01*
X23056600Y7299405D01*
X23008563Y7588227D01*
X22984923Y7664533D01*
X22826647Y8002725D01*
X22616020Y8283243D01*
X22362982Y8505553D01*
X22077472Y8669119D01*
X21769432Y8773407D01*
X21448802Y8817881D01*
X21125522Y8802005D01*
X20809532Y8725246D01*
X20510773Y8587067D01*
X20239184Y8386934D01*
X20004707Y8124311D01*
X19833676Y7834192D01*
X19770491Y7693575D01*
X19730728Y7576725D01*
X19709042Y7455535D01*
X19700090Y7301897D01*
X19698500Y7123304D01*
X18301255Y7123304D01*
X18301273Y7125500D01*
X18298294Y7333994D01*
X18286611Y7484588D01*
X18261711Y7603946D01*
X18219083Y7718729D01*
X18190221Y7781666D01*
X18029668Y8072052D01*
X17848319Y8300825D01*
X17627020Y8491023D01*
X17564318Y8534504D01*
X17234120Y8706847D01*
X16885282Y8801390D01*
X16529668Y8819306D01*
X16179142Y8761771D01*
X15845567Y8629956D01*
X15540808Y8425035D01*
X15430173Y8323405D01*
X15294309Y8168082D01*
X15164901Y7988315D01*
X15081696Y7845166D01*
X15025958Y7724773D01*
X14989844Y7620507D01*
X14969147Y7508074D01*
X14959665Y7363178D01*
X14957193Y7161524D01*
X14957167Y7125500D01*
X13565654Y7125500D01*
X13569189Y7165739D01*
X13522487Y7522254D01*
X13519240Y7535150D01*
X13411233Y7841597D01*
X13248092Y8110537D01*
X13043539Y8339845D01*
X12754799Y8568933D01*
X12442759Y8723267D01*
X12117054Y8806092D01*
X11787320Y8820652D01*
X11463193Y8770191D01*
X11154309Y8657954D01*
X10870302Y8487184D01*
X10620810Y8261125D01*
X10415468Y7983023D01*
X10263912Y7656121D01*
X10191079Y7379475D01*
X10169595Y7040248D01*
X8804376Y7040248D01*
X8808340Y7268627D01*
X8746830Y7602544D01*
X8616225Y7922533D01*
X8414784Y8217691D01*
X8268322Y8369978D01*
X7986553Y8578220D01*
X7666843Y8726371D01*
X7328252Y8808712D01*
X6989841Y8819527D01*
X6838800Y8798775D01*
X6481449Y8689613D01*
X6164318Y8516143D01*
X5894255Y8287955D01*
X5678106Y8014638D01*
X5522719Y7705782D01*
X5434941Y7370977D01*
X5421618Y7019811D01*
X4034213Y7019811D01*
X4035162Y7110610D01*
X4035167Y7125500D01*
X4033261Y7338653D01*
X4024867Y7491149D01*
X4005972Y7606960D01*
X3972559Y7710059D01*
X3920615Y7824418D01*
X3916833Y7832137D01*
X3709792Y8162607D01*
X3445689Y8432568D01*
X3131037Y8637116D01*
X2772351Y8771350D01*
X2627584Y8802600D01*
X2272756Y8823643D01*
X1925771Y8766305D01*
X1598173Y8636792D01*
X1301504Y8441309D01*
X1047310Y8186060D01*
X847134Y7877252D01*
X826009Y7834192D01*
X762648Y7693116D01*
X722849Y7575877D01*
X701216Y7454187D01*
X692355Y7299758D01*
X690834Y7125500D01*
X204000Y7125500D01*
X204000Y11866833D01*
X690940Y11866833D01*
X693400Y11662807D01*
X704176Y11515297D01*
X728542Y11396208D01*
X771773Y11277444D01*
X822570Y11165719D01*
X1021330Y10837256D01*
X1272678Y10571428D01*
X1568597Y10371746D01*
X1901072Y10241722D01*
X2262088Y10184864D01*
X2643628Y10204686D01*
X2893266Y10258779D01*
X3192040Y10384555D01*
X3466849Y10581032D01*
X3704181Y10834893D01*
X3890525Y11132819D01*
X3969583Y11319610D01*
X4019793Y11479981D01*
X4046525Y11625366D01*
X4053300Y11774643D01*
X5421826Y11774643D01*
X5477793Y11435526D01*
X5601749Y11119083D01*
X5785432Y10834084D01*
X6020582Y10589297D01*
X6298937Y10393490D01*
X6612236Y10255432D01*
X6952218Y10183892D01*
X7273667Y10183575D01*
X7443563Y10208528D01*
X7609759Y10245747D01*
X7674446Y10265454D01*
X8014130Y10427582D01*
X8303688Y10653447D01*
X8535880Y10933781D01*
X8703467Y11259320D01*
X8799210Y11620799D01*
X8811563Y11720799D01*
X8809932Y11834328D01*
X10171944Y11834328D01*
X10216019Y11486674D01*
X10335412Y11150016D01*
X10530545Y10834813D01*
X10642344Y10703649D01*
X10915073Y10471571D01*
X11230936Y10303932D01*
X11574559Y10204532D01*
X11930565Y10177169D01*
X12283577Y10225644D01*
X12415780Y10265454D01*
X12745435Y10422577D01*
X13029395Y10640545D01*
X13260879Y10908041D01*
X13433108Y11213750D01*
X13539302Y11546356D01*
X13570109Y11867723D01*
X14957167Y11867723D01*
X14959088Y11654141D01*
X14967490Y11501339D01*
X14986333Y11385467D01*
X15019576Y11282676D01*
X15071176Y11169117D01*
X15074134Y11163084D01*
X15277497Y10838126D01*
X15533576Y10573100D01*
X15832392Y10372248D01*
X16163960Y10239812D01*
X16518298Y10180033D01*
X16885425Y10197152D01*
X17179667Y10268413D01*
X17502330Y10419444D01*
X17788692Y10642325D01*
X18030113Y10928887D01*
X18202304Y11235537D01*
X18249440Y11357298D01*
X18278632Y11486224D01*
X18293837Y11648145D01*
X18298998Y11866833D01*
X18298480Y11967717D01*
X19685219Y11967717D01*
X19686053Y11780245D01*
X19743818Y11411768D01*
X19871717Y11080179D01*
X20061082Y10791404D01*
X20303247Y10551363D01*
X20589545Y10365981D01*
X20911308Y10241180D01*
X21259870Y10182883D01*
X21626563Y10197013D01*
X21911209Y10259585D01*
X22223716Y10396686D01*
X22504622Y10607013D01*
X22744789Y10882159D01*
X22925268Y11192457D01*
X22979696Y11317578D01*
X23014286Y11429158D01*
X23033413Y11553076D01*
X23041450Y11715207D01*
X23042834Y11888000D01*
X23042831Y11888439D01*
X24423238Y11888439D01*
X24453195Y11557962D01*
X24552725Y11233298D01*
X24725271Y10924143D01*
X24874258Y10740359D01*
X25164940Y10483857D01*
X25487824Y10302900D01*
X25834635Y10199511D01*
X26197094Y10175715D01*
X26566926Y10233535D01*
X26731964Y10286133D01*
X27051363Y10447933D01*
X27327889Y10674972D01*
X27551962Y10954639D01*
X27714004Y11274329D01*
X27804434Y11621433D01*
X27814748Y11711235D01*
X27812607Y11815087D01*
X29176169Y11815087D01*
X29227287Y11474758D01*
X29347650Y11148246D01*
X29530143Y10849565D01*
X29767658Y10592724D01*
X30053080Y10391736D01*
X30112047Y10361064D01*
X30469715Y10228433D01*
X30835093Y10175929D01*
X31197541Y10204327D01*
X31423446Y10265454D01*
X31763318Y10427817D01*
X32053463Y10655154D01*
X32287222Y10939546D01*
X32457936Y11273071D01*
X32552003Y11607781D01*
X32570303Y11867723D01*
X33964834Y11867723D01*
X33966755Y11654141D01*
X33975157Y11501339D01*
X33994000Y11385467D01*
X34027242Y11282676D01*
X34078842Y11169117D01*
X34081801Y11163084D01*
X34284985Y10838464D01*
X34543978Y10570422D01*
X34849378Y10366501D01*
X35191786Y10234239D01*
X35260345Y10217813D01*
X35420271Y10183360D01*
X35528253Y10164476D01*
X35615375Y10160155D01*
X35712719Y10169386D01*
X35851369Y10191162D01*
X35889655Y10197398D01*
X36247560Y10294088D01*
X36560057Y10454480D01*
X36823736Y10668759D01*
X37035185Y10927109D01*
X37190992Y11219716D01*
X37287746Y11536765D01*
X37322035Y11868439D01*
X37290448Y12204924D01*
X37189573Y12536405D01*
X37015999Y12853066D01*
X36875041Y13032427D01*
X36619148Y13258972D01*
X36313813Y13428816D01*
X35977163Y13536276D01*
X35627326Y13575665D01*
X35282430Y13541301D01*
X35264831Y13537358D01*
X34920990Y13416009D01*
X34607630Y13223129D01*
X34339431Y12970366D01*
X34131071Y12669366D01*
X34103438Y12615825D01*
X34041944Y12485694D01*
X34001946Y12378472D01*
X33978847Y12269339D01*
X33968047Y12133477D01*
X33964949Y11946068D01*
X33964834Y11867723D01*
X32570303Y11867723D01*
X32576777Y11959672D01*
X32525417Y12297496D01*
X32406265Y12612897D01*
X32227662Y12897514D01*
X31997948Y13142991D01*
X31725463Y13340968D01*
X31418549Y13483086D01*
X31085547Y13560988D01*
X30734797Y13566315D01*
X30613667Y13550226D01*
X30244662Y13446587D01*
X29918725Y13273079D01*
X29642500Y13036266D01*
X29422631Y12742709D01*
X29265760Y12398971D01*
X29201405Y12155223D01*
X29176169Y11815087D01*
X27812607Y11815087D01*
X27807230Y12075758D01*
X27726537Y12418577D01*
X27581097Y12731714D01*
X27379334Y13007194D01*
X27129676Y13237037D01*
X26840548Y13413267D01*
X26520376Y13527907D01*
X26177586Y13572979D01*
X25872334Y13550226D01*
X25511697Y13450498D01*
X25196529Y13288723D01*
X24930273Y13074595D01*
X24716372Y12817808D01*
X24558270Y12528056D01*
X24459411Y12215035D01*
X24423238Y11888439D01*
X23042831Y11888439D01*
X23040959Y12094181D01*
X23032039Y12241929D01*
X23011128Y12357452D01*
X22973281Y12466958D01*
X22913555Y12596656D01*
X22906338Y12611439D01*
X22708871Y12920226D01*
X22443733Y13184039D01*
X22119550Y13394608D01*
X22057454Y13425336D01*
X21911891Y13490359D01*
X21790665Y13530407D01*
X21663594Y13551405D01*
X21500494Y13559278D01*
X21370667Y13560166D01*
X21170235Y13557317D01*
X21024439Y13544910D01*
X20903328Y13517153D01*
X20776957Y13468258D01*
X20691328Y13428822D01*
X20350594Y13225696D01*
X20076675Y12973200D01*
X19872512Y12676155D01*
X19741046Y12339387D01*
X19685219Y11967717D01*
X18298480Y11967717D01*
X18297956Y12069398D01*
X18288515Y12215364D01*
X18265460Y12332737D01*
X18223578Y12449525D01*
X18167535Y12572937D01*
X17966096Y12908919D01*
X17711478Y13179080D01*
X17404104Y13383067D01*
X17044394Y13520525D01*
X17037842Y13522281D01*
X16682507Y13575029D01*
X16329808Y13549102D01*
X15991524Y13449998D01*
X15679432Y13283214D01*
X15405310Y13054247D01*
X15180935Y12768595D01*
X15095771Y12615825D01*
X15034277Y12485694D01*
X14994279Y12378472D01*
X14971180Y12269339D01*
X14960381Y12133477D01*
X14957283Y11946068D01*
X14957167Y11867723D01*
X13570109Y11867723D01*
X13572680Y11894542D01*
X13546929Y12153361D01*
X13442239Y12510917D01*
X13275810Y12822614D01*
X13057460Y13085052D01*
X12797006Y13294829D01*
X12504265Y13448543D01*
X12189055Y13542793D01*
X11861193Y13574179D01*
X11530496Y13539297D01*
X11206782Y13434748D01*
X10899869Y13257129D01*
X10740359Y13125742D01*
X10487395Y12838686D01*
X10308055Y12520793D01*
X10202764Y12182520D01*
X10171944Y11834328D01*
X8809932Y11834328D01*
X8806396Y12080398D01*
X8727007Y12418527D01*
X8582213Y12727583D01*
X8380835Y12999963D01*
X8131690Y13228063D01*
X7843596Y13404280D01*
X7525374Y13521008D01*
X7185840Y13570646D01*
X6833815Y13545588D01*
X6723260Y13521396D01*
X6357515Y13387728D01*
X6044591Y13189465D01*
X5789071Y12931591D01*
X5595537Y12619092D01*
X5468572Y12256954D01*
X5442108Y12127666D01*
X5421826Y11774643D01*
X4053300Y11774643D01*
X4054028Y11790666D01*
X4048660Y11968778D01*
X4033586Y12177086D01*
X4006247Y12335950D01*
X3958362Y12480499D01*
X3895748Y12617481D01*
X3705188Y12915677D01*
X3457207Y13166593D01*
X3165295Y13363598D01*
X2842941Y13500064D01*
X2503635Y13569364D01*
X2160867Y13564867D01*
X2019449Y13539455D01*
X1651778Y13413152D01*
X1332733Y13218024D01*
X1065709Y12956817D01*
X854103Y12632281D01*
X824798Y12572937D01*
X761969Y12432884D01*
X722521Y12316035D01*
X701108Y12194183D01*
X692380Y12039119D01*
X690940Y11866833D01*
X204000Y11866833D01*
X204000Y16646732D01*
X674801Y16646732D01*
X703913Y16305611D01*
X802887Y15974517D01*
X973462Y15664936D01*
X1120396Y15484053D01*
X1379845Y15244848D01*
X1647849Y15080530D01*
X1941926Y14983916D01*
X2279592Y14947824D01*
X2426500Y14948591D01*
X2633331Y14959496D01*
X2790205Y14982296D01*
X2931723Y15024528D01*
X3092182Y15093586D01*
X3409450Y15287938D01*
X3675126Y15547087D01*
X3881844Y15863632D01*
X3904503Y15909666D01*
X3964335Y16042657D01*
X4002526Y16154918D01*
X4023867Y16272843D01*
X4033150Y16422820D01*
X4034807Y16592552D01*
X5421431Y16592552D01*
X5467676Y16243067D01*
X5584311Y15911108D01*
X5764313Y15608529D01*
X6000655Y15347184D01*
X6286312Y15138926D01*
X6608442Y14997415D01*
X6841187Y14951761D01*
X7115513Y14939251D01*
X7395437Y14959089D01*
X7644973Y15010480D01*
X7678197Y15021077D01*
X7994208Y15170238D01*
X8279964Y15388132D01*
X8512790Y15655813D01*
X8689224Y15977187D01*
X8789077Y16316359D01*
X8812563Y16625390D01*
X10163082Y16625390D01*
X10175323Y16464136D01*
X10187282Y16385227D01*
X10289784Y16009714D01*
X10462781Y15676650D01*
X10700579Y15392987D01*
X10997487Y15165672D01*
X11309255Y15015486D01*
X11447039Y14973461D01*
X11594587Y14950878D01*
X11780031Y14944672D01*
X11930334Y14947837D01*
X12137567Y14958468D01*
X12291513Y14978450D01*
X12423512Y15014590D01*
X12564905Y15073696D01*
X12611440Y15095766D01*
X12910885Y15283698D01*
X13163127Y15529491D01*
X13361110Y15819674D01*
X13497780Y16140771D01*
X13566083Y16479309D01*
X13562849Y16634911D01*
X14957167Y16634911D01*
X14957167Y16629333D01*
X14959561Y16418110D01*
X14969616Y16265727D01*
X14991645Y16146427D01*
X15029958Y16034449D01*
X15072906Y15937780D01*
X15239450Y15638449D01*
X15435549Y15402208D01*
X15678709Y15212453D01*
X15986432Y15052583D01*
X16022484Y15037157D01*
X16154182Y14986759D01*
X16273402Y14957083D01*
X16408801Y14944140D01*
X16589037Y14943944D01*
X16675005Y14946375D01*
X16880381Y14956386D01*
X17031678Y14975101D01*
X17159464Y15009236D01*
X17294302Y15065509D01*
X17359056Y15096705D01*
X17675839Y15295546D01*
X17930808Y15543231D01*
X18122618Y15829340D01*
X18249922Y16143455D01*
X18311376Y16475158D01*
X18309122Y16608166D01*
X19700236Y16608166D01*
X19702775Y16399878D01*
X19714151Y16249043D01*
X19738939Y16128556D01*
X19781714Y16011312D01*
X19812518Y15942768D01*
X19950428Y15709322D01*
X20137126Y15478365D01*
X20347198Y15278264D01*
X20513486Y15160352D01*
X20730855Y15048956D01*
X20940441Y14981339D01*
X21172741Y14950489D01*
X21434167Y14948591D01*
X21642389Y14959681D01*
X21800254Y14982804D01*
X21941937Y15025281D01*
X22090455Y15089190D01*
X22402737Y15280681D01*
X22670312Y15536449D01*
X22878123Y15841467D01*
X22912370Y15909545D01*
X22972128Y16042671D01*
X23010266Y16155115D01*
X23031572Y16273288D01*
X23040832Y16423602D01*
X23042834Y16629333D01*
X24439834Y16629333D01*
X24442633Y16429362D01*
X24454958Y16283854D01*
X24482702Y16162685D01*
X24531756Y16035730D01*
X24573798Y15944396D01*
X24774419Y15608690D01*
X25027251Y15332248D01*
X25324752Y15121926D01*
X25616109Y14997415D01*
X25848854Y14951761D01*
X26123180Y14939251D01*
X26403103Y14959089D01*
X26652640Y15010480D01*
X26685864Y15021077D01*
X26996909Y15167872D01*
X27276871Y15380553D01*
X27510927Y15643800D01*
X27684250Y15942295D01*
X27749577Y16120234D01*
X27817246Y16490340D01*
X27816539Y16516617D01*
X29184762Y16516617D01*
X29235904Y16195908D01*
X29347105Y15888617D01*
X29517887Y15604678D01*
X29747774Y15354026D01*
X30036290Y15146595D01*
X30316921Y15015486D01*
X30549361Y14960039D01*
X30826166Y14940963D01*
X31115917Y14956875D01*
X31387196Y15006395D01*
X31573000Y15070732D01*
X31875365Y15251868D01*
X32133175Y15491464D01*
X32339145Y15776078D01*
X32485992Y16092270D01*
X32566431Y16426600D01*
X32570045Y16608166D01*
X33964983Y16608166D01*
X33966754Y16397049D01*
X33974630Y16247187D01*
X33992691Y16135193D01*
X34025024Y16037678D01*
X34075709Y15931257D01*
X34086931Y15909666D01*
X34261065Y15618980D01*
X34452102Y15393883D01*
X34680578Y15215378D01*
X34967032Y15064465D01*
X35030151Y15037157D01*
X35162240Y14986608D01*
X35281533Y14956988D01*
X35416921Y14944283D01*
X35597295Y14944477D01*
X35679334Y14946949D01*
X35899016Y14959328D01*
X36064470Y14982797D01*
X36205971Y15023251D01*
X36323565Y15072402D01*
X36556202Y15208687D01*
X36785227Y15393104D01*
X36982195Y15600350D01*
X37092008Y15755947D01*
X37240618Y16089056D01*
X37314378Y16442807D01*
X37314073Y16802511D01*
X37240488Y17153481D01*
X37094409Y17481028D01*
X36991545Y17635255D01*
X36735943Y17906883D01*
X36430872Y18117388D01*
X36129244Y18244647D01*
X35764795Y18314738D01*
X35404144Y18305387D01*
X35058429Y18221497D01*
X34738787Y18067973D01*
X34456355Y17849721D01*
X34222272Y17571645D01*
X34095498Y17349000D01*
X34037098Y17219736D01*
X33999255Y17110722D01*
X33977564Y16996946D01*
X33967618Y16853399D01*
X33965012Y16655069D01*
X33964983Y16608166D01*
X32570045Y16608166D01*
X32573180Y16765625D01*
X32556343Y16885298D01*
X32448200Y17266101D01*
X32275298Y17592446D01*
X32037162Y17864973D01*
X31733317Y18084324D01*
X31625347Y18141804D01*
X31471813Y18215302D01*
X31352187Y18261922D01*
X31237892Y18287760D01*
X31100347Y18298914D01*
X30910972Y18301479D01*
X30876696Y18301500D01*
X30672941Y18299203D01*
X30525700Y18288749D01*
X30406864Y18264793D01*
X30288327Y18221990D01*
X30165808Y18166324D01*
X29846597Y17973729D01*
X29590302Y17734945D01*
X29396447Y17459908D01*
X29264557Y17158551D01*
X29194154Y16840809D01*
X29184762Y16516617D01*
X27816539Y16516617D01*
X27807575Y16849776D01*
X27726808Y17189604D01*
X27581183Y17500885D01*
X27376944Y17774680D01*
X27120330Y18002051D01*
X26817584Y18174060D01*
X26474946Y18281768D01*
X26217834Y18313959D01*
X25832173Y18295072D01*
X25478706Y18199046D01*
X25162395Y18028910D01*
X24888199Y17787693D01*
X24661080Y17478423D01*
X24571178Y17308672D01*
X24507683Y17165955D01*
X24468618Y17045527D01*
X24448193Y16917439D01*
X24440620Y16751743D01*
X24439834Y16629333D01*
X23042834Y16629333D01*
X23040402Y16840939D01*
X23030272Y16993600D01*
X23008189Y17112970D01*
X22969896Y17224700D01*
X22928708Y17317362D01*
X22754091Y17603706D01*
X22518275Y17865631D01*
X22244726Y18079338D01*
X22093452Y18164439D01*
X21956432Y18227662D01*
X21842497Y18267423D01*
X21723857Y18289069D01*
X21572719Y18297948D01*
X21391834Y18299448D01*
X21076107Y18285399D01*
X20818439Y18237664D01*
X20595862Y18147117D01*
X20385408Y18004632D01*
X20181462Y17818538D01*
X19982847Y17598909D01*
X19844548Y17388346D01*
X19757437Y17163892D01*
X19712386Y16902585D01*
X19700236Y16608166D01*
X18309122Y16608166D01*
X18305633Y16814030D01*
X18231348Y17149651D01*
X18087176Y17471603D01*
X17871770Y17769468D01*
X17723472Y17918330D01*
X17500718Y18089767D01*
X17266965Y18205648D01*
X17001296Y18273134D01*
X16682789Y18299382D01*
X16607235Y18300325D01*
X16405319Y18298745D01*
X16260596Y18289168D01*
X16145638Y18266333D01*
X16033016Y18224980D01*
X15908287Y18166253D01*
X15589131Y17964888D01*
X15319701Y17704184D01*
X15113709Y17397824D01*
X15089237Y17349000D01*
X15028870Y17216495D01*
X14990304Y17105126D01*
X14968716Y16988600D01*
X14959278Y16840626D01*
X14957167Y16634911D01*
X13562849Y16634911D01*
X13558964Y16821814D01*
X13548598Y16885716D01*
X13440437Y17266406D01*
X13267442Y17592720D01*
X13029173Y17865249D01*
X12725190Y18084585D01*
X12617681Y18141804D01*
X12464146Y18215302D01*
X12344521Y18261922D01*
X12230225Y18287760D01*
X12092680Y18298914D01*
X11903306Y18301479D01*
X11869029Y18301500D01*
X11660999Y18298761D01*
X11510436Y18287436D01*
X11390233Y18262859D01*
X11273281Y18220365D01*
X11196447Y18185761D01*
X10854678Y17985531D01*
X10582109Y17736827D01*
X10377433Y17438047D01*
X10239340Y17087588D01*
X10212610Y16980797D01*
X10174924Y16783795D01*
X10163082Y16625390D01*
X8812563Y16625390D01*
X8815367Y16662271D01*
X8771111Y17003869D01*
X8659327Y17330095D01*
X8483033Y17629893D01*
X8245247Y17892207D01*
X7948985Y18105982D01*
X7826614Y18169870D01*
X7688403Y18231707D01*
X7572067Y18270511D01*
X7449527Y18291554D01*
X7292705Y18300108D01*
X7125500Y18301500D01*
X6921945Y18299142D01*
X6774790Y18288500D01*
X6655817Y18264220D01*
X6536810Y18220948D01*
X6419397Y18167535D01*
X6085120Y17966075D01*
X5814560Y17710160D01*
X5610657Y17403495D01*
X5476346Y17049787D01*
X5452601Y16947711D01*
X5421431Y16592552D01*
X4034807Y16592552D01*
X4035167Y16629333D01*
X4032736Y16840939D01*
X4022606Y16993600D01*
X4000522Y17112970D01*
X3962229Y17224700D01*
X3921041Y17317362D01*
X3750700Y17597307D01*
X3520380Y17856080D01*
X3254228Y18069036D01*
X3094299Y18161186D01*
X2774654Y18273917D01*
X2427649Y18318585D01*
X2075131Y18296030D01*
X1738948Y18207087D01*
X1516334Y18100680D01*
X1222209Y17881736D01*
X989255Y17615382D01*
X819210Y17313105D01*
X713813Y16986393D01*
X674801Y16646732D01*
X204000Y16646732D01*
X204000Y21518345D01*
X679198Y21518345D01*
X687000Y21157565D01*
X747686Y20878423D01*
X891127Y20548789D01*
X1102123Y20254234D01*
X1367663Y20008145D01*
X1674735Y19823906D01*
X1833834Y19761116D01*
X2122702Y19700699D01*
X2444978Y19691321D01*
X2767403Y19731825D01*
X3010047Y19802014D01*
X3271256Y19940513D01*
X3521527Y20142945D01*
X3739666Y20389202D01*
X3896834Y20643392D01*
X3959655Y20776853D01*
X3999918Y20886884D01*
X4022602Y20999629D01*
X4032686Y21141229D01*
X4035147Y21337826D01*
X4035167Y21369776D01*
X4033877Y21484399D01*
X5425019Y21484399D01*
X5439394Y21129176D01*
X5453267Y21052289D01*
X5568996Y20683029D01*
X5752563Y20364117D01*
X6002741Y20096925D01*
X6318303Y19882823D01*
X6616947Y19750711D01*
X6880811Y19692060D01*
X7180970Y19683780D01*
X7487377Y19723638D01*
X7769984Y19809401D01*
X7841495Y19841700D01*
X8160828Y20040886D01*
X8416795Y20286106D01*
X8609435Y20567284D01*
X8738788Y20874347D01*
X8804895Y21197221D01*
X8807561Y21499335D01*
X10175731Y21499335D01*
X10189467Y21143996D01*
X10193167Y21121121D01*
X10292402Y20763321D01*
X10458646Y20438697D01*
X10682900Y20159977D01*
X10956167Y19939888D01*
X11076695Y19871366D01*
X11289472Y19775474D01*
X11486338Y19718202D01*
X11700305Y19692864D01*
X11959478Y19692609D01*
X12153199Y19704167D01*
X12303748Y19730154D01*
X12450174Y19780477D01*
X12623463Y19861053D01*
X12945847Y20063699D01*
X13203480Y20320860D01*
X13396167Y20632275D01*
X13523715Y20997683D01*
X13548598Y21114284D01*
X13564952Y21370666D01*
X14957167Y21370666D01*
X14959614Y21158897D01*
X14969776Y21006115D01*
X14991884Y20886714D01*
X15030171Y20775086D01*
X15070623Y20684102D01*
X15194053Y20473148D01*
X15361304Y20257547D01*
X15548005Y20065391D01*
X15728899Y19925318D01*
X16040676Y19779811D01*
X16386630Y19700132D01*
X16744785Y19688741D01*
X17093165Y19748100D01*
X17151550Y19765966D01*
X17485570Y19916280D01*
X17767328Y20124254D01*
X17994031Y20379206D01*
X18162883Y20670457D01*
X18271090Y20987324D01*
X18302236Y21218181D01*
X19688157Y21218181D01*
X19754616Y20886858D01*
X19888531Y20569212D01*
X20090883Y20275646D01*
X20362654Y20016563D01*
X20376845Y20005643D01*
X20671495Y19832388D01*
X21004629Y19725168D01*
X21359212Y19686098D01*
X21718209Y19717292D01*
X22017714Y19802014D01*
X22278922Y19940513D01*
X22529193Y20142945D01*
X22747332Y20389202D01*
X22904501Y20643392D01*
X22967322Y20776853D01*
X23007585Y20886884D01*
X23030269Y20999629D01*
X23040352Y21141229D01*
X23042814Y21337826D01*
X23042834Y21369776D01*
X23041668Y21491628D01*
X24427554Y21491628D01*
X24440750Y21139082D01*
X24476213Y20968500D01*
X24612846Y20604392D01*
X24813740Y20295213D01*
X25079299Y20040536D01*
X25409926Y19839934D01*
X25624614Y19750711D01*
X25890207Y19691720D01*
X26191832Y19683829D01*
X26499770Y19724793D01*
X26784303Y19812370D01*
X26852616Y19843401D01*
X27167268Y20041692D01*
X27424068Y20291931D01*
X27619847Y20583032D01*
X27751433Y20903911D01*
X27815657Y21243482D01*
X27810833Y21509030D01*
X29180766Y21509030D01*
X29189188Y21158856D01*
X29197300Y21107556D01*
X29300090Y20752361D01*
X29472269Y20430102D01*
X29704068Y20151498D01*
X29985713Y19927266D01*
X30307435Y19768123D01*
X30461578Y19720876D01*
X30702321Y19687574D01*
X30979236Y19691245D01*
X31256291Y19728699D01*
X31497457Y19796746D01*
X31544886Y19816767D01*
X31882465Y20010491D01*
X32152748Y20253469D01*
X32360860Y20551097D01*
X32471268Y20792141D01*
X32559262Y21137330D01*
X32566703Y21391833D01*
X33964958Y21391833D01*
X33967008Y21176516D01*
X33975905Y21021467D01*
X33995561Y20902338D01*
X34029890Y20794781D01*
X34078959Y20682638D01*
X34250926Y20399519D01*
X34481073Y20143893D01*
X34750809Y19931396D01*
X35041543Y19777661D01*
X35225581Y19718381D01*
X35494363Y19683583D01*
X35791652Y19691915D01*
X36074415Y19741223D01*
X36153408Y19764832D01*
X36494531Y19916343D01*
X36777325Y20124320D01*
X37009526Y20395762D01*
X37177511Y20691328D01*
X37240753Y20833703D01*
X37279606Y20953547D01*
X37299786Y21080730D01*
X37307010Y21245122D01*
X37307511Y21370666D01*
X37301607Y21597136D01*
X37282129Y21770148D01*
X37244396Y21920444D01*
X37208982Y22017714D01*
X37065933Y22281620D01*
X36859650Y22533848D01*
X36610953Y22752540D01*
X36364274Y22904500D01*
X36234467Y22965850D01*
X36127548Y23005735D01*
X36018736Y23028724D01*
X35883251Y23039386D01*
X35696311Y23042290D01*
X35616724Y23042322D01*
X35404577Y23040315D01*
X35252949Y23032041D01*
X35137715Y23013300D01*
X35034752Y22979887D01*
X34919936Y22927603D01*
X34899085Y22917320D01*
X34632770Y22748195D01*
X34384188Y22522259D01*
X34178829Y22264992D01*
X34086383Y22105004D01*
X34031966Y21986839D01*
X33996728Y21883038D01*
X33976559Y21769452D01*
X33967346Y21621928D01*
X33964977Y21416317D01*
X33964958Y21391833D01*
X32566703Y21391833D01*
X32569523Y21488259D01*
X32507084Y21832830D01*
X32376977Y22158944D01*
X32184234Y22454501D01*
X31933889Y22707405D01*
X31630975Y22905555D01*
X31582232Y22929377D01*
X31463826Y22980781D01*
X31356238Y23013930D01*
X31235154Y23032722D01*
X31076259Y23041054D01*
X30874500Y23042833D01*
X30662370Y23041035D01*
X30510574Y23032839D01*
X30394811Y23014045D01*
X30290776Y22980451D01*
X30174167Y22927857D01*
X30154834Y22918434D01*
X29846703Y22724015D01*
X29588579Y22473285D01*
X29387114Y22178825D01*
X29248959Y21853213D01*
X29180766Y21509030D01*
X27810833Y21509030D01*
X27809349Y21590660D01*
X27729339Y21934361D01*
X27572457Y22263499D01*
X27553362Y22293727D01*
X27343391Y22563324D01*
X27091706Y22777115D01*
X26831667Y22927860D01*
X26719000Y22979587D01*
X26616951Y23013055D01*
X26501836Y23032156D01*
X26349971Y23040784D01*
X26137672Y23042833D01*
X26132277Y23042833D01*
X25922132Y23041283D01*
X25771820Y23033566D01*
X25656524Y23015084D01*
X25551423Y22981239D01*
X25431700Y22927434D01*
X25384175Y22904229D01*
X25075237Y22708330D01*
X24819486Y22457139D01*
X24622542Y22162638D01*
X24490024Y21836807D01*
X24427554Y21491628D01*
X23041668Y21491628D01*
X23040848Y21577294D01*
X23031627Y21726734D01*
X23010275Y21844656D01*
X22971898Y21957617D01*
X22911600Y22092175D01*
X22908451Y22098830D01*
X22710221Y22421633D01*
X22449961Y22687647D01*
X22132450Y22892095D01*
X22098830Y22908450D01*
X21962588Y22969862D01*
X21849106Y23009092D01*
X21731766Y23031056D01*
X21583946Y23040665D01*
X21379026Y23042832D01*
X21370667Y23042833D01*
X21163327Y23040833D01*
X21014328Y23031617D01*
X20897377Y23010360D01*
X20786183Y22972236D01*
X20654454Y22912420D01*
X20651000Y22910763D01*
X20333340Y22715843D01*
X20077246Y22472181D01*
X19883699Y22190181D01*
X19753680Y21880245D01*
X19688172Y21552777D01*
X19688157Y21218181D01*
X18302236Y21218181D01*
X18315856Y21319126D01*
X18294386Y21655182D01*
X18203886Y21984811D01*
X18041561Y22297331D01*
X17870712Y22514381D01*
X17585917Y22767264D01*
X17356608Y22904500D01*
X17226682Y22965882D01*
X17119540Y23005804D01*
X17010374Y23028857D01*
X16874378Y23039632D01*
X16686744Y23042719D01*
X16609057Y23042833D01*
X16400186Y23041427D01*
X16251860Y23034144D01*
X16139968Y23016393D01*
X16040396Y22983579D01*
X15929034Y22931109D01*
X15874437Y22902884D01*
X15549083Y22688189D01*
X15286374Y22417287D01*
X15091550Y22098830D01*
X15030138Y21962587D01*
X14990908Y21849106D01*
X14968944Y21731766D01*
X14959335Y21583946D01*
X14957168Y21379025D01*
X14957167Y21370666D01*
X13564952Y21370666D01*
X13570231Y21453411D01*
X13515370Y21792276D01*
X13391173Y22117541D01*
X13204799Y22415869D01*
X12963404Y22673920D01*
X12674146Y22878358D01*
X12574565Y22929377D01*
X12456160Y22980781D01*
X12348572Y23013930D01*
X12227487Y23032722D01*
X12068592Y23041054D01*
X11866834Y23042833D01*
X11654703Y23041035D01*
X11502907Y23032839D01*
X11387144Y23014045D01*
X11283109Y22980451D01*
X11166501Y22927857D01*
X11147167Y22918434D01*
X10835317Y22722079D01*
X10575912Y22470057D01*
X10375290Y22174301D01*
X10239784Y21846748D01*
X10175731Y21499335D01*
X8807561Y21499335D01*
X8807795Y21525831D01*
X8747529Y21850103D01*
X8624135Y22159963D01*
X8437656Y22445337D01*
X8188129Y22696151D01*
X7875596Y22902329D01*
X7829249Y22925866D01*
X7714591Y22978431D01*
X7611829Y23012451D01*
X7497111Y23031885D01*
X7346590Y23040692D01*
X7136416Y23042830D01*
X7124610Y23042833D01*
X6914289Y23041263D01*
X6763861Y23033512D01*
X6648565Y23015023D01*
X6543642Y22981237D01*
X6424335Y22927595D01*
X6379332Y22905619D01*
X6072380Y22710193D01*
X5817252Y22457908D01*
X5620169Y22161214D01*
X5487351Y21832562D01*
X5425019Y21484399D01*
X4033877Y21484399D01*
X4032788Y21581155D01*
X4022786Y21733633D01*
X4000866Y21852909D01*
X3962733Y21964686D01*
X3919428Y22062219D01*
X3719822Y22400842D01*
X3468947Y22672400D01*
X3164854Y22878651D01*
X2879391Y22998651D01*
X2612624Y23053296D01*
X2310296Y23062687D01*
X2006447Y23028817D01*
X1735116Y22953684D01*
X1674972Y22928044D01*
X1354316Y22735071D01*
X1089470Y22486692D01*
X885374Y22193830D01*
X746970Y21867408D01*
X679198Y21518345D01*
X204000Y21518345D01*
X204000Y26130971D01*
X690834Y26130971D01*
X692643Y25931466D01*
X702136Y25788033D01*
X725410Y25672092D01*
X768559Y25555065D01*
X837682Y25408371D01*
X850529Y25382319D01*
X1053240Y25060838D01*
X1308814Y24800096D01*
X1607792Y24604756D01*
X1940716Y24479481D01*
X2298127Y24428933D01*
X2670565Y24457776D01*
X2710166Y24465602D01*
X3055618Y24579982D01*
X3370744Y24767673D01*
X3643907Y25019406D01*
X3863466Y25325911D01*
X3916834Y25426530D01*
X3970013Y25542323D01*
X4004421Y25645421D01*
X4024073Y25759798D01*
X4032981Y25909427D01*
X4034531Y26057874D01*
X5421677Y26057874D01*
X5470928Y25731970D01*
X5602617Y25375474D01*
X5796842Y25068305D01*
X6044012Y24815454D01*
X6334534Y24621912D01*
X6658813Y24492669D01*
X7007258Y24432717D01*
X7370275Y24447047D01*
X7738272Y24540649D01*
X7751381Y24545519D01*
X8048248Y24700471D01*
X8308489Y24921389D01*
X8523720Y25194420D01*
X8685558Y25505711D01*
X8785619Y25841412D01*
X8803555Y26049123D01*
X10170011Y26049123D01*
X10225361Y25710878D01*
X10349852Y25388631D01*
X10535887Y25094126D01*
X10775869Y24839110D01*
X11062201Y24635327D01*
X11387287Y24494522D01*
X11425778Y24483188D01*
X11670646Y24442164D01*
X11952106Y24438017D01*
X12231290Y24469234D01*
X12438334Y24522640D01*
X12764603Y24680426D01*
X13041361Y24897792D01*
X13264435Y25163425D01*
X13429652Y25466012D01*
X13532836Y25794238D01*
X13569423Y26133166D01*
X14957167Y26133166D01*
X14959294Y25917647D01*
X14968276Y25762429D01*
X14988009Y25643199D01*
X15022391Y25535643D01*
X15070623Y25425435D01*
X15248104Y25135177D01*
X15486565Y24874727D01*
X15762540Y24668793D01*
X15819952Y24636440D01*
X16145180Y24495159D01*
X16460466Y24428992D01*
X16787919Y24434686D01*
X16976500Y24466265D01*
X17326068Y24582522D01*
X17639944Y24771524D01*
X17908386Y25025426D01*
X18121651Y25336380D01*
X18166324Y25424475D01*
X18229599Y25565244D01*
X18269312Y25681948D01*
X18290813Y25802804D01*
X18299451Y25956029D01*
X18300659Y26130971D01*
X19698500Y26130971D01*
X19700310Y25931466D01*
X19709803Y25788033D01*
X19733076Y25672092D01*
X19776226Y25555065D01*
X19845348Y25408371D01*
X19858196Y25382319D01*
X20060907Y25060838D01*
X20316481Y24800096D01*
X20615459Y24604756D01*
X20948383Y24479481D01*
X21305793Y24428933D01*
X21678232Y24457776D01*
X21717833Y24465602D01*
X22062780Y24579805D01*
X22377388Y24766866D01*
X22649276Y25016903D01*
X22866063Y25320032D01*
X22921726Y25426530D01*
X23011541Y25690043D01*
X23057045Y25994340D01*
X23056937Y26070458D01*
X24429740Y26070458D01*
X24479854Y25717904D01*
X24606634Y25372553D01*
X24801274Y25065958D01*
X25053078Y24812143D01*
X25349715Y24617055D01*
X25678851Y24486636D01*
X26028153Y24426832D01*
X26385287Y24443587D01*
X26491211Y24464224D01*
X26840769Y24586929D01*
X27153294Y24781285D01*
X27419719Y25039029D01*
X27630977Y25351898D01*
X27743377Y25605387D01*
X27787707Y25796850D01*
X27808048Y26029994D01*
X29178285Y26029994D01*
X29238122Y25686150D01*
X29371438Y25356557D01*
X29573226Y25055361D01*
X29718653Y24900207D01*
X29906080Y24735878D01*
X30076579Y24621319D01*
X30262730Y24537613D01*
X30439743Y24481577D01*
X30676211Y24442067D01*
X30950763Y24437711D01*
X31225188Y24466950D01*
X31446000Y24522640D01*
X31758404Y24676252D01*
X32041154Y24898062D01*
X32278630Y25172769D01*
X32455207Y25485074D01*
X32473275Y25528645D01*
X32524332Y25689151D01*
X32552571Y25868762D01*
X32562463Y26097743D01*
X32562635Y26133166D01*
X32560384Y26279811D01*
X33947225Y26279811D01*
X33953076Y25977217D01*
X33997319Y25684099D01*
X34077029Y25434087D01*
X34081308Y25424597D01*
X34252500Y25140161D01*
X34485313Y24882825D01*
X34756746Y24676877D01*
X34827618Y24636440D01*
X35152846Y24495159D01*
X35468133Y24428992D01*
X35795586Y24434686D01*
X35984166Y24466265D01*
X36330722Y24580461D01*
X36635885Y24761133D01*
X36893247Y24997820D01*
X37096396Y25280058D01*
X37238923Y25597386D01*
X37314418Y25939340D01*
X37316471Y26295458D01*
X37267298Y26560630D01*
X37133889Y26906011D01*
X36940336Y27201839D01*
X36696993Y27444653D01*
X36414215Y27630994D01*
X36102355Y27757402D01*
X35771769Y27820417D01*
X35432811Y27816580D01*
X35095835Y27742431D01*
X34771195Y27594510D01*
X34575390Y27460087D01*
X34375095Y27266902D01*
X34196545Y27030181D01*
X34058202Y26778018D01*
X33982692Y26558251D01*
X33947225Y26279811D01*
X32560384Y26279811D01*
X32559619Y26329571D01*
X32545260Y26475038D01*
X32512678Y26603180D01*
X32454990Y26747608D01*
X32421853Y26820704D01*
X32236229Y27131719D01*
X31994752Y27394153D01*
X31709711Y27601262D01*
X31393394Y27746307D01*
X31058090Y27822545D01*
X30716088Y27823235D01*
X30620525Y27808921D01*
X30246290Y27699375D01*
X29916827Y27521022D01*
X29638778Y27280558D01*
X29418788Y26984680D01*
X29263499Y26640084D01*
X29196935Y26373943D01*
X29178285Y26029994D01*
X27808048Y26029994D01*
X27808535Y26035567D01*
X27805862Y26287450D01*
X27779688Y26518412D01*
X27743377Y26660946D01*
X27581079Y27000114D01*
X27360342Y27289843D01*
X27091394Y27523889D01*
X26784463Y27696007D01*
X26449774Y27799951D01*
X26097557Y27829478D01*
X25867448Y27806399D01*
X25505368Y27704263D01*
X25187202Y27537453D01*
X24917940Y27315602D01*
X24702572Y27048343D01*
X24546089Y26745311D01*
X24453482Y26416138D01*
X24429740Y26070458D01*
X23056937Y26070458D01*
X23056600Y26307072D01*
X23008563Y26595893D01*
X22984923Y26672200D01*
X22822641Y27016395D01*
X22601336Y27306765D01*
X22330350Y27537968D01*
X22019024Y27704662D01*
X21676701Y27801504D01*
X21312722Y27823151D01*
X21034579Y27787546D01*
X20670360Y27674606D01*
X20359915Y27497493D01*
X20099686Y27253380D01*
X19886115Y26939443D01*
X19830823Y26831666D01*
X19768955Y26695628D01*
X19730018Y26581302D01*
X19708786Y26461015D01*
X19700033Y26307095D01*
X19698500Y26130971D01*
X18300659Y26130971D01*
X18300675Y26133166D01*
X18289579Y26409560D01*
X18250915Y26633450D01*
X18174789Y26835132D01*
X18051309Y27044903D01*
X17961328Y27172385D01*
X17731874Y27417051D01*
X17447886Y27611961D01*
X17127881Y27749554D01*
X16790377Y27822267D01*
X16453894Y27822537D01*
X16390954Y27813667D01*
X16020249Y27711671D01*
X15686069Y27538373D01*
X15398402Y27301104D01*
X15167237Y27007193D01*
X15081566Y26852833D01*
X15025878Y26732396D01*
X14989798Y26628047D01*
X14969124Y26515482D01*
X14959655Y26370397D01*
X14957192Y26168491D01*
X14957167Y26133166D01*
X13569423Y26133166D01*
X13569815Y26136790D01*
X13536415Y26482355D01*
X13428463Y26819619D01*
X13345369Y26981357D01*
X13213403Y27161737D01*
X13032795Y27350065D01*
X12831227Y27520944D01*
X12636377Y27648977D01*
X12594899Y27669940D01*
X12249215Y27789153D01*
X11900159Y27829943D01*
X11557530Y27797520D01*
X11231126Y27697096D01*
X10930748Y27533883D01*
X10666194Y27313092D01*
X10447263Y27039937D01*
X10283755Y26719627D01*
X10191399Y26391621D01*
X10170011Y26049123D01*
X8803555Y26049123D01*
X8815520Y26187669D01*
X8809359Y26293651D01*
X8736600Y26646902D01*
X8593743Y26968312D01*
X8390675Y27250212D01*
X8137280Y27484930D01*
X7843444Y27664796D01*
X7519053Y27782139D01*
X7173992Y27829289D01*
X6859781Y27806399D01*
X6502453Y27705040D01*
X6184941Y27538057D01*
X5913734Y27315137D01*
X5695317Y27045970D01*
X5536177Y26740245D01*
X5442802Y26407650D01*
X5421677Y26057874D01*
X4034531Y26057874D01*
X4035162Y26118280D01*
X4035167Y26133166D01*
X4033368Y26345297D01*
X4025173Y26497093D01*
X4006378Y26612856D01*
X3972784Y26716891D01*
X3920190Y26833499D01*
X3910767Y26852833D01*
X3812225Y27019264D01*
X3680252Y27198215D01*
X3562290Y27331072D01*
X3276121Y27562443D01*
X2961617Y27720698D01*
X2629626Y27807770D01*
X2291001Y27825594D01*
X1956592Y27776106D01*
X1637251Y27661239D01*
X1343828Y27482928D01*
X1087174Y27243109D01*
X878140Y26943716D01*
X826693Y26843319D01*
X763214Y26702147D01*
X723259Y26585110D01*
X701460Y26464063D01*
X692449Y26310859D01*
X690834Y26130971D01*
X204000Y26130971D01*
X204000Y30876695D01*
X690834Y30876695D01*
X693144Y30672817D01*
X703620Y30525497D01*
X727579Y30406673D01*
X770338Y30288285D01*
X825216Y30167503D01*
X1021814Y29845139D01*
X1272727Y29581623D01*
X1567632Y29381121D01*
X1896206Y29247797D01*
X2248125Y29185818D01*
X2613065Y29199347D01*
X2980703Y29292552D01*
X2987505Y29295068D01*
X3297492Y29454155D01*
X3571496Y29681905D01*
X3797611Y29965809D01*
X3963931Y30293358D01*
X3980446Y30338227D01*
X4047075Y30635346D01*
X4049452Y30716907D01*
X5427136Y30716907D01*
X5499609Y30368407D01*
X5648382Y30039886D01*
X5866436Y29748193D01*
X6148937Y29494422D01*
X6459000Y29317212D01*
X6765667Y29218950D01*
X6926920Y29184625D01*
X7042076Y29168417D01*
X7147499Y29169239D01*
X7279551Y29186007D01*
X7371913Y29200847D01*
X7733905Y29298536D01*
X8049449Y29459278D01*
X8315249Y29673309D01*
X8528006Y29930865D01*
X8684424Y30222184D01*
X8781204Y30537503D01*
X8815050Y30867057D01*
X8812134Y30897134D01*
X10171516Y30897134D01*
X10200054Y30574390D01*
X10290225Y30264003D01*
X10438694Y29974887D01*
X10642130Y29715956D01*
X10897197Y29496122D01*
X11200563Y29324301D01*
X11548894Y29209405D01*
X11850472Y29164979D01*
X11929282Y29169744D01*
X12056498Y29187372D01*
X12143708Y29202657D01*
X12497661Y29308857D01*
X12813404Y29480250D01*
X13083837Y29706929D01*
X13301862Y29978985D01*
X13460379Y30286512D01*
X13552290Y30619601D01*
X13565641Y30875390D01*
X14957167Y30875390D01*
X14958955Y30663085D01*
X14967109Y30511166D01*
X14985818Y30395379D01*
X15019267Y30291473D01*
X15071645Y30175195D01*
X15081566Y30154833D01*
X15267510Y29861680D01*
X15513120Y29605171D01*
X15801239Y29398516D01*
X16114711Y29254924D01*
X16318204Y29202663D01*
X16618718Y29182501D01*
X16942613Y29216950D01*
X17212466Y29288049D01*
X17534061Y29444461D01*
X17816335Y29673233D01*
X18053892Y29969154D01*
X18207404Y30249177D01*
X18253428Y30367247D01*
X18281788Y30493155D01*
X18296272Y30652285D01*
X18300665Y30870023D01*
X18300675Y30874500D01*
X18299584Y30989546D01*
X19680756Y30989546D01*
X19694424Y30635314D01*
X19785318Y30284161D01*
X19835423Y30165582D01*
X20030731Y29841093D01*
X20279828Y29577433D01*
X20573944Y29378383D01*
X20904306Y29247722D01*
X21262145Y29189230D01*
X21638688Y29206687D01*
X21916951Y29268552D01*
X22212794Y29398244D01*
X22485236Y29598120D01*
X22720299Y29854223D01*
X22904007Y30152598D01*
X22977249Y30327276D01*
X23049151Y30636308D01*
X23052429Y30716907D01*
X24434803Y30716907D01*
X24507276Y30368407D01*
X24656049Y30039886D01*
X24874102Y29748193D01*
X25156603Y29494422D01*
X25466667Y29317212D01*
X25773334Y29218950D01*
X25934586Y29184625D01*
X26049743Y29168417D01*
X26155165Y29169239D01*
X26287218Y29186007D01*
X26379579Y29200847D01*
X26741185Y29298493D01*
X27056445Y29459239D01*
X27322054Y29673306D01*
X27534712Y29930915D01*
X27691115Y30222287D01*
X27787961Y30537645D01*
X27815236Y30802145D01*
X29179146Y30802145D01*
X29241789Y30434875D01*
X29346042Y30152678D01*
X29520375Y29867063D01*
X29759365Y29613706D01*
X30044973Y29406702D01*
X30359159Y29260147D01*
X30557000Y29206480D01*
X30734850Y29175962D01*
X30873200Y29166917D01*
X31014380Y29179073D01*
X31151375Y29202657D01*
X31510901Y29310921D01*
X31830377Y29486372D01*
X32102434Y29719541D01*
X32319703Y30000962D01*
X32474815Y30321165D01*
X32560401Y30670683D01*
X32566085Y30875390D01*
X33964834Y30875390D01*
X33966617Y30663131D01*
X33974759Y30511266D01*
X33993451Y30395549D01*
X34026883Y30291734D01*
X34079245Y30175577D01*
X34089362Y30154833D01*
X34289754Y29836400D01*
X34544584Y29575842D01*
X34843028Y29377697D01*
X35174260Y29246505D01*
X35527454Y29186806D01*
X35891786Y29203138D01*
X36187334Y29275121D01*
X36476149Y29410043D01*
X36747091Y29605489D01*
X36969294Y29838616D01*
X36994363Y29872411D01*
X37179657Y30197194D01*
X37288007Y30536295D01*
X37323294Y30879720D01*
X37289403Y31217475D01*
X37190216Y31539566D01*
X37029615Y31836000D01*
X36811483Y32096781D01*
X36539702Y32311917D01*
X36218157Y32471413D01*
X35955378Y32546733D01*
X35600267Y32578595D01*
X35249513Y32532398D01*
X34915563Y32414364D01*
X34610868Y32230713D01*
X34347877Y31987666D01*
X34139040Y31691444D01*
X34102048Y31620668D01*
X34041131Y31491588D01*
X34001520Y31384774D01*
X33978657Y31275465D01*
X33967983Y31138904D01*
X33964940Y30950331D01*
X33964834Y30875390D01*
X32566085Y30875390D01*
X32570260Y31025710D01*
X32503071Y31373178D01*
X32362385Y31702308D01*
X32158289Y31995522D01*
X31900870Y32235243D01*
X31859112Y32264933D01*
X31627444Y32407036D01*
X31411256Y32497456D01*
X31178991Y32545697D01*
X30899091Y32561258D01*
X30874500Y32561374D01*
X30553152Y32543091D01*
X30284321Y32480508D01*
X30043328Y32364096D01*
X29805493Y32184324D01*
X29736952Y32122130D01*
X29478948Y31828121D01*
X29299078Y31505579D01*
X29198693Y31161316D01*
X29179146Y30802145D01*
X27815236Y30802145D01*
X27821946Y30867208D01*
X27789770Y31201199D01*
X27688127Y31529839D01*
X27513717Y31843350D01*
X27342736Y32052629D01*
X27067109Y32287302D01*
X26758859Y32451941D01*
X26429615Y32547744D01*
X26091008Y32575909D01*
X25754667Y32537632D01*
X25432221Y32434113D01*
X25135301Y32266549D01*
X24875535Y32036137D01*
X24684828Y31778873D01*
X24522615Y31432481D01*
X24439595Y31075046D01*
X24434803Y30716907D01*
X23052429Y30716907D01*
X23062663Y30968537D01*
X23019096Y31294494D01*
X22921476Y31581137D01*
X22725888Y31900265D01*
X22477580Y32162962D01*
X22187488Y32365276D01*
X21866547Y32503259D01*
X21525694Y32572960D01*
X21175863Y32570431D01*
X20827991Y32491721D01*
X20629834Y32408815D01*
X20317789Y32209793D01*
X20062831Y31956982D01*
X19868987Y31661754D01*
X19740286Y31335484D01*
X19680756Y30989546D01*
X18299584Y30989546D01*
X18298747Y31077772D01*
X18288546Y31224265D01*
X18264859Y31341814D01*
X18222473Y31458250D01*
X18169828Y31573000D01*
X17965600Y31911661D01*
X17709680Y32184158D01*
X17404478Y32388568D01*
X17052405Y32522971D01*
X16947711Y32547399D01*
X16591238Y32578632D01*
X16239556Y32531752D01*
X15905082Y32412966D01*
X15600230Y32228484D01*
X15337419Y31984513D01*
X15129064Y31687263D01*
X15094381Y31620668D01*
X15033464Y31491588D01*
X14993853Y31384774D01*
X14970990Y31275465D01*
X14960316Y31138904D01*
X14957273Y30950331D01*
X14957167Y30875390D01*
X13565641Y30875390D01*
X13570494Y30968344D01*
X13546929Y31161028D01*
X13442239Y31518583D01*
X13275810Y31830281D01*
X13057460Y32092719D01*
X12797006Y32302495D01*
X12504265Y32456210D01*
X12189055Y32550460D01*
X11861193Y32581845D01*
X11530496Y32546964D01*
X11206782Y32442415D01*
X10899869Y32264796D01*
X10740359Y32133409D01*
X10489032Y31850373D01*
X10312671Y31544039D01*
X10207944Y31223322D01*
X10171516Y30897134D01*
X8812134Y30897134D01*
X8782664Y31201084D01*
X8680749Y31529821D01*
X8506007Y31843504D01*
X8335070Y32052629D01*
X8059442Y32287302D01*
X7751192Y32451941D01*
X7421949Y32547744D01*
X7083342Y32575909D01*
X6747000Y32537632D01*
X6424555Y32434113D01*
X6127634Y32266549D01*
X5867868Y32036137D01*
X5677161Y31778873D01*
X5514949Y31432481D01*
X5431928Y31075046D01*
X5427136Y30716907D01*
X4049452Y30716907D01*
X4056627Y30963072D01*
X4011071Y31291333D01*
X3912375Y31590056D01*
X3896271Y31624085D01*
X3700000Y31936809D01*
X3456617Y32187385D01*
X3176511Y32375809D01*
X2870072Y32502078D01*
X2547692Y32566187D01*
X2219760Y32568130D01*
X1896669Y32507906D01*
X1588807Y32385507D01*
X1306565Y32200932D01*
X1060334Y31954175D01*
X860506Y31645231D01*
X850529Y31625347D01*
X777032Y31471812D01*
X730412Y31352187D01*
X704573Y31237892D01*
X693419Y31100347D01*
X690854Y30910972D01*
X690834Y30876695D01*
X204000Y30876695D01*
X204000Y35637890D01*
X690834Y35637890D01*
X692796Y35430589D01*
X701978Y35281289D01*
X723322Y35163355D01*
X761769Y35050153D01*
X822262Y34915048D01*
X826693Y34905680D01*
X1023941Y34581195D01*
X1274905Y34318227D01*
X1571499Y34120423D01*
X1905638Y33991428D01*
X2269239Y33934890D01*
X2654214Y33954453D01*
X2849834Y33993327D01*
X3150365Y34108996D01*
X3432975Y34297422D01*
X3681948Y34546725D01*
X3805479Y34715668D01*
X3969228Y35041918D01*
X4056032Y35384109D01*
X4069162Y35731094D01*
X4064257Y35760271D01*
X5425446Y35760271D01*
X5434419Y35418455D01*
X5514284Y35080379D01*
X5667023Y34756786D01*
X5881197Y34472822D01*
X6128542Y34244487D01*
X6391475Y34086410D01*
X6685550Y33992461D01*
X7026324Y33956507D01*
X7189000Y33957284D01*
X7402331Y33968228D01*
X7560620Y33989220D01*
X7693390Y34026118D01*
X7829249Y34084341D01*
X8147603Y34280668D01*
X8407623Y34529275D01*
X8606303Y34819236D01*
X8740638Y35139622D01*
X8807624Y35479508D01*
X8806879Y35556607D01*
X10171812Y35556607D01*
X10222684Y35218371D01*
X10340219Y34896966D01*
X10520882Y34602920D01*
X10761136Y34346755D01*
X11057446Y34138996D01*
X11309255Y34023153D01*
X11549751Y33965600D01*
X11833332Y33946600D01*
X12128448Y33964733D01*
X12403547Y34018580D01*
X12574565Y34080068D01*
X12875829Y34262135D01*
X13132292Y34502900D01*
X13336679Y34788820D01*
X13481715Y35106352D01*
X13560126Y35441953D01*
X13562712Y35637000D01*
X14957167Y35637000D01*
X14959561Y35425776D01*
X14969616Y35273394D01*
X14991645Y35154093D01*
X15029958Y35042116D01*
X15072906Y34945447D01*
X15239450Y34646116D01*
X15435549Y34409875D01*
X15678709Y34220120D01*
X15986432Y34060250D01*
X16022484Y34044824D01*
X16154182Y33994426D01*
X16273402Y33964749D01*
X16408801Y33951807D01*
X16589037Y33951611D01*
X16675005Y33954042D01*
X16880381Y33964053D01*
X17031678Y33982767D01*
X17159464Y34016903D01*
X17294302Y34073176D01*
X17359056Y34104371D01*
X17672890Y34303219D01*
X17930381Y34557112D01*
X18126595Y34854753D01*
X18256594Y35184843D01*
X18310039Y35503835D01*
X19688871Y35503835D01*
X19746567Y35150037D01*
X19872320Y34838475D01*
X20073356Y34552492D01*
X20127999Y34491788D01*
X20386008Y34253850D01*
X20652907Y34089927D01*
X20946315Y33992781D01*
X21283846Y33955175D01*
X21434167Y33955156D01*
X21637802Y33964539D01*
X21790858Y33985373D01*
X21927327Y34025040D01*
X22081198Y34090919D01*
X22099849Y34099705D01*
X22418367Y34296458D01*
X22684829Y34557535D01*
X22891424Y34875074D01*
X22912170Y34917333D01*
X22972002Y35050323D01*
X23010192Y35162585D01*
X23031533Y35280509D01*
X23040817Y35430486D01*
X23042834Y35637000D01*
X23042809Y35639195D01*
X24439834Y35639195D01*
X24442582Y35438868D01*
X24454714Y35293223D01*
X24482063Y35172347D01*
X24530459Y35046330D01*
X24573798Y34952063D01*
X24776744Y34613028D01*
X25033235Y34334710D01*
X25337095Y34122734D01*
X25616109Y34002743D01*
X25788149Y33969072D01*
X26028795Y33955473D01*
X26196667Y33957284D01*
X26410771Y33968326D01*
X26569641Y33989505D01*
X26702596Y34026592D01*
X26833245Y34082605D01*
X27163790Y34284661D01*
X27431237Y34539663D01*
X27631316Y34841025D01*
X27759760Y35182163D01*
X27807781Y35524284D01*
X29184762Y35524284D01*
X29235904Y35203575D01*
X29347105Y34896283D01*
X29517887Y34612345D01*
X29747774Y34361692D01*
X30036290Y34154261D01*
X30316921Y34023153D01*
X30557417Y33965600D01*
X30840999Y33946600D01*
X31136115Y33964733D01*
X31411214Y34018580D01*
X31582232Y34080068D01*
X31893256Y34268863D01*
X32157196Y34521374D01*
X32364946Y34825648D01*
X32507402Y35169731D01*
X32551144Y35352119D01*
X32570838Y35635628D01*
X33964834Y35635628D01*
X33972814Y35364183D01*
X34002315Y35149270D01*
X34061675Y34963788D01*
X34159234Y34780634D01*
X34283694Y34599332D01*
X34477294Y34381348D01*
X34715335Y34203145D01*
X35017244Y34050289D01*
X35030151Y34044824D01*
X35162240Y33994275D01*
X35281533Y33964655D01*
X35416921Y33951949D01*
X35597295Y33952143D01*
X35679334Y33954616D01*
X35899016Y33966995D01*
X36064470Y33990464D01*
X36205971Y34030918D01*
X36323565Y34080068D01*
X36640895Y34269648D01*
X36902988Y34513910D01*
X37105625Y34801613D01*
X37244587Y35121520D01*
X37315656Y35462390D01*
X37314612Y35812985D01*
X37237237Y36162064D01*
X37168857Y36331989D01*
X36977530Y36652169D01*
X36738883Y36910557D01*
X36463092Y37107069D01*
X36160330Y37241625D01*
X35840772Y37314142D01*
X35514593Y37324540D01*
X35191968Y37272736D01*
X34883070Y37158648D01*
X34598076Y36982196D01*
X34347159Y36743296D01*
X34140494Y36441868D01*
X34096903Y36356666D01*
X34036633Y36224409D01*
X33998089Y36113252D01*
X33976474Y35996998D01*
X33966989Y35849447D01*
X33964835Y35644402D01*
X33964834Y35635628D01*
X32570838Y35635628D01*
X32576067Y35710903D01*
X32522193Y36060579D01*
X32395369Y36390141D01*
X32201443Y36688582D01*
X31946263Y36944896D01*
X31635676Y37148075D01*
X31583192Y37173991D01*
X31442116Y37237352D01*
X31324877Y37277151D01*
X31203187Y37298784D01*
X31048758Y37307645D01*
X30874500Y37309166D01*
X30671136Y37306829D01*
X30524102Y37296221D01*
X30405110Y37271946D01*
X30285871Y37228608D01*
X30165808Y37173991D01*
X29846597Y36981395D01*
X29590302Y36742612D01*
X29396447Y36467575D01*
X29264557Y36166218D01*
X29194154Y35848476D01*
X29184762Y35524284D01*
X27807781Y35524284D01*
X27812302Y35556491D01*
X27813206Y35594666D01*
X27806691Y35843609D01*
X27773584Y36048732D01*
X27705078Y36248996D01*
X27627985Y36413846D01*
X27429983Y36714673D01*
X27163856Y36969671D01*
X26840798Y37170083D01*
X26702809Y37234818D01*
X26589313Y37275637D01*
X26472585Y37297996D01*
X26324900Y37307352D01*
X26134057Y37309166D01*
X25930345Y37306825D01*
X25783106Y37296246D01*
X25664197Y37272096D01*
X25545475Y37229043D01*
X25427063Y37175202D01*
X25111295Y36991108D01*
X24860133Y36763563D01*
X24658540Y36477846D01*
X24597937Y36363458D01*
X24523193Y36206574D01*
X24476649Y36084134D01*
X24451667Y35965729D01*
X24441610Y35820954D01*
X24439834Y35639195D01*
X23042809Y35639195D01*
X23040402Y35848606D01*
X23030272Y36001267D01*
X23008189Y36120637D01*
X22969896Y36232367D01*
X22928708Y36325028D01*
X22736757Y36644041D01*
X22494099Y36904166D01*
X22211478Y37103602D01*
X21899637Y37240549D01*
X21569316Y37313204D01*
X21231260Y37319767D01*
X20896210Y37258435D01*
X20574909Y37127408D01*
X20278100Y36924884D01*
X20138992Y36792823D01*
X19911218Y36496719D01*
X19762306Y36172201D01*
X19690949Y35815525D01*
X19688871Y35503835D01*
X18310039Y35503835D01*
X18315443Y35536084D01*
X18298204Y35897178D01*
X18244268Y36130492D01*
X18100709Y36466895D01*
X17899245Y36751541D01*
X17650429Y36981930D01*
X17364813Y37155563D01*
X17052951Y37269940D01*
X16725395Y37322560D01*
X16392700Y37310923D01*
X16065417Y37232530D01*
X15754100Y37084881D01*
X15469302Y36865475D01*
X15406841Y36802679D01*
X15275862Y36646385D01*
X15152726Y36469738D01*
X15071293Y36325028D01*
X15018295Y36202469D01*
X14984649Y36091219D01*
X14966099Y35965625D01*
X14958392Y35800034D01*
X14957167Y35637000D01*
X13562712Y35637000D01*
X13564637Y35782081D01*
X13548598Y35893383D01*
X13440437Y36274073D01*
X13267442Y36600387D01*
X13029173Y36872915D01*
X12725190Y37092252D01*
X12617681Y37149471D01*
X12464146Y37222968D01*
X12344521Y37269588D01*
X12230225Y37295427D01*
X12092680Y37306581D01*
X11903306Y37309146D01*
X11869029Y37309166D01*
X11660999Y37306428D01*
X11510436Y37295103D01*
X11390233Y37270525D01*
X11273281Y37228032D01*
X11196447Y37193427D01*
X10908039Y37033574D01*
X10678384Y36845343D01*
X10481838Y36607082D01*
X10454542Y36567061D01*
X10284205Y36241477D01*
X10191140Y35901151D01*
X10171812Y35556607D01*
X8806879Y35556607D01*
X8804254Y35827964D01*
X8727523Y36174065D01*
X8574427Y36506882D01*
X8519307Y36593494D01*
X8296240Y36858931D01*
X8017291Y37073792D01*
X7791246Y37195551D01*
X7665365Y37249649D01*
X7550449Y37283440D01*
X7419549Y37301510D01*
X7245713Y37308441D01*
X7123305Y37309166D01*
X6923799Y37307357D01*
X6780366Y37297864D01*
X6664426Y37274590D01*
X6547399Y37231441D01*
X6400704Y37162318D01*
X6374653Y37149471D01*
X6058870Y36950090D01*
X5804078Y36700737D01*
X5612256Y36412155D01*
X5485385Y36095085D01*
X5425446Y35760271D01*
X4064257Y35760271D01*
X4011890Y36071728D01*
X3887485Y36394864D01*
X3699221Y36689355D01*
X3450367Y36944055D01*
X3144196Y37147818D01*
X3082667Y37178503D01*
X2949677Y37238335D01*
X2837415Y37276525D01*
X2719491Y37297866D01*
X2569514Y37307150D01*
X2363000Y37309166D01*
X2151394Y37306735D01*
X1998733Y37296605D01*
X1879363Y37274522D01*
X1767633Y37236229D01*
X1674972Y37195041D01*
X1390260Y37021441D01*
X1128819Y36786566D01*
X914419Y36513805D01*
X827724Y36361344D01*
X765512Y36228988D01*
X725653Y36119360D01*
X703211Y36006388D01*
X693255Y35863998D01*
X690849Y35666115D01*
X690834Y35637890D01*
X204000Y35637890D01*
X204000Y37796000D01*
X37796000Y37796000D01*
X37796000Y204000D01*
X37796000Y204000D01*
G37*
X37796000Y204000D02*
X204000Y204000D01*
X204000Y2478623D01*
X675207Y2478623D01*
X691527Y2115457D01*
X747686Y1870756D01*
X893743Y1535380D01*
X1108724Y1238776D01*
X1381373Y992529D01*
X1700430Y808226D01*
X1829391Y757568D01*
X2121342Y693250D01*
X2446248Y682585D01*
X2772389Y724585D01*
X3010047Y794348D01*
X3271153Y932789D01*
X3521379Y1135149D01*
X3739518Y1381309D01*
X3896834Y1635613D01*
X3959645Y1768996D01*
X3999906Y1878967D01*
X4022593Y1991653D01*
X4032681Y2133185D01*
X4035147Y2329689D01*
X4035167Y2361997D01*
X4033442Y2515423D01*
X5429815Y2515423D01*
X5433891Y2175972D01*
X5506481Y1841229D01*
X5649444Y1522305D01*
X5864640Y1230313D01*
X5916984Y1175651D01*
X6161952Y973570D01*
X6443044Y811590D01*
X6712578Y712931D01*
X6831653Y695583D01*
X7001852Y686274D01*
X7189875Y686636D01*
X7223371Y687869D01*
X7430026Y702921D01*
X7590624Y733385D01*
X7743546Y788414D01*
X7846430Y836463D01*
X8162497Y1034661D01*
X8417170Y1281074D01*
X8609617Y1565156D01*
X8739007Y1876361D01*
X8804508Y2204143D01*
X8805167Y2486576D01*
X10179088Y2486576D01*
X10190594Y2129061D01*
X10279389Y1772915D01*
X10347054Y1612956D01*
X10523228Y1336447D01*
X10763373Y1088566D01*
X11047684Y885720D01*
X11356353Y744313D01*
X11419343Y724826D01*
X11688954Y681278D01*
X11992855Y685530D01*
X12297654Y734515D01*
X12569956Y825167D01*
X12584396Y831801D01*
X12903380Y1026336D01*
X13168659Y1282542D01*
X13373654Y1591749D01*
X13511783Y1945288D01*
X13547493Y2100673D01*
X13565901Y2384166D01*
X14957678Y2384166D01*
X14959549Y2168849D01*
X14968302Y2013855D01*
X14987814Y1894897D01*
X15021961Y1787686D01*
X15070623Y1676435D01*
X15194053Y1465482D01*
X15361304Y1249881D01*
X15548005Y1057724D01*
X15728899Y917652D01*
X16047181Y768802D01*
X16395333Y690008D01*
X16754104Y682366D01*
X17104242Y746971D01*
X17316192Y827338D01*
X17632136Y1010605D01*
X17884094Y1239720D01*
X18086623Y1528926D01*
X18143397Y1636542D01*
X18217973Y1792884D01*
X18264367Y1914450D01*
X18289113Y2031485D01*
X18298744Y2174230D01*
X18298963Y2211431D01*
X19688116Y2211431D01*
X19754385Y1880145D01*
X19888058Y1562500D01*
X20090118Y1268903D01*
X20361546Y1009758D01*
X20376845Y997977D01*
X20671495Y824721D01*
X21004629Y717501D01*
X21359212Y678431D01*
X21718209Y709625D01*
X22017714Y794348D01*
X22278922Y932846D01*
X22529193Y1135279D01*
X22747332Y1381535D01*
X22904501Y1635726D01*
X22967322Y1769186D01*
X23007585Y1879218D01*
X23030269Y1991962D01*
X23040352Y2133562D01*
X23042814Y2330159D01*
X23042834Y2362110D01*
X23042612Y2381863D01*
X24422704Y2381863D01*
X24460065Y2030177D01*
X24568573Y1693690D01*
X24742074Y1385981D01*
X24974414Y1120631D01*
X25259441Y911219D01*
X25299065Y889333D01*
X25661530Y739586D01*
X26028334Y674345D01*
X26399219Y693642D01*
X26567676Y729994D01*
X26906596Y860832D01*
X27198588Y1053959D01*
X27439496Y1298598D01*
X27625163Y1583967D01*
X27751431Y1899287D01*
X27814145Y2233780D01*
X27813764Y2259954D01*
X29178442Y2259954D01*
X29238471Y1917916D01*
X29367826Y1594945D01*
X29558881Y1302472D01*
X29804007Y1051926D01*
X30095576Y854736D01*
X30425963Y722332D01*
X30461093Y713031D01*
X30687296Y681979D01*
X30953924Y684706D01*
X31225410Y717979D01*
X31466191Y778562D01*
X31551471Y812222D01*
X31887931Y1006403D01*
X32158230Y1252192D01*
X32366392Y1553842D01*
X32471268Y1784474D01*
X32559262Y2129663D01*
X32566703Y2384166D01*
X33964958Y2384166D01*
X33967023Y2168696D01*
X33975949Y2013533D01*
X33995628Y1894370D01*
X34029952Y1786898D01*
X34078289Y1676435D01*
X34201719Y1465482D01*
X34368970Y1249881D01*
X34555671Y1057724D01*
X34736566Y917652D01*
X35054848Y768802D01*
X35403000Y690008D01*
X35761770Y682366D01*
X36111909Y746971D01*
X36323858Y827338D01*
X36639823Y1010622D01*
X36891801Y1239768D01*
X37094348Y1529010D01*
X37151064Y1636513D01*
X37225667Y1792932D01*
X37272088Y1914644D01*
X37296879Y2031917D01*
X37306591Y2175019D01*
X37307822Y2360775D01*
X37301800Y2587707D01*
X37282391Y2760956D01*
X37244949Y2911051D01*
X37208982Y3010047D01*
X37065933Y3273954D01*
X36859650Y3526181D01*
X36610953Y3744873D01*
X36364274Y3896834D01*
X36234349Y3958215D01*
X36127207Y3998137D01*
X36018041Y4021190D01*
X35882045Y4031965D01*
X35694411Y4035052D01*
X35616724Y4035166D01*
X35404419Y4033379D01*
X35252499Y4025224D01*
X35136713Y4006516D01*
X35032807Y3973066D01*
X34916528Y3920688D01*
X34896167Y3910767D01*
X34616270Y3733472D01*
X34361180Y3496304D01*
X34155590Y3223960D01*
X34089357Y3103833D01*
X34033707Y2983321D01*
X33997649Y2878824D01*
X33976979Y2766025D01*
X33967494Y2620610D01*
X33964990Y2418260D01*
X33964958Y2384166D01*
X32566703Y2384166D01*
X32569523Y2480593D01*
X32507084Y2825163D01*
X32376977Y3151277D01*
X32184234Y3446835D01*
X31933889Y3699738D01*
X31630975Y3897888D01*
X31582232Y3921711D01*
X31463826Y3973114D01*
X31356238Y4006263D01*
X31235154Y4025055D01*
X31076259Y4033388D01*
X30874500Y4035166D01*
X30661346Y4033261D01*
X30508850Y4024867D01*
X30393039Y4005971D01*
X30289940Y3972558D01*
X30175581Y3920614D01*
X30167864Y3916834D01*
X29836940Y3709644D01*
X29567224Y3445711D01*
X29363223Y3131094D01*
X29229444Y2771851D01*
X29195367Y2609632D01*
X29178442Y2259954D01*
X27813764Y2259954D01*
X27809147Y2576665D01*
X27732280Y2917163D01*
X27579389Y3244495D01*
X27553362Y3286060D01*
X27343391Y3555657D01*
X27091706Y3769448D01*
X26831667Y3920194D01*
X26719000Y3971921D01*
X26616951Y4005388D01*
X26501836Y4024489D01*
X26349971Y4033117D01*
X26137672Y4035166D01*
X26132277Y4035166D01*
X25922132Y4033616D01*
X25771820Y4025899D01*
X25656524Y4007417D01*
X25551423Y3973573D01*
X25431700Y3919767D01*
X25384175Y3896562D01*
X25076330Y3699497D01*
X24814797Y3440168D01*
X24611225Y3133255D01*
X24477260Y2793436D01*
X24462642Y2735169D01*
X24422704Y2381863D01*
X23042612Y2381863D01*
X23040454Y2573488D01*
X23030453Y2725966D01*
X23008533Y2845243D01*
X22970399Y2957019D01*
X22927094Y3054553D01*
X22727489Y3393175D01*
X22476614Y3664734D01*
X22172520Y3870984D01*
X21887058Y3990984D01*
X21594707Y4050138D01*
X21271584Y4054353D01*
X20949347Y4005885D01*
X20659653Y3906992D01*
X20651000Y3902889D01*
X20333466Y3708277D01*
X20077444Y3464872D01*
X19883915Y3183079D01*
X19753863Y2873304D01*
X19688270Y2545952D01*
X19688116Y2211431D01*
X18298963Y2211431D01*
X18299843Y2360804D01*
X18293533Y2588904D01*
X18273672Y2763378D01*
X18235605Y2914798D01*
X18201004Y3010047D01*
X18058265Y3273908D01*
X17852193Y3526044D01*
X17603527Y3744685D01*
X17356386Y3896834D01*
X17226344Y3958225D01*
X17119142Y3998142D01*
X17009958Y4021176D01*
X16873965Y4031915D01*
X16686340Y4034949D01*
X16608835Y4035042D01*
X16396015Y4033136D01*
X16243717Y4024816D01*
X16127826Y4005982D01*
X16024228Y3972531D01*
X15908811Y3920362D01*
X15894996Y3913617D01*
X15631146Y3746751D01*
X15383224Y3521250D01*
X15176710Y3262607D01*
X15082680Y3100915D01*
X15026969Y2981876D01*
X14990836Y2878521D01*
X14970065Y2766677D01*
X14960440Y2622170D01*
X14957745Y2420828D01*
X14957678Y2384166D01*
X13565901Y2384166D01*
X13569725Y2443047D01*
X13515178Y2784197D01*
X13390893Y3110946D01*
X13203908Y3410118D01*
X12961265Y3668536D01*
X12670002Y3873024D01*
X12574565Y3921711D01*
X12456160Y3973114D01*
X12348572Y4006263D01*
X12227487Y4025055D01*
X12068592Y4033388D01*
X11866834Y4035166D01*
X11654750Y4033373D01*
X11503008Y4025189D01*
X11387314Y4006411D01*
X11283372Y3972835D01*
X11166885Y3920257D01*
X11147167Y3910638D01*
X10829541Y3710871D01*
X10570099Y3457608D01*
X10372662Y3161823D01*
X10241052Y2834488D01*
X10179088Y2486576D01*
X8805167Y2486576D01*
X8805288Y2537955D01*
X8740516Y2867251D01*
X8609361Y3181485D01*
X8410991Y3470112D01*
X8144573Y3722584D01*
X8077853Y3771456D01*
X7823573Y3920680D01*
X7561639Y4011328D01*
X7267788Y4049744D01*
X7018458Y4048416D01*
X6810728Y4033160D01*
X6651494Y4004994D01*
X6504695Y3955325D01*
X6372029Y3894357D01*
X6061439Y3698053D01*
X5810063Y3450896D01*
X5619760Y3163997D01*
X5492391Y2848468D01*
X5429815Y2515423D01*
X4033442Y2515423D01*
X4032789Y2573396D01*
X4022794Y2725885D01*
X4000888Y2845159D01*
X3962777Y2956910D01*
X3919428Y3054553D01*
X3719822Y3393175D01*
X3468947Y3664734D01*
X3164854Y3870984D01*
X2879391Y3990984D01*
X2587040Y4050138D01*
X2263918Y4054353D01*
X1941681Y4005885D01*
X1651986Y3906992D01*
X1643334Y3902889D01*
X1325749Y3706558D01*
X1065343Y3455072D01*
X866916Y3159324D01*
X735270Y2830210D01*
X675207Y2478623D01*
X204000Y2478623D01*
X204000Y7125500D01*
X690834Y7125500D01*
X693171Y6922136D01*
X703779Y6775102D01*
X728054Y6656109D01*
X771392Y6536871D01*
X826009Y6416808D01*
X1023205Y6091819D01*
X1274289Y5825097D01*
X1569378Y5621674D01*
X1898586Y5486579D01*
X2252029Y5424844D01*
X2619822Y5441498D01*
X2710166Y5457935D01*
X3055618Y5572316D01*
X3370745Y5760007D01*
X3643907Y6011740D01*
X3863467Y6318246D01*
X3916833Y6418863D01*
X3970013Y6534656D01*
X4004421Y6637754D01*
X4024072Y6752130D01*
X4032981Y6901758D01*
X4034213Y7019811D01*
X5421618Y7019811D01*
X5444177Y6845577D01*
X5550649Y6481928D01*
X5720737Y6163514D01*
X5945020Y5895331D01*
X6214073Y5682379D01*
X6518476Y5529657D01*
X6848806Y5442162D01*
X7195641Y5424894D01*
X7549559Y5482852D01*
X7823770Y5583172D01*
X8140316Y5771707D01*
X8398200Y6011728D01*
X8595683Y6292333D01*
X8731027Y6602619D01*
X8802492Y6931684D01*
X8804376Y7040248D01*
X10169595Y7040248D01*
X10224808Y6705066D01*
X10349062Y6385257D01*
X10534704Y6092153D01*
X10774078Y5837083D01*
X11059528Y5631379D01*
X11383399Y5486370D01*
X11491099Y5455338D01*
X11671753Y5431009D01*
X11898372Y5429953D01*
X12136173Y5449982D01*
X12350372Y5488905D01*
X12438334Y5514973D01*
X12763282Y5673071D01*
X13042044Y5893686D01*
X13268319Y6165039D01*
X13435803Y6475352D01*
X13538194Y6812845D01*
X13565654Y7125500D01*
X14957167Y7125500D01*
X14959294Y6909980D01*
X14968276Y6754762D01*
X14988009Y6635532D01*
X15022391Y6527976D01*
X15070623Y6417768D01*
X15259655Y6109981D01*
X15511962Y5844663D01*
X15812034Y5634528D01*
X16144364Y5492288D01*
X16227167Y5469674D01*
X16524353Y5420897D01*
X16805379Y5430392D01*
X17033189Y5476292D01*
X17392026Y5609067D01*
X17699096Y5808601D01*
X17955235Y6075593D01*
X18161281Y6410743D01*
X18169177Y6427000D01*
X18231193Y6563400D01*
X18270141Y6677964D01*
X18291285Y6798519D01*
X18299887Y6952897D01*
X18301255Y7123304D01*
X19698500Y7123304D01*
X19700310Y6923799D01*
X19709803Y6780366D01*
X19733076Y6664426D01*
X19776226Y6547398D01*
X19845348Y6400704D01*
X19858196Y6374653D01*
X20060907Y6053172D01*
X20316481Y5792429D01*
X20615459Y5597089D01*
X20948383Y5471814D01*
X21305793Y5421266D01*
X21678232Y5450109D01*
X21717833Y5457935D01*
X22062780Y5572138D01*
X22377388Y5759199D01*
X22649276Y6009236D01*
X22866063Y6312365D01*
X22921726Y6418863D01*
X23011541Y6682377D01*
X23056513Y6983117D01*
X24432566Y6983117D01*
X24451843Y6845577D01*
X24557239Y6486712D01*
X24726123Y6170996D01*
X24948824Y5903618D01*
X25215673Y5689765D01*
X25516999Y5534626D01*
X25843133Y5443389D01*
X26184403Y5421241D01*
X26531140Y5473371D01*
X26816519Y5576935D01*
X27152082Y5776374D01*
X27422424Y6027738D01*
X27624274Y6325940D01*
X27754365Y6665889D01*
X27807835Y7031594D01*
X29179727Y7031594D01*
X29236966Y6688227D01*
X29364071Y6363497D01*
X29553691Y6068765D01*
X29798473Y5815392D01*
X30091067Y5614740D01*
X30424121Y5478169D01*
X30433445Y5475522D01*
X30678312Y5434497D01*
X30959773Y5430350D01*
X31238957Y5461567D01*
X31446000Y5514973D01*
X31777446Y5673741D01*
X32054429Y5888692D01*
X32274583Y6149267D01*
X32435543Y6444910D01*
X32534943Y6765062D01*
X32570419Y7099165D01*
X32568015Y7125500D01*
X33964834Y7125500D01*
X33966961Y6909980D01*
X33975943Y6754762D01*
X33995675Y6635532D01*
X34030057Y6527976D01*
X34078289Y6417768D01*
X34267322Y6109981D01*
X34519628Y5844663D01*
X34819701Y5634528D01*
X35152031Y5492288D01*
X35234834Y5469674D01*
X35532020Y5420897D01*
X35813045Y5430392D01*
X36040856Y5476292D01*
X36390470Y5606673D01*
X36690171Y5797832D01*
X36936323Y6039650D01*
X37125293Y6322007D01*
X37253445Y6634782D01*
X37317144Y6967855D01*
X37312755Y7311105D01*
X37236644Y7654413D01*
X37085176Y7987656D01*
X36993528Y8128756D01*
X36758824Y8388508D01*
X36473082Y8593913D01*
X36152344Y8738159D01*
X35812652Y8814434D01*
X35470048Y8815927D01*
X35398621Y8806000D01*
X35027741Y8703945D01*
X34693492Y8530520D01*
X34405789Y8293002D01*
X34174549Y7998669D01*
X34089362Y7845166D01*
X34033625Y7724773D01*
X33997510Y7620507D01*
X33976814Y7508074D01*
X33967332Y7363178D01*
X33964860Y7161524D01*
X33964834Y7125500D01*
X32568015Y7125500D01*
X32539604Y7436662D01*
X32440133Y7766995D01*
X32269641Y8079606D01*
X32073749Y8316779D01*
X31791330Y8550399D01*
X31483664Y8710127D01*
X31160543Y8799144D01*
X30831757Y8820634D01*
X30507095Y8777782D01*
X30196350Y8673770D01*
X29909310Y8511782D01*
X29655767Y8295002D01*
X29445511Y8026613D01*
X29288332Y7709798D01*
X29199703Y7382236D01*
X29179727Y7031594D01*
X27807835Y7031594D01*
X27809430Y7042499D01*
X27811155Y7125500D01*
X27772180Y7506010D01*
X27659026Y7851752D01*
X27477344Y8156155D01*
X27232788Y8412650D01*
X26931012Y8614666D01*
X26577667Y8755632D01*
X26366867Y8804152D01*
X26021608Y8824770D01*
X25689213Y8769480D01*
X25378132Y8646926D01*
X25096819Y8465752D01*
X24853724Y8234602D01*
X24657300Y7962120D01*
X24515998Y7656949D01*
X24438269Y7327733D01*
X24432566Y6983117D01*
X23056513Y6983117D01*
X23057045Y6986673D01*
X23056600Y7299405D01*
X23008563Y7588227D01*
X22984923Y7664533D01*
X22826647Y8002725D01*
X22616020Y8283243D01*
X22362982Y8505553D01*
X22077472Y8669119D01*
X21769432Y8773407D01*
X21448802Y8817881D01*
X21125522Y8802005D01*
X20809532Y8725246D01*
X20510773Y8587067D01*
X20239184Y8386934D01*
X20004707Y8124311D01*
X19833676Y7834192D01*
X19770491Y7693575D01*
X19730728Y7576725D01*
X19709042Y7455535D01*
X19700090Y7301897D01*
X19698500Y7123304D01*
X18301255Y7123304D01*
X18301273Y7125500D01*
X18298294Y7333994D01*
X18286611Y7484588D01*
X18261711Y7603946D01*
X18219083Y7718729D01*
X18190221Y7781666D01*
X18029668Y8072052D01*
X17848319Y8300825D01*
X17627020Y8491023D01*
X17564318Y8534504D01*
X17234120Y8706847D01*
X16885282Y8801390D01*
X16529668Y8819306D01*
X16179142Y8761771D01*
X15845567Y8629956D01*
X15540808Y8425035D01*
X15430173Y8323405D01*
X15294309Y8168082D01*
X15164901Y7988315D01*
X15081696Y7845166D01*
X15025958Y7724773D01*
X14989844Y7620507D01*
X14969147Y7508074D01*
X14959665Y7363178D01*
X14957193Y7161524D01*
X14957167Y7125500D01*
X13565654Y7125500D01*
X13569189Y7165739D01*
X13522487Y7522254D01*
X13519240Y7535150D01*
X13411233Y7841597D01*
X13248092Y8110537D01*
X13043539Y8339845D01*
X12754799Y8568933D01*
X12442759Y8723267D01*
X12117054Y8806092D01*
X11787320Y8820652D01*
X11463193Y8770191D01*
X11154309Y8657954D01*
X10870302Y8487184D01*
X10620810Y8261125D01*
X10415468Y7983023D01*
X10263912Y7656121D01*
X10191079Y7379475D01*
X10169595Y7040248D01*
X8804376Y7040248D01*
X8808340Y7268627D01*
X8746830Y7602544D01*
X8616225Y7922533D01*
X8414784Y8217691D01*
X8268322Y8369978D01*
X7986553Y8578220D01*
X7666843Y8726371D01*
X7328252Y8808712D01*
X6989841Y8819527D01*
X6838800Y8798775D01*
X6481449Y8689613D01*
X6164318Y8516143D01*
X5894255Y8287955D01*
X5678106Y8014638D01*
X5522719Y7705782D01*
X5434941Y7370977D01*
X5421618Y7019811D01*
X4034213Y7019811D01*
X4035162Y7110610D01*
X4035167Y7125500D01*
X4033261Y7338653D01*
X4024867Y7491149D01*
X4005972Y7606960D01*
X3972559Y7710059D01*
X3920615Y7824418D01*
X3916833Y7832137D01*
X3709792Y8162607D01*
X3445689Y8432568D01*
X3131037Y8637116D01*
X2772351Y8771350D01*
X2627584Y8802600D01*
X2272756Y8823643D01*
X1925771Y8766305D01*
X1598173Y8636792D01*
X1301504Y8441309D01*
X1047310Y8186060D01*
X847134Y7877252D01*
X826009Y7834192D01*
X762648Y7693116D01*
X722849Y7575877D01*
X701216Y7454187D01*
X692355Y7299758D01*
X690834Y7125500D01*
X204000Y7125500D01*
X204000Y11866833D01*
X690940Y11866833D01*
X693400Y11662807D01*
X704176Y11515297D01*
X728542Y11396208D01*
X771773Y11277444D01*
X822570Y11165719D01*
X1021330Y10837256D01*
X1272678Y10571428D01*
X1568597Y10371746D01*
X1901072Y10241722D01*
X2262088Y10184864D01*
X2643628Y10204686D01*
X2893266Y10258779D01*
X3192040Y10384555D01*
X3466849Y10581032D01*
X3704181Y10834893D01*
X3890525Y11132819D01*
X3969583Y11319610D01*
X4019793Y11479981D01*
X4046525Y11625366D01*
X4053300Y11774643D01*
X5421826Y11774643D01*
X5477793Y11435526D01*
X5601749Y11119083D01*
X5785432Y10834084D01*
X6020582Y10589297D01*
X6298937Y10393490D01*
X6612236Y10255432D01*
X6952218Y10183892D01*
X7273667Y10183575D01*
X7443563Y10208528D01*
X7609759Y10245747D01*
X7674446Y10265454D01*
X8014130Y10427582D01*
X8303688Y10653447D01*
X8535880Y10933781D01*
X8703467Y11259320D01*
X8799210Y11620799D01*
X8811563Y11720799D01*
X8809932Y11834328D01*
X10171944Y11834328D01*
X10216019Y11486674D01*
X10335412Y11150016D01*
X10530545Y10834813D01*
X10642344Y10703649D01*
X10915073Y10471571D01*
X11230936Y10303932D01*
X11574559Y10204532D01*
X11930565Y10177169D01*
X12283577Y10225644D01*
X12415780Y10265454D01*
X12745435Y10422577D01*
X13029395Y10640545D01*
X13260879Y10908041D01*
X13433108Y11213750D01*
X13539302Y11546356D01*
X13570109Y11867723D01*
X14957167Y11867723D01*
X14959088Y11654141D01*
X14967490Y11501339D01*
X14986333Y11385467D01*
X15019576Y11282676D01*
X15071176Y11169117D01*
X15074134Y11163084D01*
X15277497Y10838126D01*
X15533576Y10573100D01*
X15832392Y10372248D01*
X16163960Y10239812D01*
X16518298Y10180033D01*
X16885425Y10197152D01*
X17179667Y10268413D01*
X17502330Y10419444D01*
X17788692Y10642325D01*
X18030113Y10928887D01*
X18202304Y11235537D01*
X18249440Y11357298D01*
X18278632Y11486224D01*
X18293837Y11648145D01*
X18298998Y11866833D01*
X18298480Y11967717D01*
X19685219Y11967717D01*
X19686053Y11780245D01*
X19743818Y11411768D01*
X19871717Y11080179D01*
X20061082Y10791404D01*
X20303247Y10551363D01*
X20589545Y10365981D01*
X20911308Y10241180D01*
X21259870Y10182883D01*
X21626563Y10197013D01*
X21911209Y10259585D01*
X22223716Y10396686D01*
X22504622Y10607013D01*
X22744789Y10882159D01*
X22925268Y11192457D01*
X22979696Y11317578D01*
X23014286Y11429158D01*
X23033413Y11553076D01*
X23041450Y11715207D01*
X23042834Y11888000D01*
X23042831Y11888439D01*
X24423238Y11888439D01*
X24453195Y11557962D01*
X24552725Y11233298D01*
X24725271Y10924143D01*
X24874258Y10740359D01*
X25164940Y10483857D01*
X25487824Y10302900D01*
X25834635Y10199511D01*
X26197094Y10175715D01*
X26566926Y10233535D01*
X26731964Y10286133D01*
X27051363Y10447933D01*
X27327889Y10674972D01*
X27551962Y10954639D01*
X27714004Y11274329D01*
X27804434Y11621433D01*
X27814748Y11711235D01*
X27812607Y11815087D01*
X29176169Y11815087D01*
X29227287Y11474758D01*
X29347650Y11148246D01*
X29530143Y10849565D01*
X29767658Y10592724D01*
X30053080Y10391736D01*
X30112047Y10361064D01*
X30469715Y10228433D01*
X30835093Y10175929D01*
X31197541Y10204327D01*
X31423446Y10265454D01*
X31763318Y10427817D01*
X32053463Y10655154D01*
X32287222Y10939546D01*
X32457936Y11273071D01*
X32552003Y11607781D01*
X32570303Y11867723D01*
X33964834Y11867723D01*
X33966755Y11654141D01*
X33975157Y11501339D01*
X33994000Y11385467D01*
X34027242Y11282676D01*
X34078842Y11169117D01*
X34081801Y11163084D01*
X34284985Y10838464D01*
X34543978Y10570422D01*
X34849378Y10366501D01*
X35191786Y10234239D01*
X35260345Y10217813D01*
X35420271Y10183360D01*
X35528253Y10164476D01*
X35615375Y10160155D01*
X35712719Y10169386D01*
X35851369Y10191162D01*
X35889655Y10197398D01*
X36247560Y10294088D01*
X36560057Y10454480D01*
X36823736Y10668759D01*
X37035185Y10927109D01*
X37190992Y11219716D01*
X37287746Y11536765D01*
X37322035Y11868439D01*
X37290448Y12204924D01*
X37189573Y12536405D01*
X37015999Y12853066D01*
X36875041Y13032427D01*
X36619148Y13258972D01*
X36313813Y13428816D01*
X35977163Y13536276D01*
X35627326Y13575665D01*
X35282430Y13541301D01*
X35264831Y13537358D01*
X34920990Y13416009D01*
X34607630Y13223129D01*
X34339431Y12970366D01*
X34131071Y12669366D01*
X34103438Y12615825D01*
X34041944Y12485694D01*
X34001946Y12378472D01*
X33978847Y12269339D01*
X33968047Y12133477D01*
X33964949Y11946068D01*
X33964834Y11867723D01*
X32570303Y11867723D01*
X32576777Y11959672D01*
X32525417Y12297496D01*
X32406265Y12612897D01*
X32227662Y12897514D01*
X31997948Y13142991D01*
X31725463Y13340968D01*
X31418549Y13483086D01*
X31085547Y13560988D01*
X30734797Y13566315D01*
X30613667Y13550226D01*
X30244662Y13446587D01*
X29918725Y13273079D01*
X29642500Y13036266D01*
X29422631Y12742709D01*
X29265760Y12398971D01*
X29201405Y12155223D01*
X29176169Y11815087D01*
X27812607Y11815087D01*
X27807230Y12075758D01*
X27726537Y12418577D01*
X27581097Y12731714D01*
X27379334Y13007194D01*
X27129676Y13237037D01*
X26840548Y13413267D01*
X26520376Y13527907D01*
X26177586Y13572979D01*
X25872334Y13550226D01*
X25511697Y13450498D01*
X25196529Y13288723D01*
X24930273Y13074595D01*
X24716372Y12817808D01*
X24558270Y12528056D01*
X24459411Y12215035D01*
X24423238Y11888439D01*
X23042831Y11888439D01*
X23040959Y12094181D01*
X23032039Y12241929D01*
X23011128Y12357452D01*
X22973281Y12466958D01*
X22913555Y12596656D01*
X22906338Y12611439D01*
X22708871Y12920226D01*
X22443733Y13184039D01*
X22119550Y13394608D01*
X22057454Y13425336D01*
X21911891Y13490359D01*
X21790665Y13530407D01*
X21663594Y13551405D01*
X21500494Y13559278D01*
X21370667Y13560166D01*
X21170235Y13557317D01*
X21024439Y13544910D01*
X20903328Y13517153D01*
X20776957Y13468258D01*
X20691328Y13428822D01*
X20350594Y13225696D01*
X20076675Y12973200D01*
X19872512Y12676155D01*
X19741046Y12339387D01*
X19685219Y11967717D01*
X18298480Y11967717D01*
X18297956Y12069398D01*
X18288515Y12215364D01*
X18265460Y12332737D01*
X18223578Y12449525D01*
X18167535Y12572937D01*
X17966096Y12908919D01*
X17711478Y13179080D01*
X17404104Y13383067D01*
X17044394Y13520525D01*
X17037842Y13522281D01*
X16682507Y13575029D01*
X16329808Y13549102D01*
X15991524Y13449998D01*
X15679432Y13283214D01*
X15405310Y13054247D01*
X15180935Y12768595D01*
X15095771Y12615825D01*
X15034277Y12485694D01*
X14994279Y12378472D01*
X14971180Y12269339D01*
X14960381Y12133477D01*
X14957283Y11946068D01*
X14957167Y11867723D01*
X13570109Y11867723D01*
X13572680Y11894542D01*
X13546929Y12153361D01*
X13442239Y12510917D01*
X13275810Y12822614D01*
X13057460Y13085052D01*
X12797006Y13294829D01*
X12504265Y13448543D01*
X12189055Y13542793D01*
X11861193Y13574179D01*
X11530496Y13539297D01*
X11206782Y13434748D01*
X10899869Y13257129D01*
X10740359Y13125742D01*
X10487395Y12838686D01*
X10308055Y12520793D01*
X10202764Y12182520D01*
X10171944Y11834328D01*
X8809932Y11834328D01*
X8806396Y12080398D01*
X8727007Y12418527D01*
X8582213Y12727583D01*
X8380835Y12999963D01*
X8131690Y13228063D01*
X7843596Y13404280D01*
X7525374Y13521008D01*
X7185840Y13570646D01*
X6833815Y13545588D01*
X6723260Y13521396D01*
X6357515Y13387728D01*
X6044591Y13189465D01*
X5789071Y12931591D01*
X5595537Y12619092D01*
X5468572Y12256954D01*
X5442108Y12127666D01*
X5421826Y11774643D01*
X4053300Y11774643D01*
X4054028Y11790666D01*
X4048660Y11968778D01*
X4033586Y12177086D01*
X4006247Y12335950D01*
X3958362Y12480499D01*
X3895748Y12617481D01*
X3705188Y12915677D01*
X3457207Y13166593D01*
X3165295Y13363598D01*
X2842941Y13500064D01*
X2503635Y13569364D01*
X2160867Y13564867D01*
X2019449Y13539455D01*
X1651778Y13413152D01*
X1332733Y13218024D01*
X1065709Y12956817D01*
X854103Y12632281D01*
X824798Y12572937D01*
X761969Y12432884D01*
X722521Y12316035D01*
X701108Y12194183D01*
X692380Y12039119D01*
X690940Y11866833D01*
X204000Y11866833D01*
X204000Y16646732D01*
X674801Y16646732D01*
X703913Y16305611D01*
X802887Y15974517D01*
X973462Y15664936D01*
X1120396Y15484053D01*
X1379845Y15244848D01*
X1647849Y15080530D01*
X1941926Y14983916D01*
X2279592Y14947824D01*
X2426500Y14948591D01*
X2633331Y14959496D01*
X2790205Y14982296D01*
X2931723Y15024528D01*
X3092182Y15093586D01*
X3409450Y15287938D01*
X3675126Y15547087D01*
X3881844Y15863632D01*
X3904503Y15909666D01*
X3964335Y16042657D01*
X4002526Y16154918D01*
X4023867Y16272843D01*
X4033150Y16422820D01*
X4034807Y16592552D01*
X5421431Y16592552D01*
X5467676Y16243067D01*
X5584311Y15911108D01*
X5764313Y15608529D01*
X6000655Y15347184D01*
X6286312Y15138926D01*
X6608442Y14997415D01*
X6841187Y14951761D01*
X7115513Y14939251D01*
X7395437Y14959089D01*
X7644973Y15010480D01*
X7678197Y15021077D01*
X7994208Y15170238D01*
X8279964Y15388132D01*
X8512790Y15655813D01*
X8689224Y15977187D01*
X8789077Y16316359D01*
X8812563Y16625390D01*
X10163082Y16625390D01*
X10175323Y16464136D01*
X10187282Y16385227D01*
X10289784Y16009714D01*
X10462781Y15676650D01*
X10700579Y15392987D01*
X10997487Y15165672D01*
X11309255Y15015486D01*
X11447039Y14973461D01*
X11594587Y14950878D01*
X11780031Y14944672D01*
X11930334Y14947837D01*
X12137567Y14958468D01*
X12291513Y14978450D01*
X12423512Y15014590D01*
X12564905Y15073696D01*
X12611440Y15095766D01*
X12910885Y15283698D01*
X13163127Y15529491D01*
X13361110Y15819674D01*
X13497780Y16140771D01*
X13566083Y16479309D01*
X13562849Y16634911D01*
X14957167Y16634911D01*
X14957167Y16629333D01*
X14959561Y16418110D01*
X14969616Y16265727D01*
X14991645Y16146427D01*
X15029958Y16034449D01*
X15072906Y15937780D01*
X15239450Y15638449D01*
X15435549Y15402208D01*
X15678709Y15212453D01*
X15986432Y15052583D01*
X16022484Y15037157D01*
X16154182Y14986759D01*
X16273402Y14957083D01*
X16408801Y14944140D01*
X16589037Y14943944D01*
X16675005Y14946375D01*
X16880381Y14956386D01*
X17031678Y14975101D01*
X17159464Y15009236D01*
X17294302Y15065509D01*
X17359056Y15096705D01*
X17675839Y15295546D01*
X17930808Y15543231D01*
X18122618Y15829340D01*
X18249922Y16143455D01*
X18311376Y16475158D01*
X18309122Y16608166D01*
X19700236Y16608166D01*
X19702775Y16399878D01*
X19714151Y16249043D01*
X19738939Y16128556D01*
X19781714Y16011312D01*
X19812518Y15942768D01*
X19950428Y15709322D01*
X20137126Y15478365D01*
X20347198Y15278264D01*
X20513486Y15160352D01*
X20730855Y15048956D01*
X20940441Y14981339D01*
X21172741Y14950489D01*
X21434167Y14948591D01*
X21642389Y14959681D01*
X21800254Y14982804D01*
X21941937Y15025281D01*
X22090455Y15089190D01*
X22402737Y15280681D01*
X22670312Y15536449D01*
X22878123Y15841467D01*
X22912370Y15909545D01*
X22972128Y16042671D01*
X23010266Y16155115D01*
X23031572Y16273288D01*
X23040832Y16423602D01*
X23042834Y16629333D01*
X24439834Y16629333D01*
X24442633Y16429362D01*
X24454958Y16283854D01*
X24482702Y16162685D01*
X24531756Y16035730D01*
X24573798Y15944396D01*
X24774419Y15608690D01*
X25027251Y15332248D01*
X25324752Y15121926D01*
X25616109Y14997415D01*
X25848854Y14951761D01*
X26123180Y14939251D01*
X26403103Y14959089D01*
X26652640Y15010480D01*
X26685864Y15021077D01*
X26996909Y15167872D01*
X27276871Y15380553D01*
X27510927Y15643800D01*
X27684250Y15942295D01*
X27749577Y16120234D01*
X27817246Y16490340D01*
X27816539Y16516617D01*
X29184762Y16516617D01*
X29235904Y16195908D01*
X29347105Y15888617D01*
X29517887Y15604678D01*
X29747774Y15354026D01*
X30036290Y15146595D01*
X30316921Y15015486D01*
X30549361Y14960039D01*
X30826166Y14940963D01*
X31115917Y14956875D01*
X31387196Y15006395D01*
X31573000Y15070732D01*
X31875365Y15251868D01*
X32133175Y15491464D01*
X32339145Y15776078D01*
X32485992Y16092270D01*
X32566431Y16426600D01*
X32570045Y16608166D01*
X33964983Y16608166D01*
X33966754Y16397049D01*
X33974630Y16247187D01*
X33992691Y16135193D01*
X34025024Y16037678D01*
X34075709Y15931257D01*
X34086931Y15909666D01*
X34261065Y15618980D01*
X34452102Y15393883D01*
X34680578Y15215378D01*
X34967032Y15064465D01*
X35030151Y15037157D01*
X35162240Y14986608D01*
X35281533Y14956988D01*
X35416921Y14944283D01*
X35597295Y14944477D01*
X35679334Y14946949D01*
X35899016Y14959328D01*
X36064470Y14982797D01*
X36205971Y15023251D01*
X36323565Y15072402D01*
X36556202Y15208687D01*
X36785227Y15393104D01*
X36982195Y15600350D01*
X37092008Y15755947D01*
X37240618Y16089056D01*
X37314378Y16442807D01*
X37314073Y16802511D01*
X37240488Y17153481D01*
X37094409Y17481028D01*
X36991545Y17635255D01*
X36735943Y17906883D01*
X36430872Y18117388D01*
X36129244Y18244647D01*
X35764795Y18314738D01*
X35404144Y18305387D01*
X35058429Y18221497D01*
X34738787Y18067973D01*
X34456355Y17849721D01*
X34222272Y17571645D01*
X34095498Y17349000D01*
X34037098Y17219736D01*
X33999255Y17110722D01*
X33977564Y16996946D01*
X33967618Y16853399D01*
X33965012Y16655069D01*
X33964983Y16608166D01*
X32570045Y16608166D01*
X32573180Y16765625D01*
X32556343Y16885298D01*
X32448200Y17266101D01*
X32275298Y17592446D01*
X32037162Y17864973D01*
X31733317Y18084324D01*
X31625347Y18141804D01*
X31471813Y18215302D01*
X31352187Y18261922D01*
X31237892Y18287760D01*
X31100347Y18298914D01*
X30910972Y18301479D01*
X30876696Y18301500D01*
X30672941Y18299203D01*
X30525700Y18288749D01*
X30406864Y18264793D01*
X30288327Y18221990D01*
X30165808Y18166324D01*
X29846597Y17973729D01*
X29590302Y17734945D01*
X29396447Y17459908D01*
X29264557Y17158551D01*
X29194154Y16840809D01*
X29184762Y16516617D01*
X27816539Y16516617D01*
X27807575Y16849776D01*
X27726808Y17189604D01*
X27581183Y17500885D01*
X27376944Y17774680D01*
X27120330Y18002051D01*
X26817584Y18174060D01*
X26474946Y18281768D01*
X26217834Y18313959D01*
X25832173Y18295072D01*
X25478706Y18199046D01*
X25162395Y18028910D01*
X24888199Y17787693D01*
X24661080Y17478423D01*
X24571178Y17308672D01*
X24507683Y17165955D01*
X24468618Y17045527D01*
X24448193Y16917439D01*
X24440620Y16751743D01*
X24439834Y16629333D01*
X23042834Y16629333D01*
X23040402Y16840939D01*
X23030272Y16993600D01*
X23008189Y17112970D01*
X22969896Y17224700D01*
X22928708Y17317362D01*
X22754091Y17603706D01*
X22518275Y17865631D01*
X22244726Y18079338D01*
X22093452Y18164439D01*
X21956432Y18227662D01*
X21842497Y18267423D01*
X21723857Y18289069D01*
X21572719Y18297948D01*
X21391834Y18299448D01*
X21076107Y18285399D01*
X20818439Y18237664D01*
X20595862Y18147117D01*
X20385408Y18004632D01*
X20181462Y17818538D01*
X19982847Y17598909D01*
X19844548Y17388346D01*
X19757437Y17163892D01*
X19712386Y16902585D01*
X19700236Y16608166D01*
X18309122Y16608166D01*
X18305633Y16814030D01*
X18231348Y17149651D01*
X18087176Y17471603D01*
X17871770Y17769468D01*
X17723472Y17918330D01*
X17500718Y18089767D01*
X17266965Y18205648D01*
X17001296Y18273134D01*
X16682789Y18299382D01*
X16607235Y18300325D01*
X16405319Y18298745D01*
X16260596Y18289168D01*
X16145638Y18266333D01*
X16033016Y18224980D01*
X15908287Y18166253D01*
X15589131Y17964888D01*
X15319701Y17704184D01*
X15113709Y17397824D01*
X15089237Y17349000D01*
X15028870Y17216495D01*
X14990304Y17105126D01*
X14968716Y16988600D01*
X14959278Y16840626D01*
X14957167Y16634911D01*
X13562849Y16634911D01*
X13558964Y16821814D01*
X13548598Y16885716D01*
X13440437Y17266406D01*
X13267442Y17592720D01*
X13029173Y17865249D01*
X12725190Y18084585D01*
X12617681Y18141804D01*
X12464146Y18215302D01*
X12344521Y18261922D01*
X12230225Y18287760D01*
X12092680Y18298914D01*
X11903306Y18301479D01*
X11869029Y18301500D01*
X11660999Y18298761D01*
X11510436Y18287436D01*
X11390233Y18262859D01*
X11273281Y18220365D01*
X11196447Y18185761D01*
X10854678Y17985531D01*
X10582109Y17736827D01*
X10377433Y17438047D01*
X10239340Y17087588D01*
X10212610Y16980797D01*
X10174924Y16783795D01*
X10163082Y16625390D01*
X8812563Y16625390D01*
X8815367Y16662271D01*
X8771111Y17003869D01*
X8659327Y17330095D01*
X8483033Y17629893D01*
X8245247Y17892207D01*
X7948985Y18105982D01*
X7826614Y18169870D01*
X7688403Y18231707D01*
X7572067Y18270511D01*
X7449527Y18291554D01*
X7292705Y18300108D01*
X7125500Y18301500D01*
X6921945Y18299142D01*
X6774790Y18288500D01*
X6655817Y18264220D01*
X6536810Y18220948D01*
X6419397Y18167535D01*
X6085120Y17966075D01*
X5814560Y17710160D01*
X5610657Y17403495D01*
X5476346Y17049787D01*
X5452601Y16947711D01*
X5421431Y16592552D01*
X4034807Y16592552D01*
X4035167Y16629333D01*
X4032736Y16840939D01*
X4022606Y16993600D01*
X4000522Y17112970D01*
X3962229Y17224700D01*
X3921041Y17317362D01*
X3750700Y17597307D01*
X3520380Y17856080D01*
X3254228Y18069036D01*
X3094299Y18161186D01*
X2774654Y18273917D01*
X2427649Y18318585D01*
X2075131Y18296030D01*
X1738948Y18207087D01*
X1516334Y18100680D01*
X1222209Y17881736D01*
X989255Y17615382D01*
X819210Y17313105D01*
X713813Y16986393D01*
X674801Y16646732D01*
X204000Y16646732D01*
X204000Y21518345D01*
X679198Y21518345D01*
X687000Y21157565D01*
X747686Y20878423D01*
X891127Y20548789D01*
X1102123Y20254234D01*
X1367663Y20008145D01*
X1674735Y19823906D01*
X1833834Y19761116D01*
X2122702Y19700699D01*
X2444978Y19691321D01*
X2767403Y19731825D01*
X3010047Y19802014D01*
X3271256Y19940513D01*
X3521527Y20142945D01*
X3739666Y20389202D01*
X3896834Y20643392D01*
X3959655Y20776853D01*
X3999918Y20886884D01*
X4022602Y20999629D01*
X4032686Y21141229D01*
X4035147Y21337826D01*
X4035167Y21369776D01*
X4033877Y21484399D01*
X5425019Y21484399D01*
X5439394Y21129176D01*
X5453267Y21052289D01*
X5568996Y20683029D01*
X5752563Y20364117D01*
X6002741Y20096925D01*
X6318303Y19882823D01*
X6616947Y19750711D01*
X6880811Y19692060D01*
X7180970Y19683780D01*
X7487377Y19723638D01*
X7769984Y19809401D01*
X7841495Y19841700D01*
X8160828Y20040886D01*
X8416795Y20286106D01*
X8609435Y20567284D01*
X8738788Y20874347D01*
X8804895Y21197221D01*
X8807561Y21499335D01*
X10175731Y21499335D01*
X10189467Y21143996D01*
X10193167Y21121121D01*
X10292402Y20763321D01*
X10458646Y20438697D01*
X10682900Y20159977D01*
X10956167Y19939888D01*
X11076695Y19871366D01*
X11289472Y19775474D01*
X11486338Y19718202D01*
X11700305Y19692864D01*
X11959478Y19692609D01*
X12153199Y19704167D01*
X12303748Y19730154D01*
X12450174Y19780477D01*
X12623463Y19861053D01*
X12945847Y20063699D01*
X13203480Y20320860D01*
X13396167Y20632275D01*
X13523715Y20997683D01*
X13548598Y21114284D01*
X13564952Y21370666D01*
X14957167Y21370666D01*
X14959614Y21158897D01*
X14969776Y21006115D01*
X14991884Y20886714D01*
X15030171Y20775086D01*
X15070623Y20684102D01*
X15194053Y20473148D01*
X15361304Y20257547D01*
X15548005Y20065391D01*
X15728899Y19925318D01*
X16040676Y19779811D01*
X16386630Y19700132D01*
X16744785Y19688741D01*
X17093165Y19748100D01*
X17151550Y19765966D01*
X17485570Y19916280D01*
X17767328Y20124254D01*
X17994031Y20379206D01*
X18162883Y20670457D01*
X18271090Y20987324D01*
X18302236Y21218181D01*
X19688157Y21218181D01*
X19754616Y20886858D01*
X19888531Y20569212D01*
X20090883Y20275646D01*
X20362654Y20016563D01*
X20376845Y20005643D01*
X20671495Y19832388D01*
X21004629Y19725168D01*
X21359212Y19686098D01*
X21718209Y19717292D01*
X22017714Y19802014D01*
X22278922Y19940513D01*
X22529193Y20142945D01*
X22747332Y20389202D01*
X22904501Y20643392D01*
X22967322Y20776853D01*
X23007585Y20886884D01*
X23030269Y20999629D01*
X23040352Y21141229D01*
X23042814Y21337826D01*
X23042834Y21369776D01*
X23041668Y21491628D01*
X24427554Y21491628D01*
X24440750Y21139082D01*
X24476213Y20968500D01*
X24612846Y20604392D01*
X24813740Y20295213D01*
X25079299Y20040536D01*
X25409926Y19839934D01*
X25624614Y19750711D01*
X25890207Y19691720D01*
X26191832Y19683829D01*
X26499770Y19724793D01*
X26784303Y19812370D01*
X26852616Y19843401D01*
X27167268Y20041692D01*
X27424068Y20291931D01*
X27619847Y20583032D01*
X27751433Y20903911D01*
X27815657Y21243482D01*
X27810833Y21509030D01*
X29180766Y21509030D01*
X29189188Y21158856D01*
X29197300Y21107556D01*
X29300090Y20752361D01*
X29472269Y20430102D01*
X29704068Y20151498D01*
X29985713Y19927266D01*
X30307435Y19768123D01*
X30461578Y19720876D01*
X30702321Y19687574D01*
X30979236Y19691245D01*
X31256291Y19728699D01*
X31497457Y19796746D01*
X31544886Y19816767D01*
X31882465Y20010491D01*
X32152748Y20253469D01*
X32360860Y20551097D01*
X32471268Y20792141D01*
X32559262Y21137330D01*
X32566703Y21391833D01*
X33964958Y21391833D01*
X33967008Y21176516D01*
X33975905Y21021467D01*
X33995561Y20902338D01*
X34029890Y20794781D01*
X34078959Y20682638D01*
X34250926Y20399519D01*
X34481073Y20143893D01*
X34750809Y19931396D01*
X35041543Y19777661D01*
X35225581Y19718381D01*
X35494363Y19683583D01*
X35791652Y19691915D01*
X36074415Y19741223D01*
X36153408Y19764832D01*
X36494531Y19916343D01*
X36777325Y20124320D01*
X37009526Y20395762D01*
X37177511Y20691328D01*
X37240753Y20833703D01*
X37279606Y20953547D01*
X37299786Y21080730D01*
X37307010Y21245122D01*
X37307511Y21370666D01*
X37301607Y21597136D01*
X37282129Y21770148D01*
X37244396Y21920444D01*
X37208982Y22017714D01*
X37065933Y22281620D01*
X36859650Y22533848D01*
X36610953Y22752540D01*
X36364274Y22904500D01*
X36234467Y22965850D01*
X36127548Y23005735D01*
X36018736Y23028724D01*
X35883251Y23039386D01*
X35696311Y23042290D01*
X35616724Y23042322D01*
X35404577Y23040315D01*
X35252949Y23032041D01*
X35137715Y23013300D01*
X35034752Y22979887D01*
X34919936Y22927603D01*
X34899085Y22917320D01*
X34632770Y22748195D01*
X34384188Y22522259D01*
X34178829Y22264992D01*
X34086383Y22105004D01*
X34031966Y21986839D01*
X33996728Y21883038D01*
X33976559Y21769452D01*
X33967346Y21621928D01*
X33964977Y21416317D01*
X33964958Y21391833D01*
X32566703Y21391833D01*
X32569523Y21488259D01*
X32507084Y21832830D01*
X32376977Y22158944D01*
X32184234Y22454501D01*
X31933889Y22707405D01*
X31630975Y22905555D01*
X31582232Y22929377D01*
X31463826Y22980781D01*
X31356238Y23013930D01*
X31235154Y23032722D01*
X31076259Y23041054D01*
X30874500Y23042833D01*
X30662370Y23041035D01*
X30510574Y23032839D01*
X30394811Y23014045D01*
X30290776Y22980451D01*
X30174167Y22927857D01*
X30154834Y22918434D01*
X29846703Y22724015D01*
X29588579Y22473285D01*
X29387114Y22178825D01*
X29248959Y21853213D01*
X29180766Y21509030D01*
X27810833Y21509030D01*
X27809349Y21590660D01*
X27729339Y21934361D01*
X27572457Y22263499D01*
X27553362Y22293727D01*
X27343391Y22563324D01*
X27091706Y22777115D01*
X26831667Y22927860D01*
X26719000Y22979587D01*
X26616951Y23013055D01*
X26501836Y23032156D01*
X26349971Y23040784D01*
X26137672Y23042833D01*
X26132277Y23042833D01*
X25922132Y23041283D01*
X25771820Y23033566D01*
X25656524Y23015084D01*
X25551423Y22981239D01*
X25431700Y22927434D01*
X25384175Y22904229D01*
X25075237Y22708330D01*
X24819486Y22457139D01*
X24622542Y22162638D01*
X24490024Y21836807D01*
X24427554Y21491628D01*
X23041668Y21491628D01*
X23040848Y21577294D01*
X23031627Y21726734D01*
X23010275Y21844656D01*
X22971898Y21957617D01*
X22911600Y22092175D01*
X22908451Y22098830D01*
X22710221Y22421633D01*
X22449961Y22687647D01*
X22132450Y22892095D01*
X22098830Y22908450D01*
X21962588Y22969862D01*
X21849106Y23009092D01*
X21731766Y23031056D01*
X21583946Y23040665D01*
X21379026Y23042832D01*
X21370667Y23042833D01*
X21163327Y23040833D01*
X21014328Y23031617D01*
X20897377Y23010360D01*
X20786183Y22972236D01*
X20654454Y22912420D01*
X20651000Y22910763D01*
X20333340Y22715843D01*
X20077246Y22472181D01*
X19883699Y22190181D01*
X19753680Y21880245D01*
X19688172Y21552777D01*
X19688157Y21218181D01*
X18302236Y21218181D01*
X18315856Y21319126D01*
X18294386Y21655182D01*
X18203886Y21984811D01*
X18041561Y22297331D01*
X17870712Y22514381D01*
X17585917Y22767264D01*
X17356608Y22904500D01*
X17226682Y22965882D01*
X17119540Y23005804D01*
X17010374Y23028857D01*
X16874378Y23039632D01*
X16686744Y23042719D01*
X16609057Y23042833D01*
X16400186Y23041427D01*
X16251860Y23034144D01*
X16139968Y23016393D01*
X16040396Y22983579D01*
X15929034Y22931109D01*
X15874437Y22902884D01*
X15549083Y22688189D01*
X15286374Y22417287D01*
X15091550Y22098830D01*
X15030138Y21962587D01*
X14990908Y21849106D01*
X14968944Y21731766D01*
X14959335Y21583946D01*
X14957168Y21379025D01*
X14957167Y21370666D01*
X13564952Y21370666D01*
X13570231Y21453411D01*
X13515370Y21792276D01*
X13391173Y22117541D01*
X13204799Y22415869D01*
X12963404Y22673920D01*
X12674146Y22878358D01*
X12574565Y22929377D01*
X12456160Y22980781D01*
X12348572Y23013930D01*
X12227487Y23032722D01*
X12068592Y23041054D01*
X11866834Y23042833D01*
X11654703Y23041035D01*
X11502907Y23032839D01*
X11387144Y23014045D01*
X11283109Y22980451D01*
X11166501Y22927857D01*
X11147167Y22918434D01*
X10835317Y22722079D01*
X10575912Y22470057D01*
X10375290Y22174301D01*
X10239784Y21846748D01*
X10175731Y21499335D01*
X8807561Y21499335D01*
X8807795Y21525831D01*
X8747529Y21850103D01*
X8624135Y22159963D01*
X8437656Y22445337D01*
X8188129Y22696151D01*
X7875596Y22902329D01*
X7829249Y22925866D01*
X7714591Y22978431D01*
X7611829Y23012451D01*
X7497111Y23031885D01*
X7346590Y23040692D01*
X7136416Y23042830D01*
X7124610Y23042833D01*
X6914289Y23041263D01*
X6763861Y23033512D01*
X6648565Y23015023D01*
X6543642Y22981237D01*
X6424335Y22927595D01*
X6379332Y22905619D01*
X6072380Y22710193D01*
X5817252Y22457908D01*
X5620169Y22161214D01*
X5487351Y21832562D01*
X5425019Y21484399D01*
X4033877Y21484399D01*
X4032788Y21581155D01*
X4022786Y21733633D01*
X4000866Y21852909D01*
X3962733Y21964686D01*
X3919428Y22062219D01*
X3719822Y22400842D01*
X3468947Y22672400D01*
X3164854Y22878651D01*
X2879391Y22998651D01*
X2612624Y23053296D01*
X2310296Y23062687D01*
X2006447Y23028817D01*
X1735116Y22953684D01*
X1674972Y22928044D01*
X1354316Y22735071D01*
X1089470Y22486692D01*
X885374Y22193830D01*
X746970Y21867408D01*
X679198Y21518345D01*
X204000Y21518345D01*
X204000Y26130971D01*
X690834Y26130971D01*
X692643Y25931466D01*
X702136Y25788033D01*
X725410Y25672092D01*
X768559Y25555065D01*
X837682Y25408371D01*
X850529Y25382319D01*
X1053240Y25060838D01*
X1308814Y24800096D01*
X1607792Y24604756D01*
X1940716Y24479481D01*
X2298127Y24428933D01*
X2670565Y24457776D01*
X2710166Y24465602D01*
X3055618Y24579982D01*
X3370744Y24767673D01*
X3643907Y25019406D01*
X3863466Y25325911D01*
X3916834Y25426530D01*
X3970013Y25542323D01*
X4004421Y25645421D01*
X4024073Y25759798D01*
X4032981Y25909427D01*
X4034531Y26057874D01*
X5421677Y26057874D01*
X5470928Y25731970D01*
X5602617Y25375474D01*
X5796842Y25068305D01*
X6044012Y24815454D01*
X6334534Y24621912D01*
X6658813Y24492669D01*
X7007258Y24432717D01*
X7370275Y24447047D01*
X7738272Y24540649D01*
X7751381Y24545519D01*
X8048248Y24700471D01*
X8308489Y24921389D01*
X8523720Y25194420D01*
X8685558Y25505711D01*
X8785619Y25841412D01*
X8803555Y26049123D01*
X10170011Y26049123D01*
X10225361Y25710878D01*
X10349852Y25388631D01*
X10535887Y25094126D01*
X10775869Y24839110D01*
X11062201Y24635327D01*
X11387287Y24494522D01*
X11425778Y24483188D01*
X11670646Y24442164D01*
X11952106Y24438017D01*
X12231290Y24469234D01*
X12438334Y24522640D01*
X12764603Y24680426D01*
X13041361Y24897792D01*
X13264435Y25163425D01*
X13429652Y25466012D01*
X13532836Y25794238D01*
X13569423Y26133166D01*
X14957167Y26133166D01*
X14959294Y25917647D01*
X14968276Y25762429D01*
X14988009Y25643199D01*
X15022391Y25535643D01*
X15070623Y25425435D01*
X15248104Y25135177D01*
X15486565Y24874727D01*
X15762540Y24668793D01*
X15819952Y24636440D01*
X16145180Y24495159D01*
X16460466Y24428992D01*
X16787919Y24434686D01*
X16976500Y24466265D01*
X17326068Y24582522D01*
X17639944Y24771524D01*
X17908386Y25025426D01*
X18121651Y25336380D01*
X18166324Y25424475D01*
X18229599Y25565244D01*
X18269312Y25681948D01*
X18290813Y25802804D01*
X18299451Y25956029D01*
X18300659Y26130971D01*
X19698500Y26130971D01*
X19700310Y25931466D01*
X19709803Y25788033D01*
X19733076Y25672092D01*
X19776226Y25555065D01*
X19845348Y25408371D01*
X19858196Y25382319D01*
X20060907Y25060838D01*
X20316481Y24800096D01*
X20615459Y24604756D01*
X20948383Y24479481D01*
X21305793Y24428933D01*
X21678232Y24457776D01*
X21717833Y24465602D01*
X22062780Y24579805D01*
X22377388Y24766866D01*
X22649276Y25016903D01*
X22866063Y25320032D01*
X22921726Y25426530D01*
X23011541Y25690043D01*
X23057045Y25994340D01*
X23056937Y26070458D01*
X24429740Y26070458D01*
X24479854Y25717904D01*
X24606634Y25372553D01*
X24801274Y25065958D01*
X25053078Y24812143D01*
X25349715Y24617055D01*
X25678851Y24486636D01*
X26028153Y24426832D01*
X26385287Y24443587D01*
X26491211Y24464224D01*
X26840769Y24586929D01*
X27153294Y24781285D01*
X27419719Y25039029D01*
X27630977Y25351898D01*
X27743377Y25605387D01*
X27787707Y25796850D01*
X27808048Y26029994D01*
X29178285Y26029994D01*
X29238122Y25686150D01*
X29371438Y25356557D01*
X29573226Y25055361D01*
X29718653Y24900207D01*
X29906080Y24735878D01*
X30076579Y24621319D01*
X30262730Y24537613D01*
X30439743Y24481577D01*
X30676211Y24442067D01*
X30950763Y24437711D01*
X31225188Y24466950D01*
X31446000Y24522640D01*
X31758404Y24676252D01*
X32041154Y24898062D01*
X32278630Y25172769D01*
X32455207Y25485074D01*
X32473275Y25528645D01*
X32524332Y25689151D01*
X32552571Y25868762D01*
X32562463Y26097743D01*
X32562635Y26133166D01*
X32560384Y26279811D01*
X33947225Y26279811D01*
X33953076Y25977217D01*
X33997319Y25684099D01*
X34077029Y25434087D01*
X34081308Y25424597D01*
X34252500Y25140161D01*
X34485313Y24882825D01*
X34756746Y24676877D01*
X34827618Y24636440D01*
X35152846Y24495159D01*
X35468133Y24428992D01*
X35795586Y24434686D01*
X35984166Y24466265D01*
X36330722Y24580461D01*
X36635885Y24761133D01*
X36893247Y24997820D01*
X37096396Y25280058D01*
X37238923Y25597386D01*
X37314418Y25939340D01*
X37316471Y26295458D01*
X37267298Y26560630D01*
X37133889Y26906011D01*
X36940336Y27201839D01*
X36696993Y27444653D01*
X36414215Y27630994D01*
X36102355Y27757402D01*
X35771769Y27820417D01*
X35432811Y27816580D01*
X35095835Y27742431D01*
X34771195Y27594510D01*
X34575390Y27460087D01*
X34375095Y27266902D01*
X34196545Y27030181D01*
X34058202Y26778018D01*
X33982692Y26558251D01*
X33947225Y26279811D01*
X32560384Y26279811D01*
X32559619Y26329571D01*
X32545260Y26475038D01*
X32512678Y26603180D01*
X32454990Y26747608D01*
X32421853Y26820704D01*
X32236229Y27131719D01*
X31994752Y27394153D01*
X31709711Y27601262D01*
X31393394Y27746307D01*
X31058090Y27822545D01*
X30716088Y27823235D01*
X30620525Y27808921D01*
X30246290Y27699375D01*
X29916827Y27521022D01*
X29638778Y27280558D01*
X29418788Y26984680D01*
X29263499Y26640084D01*
X29196935Y26373943D01*
X29178285Y26029994D01*
X27808048Y26029994D01*
X27808535Y26035567D01*
X27805862Y26287450D01*
X27779688Y26518412D01*
X27743377Y26660946D01*
X27581079Y27000114D01*
X27360342Y27289843D01*
X27091394Y27523889D01*
X26784463Y27696007D01*
X26449774Y27799951D01*
X26097557Y27829478D01*
X25867448Y27806399D01*
X25505368Y27704263D01*
X25187202Y27537453D01*
X24917940Y27315602D01*
X24702572Y27048343D01*
X24546089Y26745311D01*
X24453482Y26416138D01*
X24429740Y26070458D01*
X23056937Y26070458D01*
X23056600Y26307072D01*
X23008563Y26595893D01*
X22984923Y26672200D01*
X22822641Y27016395D01*
X22601336Y27306765D01*
X22330350Y27537968D01*
X22019024Y27704662D01*
X21676701Y27801504D01*
X21312722Y27823151D01*
X21034579Y27787546D01*
X20670360Y27674606D01*
X20359915Y27497493D01*
X20099686Y27253380D01*
X19886115Y26939443D01*
X19830823Y26831666D01*
X19768955Y26695628D01*
X19730018Y26581302D01*
X19708786Y26461015D01*
X19700033Y26307095D01*
X19698500Y26130971D01*
X18300659Y26130971D01*
X18300675Y26133166D01*
X18289579Y26409560D01*
X18250915Y26633450D01*
X18174789Y26835132D01*
X18051309Y27044903D01*
X17961328Y27172385D01*
X17731874Y27417051D01*
X17447886Y27611961D01*
X17127881Y27749554D01*
X16790377Y27822267D01*
X16453894Y27822537D01*
X16390954Y27813667D01*
X16020249Y27711671D01*
X15686069Y27538373D01*
X15398402Y27301104D01*
X15167237Y27007193D01*
X15081566Y26852833D01*
X15025878Y26732396D01*
X14989798Y26628047D01*
X14969124Y26515482D01*
X14959655Y26370397D01*
X14957192Y26168491D01*
X14957167Y26133166D01*
X13569423Y26133166D01*
X13569815Y26136790D01*
X13536415Y26482355D01*
X13428463Y26819619D01*
X13345369Y26981357D01*
X13213403Y27161737D01*
X13032795Y27350065D01*
X12831227Y27520944D01*
X12636377Y27648977D01*
X12594899Y27669940D01*
X12249215Y27789153D01*
X11900159Y27829943D01*
X11557530Y27797520D01*
X11231126Y27697096D01*
X10930748Y27533883D01*
X10666194Y27313092D01*
X10447263Y27039937D01*
X10283755Y26719627D01*
X10191399Y26391621D01*
X10170011Y26049123D01*
X8803555Y26049123D01*
X8815520Y26187669D01*
X8809359Y26293651D01*
X8736600Y26646902D01*
X8593743Y26968312D01*
X8390675Y27250212D01*
X8137280Y27484930D01*
X7843444Y27664796D01*
X7519053Y27782139D01*
X7173992Y27829289D01*
X6859781Y27806399D01*
X6502453Y27705040D01*
X6184941Y27538057D01*
X5913734Y27315137D01*
X5695317Y27045970D01*
X5536177Y26740245D01*
X5442802Y26407650D01*
X5421677Y26057874D01*
X4034531Y26057874D01*
X4035162Y26118280D01*
X4035167Y26133166D01*
X4033368Y26345297D01*
X4025173Y26497093D01*
X4006378Y26612856D01*
X3972784Y26716891D01*
X3920190Y26833499D01*
X3910767Y26852833D01*
X3812225Y27019264D01*
X3680252Y27198215D01*
X3562290Y27331072D01*
X3276121Y27562443D01*
X2961617Y27720698D01*
X2629626Y27807770D01*
X2291001Y27825594D01*
X1956592Y27776106D01*
X1637251Y27661239D01*
X1343828Y27482928D01*
X1087174Y27243109D01*
X878140Y26943716D01*
X826693Y26843319D01*
X763214Y26702147D01*
X723259Y26585110D01*
X701460Y26464063D01*
X692449Y26310859D01*
X690834Y26130971D01*
X204000Y26130971D01*
X204000Y30876695D01*
X690834Y30876695D01*
X693144Y30672817D01*
X703620Y30525497D01*
X727579Y30406673D01*
X770338Y30288285D01*
X825216Y30167503D01*
X1021814Y29845139D01*
X1272727Y29581623D01*
X1567632Y29381121D01*
X1896206Y29247797D01*
X2248125Y29185818D01*
X2613065Y29199347D01*
X2980703Y29292552D01*
X2987505Y29295068D01*
X3297492Y29454155D01*
X3571496Y29681905D01*
X3797611Y29965809D01*
X3963931Y30293358D01*
X3980446Y30338227D01*
X4047075Y30635346D01*
X4049452Y30716907D01*
X5427136Y30716907D01*
X5499609Y30368407D01*
X5648382Y30039886D01*
X5866436Y29748193D01*
X6148937Y29494422D01*
X6459000Y29317212D01*
X6765667Y29218950D01*
X6926920Y29184625D01*
X7042076Y29168417D01*
X7147499Y29169239D01*
X7279551Y29186007D01*
X7371913Y29200847D01*
X7733905Y29298536D01*
X8049449Y29459278D01*
X8315249Y29673309D01*
X8528006Y29930865D01*
X8684424Y30222184D01*
X8781204Y30537503D01*
X8815050Y30867057D01*
X8812134Y30897134D01*
X10171516Y30897134D01*
X10200054Y30574390D01*
X10290225Y30264003D01*
X10438694Y29974887D01*
X10642130Y29715956D01*
X10897197Y29496122D01*
X11200563Y29324301D01*
X11548894Y29209405D01*
X11850472Y29164979D01*
X11929282Y29169744D01*
X12056498Y29187372D01*
X12143708Y29202657D01*
X12497661Y29308857D01*
X12813404Y29480250D01*
X13083837Y29706929D01*
X13301862Y29978985D01*
X13460379Y30286512D01*
X13552290Y30619601D01*
X13565641Y30875390D01*
X14957167Y30875390D01*
X14958955Y30663085D01*
X14967109Y30511166D01*
X14985818Y30395379D01*
X15019267Y30291473D01*
X15071645Y30175195D01*
X15081566Y30154833D01*
X15267510Y29861680D01*
X15513120Y29605171D01*
X15801239Y29398516D01*
X16114711Y29254924D01*
X16318204Y29202663D01*
X16618718Y29182501D01*
X16942613Y29216950D01*
X17212466Y29288049D01*
X17534061Y29444461D01*
X17816335Y29673233D01*
X18053892Y29969154D01*
X18207404Y30249177D01*
X18253428Y30367247D01*
X18281788Y30493155D01*
X18296272Y30652285D01*
X18300665Y30870023D01*
X18300675Y30874500D01*
X18299584Y30989546D01*
X19680756Y30989546D01*
X19694424Y30635314D01*
X19785318Y30284161D01*
X19835423Y30165582D01*
X20030731Y29841093D01*
X20279828Y29577433D01*
X20573944Y29378383D01*
X20904306Y29247722D01*
X21262145Y29189230D01*
X21638688Y29206687D01*
X21916951Y29268552D01*
X22212794Y29398244D01*
X22485236Y29598120D01*
X22720299Y29854223D01*
X22904007Y30152598D01*
X22977249Y30327276D01*
X23049151Y30636308D01*
X23052429Y30716907D01*
X24434803Y30716907D01*
X24507276Y30368407D01*
X24656049Y30039886D01*
X24874102Y29748193D01*
X25156603Y29494422D01*
X25466667Y29317212D01*
X25773334Y29218950D01*
X25934586Y29184625D01*
X26049743Y29168417D01*
X26155165Y29169239D01*
X26287218Y29186007D01*
X26379579Y29200847D01*
X26741185Y29298493D01*
X27056445Y29459239D01*
X27322054Y29673306D01*
X27534712Y29930915D01*
X27691115Y30222287D01*
X27787961Y30537645D01*
X27815236Y30802145D01*
X29179146Y30802145D01*
X29241789Y30434875D01*
X29346042Y30152678D01*
X29520375Y29867063D01*
X29759365Y29613706D01*
X30044973Y29406702D01*
X30359159Y29260147D01*
X30557000Y29206480D01*
X30734850Y29175962D01*
X30873200Y29166917D01*
X31014380Y29179073D01*
X31151375Y29202657D01*
X31510901Y29310921D01*
X31830377Y29486372D01*
X32102434Y29719541D01*
X32319703Y30000962D01*
X32474815Y30321165D01*
X32560401Y30670683D01*
X32566085Y30875390D01*
X33964834Y30875390D01*
X33966617Y30663131D01*
X33974759Y30511266D01*
X33993451Y30395549D01*
X34026883Y30291734D01*
X34079245Y30175577D01*
X34089362Y30154833D01*
X34289754Y29836400D01*
X34544584Y29575842D01*
X34843028Y29377697D01*
X35174260Y29246505D01*
X35527454Y29186806D01*
X35891786Y29203138D01*
X36187334Y29275121D01*
X36476149Y29410043D01*
X36747091Y29605489D01*
X36969294Y29838616D01*
X36994363Y29872411D01*
X37179657Y30197194D01*
X37288007Y30536295D01*
X37323294Y30879720D01*
X37289403Y31217475D01*
X37190216Y31539566D01*
X37029615Y31836000D01*
X36811483Y32096781D01*
X36539702Y32311917D01*
X36218157Y32471413D01*
X35955378Y32546733D01*
X35600267Y32578595D01*
X35249513Y32532398D01*
X34915563Y32414364D01*
X34610868Y32230713D01*
X34347877Y31987666D01*
X34139040Y31691444D01*
X34102048Y31620668D01*
X34041131Y31491588D01*
X34001520Y31384774D01*
X33978657Y31275465D01*
X33967983Y31138904D01*
X33964940Y30950331D01*
X33964834Y30875390D01*
X32566085Y30875390D01*
X32570260Y31025710D01*
X32503071Y31373178D01*
X32362385Y31702308D01*
X32158289Y31995522D01*
X31900870Y32235243D01*
X31859112Y32264933D01*
X31627444Y32407036D01*
X31411256Y32497456D01*
X31178991Y32545697D01*
X30899091Y32561258D01*
X30874500Y32561374D01*
X30553152Y32543091D01*
X30284321Y32480508D01*
X30043328Y32364096D01*
X29805493Y32184324D01*
X29736952Y32122130D01*
X29478948Y31828121D01*
X29299078Y31505579D01*
X29198693Y31161316D01*
X29179146Y30802145D01*
X27815236Y30802145D01*
X27821946Y30867208D01*
X27789770Y31201199D01*
X27688127Y31529839D01*
X27513717Y31843350D01*
X27342736Y32052629D01*
X27067109Y32287302D01*
X26758859Y32451941D01*
X26429615Y32547744D01*
X26091008Y32575909D01*
X25754667Y32537632D01*
X25432221Y32434113D01*
X25135301Y32266549D01*
X24875535Y32036137D01*
X24684828Y31778873D01*
X24522615Y31432481D01*
X24439595Y31075046D01*
X24434803Y30716907D01*
X23052429Y30716907D01*
X23062663Y30968537D01*
X23019096Y31294494D01*
X22921476Y31581137D01*
X22725888Y31900265D01*
X22477580Y32162962D01*
X22187488Y32365276D01*
X21866547Y32503259D01*
X21525694Y32572960D01*
X21175863Y32570431D01*
X20827991Y32491721D01*
X20629834Y32408815D01*
X20317789Y32209793D01*
X20062831Y31956982D01*
X19868987Y31661754D01*
X19740286Y31335484D01*
X19680756Y30989546D01*
X18299584Y30989546D01*
X18298747Y31077772D01*
X18288546Y31224265D01*
X18264859Y31341814D01*
X18222473Y31458250D01*
X18169828Y31573000D01*
X17965600Y31911661D01*
X17709680Y32184158D01*
X17404478Y32388568D01*
X17052405Y32522971D01*
X16947711Y32547399D01*
X16591238Y32578632D01*
X16239556Y32531752D01*
X15905082Y32412966D01*
X15600230Y32228484D01*
X15337419Y31984513D01*
X15129064Y31687263D01*
X15094381Y31620668D01*
X15033464Y31491588D01*
X14993853Y31384774D01*
X14970990Y31275465D01*
X14960316Y31138904D01*
X14957273Y30950331D01*
X14957167Y30875390D01*
X13565641Y30875390D01*
X13570494Y30968344D01*
X13546929Y31161028D01*
X13442239Y31518583D01*
X13275810Y31830281D01*
X13057460Y32092719D01*
X12797006Y32302495D01*
X12504265Y32456210D01*
X12189055Y32550460D01*
X11861193Y32581845D01*
X11530496Y32546964D01*
X11206782Y32442415D01*
X10899869Y32264796D01*
X10740359Y32133409D01*
X10489032Y31850373D01*
X10312671Y31544039D01*
X10207944Y31223322D01*
X10171516Y30897134D01*
X8812134Y30897134D01*
X8782664Y31201084D01*
X8680749Y31529821D01*
X8506007Y31843504D01*
X8335070Y32052629D01*
X8059442Y32287302D01*
X7751192Y32451941D01*
X7421949Y32547744D01*
X7083342Y32575909D01*
X6747000Y32537632D01*
X6424555Y32434113D01*
X6127634Y32266549D01*
X5867868Y32036137D01*
X5677161Y31778873D01*
X5514949Y31432481D01*
X5431928Y31075046D01*
X5427136Y30716907D01*
X4049452Y30716907D01*
X4056627Y30963072D01*
X4011071Y31291333D01*
X3912375Y31590056D01*
X3896271Y31624085D01*
X3700000Y31936809D01*
X3456617Y32187385D01*
X3176511Y32375809D01*
X2870072Y32502078D01*
X2547692Y32566187D01*
X2219760Y32568130D01*
X1896669Y32507906D01*
X1588807Y32385507D01*
X1306565Y32200932D01*
X1060334Y31954175D01*
X860506Y31645231D01*
X850529Y31625347D01*
X777032Y31471812D01*
X730412Y31352187D01*
X704573Y31237892D01*
X693419Y31100347D01*
X690854Y30910972D01*
X690834Y30876695D01*
X204000Y30876695D01*
X204000Y35637890D01*
X690834Y35637890D01*
X692796Y35430589D01*
X701978Y35281289D01*
X723322Y35163355D01*
X761769Y35050153D01*
X822262Y34915048D01*
X826693Y34905680D01*
X1023941Y34581195D01*
X1274905Y34318227D01*
X1571499Y34120423D01*
X1905638Y33991428D01*
X2269239Y33934890D01*
X2654214Y33954453D01*
X2849834Y33993327D01*
X3150365Y34108996D01*
X3432975Y34297422D01*
X3681948Y34546725D01*
X3805479Y34715668D01*
X3969228Y35041918D01*
X4056032Y35384109D01*
X4069162Y35731094D01*
X4064257Y35760271D01*
X5425446Y35760271D01*
X5434419Y35418455D01*
X5514284Y35080379D01*
X5667023Y34756786D01*
X5881197Y34472822D01*
X6128542Y34244487D01*
X6391475Y34086410D01*
X6685550Y33992461D01*
X7026324Y33956507D01*
X7189000Y33957284D01*
X7402331Y33968228D01*
X7560620Y33989220D01*
X7693390Y34026118D01*
X7829249Y34084341D01*
X8147603Y34280668D01*
X8407623Y34529275D01*
X8606303Y34819236D01*
X8740638Y35139622D01*
X8807624Y35479508D01*
X8806879Y35556607D01*
X10171812Y35556607D01*
X10222684Y35218371D01*
X10340219Y34896966D01*
X10520882Y34602920D01*
X10761136Y34346755D01*
X11057446Y34138996D01*
X11309255Y34023153D01*
X11549751Y33965600D01*
X11833332Y33946600D01*
X12128448Y33964733D01*
X12403547Y34018580D01*
X12574565Y34080068D01*
X12875829Y34262135D01*
X13132292Y34502900D01*
X13336679Y34788820D01*
X13481715Y35106352D01*
X13560126Y35441953D01*
X13562712Y35637000D01*
X14957167Y35637000D01*
X14959561Y35425776D01*
X14969616Y35273394D01*
X14991645Y35154093D01*
X15029958Y35042116D01*
X15072906Y34945447D01*
X15239450Y34646116D01*
X15435549Y34409875D01*
X15678709Y34220120D01*
X15986432Y34060250D01*
X16022484Y34044824D01*
X16154182Y33994426D01*
X16273402Y33964749D01*
X16408801Y33951807D01*
X16589037Y33951611D01*
X16675005Y33954042D01*
X16880381Y33964053D01*
X17031678Y33982767D01*
X17159464Y34016903D01*
X17294302Y34073176D01*
X17359056Y34104371D01*
X17672890Y34303219D01*
X17930381Y34557112D01*
X18126595Y34854753D01*
X18256594Y35184843D01*
X18310039Y35503835D01*
X19688871Y35503835D01*
X19746567Y35150037D01*
X19872320Y34838475D01*
X20073356Y34552492D01*
X20127999Y34491788D01*
X20386008Y34253850D01*
X20652907Y34089927D01*
X20946315Y33992781D01*
X21283846Y33955175D01*
X21434167Y33955156D01*
X21637802Y33964539D01*
X21790858Y33985373D01*
X21927327Y34025040D01*
X22081198Y34090919D01*
X22099849Y34099705D01*
X22418367Y34296458D01*
X22684829Y34557535D01*
X22891424Y34875074D01*
X22912170Y34917333D01*
X22972002Y35050323D01*
X23010192Y35162585D01*
X23031533Y35280509D01*
X23040817Y35430486D01*
X23042834Y35637000D01*
X23042809Y35639195D01*
X24439834Y35639195D01*
X24442582Y35438868D01*
X24454714Y35293223D01*
X24482063Y35172347D01*
X24530459Y35046330D01*
X24573798Y34952063D01*
X24776744Y34613028D01*
X25033235Y34334710D01*
X25337095Y34122734D01*
X25616109Y34002743D01*
X25788149Y33969072D01*
X26028795Y33955473D01*
X26196667Y33957284D01*
X26410771Y33968326D01*
X26569641Y33989505D01*
X26702596Y34026592D01*
X26833245Y34082605D01*
X27163790Y34284661D01*
X27431237Y34539663D01*
X27631316Y34841025D01*
X27759760Y35182163D01*
X27807781Y35524284D01*
X29184762Y35524284D01*
X29235904Y35203575D01*
X29347105Y34896283D01*
X29517887Y34612345D01*
X29747774Y34361692D01*
X30036290Y34154261D01*
X30316921Y34023153D01*
X30557417Y33965600D01*
X30840999Y33946600D01*
X31136115Y33964733D01*
X31411214Y34018580D01*
X31582232Y34080068D01*
X31893256Y34268863D01*
X32157196Y34521374D01*
X32364946Y34825648D01*
X32507402Y35169731D01*
X32551144Y35352119D01*
X32570838Y35635628D01*
X33964834Y35635628D01*
X33972814Y35364183D01*
X34002315Y35149270D01*
X34061675Y34963788D01*
X34159234Y34780634D01*
X34283694Y34599332D01*
X34477294Y34381348D01*
X34715335Y34203145D01*
X35017244Y34050289D01*
X35030151Y34044824D01*
X35162240Y33994275D01*
X35281533Y33964655D01*
X35416921Y33951949D01*
X35597295Y33952143D01*
X35679334Y33954616D01*
X35899016Y33966995D01*
X36064470Y33990464D01*
X36205971Y34030918D01*
X36323565Y34080068D01*
X36640895Y34269648D01*
X36902988Y34513910D01*
X37105625Y34801613D01*
X37244587Y35121520D01*
X37315656Y35462390D01*
X37314612Y35812985D01*
X37237237Y36162064D01*
X37168857Y36331989D01*
X36977530Y36652169D01*
X36738883Y36910557D01*
X36463092Y37107069D01*
X36160330Y37241625D01*
X35840772Y37314142D01*
X35514593Y37324540D01*
X35191968Y37272736D01*
X34883070Y37158648D01*
X34598076Y36982196D01*
X34347159Y36743296D01*
X34140494Y36441868D01*
X34096903Y36356666D01*
X34036633Y36224409D01*
X33998089Y36113252D01*
X33976474Y35996998D01*
X33966989Y35849447D01*
X33964835Y35644402D01*
X33964834Y35635628D01*
X32570838Y35635628D01*
X32576067Y35710903D01*
X32522193Y36060579D01*
X32395369Y36390141D01*
X32201443Y36688582D01*
X31946263Y36944896D01*
X31635676Y37148075D01*
X31583192Y37173991D01*
X31442116Y37237352D01*
X31324877Y37277151D01*
X31203187Y37298784D01*
X31048758Y37307645D01*
X30874500Y37309166D01*
X30671136Y37306829D01*
X30524102Y37296221D01*
X30405110Y37271946D01*
X30285871Y37228608D01*
X30165808Y37173991D01*
X29846597Y36981395D01*
X29590302Y36742612D01*
X29396447Y36467575D01*
X29264557Y36166218D01*
X29194154Y35848476D01*
X29184762Y35524284D01*
X27807781Y35524284D01*
X27812302Y35556491D01*
X27813206Y35594666D01*
X27806691Y35843609D01*
X27773584Y36048732D01*
X27705078Y36248996D01*
X27627985Y36413846D01*
X27429983Y36714673D01*
X27163856Y36969671D01*
X26840798Y37170083D01*
X26702809Y37234818D01*
X26589313Y37275637D01*
X26472585Y37297996D01*
X26324900Y37307352D01*
X26134057Y37309166D01*
X25930345Y37306825D01*
X25783106Y37296246D01*
X25664197Y37272096D01*
X25545475Y37229043D01*
X25427063Y37175202D01*
X25111295Y36991108D01*
X24860133Y36763563D01*
X24658540Y36477846D01*
X24597937Y36363458D01*
X24523193Y36206574D01*
X24476649Y36084134D01*
X24451667Y35965729D01*
X24441610Y35820954D01*
X24439834Y35639195D01*
X23042809Y35639195D01*
X23040402Y35848606D01*
X23030272Y36001267D01*
X23008189Y36120637D01*
X22969896Y36232367D01*
X22928708Y36325028D01*
X22736757Y36644041D01*
X22494099Y36904166D01*
X22211478Y37103602D01*
X21899637Y37240549D01*
X21569316Y37313204D01*
X21231260Y37319767D01*
X20896210Y37258435D01*
X20574909Y37127408D01*
X20278100Y36924884D01*
X20138992Y36792823D01*
X19911218Y36496719D01*
X19762306Y36172201D01*
X19690949Y35815525D01*
X19688871Y35503835D01*
X18310039Y35503835D01*
X18315443Y35536084D01*
X18298204Y35897178D01*
X18244268Y36130492D01*
X18100709Y36466895D01*
X17899245Y36751541D01*
X17650429Y36981930D01*
X17364813Y37155563D01*
X17052951Y37269940D01*
X16725395Y37322560D01*
X16392700Y37310923D01*
X16065417Y37232530D01*
X15754100Y37084881D01*
X15469302Y36865475D01*
X15406841Y36802679D01*
X15275862Y36646385D01*
X15152726Y36469738D01*
X15071293Y36325028D01*
X15018295Y36202469D01*
X14984649Y36091219D01*
X14966099Y35965625D01*
X14958392Y35800034D01*
X14957167Y35637000D01*
X13562712Y35637000D01*
X13564637Y35782081D01*
X13548598Y35893383D01*
X13440437Y36274073D01*
X13267442Y36600387D01*
X13029173Y36872915D01*
X12725190Y37092252D01*
X12617681Y37149471D01*
X12464146Y37222968D01*
X12344521Y37269588D01*
X12230225Y37295427D01*
X12092680Y37306581D01*
X11903306Y37309146D01*
X11869029Y37309166D01*
X11660999Y37306428D01*
X11510436Y37295103D01*
X11390233Y37270525D01*
X11273281Y37228032D01*
X11196447Y37193427D01*
X10908039Y37033574D01*
X10678384Y36845343D01*
X10481838Y36607082D01*
X10454542Y36567061D01*
X10284205Y36241477D01*
X10191140Y35901151D01*
X10171812Y35556607D01*
X8806879Y35556607D01*
X8804254Y35827964D01*
X8727523Y36174065D01*
X8574427Y36506882D01*
X8519307Y36593494D01*
X8296240Y36858931D01*
X8017291Y37073792D01*
X7791246Y37195551D01*
X7665365Y37249649D01*
X7550449Y37283440D01*
X7419549Y37301510D01*
X7245713Y37308441D01*
X7123305Y37309166D01*
X6923799Y37307357D01*
X6780366Y37297864D01*
X6664426Y37274590D01*
X6547399Y37231441D01*
X6400704Y37162318D01*
X6374653Y37149471D01*
X6058870Y36950090D01*
X5804078Y36700737D01*
X5612256Y36412155D01*
X5485385Y36095085D01*
X5425446Y35760271D01*
X4064257Y35760271D01*
X4011890Y36071728D01*
X3887485Y36394864D01*
X3699221Y36689355D01*
X3450367Y36944055D01*
X3144196Y37147818D01*
X3082667Y37178503D01*
X2949677Y37238335D01*
X2837415Y37276525D01*
X2719491Y37297866D01*
X2569514Y37307150D01*
X2363000Y37309166D01*
X2151394Y37306735D01*
X1998733Y37296605D01*
X1879363Y37274522D01*
X1767633Y37236229D01*
X1674972Y37195041D01*
X1390260Y37021441D01*
X1128819Y36786566D01*
X914419Y36513805D01*
X827724Y36361344D01*
X765512Y36228988D01*
X725653Y36119360D01*
X703211Y36006388D01*
X693255Y35863998D01*
X690849Y35666115D01*
X690834Y35637890D01*
X204000Y35637890D01*
X204000Y37796000D01*
X37796000Y37796000D01*
X37796000Y204000D01*
D11*
X33000000Y33500000D03*
M02*
