%TF.GenerationSoftware,KiCad,Pcbnew,5.1.0-5.1.0*%
%TF.CreationDate,2019-03-30T09:27:41+01:00*%
%TF.ProjectId,WordClock,576f7264-436c-46f6-936b-2e6b69636164,rev?*%
%TF.SameCoordinates,PX660b0c0PY5f5e100*%
%TF.FileFunction,Soldermask,Top*%
%TF.FilePolarity,Negative*%
%FSLAX46Y46*%
G04 Gerber Fmt 4.6, Leading zero omitted, Abs format (unit mm)*
G04 Created by KiCad (PCBNEW 5.1.0-5.1.0) date 2019-03-30 09:27:41*
%MOMM*%
%LPD*%
G04 APERTURE LIST*
%ADD10C,0.010000*%
G04 APERTURE END LIST*
D10*
G36*
X7476840Y3839056D02*
G01*
X7703790Y3715403D01*
X7764151Y3666449D01*
X7946745Y3449842D01*
X8072819Y3170270D01*
X8142382Y2827703D01*
X8155442Y2422109D01*
X8149863Y2310603D01*
X8101773Y1968572D01*
X8007356Y1676245D01*
X7870684Y1442872D01*
X7695830Y1277702D01*
X7694795Y1277016D01*
X7524765Y1201107D01*
X7310847Y1156055D01*
X7089494Y1145994D01*
X6897158Y1175059D01*
X6871500Y1183622D01*
X6697028Y1283687D01*
X6530904Y1441720D01*
X6398076Y1632663D01*
X6371589Y1685666D01*
X6318058Y1857743D01*
X6280964Y2088863D01*
X6261121Y2354858D01*
X6260292Y2484085D01*
X6600722Y2484085D01*
X6619673Y2201452D01*
X6668671Y1943615D01*
X6746988Y1734090D01*
X6779980Y1678311D01*
X6914551Y1528447D01*
X7073648Y1454327D01*
X7272294Y1446918D01*
X7427410Y1481261D01*
X7544356Y1560815D01*
X7577132Y1595180D01*
X7671528Y1730826D01*
X7736507Y1900678D01*
X7775468Y2119238D01*
X7791807Y2401006D01*
X7792812Y2515739D01*
X7775234Y2866695D01*
X7723495Y3145368D01*
X7638142Y3349696D01*
X7541315Y3462017D01*
X7359416Y3558211D01*
X7170579Y3576678D01*
X6989876Y3521445D01*
X6832380Y3396540D01*
X6731438Y3245593D01*
X6655877Y3029672D01*
X6612547Y2767997D01*
X6600722Y2484085D01*
X6260292Y2484085D01*
X6259344Y2631558D01*
X6276445Y2894795D01*
X6313239Y3120401D01*
X6322097Y3155446D01*
X6429139Y3417550D01*
X6586554Y3626129D01*
X6782187Y3776876D01*
X7003883Y3865485D01*
X7239486Y3887647D01*
X7476840Y3839056D01*
X7476840Y3839056D01*
G37*
X7476840Y3839056D02*
X7703790Y3715403D01*
X7764151Y3666449D01*
X7946745Y3449842D01*
X8072819Y3170270D01*
X8142382Y2827703D01*
X8155442Y2422109D01*
X8149863Y2310603D01*
X8101773Y1968572D01*
X8007356Y1676245D01*
X7870684Y1442872D01*
X7695830Y1277702D01*
X7694795Y1277016D01*
X7524765Y1201107D01*
X7310847Y1156055D01*
X7089494Y1145994D01*
X6897158Y1175059D01*
X6871500Y1183622D01*
X6697028Y1283687D01*
X6530904Y1441720D01*
X6398076Y1632663D01*
X6371589Y1685666D01*
X6318058Y1857743D01*
X6280964Y2088863D01*
X6261121Y2354858D01*
X6260292Y2484085D01*
X6600722Y2484085D01*
X6619673Y2201452D01*
X6668671Y1943615D01*
X6746988Y1734090D01*
X6779980Y1678311D01*
X6914551Y1528447D01*
X7073648Y1454327D01*
X7272294Y1446918D01*
X7427410Y1481261D01*
X7544356Y1560815D01*
X7577132Y1595180D01*
X7671528Y1730826D01*
X7736507Y1900678D01*
X7775468Y2119238D01*
X7791807Y2401006D01*
X7792812Y2515739D01*
X7775234Y2866695D01*
X7723495Y3145368D01*
X7638142Y3349696D01*
X7541315Y3462017D01*
X7359416Y3558211D01*
X7170579Y3576678D01*
X6989876Y3521445D01*
X6832380Y3396540D01*
X6731438Y3245593D01*
X6655877Y3029672D01*
X6612547Y2767997D01*
X6600722Y2484085D01*
X6260292Y2484085D01*
X6259344Y2631558D01*
X6276445Y2894795D01*
X6313239Y3120401D01*
X6322097Y3155446D01*
X6429139Y3417550D01*
X6586554Y3626129D01*
X6782187Y3776876D01*
X7003883Y3865485D01*
X7239486Y3887647D01*
X7476840Y3839056D01*
G36*
X11303349Y2862767D02*
G01*
X11310270Y2503289D01*
X11320398Y2218350D01*
X11335889Y1997829D01*
X11358903Y1831603D01*
X11391597Y1709551D01*
X11436129Y1621552D01*
X11494657Y1557485D01*
X11569340Y1507228D01*
X11595347Y1493263D01*
X11755365Y1446222D01*
X11936283Y1445534D01*
X12102503Y1488225D01*
X12191894Y1543077D01*
X12253563Y1604978D01*
X12301523Y1674928D01*
X12337464Y1763902D01*
X12363075Y1882880D01*
X12380045Y2042838D01*
X12390063Y2254755D01*
X12394819Y2529608D01*
X12396000Y2869640D01*
X12396000Y3844666D01*
X12734667Y3844666D01*
X12733737Y2818083D01*
X12732126Y2458791D01*
X12726714Y2173120D01*
X12715545Y1950045D01*
X12696665Y1778541D01*
X12668117Y1647582D01*
X12627948Y1546143D01*
X12574201Y1463198D01*
X12504921Y1387723D01*
X12475090Y1359604D01*
X12276764Y1230461D01*
X12035960Y1155391D01*
X11778136Y1137935D01*
X11528750Y1181636D01*
X11440173Y1215611D01*
X11309180Y1292063D01*
X11198414Y1384504D01*
X11178000Y1407827D01*
X11117756Y1491662D01*
X11070834Y1579386D01*
X11035604Y1682561D01*
X11010439Y1812750D01*
X10993708Y1981516D01*
X10983782Y2200421D01*
X10979034Y2481028D01*
X10977834Y2828666D01*
X10977834Y3823500D01*
X11133147Y3836434D01*
X11288461Y3849368D01*
X11303349Y2862767D01*
X11303349Y2862767D01*
G37*
X11303349Y2862767D02*
X11310270Y2503289D01*
X11320398Y2218350D01*
X11335889Y1997829D01*
X11358903Y1831603D01*
X11391597Y1709551D01*
X11436129Y1621552D01*
X11494657Y1557485D01*
X11569340Y1507228D01*
X11595347Y1493263D01*
X11755365Y1446222D01*
X11936283Y1445534D01*
X12102503Y1488225D01*
X12191894Y1543077D01*
X12253563Y1604978D01*
X12301523Y1674928D01*
X12337464Y1763902D01*
X12363075Y1882880D01*
X12380045Y2042838D01*
X12390063Y2254755D01*
X12394819Y2529608D01*
X12396000Y2869640D01*
X12396000Y3844666D01*
X12734667Y3844666D01*
X12733737Y2818083D01*
X12732126Y2458791D01*
X12726714Y2173120D01*
X12715545Y1950045D01*
X12696665Y1778541D01*
X12668117Y1647582D01*
X12627948Y1546143D01*
X12574201Y1463198D01*
X12504921Y1387723D01*
X12475090Y1359604D01*
X12276764Y1230461D01*
X12035960Y1155391D01*
X11778136Y1137935D01*
X11528750Y1181636D01*
X11440173Y1215611D01*
X11309180Y1292063D01*
X11198414Y1384504D01*
X11178000Y1407827D01*
X11117756Y1491662D01*
X11070834Y1579386D01*
X11035604Y1682561D01*
X11010439Y1812750D01*
X10993708Y1981516D01*
X10983782Y2200421D01*
X10979034Y2481028D01*
X10977834Y2828666D01*
X10977834Y3823500D01*
X11133147Y3836434D01*
X11288461Y3849368D01*
X11303349Y2862767D01*
G36*
X3379000Y3548333D02*
G01*
X2193667Y3548333D01*
X2193667Y2619457D01*
X2754584Y2607645D01*
X3315500Y2595833D01*
X3315500Y2299500D01*
X2754584Y2287688D01*
X2193667Y2275876D01*
X2193667Y1177666D01*
X1855000Y1177666D01*
X1855000Y3844666D01*
X3379000Y3844666D01*
X3379000Y3548333D01*
X3379000Y3548333D01*
G37*
X3379000Y3548333D02*
X2193667Y3548333D01*
X2193667Y2619457D01*
X2754584Y2607645D01*
X3315500Y2595833D01*
X3315500Y2299500D01*
X2754584Y2287688D01*
X2193667Y2275876D01*
X2193667Y1177666D01*
X1855000Y1177666D01*
X1855000Y3844666D01*
X3379000Y3844666D01*
X3379000Y3548333D01*
G36*
X16301250Y3837622D02*
G01*
X16530243Y3828070D01*
X16694783Y3814945D01*
X16815085Y3794776D01*
X16911361Y3764090D01*
X17003827Y3719419D01*
X17010334Y3715868D01*
X17180359Y3594057D01*
X17286424Y3442690D01*
X17336052Y3246346D01*
X17339864Y3040101D01*
X17311071Y2818165D01*
X17241826Y2654094D01*
X17119494Y2525787D01*
X17001959Y2449065D01*
X16845419Y2360066D01*
X17558017Y1177666D01*
X17358258Y1178275D01*
X17158500Y1178883D01*
X16529738Y2278333D01*
X16121334Y2278333D01*
X16121334Y1177666D01*
X15782667Y1177666D01*
X15782667Y2574666D01*
X16121334Y2574666D01*
X16398602Y2574666D01*
X16571232Y2584329D01*
X16719760Y2609746D01*
X16792527Y2634992D01*
X16914315Y2741322D01*
X16987974Y2893835D01*
X17012496Y3068558D01*
X16986869Y3241517D01*
X16910082Y3388740D01*
X16827404Y3462373D01*
X16739792Y3493880D01*
X16597889Y3521548D01*
X16432049Y3539494D01*
X16428250Y3539742D01*
X16121334Y3559467D01*
X16121334Y2574666D01*
X15782667Y2574666D01*
X15782667Y3854887D01*
X16301250Y3837622D01*
X16301250Y3837622D01*
G37*
X16301250Y3837622D02*
X16530243Y3828070D01*
X16694783Y3814945D01*
X16815085Y3794776D01*
X16911361Y3764090D01*
X17003827Y3719419D01*
X17010334Y3715868D01*
X17180359Y3594057D01*
X17286424Y3442690D01*
X17336052Y3246346D01*
X17339864Y3040101D01*
X17311071Y2818165D01*
X17241826Y2654094D01*
X17119494Y2525787D01*
X17001959Y2449065D01*
X16845419Y2360066D01*
X17558017Y1177666D01*
X17358258Y1178275D01*
X17158500Y1178883D01*
X16529738Y2278333D01*
X16121334Y2278333D01*
X16121334Y1177666D01*
X15782667Y1177666D01*
X15782667Y2574666D01*
X16121334Y2574666D01*
X16398602Y2574666D01*
X16571232Y2584329D01*
X16719760Y2609746D01*
X16792527Y2634992D01*
X16914315Y2741322D01*
X16987974Y2893835D01*
X17012496Y3068558D01*
X16986869Y3241517D01*
X16910082Y3388740D01*
X16827404Y3462373D01*
X16739792Y3493880D01*
X16597889Y3521548D01*
X16432049Y3539494D01*
X16428250Y3539742D01*
X16121334Y3559467D01*
X16121334Y2574666D01*
X15782667Y2574666D01*
X15782667Y3854887D01*
X16301250Y3837622D01*
G36*
X21948489Y3836893D02*
G01*
X22111500Y3823500D01*
X22122687Y2500583D01*
X22133873Y1177666D01*
X21722648Y1177666D01*
X21265985Y2140750D01*
X21136966Y2412504D01*
X21016489Y2665628D01*
X20910394Y2887898D01*
X20824524Y3067090D01*
X20764721Y3190981D01*
X20740745Y3239748D01*
X20720062Y3276542D01*
X20704225Y3289218D01*
X20692768Y3269522D01*
X20685227Y3209200D01*
X20681134Y3099999D01*
X20680026Y2933664D01*
X20681437Y2701941D01*
X20684900Y2396576D01*
X20686435Y2276665D01*
X20700703Y1177666D01*
X20397000Y1177666D01*
X20397000Y3844666D01*
X20764050Y3844666D01*
X21262132Y2796916D01*
X21393865Y2520797D01*
X21514521Y2269784D01*
X21619139Y2054043D01*
X21702761Y1883742D01*
X21760427Y1769048D01*
X21787178Y1720128D01*
X21787690Y1719508D01*
X21794553Y1751720D01*
X21799654Y1857773D01*
X21802863Y2026858D01*
X21804050Y2248165D01*
X21803086Y2510884D01*
X21800322Y2770067D01*
X21785477Y3850286D01*
X21948489Y3836893D01*
X21948489Y3836893D01*
G37*
X21948489Y3836893D02*
X22111500Y3823500D01*
X22122687Y2500583D01*
X22133873Y1177666D01*
X21722648Y1177666D01*
X21265985Y2140750D01*
X21136966Y2412504D01*
X21016489Y2665628D01*
X20910394Y2887898D01*
X20824524Y3067090D01*
X20764721Y3190981D01*
X20740745Y3239748D01*
X20720062Y3276542D01*
X20704225Y3289218D01*
X20692768Y3269522D01*
X20685227Y3209200D01*
X20681134Y3099999D01*
X20680026Y2933664D01*
X20681437Y2701941D01*
X20684900Y2396576D01*
X20686435Y2276665D01*
X20700703Y1177666D01*
X20397000Y1177666D01*
X20397000Y3844666D01*
X20764050Y3844666D01*
X21262132Y2796916D01*
X21393865Y2520797D01*
X21514521Y2269784D01*
X21619139Y2054043D01*
X21702761Y1883742D01*
X21760427Y1769048D01*
X21787178Y1720128D01*
X21787690Y1719508D01*
X21794553Y1751720D01*
X21799654Y1857773D01*
X21802863Y2026858D01*
X21804050Y2248165D01*
X21803086Y2510884D01*
X21800322Y2770067D01*
X21785477Y3850286D01*
X21948489Y3836893D01*
G36*
X26641167Y3717666D02*
G01*
X26635433Y3659599D01*
X26605265Y3626445D01*
X26531219Y3609502D01*
X26393846Y3600062D01*
X26376584Y3599230D01*
X26112000Y3586626D01*
X26112000Y1441530D01*
X26387167Y1412062D01*
X26535380Y1393649D01*
X26618049Y1372483D01*
X26654063Y1339510D01*
X26662308Y1285674D01*
X26662334Y1280130D01*
X26662334Y1177666D01*
X25223000Y1177666D01*
X25223000Y1280130D01*
X25229824Y1336051D01*
X25262888Y1370376D01*
X25341080Y1392160D01*
X25483288Y1410459D01*
X25498167Y1412062D01*
X25773334Y1441530D01*
X25773334Y3586626D01*
X25508750Y3599230D01*
X25364264Y3608406D01*
X25284973Y3624250D01*
X25251431Y3655466D01*
X25244193Y3710760D01*
X25244167Y3717666D01*
X25244167Y3823500D01*
X26641167Y3823500D01*
X26641167Y3717666D01*
X26641167Y3717666D01*
G37*
X26641167Y3717666D02*
X26635433Y3659599D01*
X26605265Y3626445D01*
X26531219Y3609502D01*
X26393846Y3600062D01*
X26376584Y3599230D01*
X26112000Y3586626D01*
X26112000Y1441530D01*
X26387167Y1412062D01*
X26535380Y1393649D01*
X26618049Y1372483D01*
X26654063Y1339510D01*
X26662308Y1285674D01*
X26662334Y1280130D01*
X26662334Y1177666D01*
X25223000Y1177666D01*
X25223000Y1280130D01*
X25229824Y1336051D01*
X25262888Y1370376D01*
X25341080Y1392160D01*
X25483288Y1410459D01*
X25498167Y1412062D01*
X25773334Y1441530D01*
X25773334Y3586626D01*
X25508750Y3599230D01*
X25364264Y3608406D01*
X25284973Y3624250D01*
X25251431Y3655466D01*
X25244193Y3710760D01*
X25244167Y3717666D01*
X25244167Y3823500D01*
X26641167Y3823500D01*
X26641167Y3717666D01*
G36*
X30037063Y3836403D02*
G01*
X30236792Y3823500D01*
X30746146Y2751774D01*
X31255500Y1680049D01*
X31266798Y2762358D01*
X31278096Y3844666D01*
X31573000Y3844666D01*
X31573000Y1177666D01*
X31187965Y1177666D01*
X30788442Y2013750D01*
X30662323Y2277312D01*
X30540263Y2531723D01*
X30429882Y2761149D01*
X30338804Y2949752D01*
X30274650Y3081698D01*
X30263782Y3103833D01*
X30138645Y3357833D01*
X30164110Y2267750D01*
X30189575Y1177666D01*
X29837334Y1177666D01*
X29837334Y3849305D01*
X30037063Y3836403D01*
X30037063Y3836403D01*
G37*
X30037063Y3836403D02*
X30236792Y3823500D01*
X30746146Y2751774D01*
X31255500Y1680049D01*
X31266798Y2762358D01*
X31278096Y3844666D01*
X31573000Y3844666D01*
X31573000Y1177666D01*
X31187965Y1177666D01*
X30788442Y2013750D01*
X30662323Y2277312D01*
X30540263Y2531723D01*
X30429882Y2761149D01*
X30338804Y2949752D01*
X30274650Y3081698D01*
X30263782Y3103833D01*
X30138645Y3357833D01*
X30164110Y2267750D01*
X30189575Y1177666D01*
X29837334Y1177666D01*
X29837334Y3849305D01*
X30037063Y3836403D01*
G36*
X36229667Y3550722D02*
G01*
X35647584Y3538944D01*
X35065500Y3527166D01*
X35065500Y2722833D01*
X36187334Y2699209D01*
X36187334Y2405333D01*
X35044334Y2405333D01*
X35044334Y1474000D01*
X36229667Y1474000D01*
X36229667Y1177666D01*
X34704461Y1177666D01*
X34715647Y2500583D01*
X34726834Y3823500D01*
X35478250Y3835060D01*
X36229667Y3846620D01*
X36229667Y3550722D01*
X36229667Y3550722D01*
G37*
X36229667Y3550722D02*
X35647584Y3538944D01*
X35065500Y3527166D01*
X35065500Y2722833D01*
X36187334Y2699209D01*
X36187334Y2405333D01*
X35044334Y2405333D01*
X35044334Y1474000D01*
X36229667Y1474000D01*
X36229667Y1177666D01*
X34704461Y1177666D01*
X34715647Y2500583D01*
X34726834Y3823500D01*
X35478250Y3835060D01*
X36229667Y3846620D01*
X36229667Y3550722D01*
G36*
X3463667Y8289666D02*
G01*
X2701667Y8289666D01*
X2701667Y5919000D01*
X2560556Y5919000D01*
X2455954Y5926745D01*
X2393134Y5945555D01*
X2391222Y5947222D01*
X2383806Y5995380D01*
X2377118Y6116998D01*
X2371427Y6300874D01*
X2367000Y6535803D01*
X2364102Y6810580D01*
X2363003Y7114002D01*
X2363000Y7130907D01*
X2363000Y8286370D01*
X1992584Y8298602D01*
X1622167Y8310833D01*
X1608901Y8448416D01*
X1595636Y8586000D01*
X3463667Y8586000D01*
X3463667Y8289666D01*
X3463667Y8289666D01*
G37*
X3463667Y8289666D02*
X2701667Y8289666D01*
X2701667Y5919000D01*
X2560556Y5919000D01*
X2455954Y5926745D01*
X2393134Y5945555D01*
X2391222Y5947222D01*
X2383806Y5995380D01*
X2377118Y6116998D01*
X2371427Y6300874D01*
X2367000Y6535803D01*
X2364102Y6810580D01*
X2363003Y7114002D01*
X2363000Y7130907D01*
X2363000Y8286370D01*
X1992584Y8298602D01*
X1622167Y8310833D01*
X1608901Y8448416D01*
X1595636Y8586000D01*
X3463667Y8586000D01*
X3463667Y8289666D01*
G36*
X8226559Y8585134D02*
G01*
X8253331Y8571687D01*
X8270585Y8538573D01*
X8278220Y8477552D01*
X8276133Y8380378D01*
X8264222Y8238810D01*
X8242385Y8044606D01*
X8210520Y7789522D01*
X8168525Y7465315D01*
X8127051Y7146666D01*
X7970430Y5940166D01*
X7802150Y5940166D01*
X7742605Y5939797D01*
X7695810Y5945235D01*
X7657097Y5966301D01*
X7621798Y6012813D01*
X7585245Y6094593D01*
X7542770Y6221459D01*
X7489705Y6403231D01*
X7421384Y6649729D01*
X7361909Y6866311D01*
X7297520Y7096331D01*
X7250316Y7252784D01*
X7216786Y7344198D01*
X7193417Y7379104D01*
X7176698Y7366030D01*
X7168037Y7337166D01*
X7147031Y7252109D01*
X7108990Y7103243D01*
X7058569Y6908599D01*
X7000427Y6686209D01*
X6973288Y6583038D01*
X6916167Y6365171D01*
X6867596Y6177733D01*
X6831299Y6035270D01*
X6810999Y5952331D01*
X6808000Y5937455D01*
X6770412Y5925870D01*
X6676575Y5919453D01*
X6639473Y5919000D01*
X6526257Y5927253D01*
X6470835Y5960756D01*
X6450705Y6014250D01*
X6439797Y6080604D01*
X6419437Y6218756D01*
X6391330Y6416575D01*
X6357179Y6661932D01*
X6318691Y6942696D01*
X6279640Y7231333D01*
X6238367Y7536100D01*
X6199563Y7818439D01*
X6164986Y8065891D01*
X6136393Y8265995D01*
X6115543Y8406292D01*
X6104599Y8472376D01*
X6094271Y8549066D01*
X6119811Y8580087D01*
X6202104Y8581398D01*
X6243107Y8578209D01*
X6405834Y8564833D01*
X6519633Y7675833D01*
X6554588Y7394258D01*
X6585891Y7125997D01*
X6611728Y6887897D01*
X6630285Y6696810D01*
X6639750Y6569583D01*
X6640371Y6554000D01*
X6642939Y6467644D01*
X6646705Y6409705D01*
X6654537Y6387464D01*
X6669303Y6408199D01*
X6693872Y6479193D01*
X6731111Y6607724D01*
X6783888Y6801072D01*
X6855072Y7066519D01*
X6882195Y7167833D01*
X7040920Y7760500D01*
X7372075Y7760500D01*
X7759425Y6321166D01*
X7851832Y7189000D01*
X7881831Y7470849D01*
X7910686Y7742168D01*
X7936486Y7984965D01*
X7957317Y8181246D01*
X7971270Y8313016D01*
X7972156Y8321416D01*
X8000072Y8586000D01*
X8144870Y8586000D01*
X8190371Y8587157D01*
X8226559Y8585134D01*
X8226559Y8585134D01*
G37*
X8226559Y8585134D02*
X8253331Y8571687D01*
X8270585Y8538573D01*
X8278220Y8477552D01*
X8276133Y8380378D01*
X8264222Y8238810D01*
X8242385Y8044606D01*
X8210520Y7789522D01*
X8168525Y7465315D01*
X8127051Y7146666D01*
X7970430Y5940166D01*
X7802150Y5940166D01*
X7742605Y5939797D01*
X7695810Y5945235D01*
X7657097Y5966301D01*
X7621798Y6012813D01*
X7585245Y6094593D01*
X7542770Y6221459D01*
X7489705Y6403231D01*
X7421384Y6649729D01*
X7361909Y6866311D01*
X7297520Y7096331D01*
X7250316Y7252784D01*
X7216786Y7344198D01*
X7193417Y7379104D01*
X7176698Y7366030D01*
X7168037Y7337166D01*
X7147031Y7252109D01*
X7108990Y7103243D01*
X7058569Y6908599D01*
X7000427Y6686209D01*
X6973288Y6583038D01*
X6916167Y6365171D01*
X6867596Y6177733D01*
X6831299Y6035270D01*
X6810999Y5952331D01*
X6808000Y5937455D01*
X6770412Y5925870D01*
X6676575Y5919453D01*
X6639473Y5919000D01*
X6526257Y5927253D01*
X6470835Y5960756D01*
X6450705Y6014250D01*
X6439797Y6080604D01*
X6419437Y6218756D01*
X6391330Y6416575D01*
X6357179Y6661932D01*
X6318691Y6942696D01*
X6279640Y7231333D01*
X6238367Y7536100D01*
X6199563Y7818439D01*
X6164986Y8065891D01*
X6136393Y8265995D01*
X6115543Y8406292D01*
X6104599Y8472376D01*
X6094271Y8549066D01*
X6119811Y8580087D01*
X6202104Y8581398D01*
X6243107Y8578209D01*
X6405834Y8564833D01*
X6519633Y7675833D01*
X6554588Y7394258D01*
X6585891Y7125997D01*
X6611728Y6887897D01*
X6630285Y6696810D01*
X6639750Y6569583D01*
X6640371Y6554000D01*
X6642939Y6467644D01*
X6646705Y6409705D01*
X6654537Y6387464D01*
X6669303Y6408199D01*
X6693872Y6479193D01*
X6731111Y6607724D01*
X6783888Y6801072D01*
X6855072Y7066519D01*
X6882195Y7167833D01*
X7040920Y7760500D01*
X7372075Y7760500D01*
X7759425Y6321166D01*
X7851832Y7189000D01*
X7881831Y7470849D01*
X7910686Y7742168D01*
X7936486Y7984965D01*
X7957317Y8181246D01*
X7971270Y8313016D01*
X7972156Y8321416D01*
X8000072Y8586000D01*
X8144870Y8586000D01*
X8190371Y8587157D01*
X8226559Y8585134D01*
G36*
X12650000Y8289666D02*
G01*
X11464667Y8289666D01*
X11464667Y7485333D01*
X12607667Y7485333D01*
X12607667Y7189000D01*
X11461894Y7189000D01*
X11485834Y6236500D01*
X12650000Y6212944D01*
X12650000Y5919000D01*
X11916222Y5919000D01*
X11675095Y5920554D01*
X11463978Y5924861D01*
X11297192Y5931393D01*
X11189055Y5939618D01*
X11154222Y5947222D01*
X11147229Y5995039D01*
X11140866Y6117020D01*
X11135357Y6302660D01*
X11130923Y6541456D01*
X11127788Y6822907D01*
X11126172Y7136509D01*
X11126000Y7280722D01*
X11126000Y8586000D01*
X12650000Y8586000D01*
X12650000Y8289666D01*
X12650000Y8289666D01*
G37*
X12650000Y8289666D02*
X11464667Y8289666D01*
X11464667Y7485333D01*
X12607667Y7485333D01*
X12607667Y7189000D01*
X11461894Y7189000D01*
X11485834Y6236500D01*
X12650000Y6212944D01*
X12650000Y5919000D01*
X11916222Y5919000D01*
X11675095Y5920554D01*
X11463978Y5924861D01*
X11297192Y5931393D01*
X11189055Y5939618D01*
X11154222Y5947222D01*
X11147229Y5995039D01*
X11140866Y6117020D01*
X11135357Y6302660D01*
X11130923Y6541456D01*
X11127788Y6822907D01*
X11126172Y7136509D01*
X11126000Y7280722D01*
X11126000Y8586000D01*
X12650000Y8586000D01*
X12650000Y8289666D01*
G36*
X16206000Y6257666D02*
G01*
X17349000Y6257666D01*
X17349000Y5919000D01*
X15867334Y5919000D01*
X15867334Y8586000D01*
X16206000Y8586000D01*
X16206000Y6257666D01*
X16206000Y6257666D01*
G37*
X16206000Y6257666D02*
X17349000Y6257666D01*
X17349000Y5919000D01*
X15867334Y5919000D01*
X15867334Y8586000D01*
X16206000Y8586000D01*
X16206000Y6257666D01*
G36*
X22048000Y8289666D02*
G01*
X20862667Y8289666D01*
X20862667Y7487791D01*
X21423584Y7475979D01*
X21984500Y7464166D01*
X21997766Y7326583D01*
X22011031Y7189000D01*
X20859894Y7189000D01*
X20883834Y6236500D01*
X22048000Y6212944D01*
X22048000Y5919000D01*
X21314222Y5919000D01*
X21073095Y5920554D01*
X20861978Y5924861D01*
X20695192Y5931393D01*
X20587055Y5939618D01*
X20552222Y5947222D01*
X20545229Y5995039D01*
X20538866Y6117020D01*
X20533357Y6302660D01*
X20528923Y6541456D01*
X20525788Y6822907D01*
X20524172Y7136509D01*
X20524000Y7280722D01*
X20524000Y8586000D01*
X22048000Y8586000D01*
X22048000Y8289666D01*
X22048000Y8289666D01*
G37*
X22048000Y8289666D02*
X20862667Y8289666D01*
X20862667Y7487791D01*
X21423584Y7475979D01*
X21984500Y7464166D01*
X21997766Y7326583D01*
X22011031Y7189000D01*
X20859894Y7189000D01*
X20883834Y6236500D01*
X22048000Y6212944D01*
X22048000Y5919000D01*
X21314222Y5919000D01*
X21073095Y5920554D01*
X20861978Y5924861D01*
X20695192Y5931393D01*
X20587055Y5939618D01*
X20552222Y5947222D01*
X20545229Y5995039D01*
X20538866Y6117020D01*
X20533357Y6302660D01*
X20528923Y6541456D01*
X20525788Y6822907D01*
X20524172Y7136509D01*
X20524000Y7280722D01*
X20524000Y8586000D01*
X22048000Y8586000D01*
X22048000Y8289666D01*
G36*
X26549527Y7252500D02*
G01*
X26104784Y5919000D01*
X25778101Y5919000D01*
X25352384Y7207111D01*
X25248713Y7522162D01*
X25154164Y7812128D01*
X25071911Y8067064D01*
X25005130Y8277023D01*
X24956997Y8432058D01*
X24930686Y8522225D01*
X24926667Y8540611D01*
X24964215Y8569031D01*
X25058017Y8584841D01*
X25096000Y8586000D01*
X25202094Y8582267D01*
X25261049Y8572943D01*
X25265334Y8569189D01*
X25277480Y8525769D01*
X25311556Y8413084D01*
X25364020Y8242610D01*
X25431327Y8025826D01*
X25509935Y7774210D01*
X25560331Y7613582D01*
X25646315Y7337473D01*
X25724838Y7080637D01*
X25791852Y6856692D01*
X25843310Y6679256D01*
X25875163Y6561948D01*
X25882543Y6529726D01*
X25914088Y6418935D01*
X25948908Y6391922D01*
X25983164Y6448929D01*
X26001592Y6522250D01*
X26021773Y6601027D01*
X26063616Y6747236D01*
X26123152Y6947615D01*
X26196412Y7188902D01*
X26279426Y7457834D01*
X26331001Y7622916D01*
X26633234Y8586000D01*
X26994269Y8586000D01*
X26549527Y7252500D01*
X26549527Y7252500D01*
G37*
X26549527Y7252500D02*
X26104784Y5919000D01*
X25778101Y5919000D01*
X25352384Y7207111D01*
X25248713Y7522162D01*
X25154164Y7812128D01*
X25071911Y8067064D01*
X25005130Y8277023D01*
X24956997Y8432058D01*
X24930686Y8522225D01*
X24926667Y8540611D01*
X24964215Y8569031D01*
X25058017Y8584841D01*
X25096000Y8586000D01*
X25202094Y8582267D01*
X25261049Y8572943D01*
X25265334Y8569189D01*
X25277480Y8525769D01*
X25311556Y8413084D01*
X25364020Y8242610D01*
X25431327Y8025826D01*
X25509935Y7774210D01*
X25560331Y7613582D01*
X25646315Y7337473D01*
X25724838Y7080637D01*
X25791852Y6856692D01*
X25843310Y6679256D01*
X25875163Y6561948D01*
X25882543Y6529726D01*
X25914088Y6418935D01*
X25948908Y6391922D01*
X25983164Y6448929D01*
X26001592Y6522250D01*
X26021773Y6601027D01*
X26063616Y6747236D01*
X26123152Y6947615D01*
X26196412Y7188902D01*
X26279426Y7457834D01*
X26331001Y7622916D01*
X26633234Y8586000D01*
X26994269Y8586000D01*
X26549527Y7252500D01*
G36*
X31522766Y8448416D02*
G01*
X31509500Y8310833D01*
X30345334Y8287277D01*
X30345334Y7485333D01*
X31446000Y7485333D01*
X31446000Y7189000D01*
X30345334Y7189000D01*
X30345334Y6215333D01*
X31536031Y6215333D01*
X31522766Y6077750D01*
X31509500Y5940166D01*
X30758084Y5928606D01*
X30006667Y5917046D01*
X30006667Y8586000D01*
X31536031Y8586000D01*
X31522766Y8448416D01*
X31522766Y8448416D01*
G37*
X31522766Y8448416D02*
X31509500Y8310833D01*
X30345334Y8287277D01*
X30345334Y7485333D01*
X31446000Y7485333D01*
X31446000Y7189000D01*
X30345334Y7189000D01*
X30345334Y6215333D01*
X31536031Y6215333D01*
X31522766Y6077750D01*
X31509500Y5940166D01*
X30758084Y5928606D01*
X30006667Y5917046D01*
X30006667Y8586000D01*
X31536031Y8586000D01*
X31522766Y8448416D01*
G36*
X35384139Y7707583D02*
G01*
X35511489Y7441907D01*
X35632718Y7189080D01*
X35740937Y6963464D01*
X35829258Y6779419D01*
X35890791Y6651306D01*
X35907053Y6617500D01*
X36008975Y6405833D01*
X35985848Y7495916D01*
X35962721Y8586000D01*
X36315540Y8586000D01*
X36304353Y7263083D01*
X36293167Y5940166D01*
X35916555Y5940166D01*
X34896167Y8088104D01*
X34873571Y5919000D01*
X34578667Y5919000D01*
X34578667Y8586000D01*
X34963148Y8586000D01*
X35384139Y7707583D01*
X35384139Y7707583D01*
G37*
X35384139Y7707583D02*
X35511489Y7441907D01*
X35632718Y7189080D01*
X35740937Y6963464D01*
X35829258Y6779419D01*
X35890791Y6651306D01*
X35907053Y6617500D01*
X36008975Y6405833D01*
X35985848Y7495916D01*
X35962721Y8586000D01*
X36315540Y8586000D01*
X36304353Y7263083D01*
X36293167Y5940166D01*
X35916555Y5940166D01*
X34896167Y8088104D01*
X34873571Y5919000D01*
X34578667Y5919000D01*
X34578667Y8586000D01*
X34963148Y8586000D01*
X35384139Y7707583D01*
G36*
X2882590Y13346111D02*
G01*
X3075001Y13316197D01*
X3226395Y13275806D01*
X3285916Y13248290D01*
X3311952Y13184932D01*
X3283893Y13069901D01*
X3228286Y12955885D01*
X3187475Y12959501D01*
X3087969Y12980591D01*
X2973964Y13008802D01*
X2691811Y13061324D01*
X2451668Y13063453D01*
X2261669Y13016806D01*
X2129949Y12922997D01*
X2076967Y12830683D01*
X2048941Y12653071D01*
X2097976Y12496687D01*
X2226002Y12358970D01*
X2434946Y12237358D01*
X2563423Y12184372D01*
X2857627Y12062950D01*
X3076626Y11942982D01*
X3229256Y11815652D01*
X3324353Y11672144D01*
X3370754Y11503643D01*
X3379000Y11370680D01*
X3346921Y11134591D01*
X3247326Y10946824D01*
X3075180Y10799338D01*
X2992450Y10753547D01*
X2820940Y10693471D01*
X2601931Y10650973D01*
X2371563Y10630489D01*
X2165979Y10636455D01*
X2109000Y10645128D01*
X1917566Y10685036D01*
X1794570Y10720169D01*
X1724968Y10759886D01*
X1693719Y10813541D01*
X1685781Y10890494D01*
X1685667Y10908465D01*
X1685667Y11068667D01*
X1992584Y10988644D01*
X2284424Y10934487D01*
X2542691Y10929774D01*
X2757772Y10972244D01*
X2920049Y11059636D01*
X3019909Y11189690D01*
X3035485Y11233838D01*
X3060234Y11367915D01*
X3047497Y11480593D01*
X2989050Y11580303D01*
X2876668Y11675475D01*
X2702127Y11774538D01*
X2457202Y11885922D01*
X2359296Y11926916D01*
X2098230Y12054546D01*
X1913315Y12195147D01*
X1796070Y12359241D01*
X1738014Y12557346D01*
X1728000Y12709995D01*
X1765797Y12928649D01*
X1875316Y13108289D01*
X2050752Y13243925D01*
X2286296Y13330570D01*
X2483800Y13359397D01*
X2676433Y13361770D01*
X2882590Y13346111D01*
X2882590Y13346111D01*
G37*
X2882590Y13346111D02*
X3075001Y13316197D01*
X3226395Y13275806D01*
X3285916Y13248290D01*
X3311952Y13184932D01*
X3283893Y13069901D01*
X3228286Y12955885D01*
X3187475Y12959501D01*
X3087969Y12980591D01*
X2973964Y13008802D01*
X2691811Y13061324D01*
X2451668Y13063453D01*
X2261669Y13016806D01*
X2129949Y12922997D01*
X2076967Y12830683D01*
X2048941Y12653071D01*
X2097976Y12496687D01*
X2226002Y12358970D01*
X2434946Y12237358D01*
X2563423Y12184372D01*
X2857627Y12062950D01*
X3076626Y11942982D01*
X3229256Y11815652D01*
X3324353Y11672144D01*
X3370754Y11503643D01*
X3379000Y11370680D01*
X3346921Y11134591D01*
X3247326Y10946824D01*
X3075180Y10799338D01*
X2992450Y10753547D01*
X2820940Y10693471D01*
X2601931Y10650973D01*
X2371563Y10630489D01*
X2165979Y10636455D01*
X2109000Y10645128D01*
X1917566Y10685036D01*
X1794570Y10720169D01*
X1724968Y10759886D01*
X1693719Y10813541D01*
X1685781Y10890494D01*
X1685667Y10908465D01*
X1685667Y11068667D01*
X1992584Y10988644D01*
X2284424Y10934487D01*
X2542691Y10929774D01*
X2757772Y10972244D01*
X2920049Y11059636D01*
X3019909Y11189690D01*
X3035485Y11233838D01*
X3060234Y11367915D01*
X3047497Y11480593D01*
X2989050Y11580303D01*
X2876668Y11675475D01*
X2702127Y11774538D01*
X2457202Y11885922D01*
X2359296Y11926916D01*
X2098230Y12054546D01*
X1913315Y12195147D01*
X1796070Y12359241D01*
X1738014Y12557346D01*
X1728000Y12709995D01*
X1765797Y12928649D01*
X1875316Y13108289D01*
X2050752Y13243925D01*
X2286296Y13330570D01*
X2483800Y13359397D01*
X2676433Y13361770D01*
X2882590Y13346111D01*
G36*
X7908667Y13227039D02*
G01*
X7893703Y13157174D01*
X7833489Y13118801D01*
X7749917Y13100505D01*
X7609240Y13082390D01*
X7482222Y13073877D01*
X7474750Y13073799D01*
X7358334Y13073333D01*
X7358334Y10918373D01*
X7622917Y10905770D01*
X7767681Y10896605D01*
X7848351Y10880253D01*
X7885468Y10847180D01*
X7899570Y10787851D01*
X7900895Y10776750D01*
X7914291Y10660333D01*
X6511667Y10660333D01*
X6511667Y10787333D01*
X6514993Y10857632D01*
X6538275Y10895576D01*
X6601469Y10911142D01*
X6724532Y10914309D01*
X6765667Y10914333D01*
X7019667Y10914333D01*
X7019667Y13062397D01*
X6765667Y13091134D01*
X6624561Y13110091D01*
X6548277Y13133040D01*
X6517199Y13170210D01*
X6511667Y13223602D01*
X6511667Y13327333D01*
X7908667Y13327333D01*
X7908667Y13227039D01*
X7908667Y13227039D01*
G37*
X7908667Y13227039D02*
X7893703Y13157174D01*
X7833489Y13118801D01*
X7749917Y13100505D01*
X7609240Y13082390D01*
X7482222Y13073877D01*
X7474750Y13073799D01*
X7358334Y13073333D01*
X7358334Y10918373D01*
X7622917Y10905770D01*
X7767681Y10896605D01*
X7848351Y10880253D01*
X7885468Y10847180D01*
X7899570Y10787851D01*
X7900895Y10776750D01*
X7914291Y10660333D01*
X6511667Y10660333D01*
X6511667Y10787333D01*
X6514993Y10857632D01*
X6538275Y10895576D01*
X6601469Y10911142D01*
X6724532Y10914309D01*
X6765667Y10914333D01*
X7019667Y10914333D01*
X7019667Y13062397D01*
X6765667Y13091134D01*
X6624561Y13110091D01*
X6548277Y13133040D01*
X6517199Y13170210D01*
X6511667Y13223602D01*
X6511667Y13327333D01*
X7908667Y13327333D01*
X7908667Y13227039D01*
G36*
X12730149Y13318799D02*
G01*
X12767466Y13290183D01*
X12764305Y13270645D01*
X12735444Y13216302D01*
X12670253Y13103948D01*
X12577010Y12947535D01*
X12463991Y12761016D01*
X12399943Y12656416D01*
X12281992Y12462988D01*
X12181588Y12295508D01*
X12106357Y12166923D01*
X12063926Y12090182D01*
X12057334Y12074745D01*
X12077785Y12031995D01*
X12134359Y11929131D01*
X12219888Y11778797D01*
X12327203Y11593641D01*
X12411069Y11450724D01*
X12565716Y11189192D01*
X12681645Y10992228D01*
X12761941Y10850769D01*
X12809687Y10755756D01*
X12827968Y10698128D01*
X12819868Y10668823D01*
X12788470Y10658782D01*
X12736858Y10658943D01*
X12680098Y10660333D01*
X12495550Y10660333D01*
X12181192Y11231300D01*
X12071648Y11427880D01*
X11975924Y11595169D01*
X11901492Y11720458D01*
X11855825Y11791036D01*
X11845667Y11801929D01*
X11818877Y11766813D01*
X11758875Y11670171D01*
X11673199Y11524691D01*
X11569386Y11343060D01*
X11507000Y11231833D01*
X11189500Y10662076D01*
X11026221Y10661204D01*
X10920442Y10667755D01*
X10882786Y10693633D01*
X10887201Y10723552D01*
X10916095Y10779808D01*
X10980594Y10895210D01*
X11072936Y11056185D01*
X11185356Y11249163D01*
X11272730Y11397526D01*
X11392837Y11603435D01*
X11496042Y11785825D01*
X11575153Y11931539D01*
X11622977Y12027423D01*
X11634000Y12058306D01*
X11613217Y12110145D01*
X11555834Y12220745D01*
X11469297Y12376561D01*
X11361056Y12564048D01*
X11288807Y12686082D01*
X11170216Y12884753D01*
X11067000Y13058014D01*
X10986951Y13192759D01*
X10937861Y13275881D01*
X10926475Y13295583D01*
X10953177Y13314444D01*
X11040514Y13325109D01*
X11091752Y13326068D01*
X11274167Y13324804D01*
X11549334Y12840500D01*
X11653519Y12660736D01*
X11744212Y12510986D01*
X11812791Y12404998D01*
X11850639Y12356517D01*
X11853781Y12354931D01*
X11884832Y12388901D01*
X11949329Y12482831D01*
X12038529Y12623277D01*
X12143688Y12796792D01*
X12169528Y12840500D01*
X12455994Y13327333D01*
X12621026Y13327333D01*
X12730149Y13318799D01*
X12730149Y13318799D01*
G37*
X12730149Y13318799D02*
X12767466Y13290183D01*
X12764305Y13270645D01*
X12735444Y13216302D01*
X12670253Y13103948D01*
X12577010Y12947535D01*
X12463991Y12761016D01*
X12399943Y12656416D01*
X12281992Y12462988D01*
X12181588Y12295508D01*
X12106357Y12166923D01*
X12063926Y12090182D01*
X12057334Y12074745D01*
X12077785Y12031995D01*
X12134359Y11929131D01*
X12219888Y11778797D01*
X12327203Y11593641D01*
X12411069Y11450724D01*
X12565716Y11189192D01*
X12681645Y10992228D01*
X12761941Y10850769D01*
X12809687Y10755756D01*
X12827968Y10698128D01*
X12819868Y10668823D01*
X12788470Y10658782D01*
X12736858Y10658943D01*
X12680098Y10660333D01*
X12495550Y10660333D01*
X12181192Y11231300D01*
X12071648Y11427880D01*
X11975924Y11595169D01*
X11901492Y11720458D01*
X11855825Y11791036D01*
X11845667Y11801929D01*
X11818877Y11766813D01*
X11758875Y11670171D01*
X11673199Y11524691D01*
X11569386Y11343060D01*
X11507000Y11231833D01*
X11189500Y10662076D01*
X11026221Y10661204D01*
X10920442Y10667755D01*
X10882786Y10693633D01*
X10887201Y10723552D01*
X10916095Y10779808D01*
X10980594Y10895210D01*
X11072936Y11056185D01*
X11185356Y11249163D01*
X11272730Y11397526D01*
X11392837Y11603435D01*
X11496042Y11785825D01*
X11575153Y11931539D01*
X11622977Y12027423D01*
X11634000Y12058306D01*
X11613217Y12110145D01*
X11555834Y12220745D01*
X11469297Y12376561D01*
X11361056Y12564048D01*
X11288807Y12686082D01*
X11170216Y12884753D01*
X11067000Y13058014D01*
X10986951Y13192759D01*
X10937861Y13275881D01*
X10926475Y13295583D01*
X10953177Y13314444D01*
X11040514Y13325109D01*
X11091752Y13326068D01*
X11274167Y13324804D01*
X11549334Y12840500D01*
X11653519Y12660736D01*
X11744212Y12510986D01*
X11812791Y12404998D01*
X11850639Y12356517D01*
X11853781Y12354931D01*
X11884832Y12388901D01*
X11949329Y12482831D01*
X12038529Y12623277D01*
X12143688Y12796792D01*
X12169528Y12840500D01*
X12455994Y13327333D01*
X12621026Y13327333D01*
X12730149Y13318799D01*
G36*
X17476000Y13031000D02*
G01*
X16714000Y13031000D01*
X16714000Y10660333D01*
X16375334Y10660333D01*
X16375334Y13031000D01*
X15613334Y13031000D01*
X15613334Y13327333D01*
X17476000Y13327333D01*
X17476000Y13031000D01*
X17476000Y13031000D01*
G37*
X17476000Y13031000D02*
X16714000Y13031000D01*
X16714000Y10660333D01*
X16375334Y10660333D01*
X16375334Y13031000D01*
X15613334Y13031000D01*
X15613334Y13327333D01*
X17476000Y13327333D01*
X17476000Y13031000D01*
G36*
X20735667Y12226666D02*
G01*
X21794000Y12226666D01*
X21794000Y13327333D01*
X22132667Y13327333D01*
X22132667Y10660333D01*
X21796264Y10660333D01*
X21784549Y11284750D01*
X21772834Y11909166D01*
X21254250Y11921053D01*
X20735667Y11932939D01*
X20735667Y10660333D01*
X20397000Y10660333D01*
X20397000Y13327333D01*
X20735667Y13327333D01*
X20735667Y12226666D01*
X20735667Y12226666D01*
G37*
X20735667Y12226666D02*
X21794000Y12226666D01*
X21794000Y13327333D01*
X22132667Y13327333D01*
X22132667Y10660333D01*
X21796264Y10660333D01*
X21784549Y11284750D01*
X21772834Y11909166D01*
X21254250Y11921053D01*
X20735667Y11932939D01*
X20735667Y10660333D01*
X20397000Y10660333D01*
X20397000Y13327333D01*
X20735667Y13327333D01*
X20735667Y12226666D01*
G36*
X25699250Y13320202D02*
G01*
X25994037Y13304771D01*
X26219337Y13273492D01*
X26389583Y13221744D01*
X26519206Y13144901D01*
X26622641Y13038340D01*
X26636458Y13019961D01*
X26702384Y12874767D01*
X26736590Y12683637D01*
X26737453Y12479772D01*
X26703348Y12296373D01*
X26675205Y12227510D01*
X26581155Y12100297D01*
X26446419Y11977849D01*
X26306707Y11891283D01*
X26275128Y11878876D01*
X26280015Y11839651D01*
X26323240Y11741588D01*
X26398262Y11597641D01*
X26498540Y11420766D01*
X26551119Y11332294D01*
X26693690Y11095691D01*
X26796058Y10922259D01*
X26860988Y10802215D01*
X26891245Y10725776D01*
X26889593Y10683158D01*
X26858795Y10664578D01*
X26801617Y10660252D01*
X26740946Y10660481D01*
X26556500Y10660628D01*
X26245044Y11210814D01*
X25933587Y11761000D01*
X25519334Y11761000D01*
X25519334Y10660333D01*
X25180667Y10660333D01*
X25180667Y13031000D01*
X25519334Y13031000D01*
X25519334Y12057333D01*
X25762750Y12057399D01*
X25962656Y12074545D01*
X26129954Y12120556D01*
X26153745Y12131482D01*
X26307633Y12249869D01*
X26391150Y12415324D01*
X26407709Y12552758D01*
X26380771Y12748351D01*
X26295114Y12890184D01*
X26146567Y12981523D01*
X25930954Y13025634D01*
X25796602Y13031000D01*
X25519334Y13031000D01*
X25180667Y13031000D01*
X25180667Y13334238D01*
X25699250Y13320202D01*
X25699250Y13320202D01*
G37*
X25699250Y13320202D02*
X25994037Y13304771D01*
X26219337Y13273492D01*
X26389583Y13221744D01*
X26519206Y13144901D01*
X26622641Y13038340D01*
X26636458Y13019961D01*
X26702384Y12874767D01*
X26736590Y12683637D01*
X26737453Y12479772D01*
X26703348Y12296373D01*
X26675205Y12227510D01*
X26581155Y12100297D01*
X26446419Y11977849D01*
X26306707Y11891283D01*
X26275128Y11878876D01*
X26280015Y11839651D01*
X26323240Y11741588D01*
X26398262Y11597641D01*
X26498540Y11420766D01*
X26551119Y11332294D01*
X26693690Y11095691D01*
X26796058Y10922259D01*
X26860988Y10802215D01*
X26891245Y10725776D01*
X26889593Y10683158D01*
X26858795Y10664578D01*
X26801617Y10660252D01*
X26740946Y10660481D01*
X26556500Y10660628D01*
X26245044Y11210814D01*
X25933587Y11761000D01*
X25519334Y11761000D01*
X25519334Y10660333D01*
X25180667Y10660333D01*
X25180667Y13031000D01*
X25519334Y13031000D01*
X25519334Y12057333D01*
X25762750Y12057399D01*
X25962656Y12074545D01*
X26129954Y12120556D01*
X26153745Y12131482D01*
X26307633Y12249869D01*
X26391150Y12415324D01*
X26407709Y12552758D01*
X26380771Y12748351D01*
X26295114Y12890184D01*
X26146567Y12981523D01*
X25930954Y13025634D01*
X25796602Y13031000D01*
X25519334Y13031000D01*
X25180667Y13031000D01*
X25180667Y13334238D01*
X25699250Y13320202D01*
G36*
X31530667Y13031000D02*
G01*
X30345334Y13031000D01*
X30345334Y12226666D01*
X31446000Y12226666D01*
X31446000Y11930333D01*
X30345334Y11930333D01*
X30345334Y10956666D01*
X31530667Y10956666D01*
X31530667Y10660333D01*
X30006667Y10660333D01*
X30006667Y13327333D01*
X31530667Y13327333D01*
X31530667Y13031000D01*
X31530667Y13031000D01*
G37*
X31530667Y13031000D02*
X30345334Y13031000D01*
X30345334Y12226666D01*
X31446000Y12226666D01*
X31446000Y11930333D01*
X30345334Y11930333D01*
X30345334Y10956666D01*
X31530667Y10956666D01*
X31530667Y10660333D01*
X30006667Y10660333D01*
X30006667Y13327333D01*
X31530667Y13327333D01*
X31530667Y13031000D01*
G36*
X36229667Y13031000D02*
G01*
X35044334Y13031000D01*
X35044334Y12229124D01*
X35605250Y12217312D01*
X36166167Y12205500D01*
X36179339Y12069163D01*
X36192512Y11932827D01*
X35629006Y11920997D01*
X35065500Y11909166D01*
X35065500Y10977833D01*
X35647584Y10966055D01*
X36229667Y10954277D01*
X36229667Y10660333D01*
X35495889Y10660333D01*
X35254761Y10661887D01*
X35043645Y10666195D01*
X34876859Y10672726D01*
X34768722Y10680951D01*
X34733889Y10688555D01*
X34726895Y10736373D01*
X34720533Y10858353D01*
X34715024Y11043993D01*
X34710590Y11282790D01*
X34707454Y11564240D01*
X34705839Y11877842D01*
X34705667Y12022055D01*
X34705667Y13327333D01*
X36229667Y13327333D01*
X36229667Y13031000D01*
X36229667Y13031000D01*
G37*
X36229667Y13031000D02*
X35044334Y13031000D01*
X35044334Y12229124D01*
X35605250Y12217312D01*
X36166167Y12205500D01*
X36179339Y12069163D01*
X36192512Y11932827D01*
X35629006Y11920997D01*
X35065500Y11909166D01*
X35065500Y10977833D01*
X35647584Y10966055D01*
X36229667Y10954277D01*
X36229667Y10660333D01*
X35495889Y10660333D01*
X35254761Y10661887D01*
X35043645Y10666195D01*
X34876859Y10672726D01*
X34768722Y10680951D01*
X34733889Y10688555D01*
X34726895Y10736373D01*
X34720533Y10858353D01*
X34715024Y11043993D01*
X34710590Y11282790D01*
X34707454Y11564240D01*
X34705839Y11877842D01*
X34705667Y12022055D01*
X34705667Y13327333D01*
X36229667Y13327333D01*
X36229667Y13031000D01*
G36*
X26397465Y18074912D02*
G01*
X26413868Y18071594D01*
X26585187Y18032017D01*
X26685930Y17993593D01*
X26729185Y17944501D01*
X26728042Y17872921D01*
X26708607Y17805439D01*
X26660328Y17659151D01*
X26422154Y17739558D01*
X26171056Y17794818D01*
X25954731Y17776403D01*
X25764034Y17683023D01*
X25709158Y17639061D01*
X25579093Y17492540D01*
X25489555Y17310333D01*
X25436280Y17078763D01*
X25415004Y16784152D01*
X25414192Y16692833D01*
X25417402Y16484467D01*
X25429062Y16335231D01*
X25453425Y16219694D01*
X25494746Y16112424D01*
X25520025Y16060033D01*
X25601370Y15924322D01*
X25692447Y15810095D01*
X25738430Y15768372D01*
X25876830Y15705033D01*
X26057637Y15669276D01*
X26241771Y15665700D01*
X26376584Y15693236D01*
X26431666Y15717745D01*
X26465881Y15751490D01*
X26484195Y15812692D01*
X26491578Y15919574D01*
X26492995Y16090358D01*
X26493000Y16120285D01*
X26493000Y16502333D01*
X26069667Y16502333D01*
X26069667Y16798666D01*
X26831667Y16798666D01*
X26831667Y15524346D01*
X26681278Y15461510D01*
X26516048Y15414445D01*
X26306329Y15384997D01*
X26083257Y15374562D01*
X25877970Y15384537D01*
X25721602Y15416320D01*
X25716403Y15418215D01*
X25485704Y15548128D01*
X25302578Y15744980D01*
X25169032Y16004352D01*
X25087072Y16321824D01*
X25058707Y16692975D01*
X25062918Y16857412D01*
X25096250Y17169306D01*
X25164563Y17422311D01*
X25274989Y17637497D01*
X25369796Y17763606D01*
X25570153Y17937359D01*
X25818370Y18050156D01*
X26099217Y18097505D01*
X26397465Y18074912D01*
X26397465Y18074912D01*
G37*
X26397465Y18074912D02*
X26413868Y18071594D01*
X26585187Y18032017D01*
X26685930Y17993593D01*
X26729185Y17944501D01*
X26728042Y17872921D01*
X26708607Y17805439D01*
X26660328Y17659151D01*
X26422154Y17739558D01*
X26171056Y17794818D01*
X25954731Y17776403D01*
X25764034Y17683023D01*
X25709158Y17639061D01*
X25579093Y17492540D01*
X25489555Y17310333D01*
X25436280Y17078763D01*
X25415004Y16784152D01*
X25414192Y16692833D01*
X25417402Y16484467D01*
X25429062Y16335231D01*
X25453425Y16219694D01*
X25494746Y16112424D01*
X25520025Y16060033D01*
X25601370Y15924322D01*
X25692447Y15810095D01*
X25738430Y15768372D01*
X25876830Y15705033D01*
X26057637Y15669276D01*
X26241771Y15665700D01*
X26376584Y15693236D01*
X26431666Y15717745D01*
X26465881Y15751490D01*
X26484195Y15812692D01*
X26491578Y15919574D01*
X26492995Y16090358D01*
X26493000Y16120285D01*
X26493000Y16502333D01*
X26069667Y16502333D01*
X26069667Y16798666D01*
X26831667Y16798666D01*
X26831667Y15524346D01*
X26681278Y15461510D01*
X26516048Y15414445D01*
X26306329Y15384997D01*
X26083257Y15374562D01*
X25877970Y15384537D01*
X25721602Y15416320D01*
X25716403Y15418215D01*
X25485704Y15548128D01*
X25302578Y15744980D01*
X25169032Y16004352D01*
X25087072Y16321824D01*
X25058707Y16692975D01*
X25062918Y16857412D01*
X25096250Y17169306D01*
X25164563Y17422311D01*
X25274989Y17637497D01*
X25369796Y17763606D01*
X25570153Y17937359D01*
X25818370Y18050156D01*
X26099217Y18097505D01*
X26397465Y18074912D01*
G36*
X3379000Y17772333D02*
G01*
X2193667Y17772333D01*
X2193667Y16843457D01*
X2754584Y16831645D01*
X3315500Y16819833D01*
X3328673Y16683497D01*
X3341845Y16547160D01*
X2778339Y16535330D01*
X2214834Y16523500D01*
X2203021Y15962583D01*
X2191209Y15401666D01*
X1855000Y15401666D01*
X1855000Y18068666D01*
X3379000Y18068666D01*
X3379000Y17772333D01*
X3379000Y17772333D01*
G37*
X3379000Y17772333D02*
X2193667Y17772333D01*
X2193667Y16843457D01*
X2754584Y16831645D01*
X3315500Y16819833D01*
X3328673Y16683497D01*
X3341845Y16547160D01*
X2778339Y16535330D01*
X2214834Y16523500D01*
X2203021Y15962583D01*
X2191209Y15401666D01*
X1855000Y15401666D01*
X1855000Y18068666D01*
X3379000Y18068666D01*
X3379000Y17772333D01*
G36*
X7908667Y17967362D02*
G01*
X7892314Y17889418D01*
X7833543Y17842349D01*
X7717783Y17819653D01*
X7566538Y17814666D01*
X7358334Y17814666D01*
X7358334Y15655666D01*
X7501209Y15655666D01*
X7707221Y15644302D01*
X7838184Y15608517D01*
X7900841Y15545772D01*
X7908667Y15502208D01*
X7908667Y15401666D01*
X6511667Y15401666D01*
X6511667Y15502208D01*
X6545138Y15582524D01*
X6648605Y15632648D01*
X6826647Y15654400D01*
X6897959Y15655666D01*
X7019667Y15655666D01*
X7019667Y17810441D01*
X6776250Y17823137D01*
X6638621Y17833135D01*
X6564141Y17851934D01*
X6531318Y17890341D01*
X6519438Y17952250D01*
X6506043Y18068666D01*
X7908667Y18068666D01*
X7908667Y17967362D01*
X7908667Y17967362D01*
G37*
X7908667Y17967362D02*
X7892314Y17889418D01*
X7833543Y17842349D01*
X7717783Y17819653D01*
X7566538Y17814666D01*
X7358334Y17814666D01*
X7358334Y15655666D01*
X7501209Y15655666D01*
X7707221Y15644302D01*
X7838184Y15608517D01*
X7900841Y15545772D01*
X7908667Y15502208D01*
X7908667Y15401666D01*
X6511667Y15401666D01*
X6511667Y15502208D01*
X6545138Y15582524D01*
X6648605Y15632648D01*
X6826647Y15654400D01*
X6897959Y15655666D01*
X7019667Y15655666D01*
X7019667Y17810441D01*
X6776250Y17823137D01*
X6638621Y17833135D01*
X6564141Y17851934D01*
X6531318Y17890341D01*
X6519438Y17952250D01*
X6506043Y18068666D01*
X7908667Y18068666D01*
X7908667Y17967362D01*
G36*
X11095786Y18063773D02*
G01*
X11153995Y18035068D01*
X11194373Y17961515D01*
X11226408Y17867583D01*
X11289223Y17670919D01*
X11363611Y17434893D01*
X11444789Y17175012D01*
X11527976Y16906787D01*
X11608391Y16645726D01*
X11681252Y16407339D01*
X11741777Y16207135D01*
X11785185Y16060623D01*
X11803547Y15995623D01*
X11853935Y15806412D01*
X12059165Y16482456D01*
X12141667Y16752867D01*
X12228961Y17036691D01*
X12312417Y17306012D01*
X12383406Y17532916D01*
X12405569Y17603000D01*
X12546743Y18047500D01*
X12729054Y18060697D01*
X12841556Y18064581D01*
X12888925Y18049302D01*
X12889895Y18007321D01*
X12886860Y17997197D01*
X12867757Y17939116D01*
X12825329Y17811167D01*
X12763052Y17623796D01*
X12684401Y17387449D01*
X12592851Y17112572D01*
X12491877Y16809610D01*
X12445881Y16671666D01*
X12029406Y15422833D01*
X11684294Y15397187D01*
X11256980Y16708014D01*
X11153887Y17025002D01*
X11059743Y17315891D01*
X10977644Y17571005D01*
X10910686Y17780667D01*
X10861965Y17935199D01*
X10834577Y18024925D01*
X10829667Y18043754D01*
X10867209Y18059491D01*
X10960768Y18068111D01*
X10995598Y18068666D01*
X11095786Y18063773D01*
X11095786Y18063773D01*
G37*
X11095786Y18063773D02*
X11153995Y18035068D01*
X11194373Y17961515D01*
X11226408Y17867583D01*
X11289223Y17670919D01*
X11363611Y17434893D01*
X11444789Y17175012D01*
X11527976Y16906787D01*
X11608391Y16645726D01*
X11681252Y16407339D01*
X11741777Y16207135D01*
X11785185Y16060623D01*
X11803547Y15995623D01*
X11853935Y15806412D01*
X12059165Y16482456D01*
X12141667Y16752867D01*
X12228961Y17036691D01*
X12312417Y17306012D01*
X12383406Y17532916D01*
X12405569Y17603000D01*
X12546743Y18047500D01*
X12729054Y18060697D01*
X12841556Y18064581D01*
X12888925Y18049302D01*
X12889895Y18007321D01*
X12886860Y17997197D01*
X12867757Y17939116D01*
X12825329Y17811167D01*
X12763052Y17623796D01*
X12684401Y17387449D01*
X12592851Y17112572D01*
X12491877Y16809610D01*
X12445881Y16671666D01*
X12029406Y15422833D01*
X11684294Y15397187D01*
X11256980Y16708014D01*
X11153887Y17025002D01*
X11059743Y17315891D01*
X10977644Y17571005D01*
X10910686Y17780667D01*
X10861965Y17935199D01*
X10834577Y18024925D01*
X10829667Y18043754D01*
X10867209Y18059491D01*
X10960768Y18068111D01*
X10995598Y18068666D01*
X11095786Y18063773D01*
G36*
X17349000Y17772333D02*
G01*
X16160601Y17772333D01*
X16172717Y17359583D01*
X16184834Y16946833D01*
X16748339Y16935003D01*
X17311845Y16923173D01*
X17298673Y16786836D01*
X17285500Y16650500D01*
X16724584Y16638688D01*
X16163667Y16626876D01*
X16163667Y15698000D01*
X17349000Y15698000D01*
X17349000Y15401666D01*
X15825000Y15401666D01*
X15825000Y18068666D01*
X17349000Y18068666D01*
X17349000Y17772333D01*
X17349000Y17772333D01*
G37*
X17349000Y17772333D02*
X16160601Y17772333D01*
X16172717Y17359583D01*
X16184834Y16946833D01*
X16748339Y16935003D01*
X17311845Y16923173D01*
X17298673Y16786836D01*
X17285500Y16650500D01*
X16724584Y16638688D01*
X16163667Y16626876D01*
X16163667Y15698000D01*
X17349000Y15698000D01*
X17349000Y15401666D01*
X15825000Y15401666D01*
X15825000Y18068666D01*
X17349000Y18068666D01*
X17349000Y17772333D01*
G36*
X21963334Y17967362D02*
G01*
X21946981Y17889418D01*
X21888209Y17842349D01*
X21772450Y17819653D01*
X21621204Y17814666D01*
X21413000Y17814666D01*
X21413000Y15655666D01*
X21555875Y15655666D01*
X21761887Y15644302D01*
X21892851Y15608517D01*
X21955508Y15545772D01*
X21963334Y15502208D01*
X21963334Y15401666D01*
X20566334Y15401666D01*
X20566334Y15502208D01*
X20599805Y15582524D01*
X20703271Y15632648D01*
X20881313Y15654400D01*
X20952625Y15655666D01*
X21074334Y15655666D01*
X21074334Y17810441D01*
X20830917Y17823137D01*
X20693287Y17833135D01*
X20618808Y17851934D01*
X20585985Y17890341D01*
X20574105Y17952250D01*
X20560710Y18068666D01*
X21963334Y18068666D01*
X21963334Y17967362D01*
X21963334Y17967362D01*
G37*
X21963334Y17967362D02*
X21946981Y17889418D01*
X21888209Y17842349D01*
X21772450Y17819653D01*
X21621204Y17814666D01*
X21413000Y17814666D01*
X21413000Y15655666D01*
X21555875Y15655666D01*
X21761887Y15644302D01*
X21892851Y15608517D01*
X21955508Y15545772D01*
X21963334Y15502208D01*
X21963334Y15401666D01*
X20566334Y15401666D01*
X20566334Y15502208D01*
X20599805Y15582524D01*
X20703271Y15632648D01*
X20881313Y15654400D01*
X20952625Y15655666D01*
X21074334Y15655666D01*
X21074334Y17810441D01*
X20830917Y17823137D01*
X20693287Y17833135D01*
X20618808Y17851934D01*
X20585985Y17890341D01*
X20574105Y17952250D01*
X20560710Y18068666D01*
X21963334Y18068666D01*
X21963334Y17967362D01*
G36*
X30176000Y16925666D02*
G01*
X31234334Y16925666D01*
X31234334Y18068666D01*
X31573000Y18068666D01*
X31573000Y15401666D01*
X31234334Y15401666D01*
X31234334Y16629333D01*
X30176000Y16629333D01*
X30176000Y15401666D01*
X29837334Y15401666D01*
X29837334Y18068666D01*
X30176000Y18068666D01*
X30176000Y16925666D01*
X30176000Y16925666D01*
G37*
X30176000Y16925666D02*
X31234334Y16925666D01*
X31234334Y18068666D01*
X31573000Y18068666D01*
X31573000Y15401666D01*
X31234334Y15401666D01*
X31234334Y16629333D01*
X30176000Y16629333D01*
X30176000Y15401666D01*
X29837334Y15401666D01*
X29837334Y18068666D01*
X30176000Y18068666D01*
X30176000Y16925666D01*
G36*
X36356667Y17772333D02*
G01*
X35594667Y17772333D01*
X35594667Y15401666D01*
X35256000Y15401666D01*
X35256000Y17772333D01*
X34488636Y17772333D01*
X34501901Y17909916D01*
X34515167Y18047500D01*
X36356667Y18070318D01*
X36356667Y17772333D01*
X36356667Y17772333D01*
G37*
X36356667Y17772333D02*
X35594667Y17772333D01*
X35594667Y15401666D01*
X35256000Y15401666D01*
X35256000Y17772333D01*
X34488636Y17772333D01*
X34501901Y17909916D01*
X34515167Y18047500D01*
X36356667Y18070318D01*
X36356667Y17772333D01*
G36*
X16842958Y22809333D02*
G01*
X17043346Y22784811D01*
X17203551Y22748846D01*
X17305494Y22704912D01*
X17327776Y22683093D01*
X17327108Y22621483D01*
X17291939Y22526247D01*
X17288497Y22519463D01*
X17243051Y22441931D01*
X17195937Y22417048D01*
X17114913Y22435227D01*
X17064517Y22452861D01*
X16938082Y22482652D01*
X16766284Y22503979D01*
X16603293Y22511808D01*
X16376810Y22499090D01*
X16221156Y22453240D01*
X16126747Y22367620D01*
X16083998Y22235593D01*
X16079000Y22148739D01*
X16090667Y22026597D01*
X16133175Y21926289D01*
X16217786Y21837571D01*
X16355762Y21750203D01*
X16558365Y21653942D01*
X16679639Y21602498D01*
X16866591Y21517417D01*
X17040314Y21425076D01*
X17174171Y21340176D01*
X17216830Y21306028D01*
X17302292Y21217917D01*
X17349851Y21131353D01*
X17373721Y21012894D01*
X17382283Y20916807D01*
X17375858Y20670560D01*
X17311940Y20477994D01*
X17183840Y20325060D01*
X17059047Y20237930D01*
X16953459Y20182297D01*
X16850226Y20147000D01*
X16723674Y20126685D01*
X16548123Y20115998D01*
X16461306Y20113297D01*
X16238696Y20114201D01*
X16043054Y20127728D01*
X15901306Y20151887D01*
X15888500Y20155623D01*
X15779181Y20197833D01*
X15727371Y20252084D01*
X15707691Y20347688D01*
X15706028Y20366366D01*
X15700907Y20459278D01*
X15716472Y20506441D01*
X15769664Y20513885D01*
X15877423Y20487635D01*
X15969312Y20460042D01*
X16192460Y20412601D01*
X16426606Y20396517D01*
X16645122Y20411148D01*
X16821375Y20455853D01*
X16873805Y20481844D01*
X17005744Y20602462D01*
X17072975Y20751220D01*
X17073281Y20907634D01*
X17004442Y21051219D01*
X16942124Y21112808D01*
X16853774Y21167612D01*
X16713457Y21239057D01*
X16548285Y21313539D01*
X16511458Y21328918D01*
X16337875Y21404398D01*
X16176709Y21481554D01*
X16058532Y21545621D01*
X16044357Y21554511D01*
X15887067Y21704062D01*
X15784802Y21899899D01*
X15743048Y22119650D01*
X15767290Y22340939D01*
X15819412Y22471994D01*
X15955269Y22637454D01*
X16156503Y22750040D01*
X16421974Y22809255D01*
X16620464Y22818941D01*
X16842958Y22809333D01*
X16842958Y22809333D01*
G37*
X16842958Y22809333D02*
X17043346Y22784811D01*
X17203551Y22748846D01*
X17305494Y22704912D01*
X17327776Y22683093D01*
X17327108Y22621483D01*
X17291939Y22526247D01*
X17288497Y22519463D01*
X17243051Y22441931D01*
X17195937Y22417048D01*
X17114913Y22435227D01*
X17064517Y22452861D01*
X16938082Y22482652D01*
X16766284Y22503979D01*
X16603293Y22511808D01*
X16376810Y22499090D01*
X16221156Y22453240D01*
X16126747Y22367620D01*
X16083998Y22235593D01*
X16079000Y22148739D01*
X16090667Y22026597D01*
X16133175Y21926289D01*
X16217786Y21837571D01*
X16355762Y21750203D01*
X16558365Y21653942D01*
X16679639Y21602498D01*
X16866591Y21517417D01*
X17040314Y21425076D01*
X17174171Y21340176D01*
X17216830Y21306028D01*
X17302292Y21217917D01*
X17349851Y21131353D01*
X17373721Y21012894D01*
X17382283Y20916807D01*
X17375858Y20670560D01*
X17311940Y20477994D01*
X17183840Y20325060D01*
X17059047Y20237930D01*
X16953459Y20182297D01*
X16850226Y20147000D01*
X16723674Y20126685D01*
X16548123Y20115998D01*
X16461306Y20113297D01*
X16238696Y20114201D01*
X16043054Y20127728D01*
X15901306Y20151887D01*
X15888500Y20155623D01*
X15779181Y20197833D01*
X15727371Y20252084D01*
X15707691Y20347688D01*
X15706028Y20366366D01*
X15700907Y20459278D01*
X15716472Y20506441D01*
X15769664Y20513885D01*
X15877423Y20487635D01*
X15969312Y20460042D01*
X16192460Y20412601D01*
X16426606Y20396517D01*
X16645122Y20411148D01*
X16821375Y20455853D01*
X16873805Y20481844D01*
X17005744Y20602462D01*
X17072975Y20751220D01*
X17073281Y20907634D01*
X17004442Y21051219D01*
X16942124Y21112808D01*
X16853774Y21167612D01*
X16713457Y21239057D01*
X16548285Y21313539D01*
X16511458Y21328918D01*
X16337875Y21404398D01*
X16176709Y21481554D01*
X16058532Y21545621D01*
X16044357Y21554511D01*
X15887067Y21704062D01*
X15784802Y21899899D01*
X15743048Y22119650D01*
X15767290Y22340939D01*
X15819412Y22471994D01*
X15955269Y22637454D01*
X16156503Y22750040D01*
X16421974Y22809255D01*
X16620464Y22818941D01*
X16842958Y22809333D01*
G36*
X26086553Y22819101D02*
G01*
X26268165Y22787209D01*
X26351607Y22755148D01*
X26557478Y22599254D01*
X26716507Y22372890D01*
X26828653Y22076140D01*
X26893873Y21709089D01*
X26901483Y21624666D01*
X26902945Y21282492D01*
X26856839Y20961528D01*
X26767786Y20675690D01*
X26640409Y20438892D01*
X26479329Y20265051D01*
X26440592Y20237141D01*
X26226666Y20141359D01*
X25979130Y20102476D01*
X25728357Y20121939D01*
X25519675Y20193249D01*
X25321728Y20337095D01*
X25171879Y20541674D01*
X25068842Y20810148D01*
X25011330Y21145676D01*
X24997244Y21476500D01*
X25371167Y21476500D01*
X25372677Y21242553D01*
X25378924Y21073761D01*
X25392484Y20950642D01*
X25415931Y20853712D01*
X25451841Y20763487D01*
X25470600Y20724244D01*
X25549586Y20594791D01*
X25639166Y20491638D01*
X25682266Y20458926D01*
X25835461Y20412031D01*
X26016586Y20412311D01*
X26189281Y20455818D01*
X26305206Y20526542D01*
X26409491Y20667843D01*
X26480958Y20868327D01*
X26520943Y21134282D01*
X26530783Y21471996D01*
X26528445Y21576293D01*
X26519163Y21800517D01*
X26505541Y21960626D01*
X26484025Y22077167D01*
X26451064Y22170690D01*
X26412888Y22244819D01*
X26287791Y22411268D01*
X26137812Y22502897D01*
X25947370Y22529040D01*
X25938721Y22528856D01*
X25747956Y22491885D01*
X25594530Y22387001D01*
X25467148Y22206480D01*
X25466961Y22206131D01*
X25426827Y22122509D01*
X25399661Y22036733D01*
X25383002Y21930057D01*
X25374391Y21783736D01*
X25371365Y21579024D01*
X25371167Y21476500D01*
X24997244Y21476500D01*
X25020631Y21867907D01*
X25089751Y22190596D01*
X25206053Y22448010D01*
X25370988Y22643593D01*
X25536201Y22756427D01*
X25685717Y22803765D01*
X25880785Y22824638D01*
X26086553Y22819101D01*
X26086553Y22819101D01*
G37*
X26086553Y22819101D02*
X26268165Y22787209D01*
X26351607Y22755148D01*
X26557478Y22599254D01*
X26716507Y22372890D01*
X26828653Y22076140D01*
X26893873Y21709089D01*
X26901483Y21624666D01*
X26902945Y21282492D01*
X26856839Y20961528D01*
X26767786Y20675690D01*
X26640409Y20438892D01*
X26479329Y20265051D01*
X26440592Y20237141D01*
X26226666Y20141359D01*
X25979130Y20102476D01*
X25728357Y20121939D01*
X25519675Y20193249D01*
X25321728Y20337095D01*
X25171879Y20541674D01*
X25068842Y20810148D01*
X25011330Y21145676D01*
X24997244Y21476500D01*
X25371167Y21476500D01*
X25372677Y21242553D01*
X25378924Y21073761D01*
X25392484Y20950642D01*
X25415931Y20853712D01*
X25451841Y20763487D01*
X25470600Y20724244D01*
X25549586Y20594791D01*
X25639166Y20491638D01*
X25682266Y20458926D01*
X25835461Y20412031D01*
X26016586Y20412311D01*
X26189281Y20455818D01*
X26305206Y20526542D01*
X26409491Y20667843D01*
X26480958Y20868327D01*
X26520943Y21134282D01*
X26530783Y21471996D01*
X26528445Y21576293D01*
X26519163Y21800517D01*
X26505541Y21960626D01*
X26484025Y22077167D01*
X26451064Y22170690D01*
X26412888Y22244819D01*
X26287791Y22411268D01*
X26137812Y22502897D01*
X25947370Y22529040D01*
X25938721Y22528856D01*
X25747956Y22491885D01*
X25594530Y22387001D01*
X25467148Y22206480D01*
X25466961Y22206131D01*
X25426827Y22122509D01*
X25399661Y22036733D01*
X25383002Y21930057D01*
X25374391Y21783736D01*
X25371365Y21579024D01*
X25371167Y21476500D01*
X24997244Y21476500D01*
X25020631Y21867907D01*
X25089751Y22190596D01*
X25206053Y22448010D01*
X25370988Y22643593D01*
X25536201Y22756427D01*
X25685717Y22803765D01*
X25880785Y22824638D01*
X26086553Y22819101D01*
G36*
X35761030Y22781469D02*
G01*
X35979851Y22651469D01*
X36162683Y22446445D01*
X36276804Y22238500D01*
X36354344Y21989607D01*
X36393605Y21696023D01*
X36396178Y21380785D01*
X36363649Y21066927D01*
X36297608Y20777486D01*
X36199643Y20535496D01*
X36154188Y20460500D01*
X35990432Y20291901D01*
X35775934Y20171721D01*
X35533381Y20106230D01*
X35285463Y20101697D01*
X35065500Y20159624D01*
X34862206Y20294203D01*
X34698154Y20499758D01*
X34578420Y20769799D01*
X34571791Y20791075D01*
X34531632Y20939486D01*
X34507444Y21080019D01*
X34496889Y21238840D01*
X34497628Y21442116D01*
X34498036Y21455333D01*
X34855682Y21455333D01*
X34867659Y21135613D01*
X34908865Y20884810D01*
X34982749Y20691194D01*
X35092758Y20543036D01*
X35135290Y20504037D01*
X35302679Y20414182D01*
X35489978Y20394886D01*
X35670962Y20446205D01*
X35756093Y20502676D01*
X35856343Y20614856D01*
X35938742Y20752492D01*
X35947659Y20773246D01*
X36008656Y20990574D01*
X36041341Y21249879D01*
X36046789Y21528313D01*
X36026077Y21803029D01*
X35980281Y22051180D01*
X35910478Y22249918D01*
X35875176Y22311803D01*
X35736257Y22449906D01*
X35562602Y22522191D01*
X35374821Y22526916D01*
X35193524Y22462338D01*
X35085156Y22378643D01*
X34989294Y22255926D01*
X34922041Y22100966D01*
X34879855Y21899501D01*
X34859190Y21637270D01*
X34855682Y21455333D01*
X34498036Y21455333D01*
X34501732Y21574974D01*
X34512828Y21806323D01*
X34529248Y21976469D01*
X34555063Y22108869D01*
X34594345Y22226979D01*
X34628721Y22306528D01*
X34772490Y22539965D01*
X34959791Y22702886D01*
X35197656Y22801171D01*
X35229396Y22808781D01*
X35509713Y22834540D01*
X35761030Y22781469D01*
X35761030Y22781469D01*
G37*
X35761030Y22781469D02*
X35979851Y22651469D01*
X36162683Y22446445D01*
X36276804Y22238500D01*
X36354344Y21989607D01*
X36393605Y21696023D01*
X36396178Y21380785D01*
X36363649Y21066927D01*
X36297608Y20777486D01*
X36199643Y20535496D01*
X36154188Y20460500D01*
X35990432Y20291901D01*
X35775934Y20171721D01*
X35533381Y20106230D01*
X35285463Y20101697D01*
X35065500Y20159624D01*
X34862206Y20294203D01*
X34698154Y20499758D01*
X34578420Y20769799D01*
X34571791Y20791075D01*
X34531632Y20939486D01*
X34507444Y21080019D01*
X34496889Y21238840D01*
X34497628Y21442116D01*
X34498036Y21455333D01*
X34855682Y21455333D01*
X34867659Y21135613D01*
X34908865Y20884810D01*
X34982749Y20691194D01*
X35092758Y20543036D01*
X35135290Y20504037D01*
X35302679Y20414182D01*
X35489978Y20394886D01*
X35670962Y20446205D01*
X35756093Y20502676D01*
X35856343Y20614856D01*
X35938742Y20752492D01*
X35947659Y20773246D01*
X36008656Y20990574D01*
X36041341Y21249879D01*
X36046789Y21528313D01*
X36026077Y21803029D01*
X35980281Y22051180D01*
X35910478Y22249918D01*
X35875176Y22311803D01*
X35736257Y22449906D01*
X35562602Y22522191D01*
X35374821Y22526916D01*
X35193524Y22462338D01*
X35085156Y22378643D01*
X34989294Y22255926D01*
X34922041Y22100966D01*
X34879855Y21899501D01*
X34859190Y21637270D01*
X34855682Y21455333D01*
X34498036Y21455333D01*
X34501732Y21574974D01*
X34512828Y21806323D01*
X34529248Y21976469D01*
X34555063Y22108869D01*
X34594345Y22226979D01*
X34628721Y22306528D01*
X34772490Y22539965D01*
X34959791Y22702886D01*
X35197656Y22801171D01*
X35229396Y22808781D01*
X35509713Y22834540D01*
X35761030Y22781469D01*
G36*
X2161917Y22800303D02*
G01*
X2449017Y22779991D01*
X2670787Y22744417D01*
X2846066Y22687452D01*
X2993698Y22602966D01*
X3132524Y22484828D01*
X3132967Y22484396D01*
X3303614Y22262281D01*
X3423563Y21986966D01*
X3489093Y21675692D01*
X3496480Y21345698D01*
X3446615Y21032000D01*
X3341831Y20741115D01*
X3187032Y20512067D01*
X2973367Y20332707D01*
X2908792Y20293681D01*
X2803902Y20237438D01*
X2710452Y20199521D01*
X2606628Y20175585D01*
X2470621Y20161288D01*
X2280617Y20152284D01*
X2183084Y20149145D01*
X1685667Y20134082D01*
X1685667Y20429779D01*
X2024334Y20429779D01*
X2314714Y20446187D01*
X2510356Y20466924D01*
X2654415Y20508733D01*
X2760354Y20567381D01*
X2933305Y20729778D01*
X3050991Y20948309D01*
X3115165Y21227297D01*
X3129234Y21476500D01*
X3104910Y21802525D01*
X3029983Y22062192D01*
X2901512Y22259120D01*
X2716561Y22396925D01*
X2472191Y22479224D01*
X2295004Y22503531D01*
X2024334Y22525258D01*
X2024334Y20429779D01*
X1685667Y20429779D01*
X1685667Y22821809D01*
X2161917Y22800303D01*
X2161917Y22800303D01*
G37*
X2161917Y22800303D02*
X2449017Y22779991D01*
X2670787Y22744417D01*
X2846066Y22687452D01*
X2993698Y22602966D01*
X3132524Y22484828D01*
X3132967Y22484396D01*
X3303614Y22262281D01*
X3423563Y21986966D01*
X3489093Y21675692D01*
X3496480Y21345698D01*
X3446615Y21032000D01*
X3341831Y20741115D01*
X3187032Y20512067D01*
X2973367Y20332707D01*
X2908792Y20293681D01*
X2803902Y20237438D01*
X2710452Y20199521D01*
X2606628Y20175585D01*
X2470621Y20161288D01*
X2280617Y20152284D01*
X2183084Y20149145D01*
X1685667Y20134082D01*
X1685667Y20429779D01*
X2024334Y20429779D01*
X2314714Y20446187D01*
X2510356Y20466924D01*
X2654415Y20508733D01*
X2760354Y20567381D01*
X2933305Y20729778D01*
X3050991Y20948309D01*
X3115165Y21227297D01*
X3129234Y21476500D01*
X3104910Y21802525D01*
X3029983Y22062192D01*
X2901512Y22259120D01*
X2716561Y22396925D01*
X2472191Y22479224D01*
X2295004Y22503531D01*
X2024334Y22525258D01*
X2024334Y20429779D01*
X1685667Y20429779D01*
X1685667Y22821809D01*
X2161917Y22800303D01*
G36*
X6951644Y22801220D02*
G01*
X7187461Y22789844D01*
X7359295Y22774572D01*
X7487826Y22751943D01*
X7593737Y22718493D01*
X7681184Y22679088D01*
X7861729Y22562425D01*
X7978312Y22416251D01*
X8039564Y22224840D01*
X8054504Y21999055D01*
X8022837Y21734501D01*
X7930770Y21523218D01*
X7775462Y21362801D01*
X7554072Y21250843D01*
X7263762Y21184938D01*
X7072584Y21167389D01*
X6723334Y21148382D01*
X6723334Y20143000D01*
X6427000Y20143000D01*
X6427000Y21455333D01*
X6720728Y21455333D01*
X6965447Y21455569D01*
X7133988Y21463602D01*
X7295187Y21483864D01*
X7366991Y21499361D01*
X7536465Y21579045D01*
X7643602Y21710118D01*
X7692673Y21898973D01*
X7697000Y21993465D01*
X7689887Y22140514D01*
X7660483Y22238807D01*
X7596693Y22323641D01*
X7576883Y22343964D01*
X7414172Y22448910D01*
X7190447Y22503749D01*
X6914464Y22506337D01*
X6913834Y22506286D01*
X6744500Y22492500D01*
X6732614Y21973916D01*
X6720728Y21455333D01*
X6427000Y21455333D01*
X6427000Y22821431D01*
X6951644Y22801220D01*
X6951644Y22801220D01*
G37*
X6951644Y22801220D02*
X7187461Y22789844D01*
X7359295Y22774572D01*
X7487826Y22751943D01*
X7593737Y22718493D01*
X7681184Y22679088D01*
X7861729Y22562425D01*
X7978312Y22416251D01*
X8039564Y22224840D01*
X8054504Y21999055D01*
X8022837Y21734501D01*
X7930770Y21523218D01*
X7775462Y21362801D01*
X7554072Y21250843D01*
X7263762Y21184938D01*
X7072584Y21167389D01*
X6723334Y21148382D01*
X6723334Y20143000D01*
X6427000Y20143000D01*
X6427000Y21455333D01*
X6720728Y21455333D01*
X6965447Y21455569D01*
X7133988Y21463602D01*
X7295187Y21483864D01*
X7366991Y21499361D01*
X7536465Y21579045D01*
X7643602Y21710118D01*
X7692673Y21898973D01*
X7697000Y21993465D01*
X7689887Y22140514D01*
X7660483Y22238807D01*
X7596693Y22323641D01*
X7576883Y22343964D01*
X7414172Y22448910D01*
X7190447Y22503749D01*
X6914464Y22506337D01*
X6913834Y22506286D01*
X6744500Y22492500D01*
X6732614Y21973916D01*
X6720728Y21455333D01*
X6427000Y21455333D01*
X6427000Y22821431D01*
X6951644Y22801220D01*
G36*
X12455154Y21529416D02*
G01*
X12557937Y21214392D01*
X12652789Y20924018D01*
X12736399Y20668411D01*
X12805451Y20457683D01*
X12856635Y20301951D01*
X12886637Y20211329D01*
X12892777Y20193267D01*
X12883434Y20158588D01*
X12812381Y20147507D01*
X12732302Y20150934D01*
X12551782Y20164166D01*
X12429849Y20557165D01*
X12307916Y20950163D01*
X11855947Y20938165D01*
X11403979Y20926166D01*
X11280771Y20534583D01*
X11157564Y20143000D01*
X10993615Y20143000D01*
X10889540Y20148769D01*
X10833043Y20163126D01*
X10829667Y20168213D01*
X10842309Y20213127D01*
X10878171Y20328823D01*
X10934158Y20505609D01*
X11007173Y20733794D01*
X11094120Y21003687D01*
X11190303Y21300656D01*
X11519811Y21300656D01*
X11526208Y21271575D01*
X11581265Y21253924D01*
X11697851Y21245419D01*
X11841138Y21243666D01*
X12026410Y21248039D01*
X12136666Y21262110D01*
X12181152Y21287310D01*
X12183081Y21296583D01*
X12170629Y21355160D01*
X12137493Y21477424D01*
X12088501Y21646333D01*
X12028483Y21844843D01*
X12018987Y21875605D01*
X11946884Y22097755D01*
X11890698Y22247689D01*
X11851863Y22321990D01*
X11832541Y22320105D01*
X11797354Y22200891D01*
X11748977Y22040139D01*
X11693485Y21857644D01*
X11636948Y21673205D01*
X11585441Y21506617D01*
X11545037Y21377676D01*
X11521808Y21306181D01*
X11519811Y21300656D01*
X11190303Y21300656D01*
X11191903Y21305596D01*
X11255670Y21501713D01*
X11681673Y22810000D01*
X12037576Y22810000D01*
X12455154Y21529416D01*
X12455154Y21529416D01*
G37*
X12455154Y21529416D02*
X12557937Y21214392D01*
X12652789Y20924018D01*
X12736399Y20668411D01*
X12805451Y20457683D01*
X12856635Y20301951D01*
X12886637Y20211329D01*
X12892777Y20193267D01*
X12883434Y20158588D01*
X12812381Y20147507D01*
X12732302Y20150934D01*
X12551782Y20164166D01*
X12429849Y20557165D01*
X12307916Y20950163D01*
X11855947Y20938165D01*
X11403979Y20926166D01*
X11280771Y20534583D01*
X11157564Y20143000D01*
X10993615Y20143000D01*
X10889540Y20148769D01*
X10833043Y20163126D01*
X10829667Y20168213D01*
X10842309Y20213127D01*
X10878171Y20328823D01*
X10934158Y20505609D01*
X11007173Y20733794D01*
X11094120Y21003687D01*
X11190303Y21300656D01*
X11519811Y21300656D01*
X11526208Y21271575D01*
X11581265Y21253924D01*
X11697851Y21245419D01*
X11841138Y21243666D01*
X12026410Y21248039D01*
X12136666Y21262110D01*
X12181152Y21287310D01*
X12183081Y21296583D01*
X12170629Y21355160D01*
X12137493Y21477424D01*
X12088501Y21646333D01*
X12028483Y21844843D01*
X12018987Y21875605D01*
X11946884Y22097755D01*
X11890698Y22247689D01*
X11851863Y22321990D01*
X11832541Y22320105D01*
X11797354Y22200891D01*
X11748977Y22040139D01*
X11693485Y21857644D01*
X11636948Y21673205D01*
X11585441Y21506617D01*
X11545037Y21377676D01*
X11521808Y21306181D01*
X11519811Y21300656D01*
X11190303Y21300656D01*
X11191903Y21305596D01*
X11255670Y21501713D01*
X11681673Y22810000D01*
X12037576Y22810000D01*
X12455154Y21529416D01*
G36*
X22175000Y22513666D02*
G01*
X21413000Y22513666D01*
X21413000Y20143000D01*
X21074334Y20143000D01*
X21074334Y22513666D01*
X20306969Y22513666D01*
X20320235Y22651250D01*
X20333500Y22788833D01*
X22175000Y22811651D01*
X22175000Y22513666D01*
X22175000Y22513666D01*
G37*
X22175000Y22513666D02*
X21413000Y22513666D01*
X21413000Y20143000D01*
X21074334Y20143000D01*
X21074334Y22513666D01*
X20306969Y22513666D01*
X20320235Y22651250D01*
X20333500Y22788833D01*
X22175000Y22811651D01*
X22175000Y22513666D01*
G36*
X30434444Y22785700D02*
G01*
X30657063Y22782232D01*
X30816916Y22772951D01*
X30935863Y22754545D01*
X31035768Y22723701D01*
X31132944Y22679867D01*
X31287926Y22583903D01*
X31392985Y22463666D01*
X31435417Y22388280D01*
X31515865Y22146066D01*
X31514607Y21910204D01*
X31434572Y21689417D01*
X31278688Y21492427D01*
X31086517Y21348890D01*
X31063249Y21325626D01*
X31060351Y21286285D01*
X31082686Y21219842D01*
X31135117Y21115271D01*
X31222509Y20961547D01*
X31349724Y20747645D01*
X31357287Y20735057D01*
X31700378Y20164166D01*
X31525104Y20150868D01*
X31405852Y20151521D01*
X31322504Y20169401D01*
X31309577Y20177823D01*
X31274650Y20227854D01*
X31207098Y20336793D01*
X31115879Y20489794D01*
X31009949Y20672012D01*
X30982278Y20720288D01*
X30695231Y21222500D01*
X30281834Y21222500D01*
X30269985Y20682750D01*
X30258137Y20143000D01*
X29920794Y20143000D01*
X29931980Y21465916D01*
X29932606Y21540000D01*
X30260667Y21540000D01*
X30533078Y21540000D01*
X30694475Y21546245D01*
X30835899Y21562448D01*
X30911864Y21580444D01*
X31045757Y21674307D01*
X31131216Y21827961D01*
X31160184Y22026777D01*
X31160131Y22031203D01*
X31132331Y22221437D01*
X31051280Y22360209D01*
X30910637Y22452033D01*
X30704061Y22501426D01*
X30482917Y22513430D01*
X30260667Y22513666D01*
X30260667Y21540000D01*
X29932606Y21540000D01*
X29943167Y22788833D01*
X30434444Y22785700D01*
X30434444Y22785700D01*
G37*
X30434444Y22785700D02*
X30657063Y22782232D01*
X30816916Y22772951D01*
X30935863Y22754545D01*
X31035768Y22723701D01*
X31132944Y22679867D01*
X31287926Y22583903D01*
X31392985Y22463666D01*
X31435417Y22388280D01*
X31515865Y22146066D01*
X31514607Y21910204D01*
X31434572Y21689417D01*
X31278688Y21492427D01*
X31086517Y21348890D01*
X31063249Y21325626D01*
X31060351Y21286285D01*
X31082686Y21219842D01*
X31135117Y21115271D01*
X31222509Y20961547D01*
X31349724Y20747645D01*
X31357287Y20735057D01*
X31700378Y20164166D01*
X31525104Y20150868D01*
X31405852Y20151521D01*
X31322504Y20169401D01*
X31309577Y20177823D01*
X31274650Y20227854D01*
X31207098Y20336793D01*
X31115879Y20489794D01*
X31009949Y20672012D01*
X30982278Y20720288D01*
X30695231Y21222500D01*
X30281834Y21222500D01*
X30269985Y20682750D01*
X30258137Y20143000D01*
X29920794Y20143000D01*
X29931980Y21465916D01*
X29932606Y21540000D01*
X30260667Y21540000D01*
X30533078Y21540000D01*
X30694475Y21546245D01*
X30835899Y21562448D01*
X30911864Y21580444D01*
X31045757Y21674307D01*
X31131216Y21827961D01*
X31160184Y22026777D01*
X31160131Y22031203D01*
X31132331Y22221437D01*
X31051280Y22360209D01*
X30910637Y22452033D01*
X30704061Y22501426D01*
X30482917Y22513430D01*
X30260667Y22513666D01*
X30260667Y21540000D01*
X29932606Y21540000D01*
X29943167Y22788833D01*
X30434444Y22785700D01*
G36*
X3379000Y27255000D02*
G01*
X2193667Y27255000D01*
X2193667Y26323666D01*
X3336667Y26323666D01*
X3336667Y26027333D01*
X2193667Y26027333D01*
X2193667Y24884333D01*
X2052556Y24884333D01*
X1947954Y24892078D01*
X1885134Y24910889D01*
X1883222Y24912555D01*
X1876229Y24960373D01*
X1869866Y25082353D01*
X1864357Y25267993D01*
X1859923Y25506790D01*
X1856788Y25788240D01*
X1855172Y26101842D01*
X1855000Y26246055D01*
X1855000Y27551333D01*
X3379000Y27551333D01*
X3379000Y27255000D01*
X3379000Y27255000D01*
G37*
X3379000Y27255000D02*
X2193667Y27255000D01*
X2193667Y26323666D01*
X3336667Y26323666D01*
X3336667Y26027333D01*
X2193667Y26027333D01*
X2193667Y24884333D01*
X2052556Y24884333D01*
X1947954Y24892078D01*
X1885134Y24910889D01*
X1883222Y24912555D01*
X1876229Y24960373D01*
X1869866Y25082353D01*
X1864357Y25267993D01*
X1859923Y25506790D01*
X1856788Y25788240D01*
X1855172Y26101842D01*
X1855000Y26246055D01*
X1855000Y27551333D01*
X3379000Y27551333D01*
X3379000Y27255000D01*
G36*
X7908667Y27450432D02*
G01*
X7901589Y27395348D01*
X7867796Y27361398D01*
X7788452Y27339674D01*
X7644720Y27321270D01*
X7632781Y27319985D01*
X7356894Y27290440D01*
X7379500Y25159500D01*
X7633500Y25138333D01*
X7774827Y25123814D01*
X7852554Y25103089D01*
X7887628Y25065383D01*
X7900895Y25000750D01*
X7914291Y24884333D01*
X6511667Y24884333D01*
X6511667Y25011333D01*
X6514993Y25081632D01*
X6538275Y25119576D01*
X6601469Y25135142D01*
X6724532Y25138309D01*
X6765667Y25138333D01*
X7019667Y25138333D01*
X7019667Y27289020D01*
X6765667Y27318500D01*
X6624431Y27337991D01*
X6548074Y27361370D01*
X6517032Y27398739D01*
X6511667Y27449656D01*
X6511667Y27551333D01*
X7908667Y27551333D01*
X7908667Y27450432D01*
X7908667Y27450432D01*
G37*
X7908667Y27450432D02*
X7901589Y27395348D01*
X7867796Y27361398D01*
X7788452Y27339674D01*
X7644720Y27321270D01*
X7632781Y27319985D01*
X7356894Y27290440D01*
X7379500Y25159500D01*
X7633500Y25138333D01*
X7774827Y25123814D01*
X7852554Y25103089D01*
X7887628Y25065383D01*
X7900895Y25000750D01*
X7914291Y24884333D01*
X6511667Y24884333D01*
X6511667Y25011333D01*
X6514993Y25081632D01*
X6538275Y25119576D01*
X6601469Y25135142D01*
X6724532Y25138309D01*
X6765667Y25138333D01*
X7019667Y25138333D01*
X7019667Y27289020D01*
X6765667Y27318500D01*
X6624431Y27337991D01*
X6548074Y27361370D01*
X6517032Y27398739D01*
X6511667Y27449656D01*
X6511667Y27551333D01*
X7908667Y27551333D01*
X7908667Y27450432D01*
G36*
X11401550Y26799916D02*
G01*
X11505272Y26471542D01*
X11586824Y26212583D01*
X11649651Y26011752D01*
X11697199Y25857767D01*
X11732914Y25739343D01*
X11760241Y25645195D01*
X11782626Y25564040D01*
X11803514Y25484591D01*
X11805353Y25477470D01*
X11854377Y25287440D01*
X11990197Y25752637D01*
X12053181Y25965002D01*
X12132949Y26228989D01*
X12220640Y26515528D01*
X12307394Y26795552D01*
X12335092Y26884079D01*
X12544167Y27550325D01*
X12726936Y27550829D01*
X12840236Y27546094D01*
X12887490Y27525411D01*
X12886988Y27480319D01*
X12886031Y27477250D01*
X12867140Y27419838D01*
X12824916Y27292531D01*
X12762827Y27105746D01*
X12684336Y26869901D01*
X12592912Y26595414D01*
X12492019Y26292702D01*
X12445881Y26154333D01*
X12029406Y24905500D01*
X11697500Y24880568D01*
X11263584Y26184945D01*
X11158701Y26501149D01*
X11062948Y26791603D01*
X10979486Y27046576D01*
X10911477Y27256335D01*
X10862084Y27411152D01*
X10834468Y27501293D01*
X10829667Y27520327D01*
X10867217Y27539851D01*
X10960879Y27550606D01*
X10996850Y27551333D01*
X11164033Y27551333D01*
X11401550Y26799916D01*
X11401550Y26799916D01*
G37*
X11401550Y26799916D02*
X11505272Y26471542D01*
X11586824Y26212583D01*
X11649651Y26011752D01*
X11697199Y25857767D01*
X11732914Y25739343D01*
X11760241Y25645195D01*
X11782626Y25564040D01*
X11803514Y25484591D01*
X11805353Y25477470D01*
X11854377Y25287440D01*
X11990197Y25752637D01*
X12053181Y25965002D01*
X12132949Y26228989D01*
X12220640Y26515528D01*
X12307394Y26795552D01*
X12335092Y26884079D01*
X12544167Y27550325D01*
X12726936Y27550829D01*
X12840236Y27546094D01*
X12887490Y27525411D01*
X12886988Y27480319D01*
X12886031Y27477250D01*
X12867140Y27419838D01*
X12824916Y27292531D01*
X12762827Y27105746D01*
X12684336Y26869901D01*
X12592912Y26595414D01*
X12492019Y26292702D01*
X12445881Y26154333D01*
X12029406Y24905500D01*
X11697500Y24880568D01*
X11263584Y26184945D01*
X11158701Y26501149D01*
X11062948Y26791603D01*
X10979486Y27046576D01*
X10911477Y27256335D01*
X10862084Y27411152D01*
X10834468Y27501293D01*
X10829667Y27520327D01*
X10867217Y27539851D01*
X10960879Y27550606D01*
X10996850Y27551333D01*
X11164033Y27551333D01*
X11401550Y26799916D01*
G36*
X17349000Y27255000D02*
G01*
X16163667Y27255000D01*
X16163667Y26453124D01*
X16724584Y26441312D01*
X17285500Y26429500D01*
X17298766Y26291916D01*
X17312031Y26154333D01*
X16163667Y26154333D01*
X16163667Y25180666D01*
X17349000Y25180666D01*
X17349000Y24884333D01*
X15825000Y24884333D01*
X15825000Y27551333D01*
X17349000Y27551333D01*
X17349000Y27255000D01*
X17349000Y27255000D01*
G37*
X17349000Y27255000D02*
X16163667Y27255000D01*
X16163667Y26453124D01*
X16724584Y26441312D01*
X17285500Y26429500D01*
X17298766Y26291916D01*
X17312031Y26154333D01*
X16163667Y26154333D01*
X16163667Y25180666D01*
X17349000Y25180666D01*
X17349000Y24884333D01*
X15825000Y24884333D01*
X15825000Y27551333D01*
X17349000Y27551333D01*
X17349000Y27255000D01*
G36*
X20735667Y26450666D02*
G01*
X21794000Y26450666D01*
X21794000Y27551333D01*
X22133873Y27551333D01*
X22122687Y26228416D01*
X22111500Y24905500D01*
X21953896Y24892429D01*
X21796292Y24879359D01*
X21784563Y25506263D01*
X21772834Y26133166D01*
X21255389Y26145044D01*
X20737945Y26156921D01*
X20726223Y25531210D01*
X20714500Y24905500D01*
X20397000Y24879222D01*
X20397000Y27551333D01*
X20735667Y27551333D01*
X20735667Y26450666D01*
X20735667Y26450666D01*
G37*
X20735667Y26450666D02*
X21794000Y26450666D01*
X21794000Y27551333D01*
X22133873Y27551333D01*
X22122687Y26228416D01*
X22111500Y24905500D01*
X21953896Y24892429D01*
X21796292Y24879359D01*
X21784563Y25506263D01*
X21772834Y26133166D01*
X21255389Y26145044D01*
X20737945Y26156921D01*
X20726223Y25531210D01*
X20714500Y24905500D01*
X20397000Y24879222D01*
X20397000Y27551333D01*
X20735667Y27551333D01*
X20735667Y26450666D01*
G36*
X26119263Y27572500D02*
G01*
X26559480Y26239000D01*
X26664678Y25920014D01*
X26760908Y25627607D01*
X26845069Y25371244D01*
X26914064Y25160387D01*
X26964795Y25004502D01*
X26994162Y24913052D01*
X27000349Y24892482D01*
X26963181Y24887257D01*
X26868981Y24889540D01*
X26822437Y24892482D01*
X26643875Y24905500D01*
X26393743Y25733716D01*
X25949436Y25721775D01*
X25505128Y25709833D01*
X25371339Y25307666D01*
X25237549Y24905500D01*
X25082108Y24892361D01*
X24971614Y24893663D01*
X24928469Y24925311D01*
X24926667Y24939192D01*
X24939439Y24992762D01*
X24975657Y25116660D01*
X25032174Y25300833D01*
X25105844Y25535227D01*
X25193520Y25809790D01*
X25276001Y26064829D01*
X25618152Y26064829D01*
X25647014Y26042680D01*
X25723192Y26031443D01*
X25862059Y26027594D01*
X25944343Y26027333D01*
X26123324Y26030829D01*
X26228635Y26042475D01*
X26271030Y26064010D01*
X26271589Y26080250D01*
X26252982Y26139696D01*
X26216161Y26262612D01*
X26166431Y26431134D01*
X26109095Y26627399D01*
X26108309Y26630100D01*
X26036802Y26863559D01*
X25978773Y27026981D01*
X25935701Y27117238D01*
X25909066Y27131203D01*
X25900334Y27069706D01*
X25891668Y27017559D01*
X25864486Y26911446D01*
X25817006Y26745189D01*
X25747448Y26512610D01*
X25654031Y26207534D01*
X25621232Y26101416D01*
X25618152Y26064829D01*
X25276001Y26064829D01*
X25292055Y26114467D01*
X25352196Y26298741D01*
X25777725Y27598320D01*
X26119263Y27572500D01*
X26119263Y27572500D01*
G37*
X26119263Y27572500D02*
X26559480Y26239000D01*
X26664678Y25920014D01*
X26760908Y25627607D01*
X26845069Y25371244D01*
X26914064Y25160387D01*
X26964795Y25004502D01*
X26994162Y24913052D01*
X27000349Y24892482D01*
X26963181Y24887257D01*
X26868981Y24889540D01*
X26822437Y24892482D01*
X26643875Y24905500D01*
X26393743Y25733716D01*
X25949436Y25721775D01*
X25505128Y25709833D01*
X25371339Y25307666D01*
X25237549Y24905500D01*
X25082108Y24892361D01*
X24971614Y24893663D01*
X24928469Y24925311D01*
X24926667Y24939192D01*
X24939439Y24992762D01*
X24975657Y25116660D01*
X25032174Y25300833D01*
X25105844Y25535227D01*
X25193520Y25809790D01*
X25276001Y26064829D01*
X25618152Y26064829D01*
X25647014Y26042680D01*
X25723192Y26031443D01*
X25862059Y26027594D01*
X25944343Y26027333D01*
X26123324Y26030829D01*
X26228635Y26042475D01*
X26271030Y26064010D01*
X26271589Y26080250D01*
X26252982Y26139696D01*
X26216161Y26262612D01*
X26166431Y26431134D01*
X26109095Y26627399D01*
X26108309Y26630100D01*
X26036802Y26863559D01*
X25978773Y27026981D01*
X25935701Y27117238D01*
X25909066Y27131203D01*
X25900334Y27069706D01*
X25891668Y27017559D01*
X25864486Y26911446D01*
X25817006Y26745189D01*
X25747448Y26512610D01*
X25654031Y26207534D01*
X25621232Y26101416D01*
X25618152Y26064829D01*
X25276001Y26064829D01*
X25292055Y26114467D01*
X25352196Y26298741D01*
X25777725Y27598320D01*
X26119263Y27572500D01*
G36*
X30366500Y25201833D02*
G01*
X31488334Y25178209D01*
X31488334Y24884333D01*
X30775722Y24884333D01*
X30538207Y24885932D01*
X30330842Y24890360D01*
X30168179Y24897061D01*
X30064770Y24905482D01*
X30034889Y24912555D01*
X30027895Y24960373D01*
X30021533Y25082353D01*
X30016024Y25267993D01*
X30011590Y25506790D01*
X30008454Y25788240D01*
X30006839Y26101842D01*
X30006667Y26246055D01*
X30006667Y27551333D01*
X30343994Y27551333D01*
X30366500Y25201833D01*
X30366500Y25201833D01*
G37*
X30366500Y25201833D02*
X31488334Y25178209D01*
X31488334Y24884333D01*
X30775722Y24884333D01*
X30538207Y24885932D01*
X30330842Y24890360D01*
X30168179Y24897061D01*
X30064770Y24905482D01*
X30034889Y24912555D01*
X30027895Y24960373D01*
X30021533Y25082353D01*
X30016024Y25267993D01*
X30011590Y25506790D01*
X30008454Y25788240D01*
X30006839Y26101842D01*
X30006667Y26246055D01*
X30006667Y27551333D01*
X30343994Y27551333D01*
X30366500Y25201833D01*
G36*
X36306432Y27413750D02*
G01*
X36293167Y27276166D01*
X35711084Y27264389D01*
X35129000Y27252611D01*
X35129000Y26323666D01*
X36229667Y26323666D01*
X36229667Y26027333D01*
X35131458Y26027333D01*
X35119646Y25466416D01*
X35107834Y24905500D01*
X34790334Y24879222D01*
X34790334Y27551333D01*
X36319698Y27551333D01*
X36306432Y27413750D01*
X36306432Y27413750D01*
G37*
X36306432Y27413750D02*
X36293167Y27276166D01*
X35711084Y27264389D01*
X35129000Y27252611D01*
X35129000Y26323666D01*
X36229667Y26323666D01*
X36229667Y26027333D01*
X35131458Y26027333D01*
X35119646Y25466416D01*
X35107834Y24905500D01*
X34790334Y24879222D01*
X34790334Y27551333D01*
X36319698Y27551333D01*
X36306432Y27413750D01*
G36*
X2700017Y32313598D02*
G01*
X2919549Y32254692D01*
X3034924Y32195438D01*
X3205269Y32034650D01*
X3340614Y31807278D01*
X3436967Y31525522D01*
X3490335Y31201581D01*
X3496726Y30847657D01*
X3493486Y30794133D01*
X3438588Y30418679D01*
X3331642Y30109261D01*
X3172824Y29866357D01*
X3140763Y29831799D01*
X2984823Y29672102D01*
X3104148Y29511301D01*
X3206368Y29387845D01*
X3315121Y29276935D01*
X3343570Y29252182D01*
X3428823Y29176482D01*
X3453656Y29119157D01*
X3420136Y29049599D01*
X3362209Y28976201D01*
X3263796Y28855903D01*
X3056815Y29063285D01*
X2935301Y29195949D01*
X2827535Y29332306D01*
X2766123Y29427000D01*
X2697217Y29531783D01*
X2623271Y29576552D01*
X2554457Y29583569D01*
X2291302Y29624011D01*
X2052221Y29736759D01*
X1853865Y29910439D01*
X1712884Y30133677D01*
X1698724Y30168108D01*
X1666297Y30270182D01*
X1644065Y30390641D01*
X1630397Y30546795D01*
X1623662Y30755952D01*
X1622167Y30980333D01*
X1963956Y30980333D01*
X1964473Y30747523D01*
X1970881Y30579084D01*
X1985657Y30454789D01*
X2011275Y30354410D01*
X2050212Y30257722D01*
X2053204Y30251212D01*
X2163247Y30080533D01*
X2306745Y29953354D01*
X2462803Y29886188D01*
X2523110Y29879825D01*
X2629568Y29896095D01*
X2753632Y29935637D01*
X2757873Y29937391D01*
X2896292Y30024768D01*
X2999827Y30161093D01*
X3071202Y30354165D01*
X3113144Y30611785D01*
X3128378Y30941751D01*
X3128528Y30998121D01*
X3115479Y31315408D01*
X3075533Y31562112D01*
X3005273Y31748991D01*
X2901286Y31886806D01*
X2827734Y31946097D01*
X2651429Y32019859D01*
X2461078Y32024752D01*
X2284210Y31962556D01*
X2208501Y31905986D01*
X2113791Y31802144D01*
X2046429Y31685531D01*
X2002105Y31539827D01*
X1976506Y31348715D01*
X1965323Y31095874D01*
X1963956Y30980333D01*
X1622167Y30980333D01*
X1623044Y31223754D01*
X1627326Y31400764D01*
X1637493Y31529615D01*
X1656022Y31628559D01*
X1685391Y31715845D01*
X1728078Y31809726D01*
X1737359Y31828717D01*
X1866793Y32039200D01*
X2024392Y32184583D01*
X2231661Y32284167D01*
X2252676Y32291276D01*
X2465387Y32327304D01*
X2700017Y32313598D01*
X2700017Y32313598D01*
G37*
X2700017Y32313598D02*
X2919549Y32254692D01*
X3034924Y32195438D01*
X3205269Y32034650D01*
X3340614Y31807278D01*
X3436967Y31525522D01*
X3490335Y31201581D01*
X3496726Y30847657D01*
X3493486Y30794133D01*
X3438588Y30418679D01*
X3331642Y30109261D01*
X3172824Y29866357D01*
X3140763Y29831799D01*
X2984823Y29672102D01*
X3104148Y29511301D01*
X3206368Y29387845D01*
X3315121Y29276935D01*
X3343570Y29252182D01*
X3428823Y29176482D01*
X3453656Y29119157D01*
X3420136Y29049599D01*
X3362209Y28976201D01*
X3263796Y28855903D01*
X3056815Y29063285D01*
X2935301Y29195949D01*
X2827535Y29332306D01*
X2766123Y29427000D01*
X2697217Y29531783D01*
X2623271Y29576552D01*
X2554457Y29583569D01*
X2291302Y29624011D01*
X2052221Y29736759D01*
X1853865Y29910439D01*
X1712884Y30133677D01*
X1698724Y30168108D01*
X1666297Y30270182D01*
X1644065Y30390641D01*
X1630397Y30546795D01*
X1623662Y30755952D01*
X1622167Y30980333D01*
X1963956Y30980333D01*
X1964473Y30747523D01*
X1970881Y30579084D01*
X1985657Y30454789D01*
X2011275Y30354410D01*
X2050212Y30257722D01*
X2053204Y30251212D01*
X2163247Y30080533D01*
X2306745Y29953354D01*
X2462803Y29886188D01*
X2523110Y29879825D01*
X2629568Y29896095D01*
X2753632Y29935637D01*
X2757873Y29937391D01*
X2896292Y30024768D01*
X2999827Y30161093D01*
X3071202Y30354165D01*
X3113144Y30611785D01*
X3128378Y30941751D01*
X3128528Y30998121D01*
X3115479Y31315408D01*
X3075533Y31562112D01*
X3005273Y31748991D01*
X2901286Y31886806D01*
X2827734Y31946097D01*
X2651429Y32019859D01*
X2461078Y32024752D01*
X2284210Y31962556D01*
X2208501Y31905986D01*
X2113791Y31802144D01*
X2046429Y31685531D01*
X2002105Y31539827D01*
X1976506Y31348715D01*
X1965323Y31095874D01*
X1963956Y30980333D01*
X1622167Y30980333D01*
X1623044Y31223754D01*
X1627326Y31400764D01*
X1637493Y31529615D01*
X1656022Y31628559D01*
X1685391Y31715845D01*
X1728078Y31809726D01*
X1737359Y31828717D01*
X1866793Y32039200D01*
X2024392Y32184583D01*
X2231661Y32284167D01*
X2252676Y32291276D01*
X2465387Y32327304D01*
X2700017Y32313598D01*
G36*
X6645892Y31287250D02*
G01*
X6651098Y30961754D01*
X6657169Y30709549D01*
X6665007Y30519258D01*
X6675512Y30379506D01*
X6689586Y30278916D01*
X6708131Y30206111D01*
X6732048Y30149716D01*
X6736729Y30140915D01*
X6859513Y29997289D01*
X7027174Y29910863D01*
X7217771Y29886835D01*
X7409365Y29930405D01*
X7477298Y29965418D01*
X7554694Y30018607D01*
X7615262Y30079712D01*
X7661037Y30159233D01*
X7694054Y30267670D01*
X7716347Y30415523D01*
X7729951Y30613291D01*
X7736901Y30871476D01*
X7739231Y31200577D01*
X7739334Y31317640D01*
X7739334Y32292666D01*
X8078000Y32292666D01*
X8077764Y31308416D01*
X8075571Y30977665D01*
X8069459Y30686491D01*
X8059878Y30445939D01*
X8047278Y30267049D01*
X8032108Y30160865D01*
X8030782Y30155788D01*
X7931727Y29947371D01*
X7770657Y29780296D01*
X7562714Y29661045D01*
X7323042Y29596103D01*
X7066782Y29591951D01*
X6836948Y29644666D01*
X6655717Y29731901D01*
X6522894Y29856723D01*
X6414041Y30042324D01*
X6410925Y30049000D01*
X6382818Y30115786D01*
X6361003Y30188022D01*
X6344466Y30277638D01*
X6332190Y30396568D01*
X6323162Y30556742D01*
X6316366Y30770093D01*
X6310787Y31048553D01*
X6307391Y31266083D01*
X6292308Y32292666D01*
X6631951Y32292666D01*
X6645892Y31287250D01*
X6645892Y31287250D01*
G37*
X6645892Y31287250D02*
X6651098Y30961754D01*
X6657169Y30709549D01*
X6665007Y30519258D01*
X6675512Y30379506D01*
X6689586Y30278916D01*
X6708131Y30206111D01*
X6732048Y30149716D01*
X6736729Y30140915D01*
X6859513Y29997289D01*
X7027174Y29910863D01*
X7217771Y29886835D01*
X7409365Y29930405D01*
X7477298Y29965418D01*
X7554694Y30018607D01*
X7615262Y30079712D01*
X7661037Y30159233D01*
X7694054Y30267670D01*
X7716347Y30415523D01*
X7729951Y30613291D01*
X7736901Y30871476D01*
X7739231Y31200577D01*
X7739334Y31317640D01*
X7739334Y32292666D01*
X8078000Y32292666D01*
X8077764Y31308416D01*
X8075571Y30977665D01*
X8069459Y30686491D01*
X8059878Y30445939D01*
X8047278Y30267049D01*
X8032108Y30160865D01*
X8030782Y30155788D01*
X7931727Y29947371D01*
X7770657Y29780296D01*
X7562714Y29661045D01*
X7323042Y29596103D01*
X7066782Y29591951D01*
X6836948Y29644666D01*
X6655717Y29731901D01*
X6522894Y29856723D01*
X6414041Y30042324D01*
X6410925Y30049000D01*
X6382818Y30115786D01*
X6361003Y30188022D01*
X6344466Y30277638D01*
X6332190Y30396568D01*
X6323162Y30556742D01*
X6316366Y30770093D01*
X6310787Y31048553D01*
X6307391Y31266083D01*
X6292308Y32292666D01*
X6631951Y32292666D01*
X6645892Y31287250D01*
G36*
X12457973Y31012083D02*
G01*
X12560363Y30697154D01*
X12654827Y30407021D01*
X12738068Y30151777D01*
X12806788Y29941517D01*
X12857691Y29786332D01*
X12887481Y29696316D01*
X12893544Y29678583D01*
X12876230Y29641781D01*
X12784457Y29626428D01*
X12743833Y29625666D01*
X12574607Y29625666D01*
X12290167Y30451166D01*
X11859481Y30463195D01*
X11428794Y30475224D01*
X11289562Y30050445D01*
X11150329Y29625666D01*
X10989998Y29625666D01*
X10887310Y29633557D01*
X10832491Y29653143D01*
X10829667Y29659455D01*
X10842363Y29706503D01*
X10878371Y29824184D01*
X10934568Y30002695D01*
X11007833Y30232232D01*
X11095045Y30502995D01*
X11181235Y30768666D01*
X11518765Y30768666D01*
X11851549Y30768666D01*
X12007290Y30772383D01*
X12123992Y30782247D01*
X12181458Y30796331D01*
X12184204Y30800416D01*
X12172386Y30851313D01*
X12140382Y30965617D01*
X12093205Y31125909D01*
X12041074Y31297833D01*
X11982441Y31491389D01*
X11932470Y31661230D01*
X11896934Y31787427D01*
X11882282Y31846048D01*
X11865590Y31837884D01*
X11830221Y31760111D01*
X11780681Y31624551D01*
X11721479Y31443027D01*
X11692627Y31348632D01*
X11518765Y30768666D01*
X11181235Y30768666D01*
X11193082Y30805180D01*
X11254318Y30992955D01*
X11678969Y32292666D01*
X12041916Y32292666D01*
X12457973Y31012083D01*
X12457973Y31012083D01*
G37*
X12457973Y31012083D02*
X12560363Y30697154D01*
X12654827Y30407021D01*
X12738068Y30151777D01*
X12806788Y29941517D01*
X12857691Y29786332D01*
X12887481Y29696316D01*
X12893544Y29678583D01*
X12876230Y29641781D01*
X12784457Y29626428D01*
X12743833Y29625666D01*
X12574607Y29625666D01*
X12290167Y30451166D01*
X11859481Y30463195D01*
X11428794Y30475224D01*
X11289562Y30050445D01*
X11150329Y29625666D01*
X10989998Y29625666D01*
X10887310Y29633557D01*
X10832491Y29653143D01*
X10829667Y29659455D01*
X10842363Y29706503D01*
X10878371Y29824184D01*
X10934568Y30002695D01*
X11007833Y30232232D01*
X11095045Y30502995D01*
X11181235Y30768666D01*
X11518765Y30768666D01*
X11851549Y30768666D01*
X12007290Y30772383D01*
X12123992Y30782247D01*
X12181458Y30796331D01*
X12184204Y30800416D01*
X12172386Y30851313D01*
X12140382Y30965617D01*
X12093205Y31125909D01*
X12041074Y31297833D01*
X11982441Y31491389D01*
X11932470Y31661230D01*
X11896934Y31787427D01*
X11882282Y31846048D01*
X11865590Y31837884D01*
X11830221Y31760111D01*
X11780681Y31624551D01*
X11721479Y31443027D01*
X11692627Y31348632D01*
X11518765Y30768666D01*
X11181235Y30768666D01*
X11193082Y30805180D01*
X11254318Y30992955D01*
X11678969Y32292666D01*
X12041916Y32292666D01*
X12457973Y31012083D01*
G36*
X16301250Y32286391D02*
G01*
X16538751Y32276974D01*
X16710802Y32262787D01*
X16836599Y32240947D01*
X16935336Y32208573D01*
X16989167Y32183105D01*
X17173915Y32053590D01*
X17289524Y31887891D01*
X17343161Y31673435D01*
X17349000Y31551833D01*
X17319520Y31302534D01*
X17227278Y31104744D01*
X17066566Y30947418D01*
X17020968Y30916833D01*
X16933138Y30852966D01*
X16886942Y30802791D01*
X16884964Y30795933D01*
X16904982Y30750215D01*
X16960314Y30647168D01*
X17042251Y30501781D01*
X17142081Y30329046D01*
X17251095Y30143952D01*
X17360582Y29961492D01*
X17461833Y29796655D01*
X17509591Y29720916D01*
X17541698Y29664086D01*
X17532329Y29636216D01*
X17465954Y29627250D01*
X17364452Y29626910D01*
X17158500Y29628153D01*
X16535790Y30726333D01*
X16121334Y30726333D01*
X16121334Y29625666D01*
X15782667Y29625666D01*
X15782667Y31996333D01*
X16121334Y31996333D01*
X16121334Y31013412D01*
X16443240Y31029668D01*
X16610883Y31040749D01*
X16719246Y31059051D01*
X16793702Y31093337D01*
X16859626Y31152364D01*
X16887740Y31183130D01*
X16978399Y31315181D01*
X17009625Y31458699D01*
X17010334Y31491103D01*
X16985683Y31692639D01*
X16907696Y31839044D01*
X16770320Y31935090D01*
X16567500Y31985543D01*
X16369016Y31996333D01*
X16121334Y31996333D01*
X15782667Y31996333D01*
X15782667Y32301373D01*
X16301250Y32286391D01*
X16301250Y32286391D01*
G37*
X16301250Y32286391D02*
X16538751Y32276974D01*
X16710802Y32262787D01*
X16836599Y32240947D01*
X16935336Y32208573D01*
X16989167Y32183105D01*
X17173915Y32053590D01*
X17289524Y31887891D01*
X17343161Y31673435D01*
X17349000Y31551833D01*
X17319520Y31302534D01*
X17227278Y31104744D01*
X17066566Y30947418D01*
X17020968Y30916833D01*
X16933138Y30852966D01*
X16886942Y30802791D01*
X16884964Y30795933D01*
X16904982Y30750215D01*
X16960314Y30647168D01*
X17042251Y30501781D01*
X17142081Y30329046D01*
X17251095Y30143952D01*
X17360582Y29961492D01*
X17461833Y29796655D01*
X17509591Y29720916D01*
X17541698Y29664086D01*
X17532329Y29636216D01*
X17465954Y29627250D01*
X17364452Y29626910D01*
X17158500Y29628153D01*
X16535790Y30726333D01*
X16121334Y30726333D01*
X16121334Y29625666D01*
X15782667Y29625666D01*
X15782667Y31996333D01*
X16121334Y31996333D01*
X16121334Y31013412D01*
X16443240Y31029668D01*
X16610883Y31040749D01*
X16719246Y31059051D01*
X16793702Y31093337D01*
X16859626Y31152364D01*
X16887740Y31183130D01*
X16978399Y31315181D01*
X17009625Y31458699D01*
X17010334Y31491103D01*
X16985683Y31692639D01*
X16907696Y31839044D01*
X16770320Y31935090D01*
X16567500Y31985543D01*
X16369016Y31996333D01*
X16121334Y31996333D01*
X15782667Y31996333D01*
X15782667Y32301373D01*
X16301250Y32286391D01*
G36*
X22175000Y31996333D02*
G01*
X21413000Y31996333D01*
X21413000Y29625666D01*
X21074334Y29625666D01*
X21074334Y31996333D01*
X20312334Y31996333D01*
X20312334Y32292666D01*
X22175000Y32292666D01*
X22175000Y31996333D01*
X22175000Y31996333D01*
G37*
X22175000Y31996333D02*
X21413000Y31996333D01*
X21413000Y29625666D01*
X21074334Y29625666D01*
X21074334Y31996333D01*
X20312334Y31996333D01*
X20312334Y32292666D01*
X22175000Y32292666D01*
X22175000Y31996333D01*
G36*
X26747000Y31996333D02*
G01*
X25561667Y31996333D01*
X25561667Y31149666D01*
X26662334Y31149666D01*
X26662334Y30853333D01*
X25561667Y30853333D01*
X25561667Y29922000D01*
X26747000Y29922000D01*
X26747000Y29625666D01*
X25223000Y29625666D01*
X25223000Y32292666D01*
X26747000Y32292666D01*
X26747000Y31996333D01*
X26747000Y31996333D01*
G37*
X26747000Y31996333D02*
X25561667Y31996333D01*
X25561667Y31149666D01*
X26662334Y31149666D01*
X26662334Y30853333D01*
X25561667Y30853333D01*
X25561667Y29922000D01*
X26747000Y29922000D01*
X26747000Y29625666D01*
X25223000Y29625666D01*
X25223000Y32292666D01*
X26747000Y32292666D01*
X26747000Y31996333D01*
G36*
X30355917Y32291657D02*
G01*
X30559877Y32287413D01*
X30750724Y32276848D01*
X30900496Y32261803D01*
X30955890Y32252133D01*
X31189998Y32159795D01*
X31365548Y32007769D01*
X31477717Y31801396D01*
X31515382Y31632299D01*
X31506740Y31389350D01*
X31428270Y31169064D01*
X31289583Y30987638D01*
X31100293Y30861272D01*
X31045102Y30839813D01*
X31051486Y30800898D01*
X31095879Y30702511D01*
X31171837Y30557237D01*
X31272914Y30377659D01*
X31341436Y30261194D01*
X31458486Y30064543D01*
X31559771Y29893009D01*
X31637462Y29759962D01*
X31683726Y29678771D01*
X31692945Y29661049D01*
X31664019Y29640104D01*
X31574589Y29627412D01*
X31516209Y29625666D01*
X31325363Y29625666D01*
X31012731Y30165416D01*
X30700098Y30705166D01*
X30480383Y30717962D01*
X30260667Y30730758D01*
X30260667Y29625666D01*
X29922000Y29625666D01*
X29922000Y31022666D01*
X30260667Y31022666D01*
X30516027Y31022666D01*
X30682338Y31032754D01*
X30837110Y31058687D01*
X30913025Y31081847D01*
X31026235Y31139381D01*
X31093014Y31211198D01*
X31136055Y31326611D01*
X31151263Y31389578D01*
X31167001Y31601992D01*
X31110892Y31771515D01*
X30985588Y31895489D01*
X30793739Y31971255D01*
X30546417Y31996175D01*
X30260667Y31996333D01*
X30260667Y31022666D01*
X29922000Y31022666D01*
X29922000Y32292666D01*
X30355917Y32291657D01*
X30355917Y32291657D01*
G37*
X30355917Y32291657D02*
X30559877Y32287413D01*
X30750724Y32276848D01*
X30900496Y32261803D01*
X30955890Y32252133D01*
X31189998Y32159795D01*
X31365548Y32007769D01*
X31477717Y31801396D01*
X31515382Y31632299D01*
X31506740Y31389350D01*
X31428270Y31169064D01*
X31289583Y30987638D01*
X31100293Y30861272D01*
X31045102Y30839813D01*
X31051486Y30800898D01*
X31095879Y30702511D01*
X31171837Y30557237D01*
X31272914Y30377659D01*
X31341436Y30261194D01*
X31458486Y30064543D01*
X31559771Y29893009D01*
X31637462Y29759962D01*
X31683726Y29678771D01*
X31692945Y29661049D01*
X31664019Y29640104D01*
X31574589Y29627412D01*
X31516209Y29625666D01*
X31325363Y29625666D01*
X31012731Y30165416D01*
X30700098Y30705166D01*
X30480383Y30717962D01*
X30260667Y30730758D01*
X30260667Y29625666D01*
X29922000Y29625666D01*
X29922000Y31022666D01*
X30260667Y31022666D01*
X30516027Y31022666D01*
X30682338Y31032754D01*
X30837110Y31058687D01*
X30913025Y31081847D01*
X31026235Y31139381D01*
X31093014Y31211198D01*
X31136055Y31326611D01*
X31151263Y31389578D01*
X31167001Y31601992D01*
X31110892Y31771515D01*
X30985588Y31895489D01*
X30793739Y31971255D01*
X30546417Y31996175D01*
X30260667Y31996333D01*
X30260667Y31022666D01*
X29922000Y31022666D01*
X29922000Y32292666D01*
X30355917Y32291657D01*
G36*
X35145249Y31498916D02*
G01*
X35201202Y31226262D01*
X35256476Y30959796D01*
X35306908Y30719381D01*
X35348336Y30524881D01*
X35373732Y30408833D01*
X35440285Y30112500D01*
X35617091Y30959166D01*
X35674536Y31234080D01*
X35729608Y31497325D01*
X35778652Y31731451D01*
X35818012Y31919011D01*
X35844033Y32042555D01*
X35845450Y32049250D01*
X35897003Y32292666D01*
X36356667Y32292666D01*
X36356667Y29625666D01*
X36050526Y29625666D01*
X36066931Y30768666D01*
X36071050Y31069803D01*
X36074373Y31341221D01*
X36076798Y31572016D01*
X36078223Y31751282D01*
X36078547Y31868114D01*
X36077667Y31911606D01*
X36077609Y31911666D01*
X36067484Y31872051D01*
X36041769Y31760228D01*
X36002814Y31586737D01*
X35952968Y31362116D01*
X35894580Y31096902D01*
X35829999Y30801634D01*
X35822813Y30768666D01*
X35573745Y29625666D01*
X35437671Y29625666D01*
X35395727Y29624451D01*
X35361791Y29626479D01*
X35333066Y29640267D01*
X35306755Y29674329D01*
X35280061Y29737180D01*
X35250187Y29837335D01*
X35214334Y29983309D01*
X35169706Y30183616D01*
X35113505Y30446771D01*
X35042935Y30781289D01*
X35015796Y30909834D01*
X34811500Y31876502D01*
X34800225Y30751084D01*
X34788951Y29625666D01*
X34536334Y29625666D01*
X34536334Y32292666D01*
X34983319Y32292666D01*
X35145249Y31498916D01*
X35145249Y31498916D01*
G37*
X35145249Y31498916D02*
X35201202Y31226262D01*
X35256476Y30959796D01*
X35306908Y30719381D01*
X35348336Y30524881D01*
X35373732Y30408833D01*
X35440285Y30112500D01*
X35617091Y30959166D01*
X35674536Y31234080D01*
X35729608Y31497325D01*
X35778652Y31731451D01*
X35818012Y31919011D01*
X35844033Y32042555D01*
X35845450Y32049250D01*
X35897003Y32292666D01*
X36356667Y32292666D01*
X36356667Y29625666D01*
X36050526Y29625666D01*
X36066931Y30768666D01*
X36071050Y31069803D01*
X36074373Y31341221D01*
X36076798Y31572016D01*
X36078223Y31751282D01*
X36078547Y31868114D01*
X36077667Y31911606D01*
X36077609Y31911666D01*
X36067484Y31872051D01*
X36041769Y31760228D01*
X36002814Y31586737D01*
X35952968Y31362116D01*
X35894580Y31096902D01*
X35829999Y30801634D01*
X35822813Y30768666D01*
X35573745Y29625666D01*
X35437671Y29625666D01*
X35395727Y29624451D01*
X35361791Y29626479D01*
X35333066Y29640267D01*
X35306755Y29674329D01*
X35280061Y29737180D01*
X35250187Y29837335D01*
X35214334Y29983309D01*
X35169706Y30183616D01*
X35113505Y30446771D01*
X35042935Y30781289D01*
X35015796Y30909834D01*
X34811500Y31876502D01*
X34800225Y30751084D01*
X34788951Y29625666D01*
X34536334Y29625666D01*
X34536334Y32292666D01*
X34983319Y32292666D01*
X35145249Y31498916D01*
G36*
X2543806Y36898749D02*
G01*
X2720458Y36885833D01*
X3134277Y35615833D01*
X3236889Y35300916D01*
X3331815Y35009585D01*
X3415672Y34752220D01*
X3485077Y34539203D01*
X3536649Y34380915D01*
X3567005Y34287737D01*
X3573063Y34269136D01*
X3578296Y34221566D01*
X3539508Y34202587D01*
X3437937Y34204388D01*
X3420552Y34205636D01*
X3243073Y34218833D01*
X3112677Y34632936D01*
X2982280Y35047038D01*
X2538538Y35035102D01*
X2094795Y35023166D01*
X1961005Y34621000D01*
X1827215Y34218833D01*
X1671774Y34205694D01*
X1555315Y34209144D01*
X1516334Y34245603D01*
X1516334Y34245644D01*
X1529029Y34297489D01*
X1565036Y34419803D01*
X1621236Y34602622D01*
X1694512Y34835980D01*
X1781745Y35109910D01*
X1875530Y35401142D01*
X2207815Y35401142D01*
X2210657Y35370641D01*
X2257090Y35352139D01*
X2360946Y35343020D01*
X2527804Y35340666D01*
X2686122Y35344274D01*
X2805620Y35353869D01*
X2866452Y35367612D01*
X2870295Y35372416D01*
X2857571Y35437381D01*
X2824731Y35555776D01*
X2777615Y35710061D01*
X2722065Y35882698D01*
X2663920Y36056145D01*
X2609021Y36212862D01*
X2563209Y36335311D01*
X2532324Y36405950D01*
X2522927Y36415625D01*
X2502770Y36361831D01*
X2464786Y36244761D01*
X2414685Y36082466D01*
X2366039Y35919725D01*
X2309673Y35730036D01*
X2260402Y35567080D01*
X2224077Y35450037D01*
X2207815Y35401142D01*
X1875530Y35401142D01*
X1879816Y35414449D01*
X1941744Y35605199D01*
X2367155Y36911665D01*
X2543806Y36898749D01*
X2543806Y36898749D01*
G37*
X2543806Y36898749D02*
X2720458Y36885833D01*
X3134277Y35615833D01*
X3236889Y35300916D01*
X3331815Y35009585D01*
X3415672Y34752220D01*
X3485077Y34539203D01*
X3536649Y34380915D01*
X3567005Y34287737D01*
X3573063Y34269136D01*
X3578296Y34221566D01*
X3539508Y34202587D01*
X3437937Y34204388D01*
X3420552Y34205636D01*
X3243073Y34218833D01*
X3112677Y34632936D01*
X2982280Y35047038D01*
X2538538Y35035102D01*
X2094795Y35023166D01*
X1961005Y34621000D01*
X1827215Y34218833D01*
X1671774Y34205694D01*
X1555315Y34209144D01*
X1516334Y34245603D01*
X1516334Y34245644D01*
X1529029Y34297489D01*
X1565036Y34419803D01*
X1621236Y34602622D01*
X1694512Y34835980D01*
X1781745Y35109910D01*
X1875530Y35401142D01*
X2207815Y35401142D01*
X2210657Y35370641D01*
X2257090Y35352139D01*
X2360946Y35343020D01*
X2527804Y35340666D01*
X2686122Y35344274D01*
X2805620Y35353869D01*
X2866452Y35367612D01*
X2870295Y35372416D01*
X2857571Y35437381D01*
X2824731Y35555776D01*
X2777615Y35710061D01*
X2722065Y35882698D01*
X2663920Y36056145D01*
X2609021Y36212862D01*
X2563209Y36335311D01*
X2532324Y36405950D01*
X2522927Y36415625D01*
X2502770Y36361831D01*
X2464786Y36244761D01*
X2414685Y36082466D01*
X2366039Y35919725D01*
X2309673Y35730036D01*
X2260402Y35567080D01*
X2224077Y35450037D01*
X2207815Y35401142D01*
X1875530Y35401142D01*
X1879816Y35414449D01*
X1941744Y35605199D01*
X2367155Y36911665D01*
X2543806Y36898749D01*
G36*
X8120334Y36568333D02*
G01*
X7358334Y36568333D01*
X7358334Y34197666D01*
X7217222Y34197666D01*
X7112620Y34205411D01*
X7049801Y34224222D01*
X7047889Y34225889D01*
X7040472Y34274046D01*
X7033785Y34395665D01*
X7028094Y34579541D01*
X7023666Y34814469D01*
X7020769Y35089247D01*
X7019670Y35392668D01*
X7019667Y35409574D01*
X7019667Y36565037D01*
X6649250Y36577268D01*
X6278834Y36589500D01*
X6252302Y36864666D01*
X8120334Y36864666D01*
X8120334Y36568333D01*
X8120334Y36568333D01*
G37*
X8120334Y36568333D02*
X7358334Y36568333D01*
X7358334Y34197666D01*
X7217222Y34197666D01*
X7112620Y34205411D01*
X7049801Y34224222D01*
X7047889Y34225889D01*
X7040472Y34274046D01*
X7033785Y34395665D01*
X7028094Y34579541D01*
X7023666Y34814469D01*
X7020769Y35089247D01*
X7019670Y35392668D01*
X7019667Y35409574D01*
X7019667Y36565037D01*
X6649250Y36577268D01*
X6278834Y36589500D01*
X6252302Y36864666D01*
X8120334Y36864666D01*
X8120334Y36568333D01*
G36*
X12884877Y36862879D02*
G01*
X12911525Y36848269D01*
X12928584Y36813516D01*
X12935953Y36750370D01*
X12933531Y36650580D01*
X12921217Y36505897D01*
X12898909Y36308071D01*
X12866505Y36048851D01*
X12823906Y35719989D01*
X12785549Y35425333D01*
X12628834Y34218833D01*
X12293642Y34218833D01*
X12214968Y34472833D01*
X12171310Y34618460D01*
X12113563Y34817570D01*
X12049835Y35041944D01*
X11998318Y35226751D01*
X11860342Y35726668D01*
X11698031Y35099751D01*
X11638306Y34869537D01*
X11583202Y34658005D01*
X11537541Y34483600D01*
X11506144Y34364764D01*
X11498204Y34335250D01*
X11464601Y34245021D01*
X11410224Y34206210D01*
X11304113Y34197678D01*
X11296707Y34197666D01*
X11187359Y34205194D01*
X11133996Y34239439D01*
X11109201Y34314083D01*
X11097403Y34386332D01*
X11076249Y34530094D01*
X11047479Y34732948D01*
X11012837Y34982469D01*
X10974065Y35266237D01*
X10935514Y35552333D01*
X10894631Y35855522D01*
X10856398Y36134830D01*
X10822523Y36378127D01*
X10794709Y36573280D01*
X10774665Y36708158D01*
X10764370Y36769416D01*
X10759790Y36831328D01*
X10796846Y36858425D01*
X10896243Y36864652D01*
X10905804Y36864666D01*
X11068220Y36864666D01*
X11182460Y35901583D01*
X11216060Y35614607D01*
X11246645Y35346361D01*
X11272608Y35111516D01*
X11292338Y34924745D01*
X11304228Y34800719D01*
X11306600Y34769166D01*
X11314046Y34722605D01*
X11329819Y34726896D01*
X11356312Y34788612D01*
X11395917Y34914324D01*
X11451027Y35110604D01*
X11507000Y35319500D01*
X11697500Y36039166D01*
X12032616Y36039166D01*
X12224558Y35320539D01*
X12416501Y34601911D01*
X12485613Y35235872D01*
X12515823Y35514049D01*
X12548319Y35815026D01*
X12579383Y36104274D01*
X12605298Y36347265D01*
X12607416Y36367250D01*
X12660108Y36864666D01*
X12803221Y36864666D01*
X12848742Y36865595D01*
X12884877Y36862879D01*
X12884877Y36862879D01*
G37*
X12884877Y36862879D02*
X12911525Y36848269D01*
X12928584Y36813516D01*
X12935953Y36750370D01*
X12933531Y36650580D01*
X12921217Y36505897D01*
X12898909Y36308071D01*
X12866505Y36048851D01*
X12823906Y35719989D01*
X12785549Y35425333D01*
X12628834Y34218833D01*
X12293642Y34218833D01*
X12214968Y34472833D01*
X12171310Y34618460D01*
X12113563Y34817570D01*
X12049835Y35041944D01*
X11998318Y35226751D01*
X11860342Y35726668D01*
X11698031Y35099751D01*
X11638306Y34869537D01*
X11583202Y34658005D01*
X11537541Y34483600D01*
X11506144Y34364764D01*
X11498204Y34335250D01*
X11464601Y34245021D01*
X11410224Y34206210D01*
X11304113Y34197678D01*
X11296707Y34197666D01*
X11187359Y34205194D01*
X11133996Y34239439D01*
X11109201Y34314083D01*
X11097403Y34386332D01*
X11076249Y34530094D01*
X11047479Y34732948D01*
X11012837Y34982469D01*
X10974065Y35266237D01*
X10935514Y35552333D01*
X10894631Y35855522D01*
X10856398Y36134830D01*
X10822523Y36378127D01*
X10794709Y36573280D01*
X10774665Y36708158D01*
X10764370Y36769416D01*
X10759790Y36831328D01*
X10796846Y36858425D01*
X10896243Y36864652D01*
X10905804Y36864666D01*
X11068220Y36864666D01*
X11182460Y35901583D01*
X11216060Y35614607D01*
X11246645Y35346361D01*
X11272608Y35111516D01*
X11292338Y34924745D01*
X11304228Y34800719D01*
X11306600Y34769166D01*
X11314046Y34722605D01*
X11329819Y34726896D01*
X11356312Y34788612D01*
X11395917Y34914324D01*
X11451027Y35110604D01*
X11507000Y35319500D01*
X11697500Y36039166D01*
X12032616Y36039166D01*
X12224558Y35320539D01*
X12416501Y34601911D01*
X12485613Y35235872D01*
X12515823Y35514049D01*
X12548319Y35815026D01*
X12579383Y36104274D01*
X12605298Y36347265D01*
X12607416Y36367250D01*
X12660108Y36864666D01*
X12803221Y36864666D01*
X12848742Y36865595D01*
X12884877Y36862879D01*
G36*
X17349000Y36568333D02*
G01*
X16163667Y36568333D01*
X16163667Y35764000D01*
X17306667Y35764000D01*
X17306667Y35467666D01*
X16160894Y35467666D01*
X16184834Y34515166D01*
X16766917Y34503389D01*
X17349000Y34491611D01*
X17349000Y34197666D01*
X16615222Y34197666D01*
X16374095Y34199220D01*
X16162978Y34203528D01*
X15996192Y34210060D01*
X15888055Y34218284D01*
X15853222Y34225889D01*
X15846229Y34273706D01*
X15839866Y34395686D01*
X15834357Y34581326D01*
X15829923Y34820123D01*
X15826788Y35101574D01*
X15825172Y35415175D01*
X15825000Y35559389D01*
X15825000Y36864666D01*
X17349000Y36864666D01*
X17349000Y36568333D01*
X17349000Y36568333D01*
G37*
X17349000Y36568333D02*
X16163667Y36568333D01*
X16163667Y35764000D01*
X17306667Y35764000D01*
X17306667Y35467666D01*
X16160894Y35467666D01*
X16184834Y34515166D01*
X16766917Y34503389D01*
X17349000Y34491611D01*
X17349000Y34197666D01*
X16615222Y34197666D01*
X16374095Y34199220D01*
X16162978Y34203528D01*
X15996192Y34210060D01*
X15888055Y34218284D01*
X15853222Y34225889D01*
X15846229Y34273706D01*
X15839866Y34395686D01*
X15834357Y34581326D01*
X15829923Y34820123D01*
X15826788Y35101574D01*
X15825172Y35415175D01*
X15825000Y35559389D01*
X15825000Y36864666D01*
X17349000Y36864666D01*
X17349000Y36568333D01*
G36*
X21062509Y36261416D02*
G01*
X21185730Y36002063D01*
X21320363Y35720523D01*
X21451515Y35447833D01*
X21564294Y35215033D01*
X21581837Y35179058D01*
X21815784Y34699949D01*
X21800219Y35782308D01*
X21784654Y36864666D01*
X22133873Y36864666D01*
X22122687Y35541750D01*
X22111500Y34218833D01*
X21938506Y34206154D01*
X21804930Y34211096D01*
X21725395Y34244910D01*
X21722303Y34248487D01*
X21693261Y34300329D01*
X21633605Y34418171D01*
X21548550Y34591303D01*
X21443313Y34809015D01*
X21323112Y35060596D01*
X21200619Y35319500D01*
X21072125Y35591500D01*
X20954796Y35838245D01*
X20853623Y36049375D01*
X20773594Y36214528D01*
X20719697Y36323342D01*
X20697156Y36365201D01*
X20690969Y36332915D01*
X20686374Y36226702D01*
X20683481Y36057285D01*
X20682406Y35835392D01*
X20683260Y35571746D01*
X20685912Y35296284D01*
X20699657Y34197666D01*
X20397000Y34197666D01*
X20397000Y36864666D01*
X20777127Y36864666D01*
X21062509Y36261416D01*
X21062509Y36261416D01*
G37*
X21062509Y36261416D02*
X21185730Y36002063D01*
X21320363Y35720523D01*
X21451515Y35447833D01*
X21564294Y35215033D01*
X21581837Y35179058D01*
X21815784Y34699949D01*
X21800219Y35782308D01*
X21784654Y36864666D01*
X22133873Y36864666D01*
X22122687Y35541750D01*
X22111500Y34218833D01*
X21938506Y34206154D01*
X21804930Y34211096D01*
X21725395Y34244910D01*
X21722303Y34248487D01*
X21693261Y34300329D01*
X21633605Y34418171D01*
X21548550Y34591303D01*
X21443313Y34809015D01*
X21323112Y35060596D01*
X21200619Y35319500D01*
X21072125Y35591500D01*
X20954796Y35838245D01*
X20853623Y36049375D01*
X20773594Y36214528D01*
X20719697Y36323342D01*
X20697156Y36365201D01*
X20690969Y36332915D01*
X20686374Y36226702D01*
X20683481Y36057285D01*
X20682406Y35835392D01*
X20683260Y35571746D01*
X20685912Y35296284D01*
X20699657Y34197666D01*
X20397000Y34197666D01*
X20397000Y36864666D01*
X20777127Y36864666D01*
X21062509Y36261416D01*
G36*
X26874000Y36568333D02*
G01*
X26112000Y36568333D01*
X26112000Y34197666D01*
X25773334Y34197666D01*
X25773334Y36568333D01*
X25011334Y36568333D01*
X25011334Y36864666D01*
X26874000Y36864666D01*
X26874000Y36568333D01*
X26874000Y36568333D01*
G37*
X26874000Y36568333D02*
X26112000Y36568333D01*
X26112000Y34197666D01*
X25773334Y34197666D01*
X25773334Y36568333D01*
X25011334Y36568333D01*
X25011334Y36864666D01*
X26874000Y36864666D01*
X26874000Y36568333D01*
G36*
X31505705Y36409583D02*
G01*
X31387951Y36190146D01*
X31262556Y35957942D01*
X31146986Y35745250D01*
X31080326Y35623512D01*
X30898153Y35292524D01*
X30886327Y34755679D01*
X30874500Y34218833D01*
X30715750Y34205694D01*
X30557000Y34192556D01*
X30557000Y35208297D01*
X30128935Y36004732D01*
X30001424Y36241816D01*
X29887259Y36453789D01*
X29792586Y36629262D01*
X29723551Y36756849D01*
X29686301Y36825163D01*
X29681937Y36832916D01*
X29707497Y36851862D01*
X29794034Y36862786D01*
X29845418Y36863897D01*
X30027834Y36863128D01*
X30718088Y35535100D01*
X31049661Y36199883D01*
X31381233Y36864666D01*
X31748913Y36864666D01*
X31505705Y36409583D01*
X31505705Y36409583D01*
G37*
X31505705Y36409583D02*
X31387951Y36190146D01*
X31262556Y35957942D01*
X31146986Y35745250D01*
X31080326Y35623512D01*
X30898153Y35292524D01*
X30886327Y34755679D01*
X30874500Y34218833D01*
X30715750Y34205694D01*
X30557000Y34192556D01*
X30557000Y35208297D01*
X30128935Y36004732D01*
X30001424Y36241816D01*
X29887259Y36453789D01*
X29792586Y36629262D01*
X29723551Y36756849D01*
X29686301Y36825163D01*
X29681937Y36832916D01*
X29707497Y36851862D01*
X29794034Y36862786D01*
X29845418Y36863897D01*
X30027834Y36863128D01*
X30718088Y35535100D01*
X31049661Y36199883D01*
X31381233Y36864666D01*
X31748913Y36864666D01*
X31505705Y36409583D01*
G36*
X36419902Y36859428D02*
G01*
X36467156Y36838744D01*
X36466655Y36793652D01*
X36465697Y36790583D01*
X36446807Y36733172D01*
X36404585Y36605864D01*
X36342497Y36419078D01*
X36264010Y36183232D01*
X36172589Y35908744D01*
X36071701Y35606031D01*
X36025566Y35467666D01*
X35609109Y34218833D01*
X35457654Y34205929D01*
X35349675Y34209380D01*
X35281683Y34234652D01*
X35276930Y34240384D01*
X35256566Y34291181D01*
X35214000Y34409981D01*
X35153190Y34584944D01*
X35078096Y34804229D01*
X34992677Y35055998D01*
X34900894Y35328410D01*
X34806707Y35609626D01*
X34714074Y35887805D01*
X34626955Y36151108D01*
X34549311Y36387695D01*
X34485101Y36585727D01*
X34438285Y36733363D01*
X34412822Y36818764D01*
X34409334Y36834557D01*
X34446757Y36853369D01*
X34540583Y36858639D01*
X34583263Y36856517D01*
X34757192Y36843500D01*
X35047736Y35912166D01*
X35134181Y35633489D01*
X35214728Y35370868D01*
X35284991Y35138837D01*
X35340584Y34951930D01*
X35377121Y34824680D01*
X35386206Y34790639D01*
X35434132Y34600445D01*
X35570745Y35065806D01*
X35633979Y35278300D01*
X35713859Y35542428D01*
X35801520Y35829092D01*
X35888093Y36109192D01*
X35915595Y36197412D01*
X36123834Y36863658D01*
X36306603Y36864162D01*
X36419902Y36859428D01*
X36419902Y36859428D01*
G37*
X36419902Y36859428D02*
X36467156Y36838744D01*
X36466655Y36793652D01*
X36465697Y36790583D01*
X36446807Y36733172D01*
X36404585Y36605864D01*
X36342497Y36419078D01*
X36264010Y36183232D01*
X36172589Y35908744D01*
X36071701Y35606031D01*
X36025566Y35467666D01*
X35609109Y34218833D01*
X35457654Y34205929D01*
X35349675Y34209380D01*
X35281683Y34234652D01*
X35276930Y34240384D01*
X35256566Y34291181D01*
X35214000Y34409981D01*
X35153190Y34584944D01*
X35078096Y34804229D01*
X34992677Y35055998D01*
X34900894Y35328410D01*
X34806707Y35609626D01*
X34714074Y35887805D01*
X34626955Y36151108D01*
X34549311Y36387695D01*
X34485101Y36585727D01*
X34438285Y36733363D01*
X34412822Y36818764D01*
X34409334Y36834557D01*
X34446757Y36853369D01*
X34540583Y36858639D01*
X34583263Y36856517D01*
X34757192Y36843500D01*
X35047736Y35912166D01*
X35134181Y35633489D01*
X35214728Y35370868D01*
X35284991Y35138837D01*
X35340584Y34951930D01*
X35377121Y34824680D01*
X35386206Y34790639D01*
X35434132Y34600445D01*
X35570745Y35065806D01*
X35633979Y35278300D01*
X35713859Y35542428D01*
X35801520Y35829092D01*
X35888093Y36109192D01*
X35915595Y36197412D01*
X36123834Y36863658D01*
X36306603Y36864162D01*
X36419902Y36859428D01*
M02*
